<svg version="1.2" xmlns="http://www.w3.org/2000/svg" viewBox="0 0 612 612" width="612" height="612">
	<title>access_dys-svg</title>
	<style>
		.s0 { fill: #ffffff;stroke: #0f615d;stroke-width: 20 } 
		.s1 { fill: #0f615d } 
		.s2 { fill: #f9ac34;stroke: #0f615d;stroke-width: 20 } 
		.s3 { fill: #ee4958;stroke: #0f615d;stroke-width: 20 } 
	</style>
	<g id="Layer">
		<path id="Shape 1" class="s0" d="m306 461c-85.2 0-154-69.5-154-155.5 0-86 68.8-155.5 154-155.5 85.2 0 154 69.5 154 155.5 0 86-68.8 155.5-154 155.5z"/>
		<path id="Layer" class="s1" d="m243 219.8c1.4 1.2 4.1 3.3 6 4.4 1.9 1.2 3.9 2.8 4.3 3.5 0.4 0.7 1.2 1.3 1.7 1.3 0.5 0 2.4 1.3 4.2 3 1.8 1.6 3.6 3 4 3 0.4 0 2.2 1.3 4 3 1.8 1.6 3.8 3 4.4 3 0.7 0 1.4 0.4 1.6 0.9 0.4 1.2 13.6 11.1 14.8 11.1 0.4 0 1 0.4 1.2 1 0.2 0.5 2.7 1.9 5.6 2.9 11.1 4.1 25.1 1.3 33.9-6.8 1.7-1.6 3.4-2.7 3.7-2.4 0.2 0.3 1.1-0.4 1.8-1.6 0.7-1.2 1.7-2.1 2.3-2.1 0.5 0 2.4-1.4 4.2-3 1.8-1.7 3.5-3 3.8-3 0.6 0 13.7-9.8 14.5-10.9 0.3-0.4 2.2-1.7 4.3-3 2-1.2 3.7-2.7 3.7-3.2 0-0.5 0.5-0.9 1.1-0.9 0.6 0 2.6-1.2 4.6-2.7 2.5-2 4.9-2.8 8.4-2.9 3-0.2 4.9 0.2 4.9 0.8 0 0.6 0.3 0.9 0.6 0.5 0.3-0.3 1.8 0.8 3.2 2.5 3.7 4.4 4 12.1 0.7 16-1.3 1.5-2.5 2.4-2.8 2.1-0.3-0.3-1.2 0.4-1.9 1.6-0.7 1.2-1.7 2.1-2.3 2.1-0.6 0-2.5 1.3-4.2 2.9-1.7 1.5-3.8 3.1-4.7 3.4-0.9 0.4-1.6 1.1-1.6 1.7 0 0.5-0.7 1-1.5 1-0.9 0-1.8 0.7-2.1 1.5-0.4 0.8-1.1 1.5-1.8 1.5-0.6 0-2.9 1.6-5.1 3.5-5.2 4.5-5.5 4.7-9 6.9-1.6 1-3.7 2.5-4.5 3.2-0.8 0.8-3.7 3-6.4 5-2.8 2-5.5 4.1-6 4.5-0.6 0.5-2.1 1.7-3.3 2.7-2.2 1.7-2.3 2.2-2.4 21.2v19.5l6.1 13c9.4 19.8 17.6 36.9 23.1 48.2 2.7 5.7 4.9 10.5 4.9 10.8 0 0.3 1.1 2.7 2.4 5.3 2.8 5.6 3.5 10.8 1.8 13.9-0.7 1.3-1 2.3-0.6 2.3 0.9 0-3.6 3.4-6.6 5-3 1.6-10.1 1.4-11.2-0.3-0.4-0.7-0.8-0.8-0.8-0.4 0 0.5-1.1-0.4-2.4-2-2.5-3-7.1-11.4-6.8-12.5 0.1-0.3-0.5-1.2-1.3-1.8-0.8-0.7-1.5-1.8-1.5-2.5 0-0.8-3.5-8.7-7.8-17.7-4.3-9-7.9-16.6-8.1-17-0.1-0.4-2-4.4-4.2-8.8-2.1-4.4-3.9-8.5-3.9-9 0-0.6-0.4-1-0.9-1-0.5 0-1.2-1.1-1.5-2.4-0.6-2.5-4.2-4.1-7.1-3-1.7 0.7-8.5 13.3-8.5 15.9 0 0.8-0.5 1.5-1.1 1.5-0.5 0-0.7 0.4-0.4 1 0.3 0.5 0.1 1-0.4 1-0.6 0-1.1 0.4-1.1 1 0 0.5-2 5-4.4 10-2.5 5-4.5 9.3-4.5 9.5-0.1 0.3-1.6 3.6-3.5 7.4-1.9 3.8-3.2 7.1-2.9 7.5 0.4 0.3 0.1 0.6-0.6 0.6-0.7 0-0.9 0.4-0.6 1 0.3 0.5 0.1 1-0.4 1-0.6 0-1 0.3-0.9 0.7 0.1 0.5-1.6 4.5-3.8 9-3.4 7.2-4.4 8.5-8.4 10.5-6.9 3.6-12.8 2.2-17-3.9-3.5-5.1-3.1-10 1.4-19.3 2-4.1 3.6-8 3.6-8.6 0-0.7 0.3-1.4 0.8-1.6 1-0.4 6.8-12.9 6.5-14-0.2-0.4 0.2-0.8 0.7-0.8 0.5 0 0.9-0.3 0.8-0.8-0.1-0.4 1.9-4.8 4.5-9.8 2.5-5.1 4.3-9.4 4-9.8-0.4-0.3-0.1-0.6 0.5-0.6 0.7 0 1.1-0.3 1-0.8-0.1-0.4 2.8-6.8 6.5-14.2l6.5-13.5 0.1-19 0.1-19-7.2-5.3c-4-2.9-7.9-5.7-8.7-6.4-3.5-2.9-10.2-7.8-10.7-7.8-0.3 0-1.9-1.3-3.7-3-1.8-1.6-3.7-3-4.4-3-0.6 0-1.3-0.4-1.5-0.8-0.4-1-13.5-11.2-14.3-11.2-0.3 0-2-1.4-3.8-3-1.8-1.7-3.9-3.2-4.9-3.5-1.9-0.7-4.7-6.2-4.9-9.7-0.3-4.4 4-11.1 7.7-12.1 5.5-1.4 11.4 0.4 16.4 5.1z"/>
		<path id="Layer" class="s1" d="m316.2 203.9c19.2 8.2 19 36.8-0.4 45.1-14.4 6.2-30.8-2.5-33.9-18.1-2.4-12.1 4.8-24.2 16.6-28 4.2-1.4 13.4-0.9 17.7 1z"/>
		<path id="Shape 2" class="s2" d="m103.6 496.3c0 0 5.2-39.3 26.6-66.4 16.5-20.8 43.4-33.9 43.4-33.9l39.4 50.9c0 0-16.5 20.4-37.6 32-31.5 17.4-71.8 17.4-71.8 17.4z"/>
		<path id="Shape 2 copy" class="s3" d="m49 434.5c0 0 25.5-42.3 63.9-63.2 17.5-9.6 39-12.4 39-12.4 0 0 9 7.9 14.8 17.8 2.6 4.6 1.8 5.1 4.3 9.8 12.7 23.7 28.8 45.7 28.8 45.7 0 0-29.2 15.2-59.2 18.1-45 4.3-91.6-15.8-91.6-15.8z"/>
	</g>
</svg>