<svg width="121" height="128" viewBox="0 0 121 128" fill="none" xmlns="http://www.w3.org/2000/svg">
<path fill-rule="evenodd" clip-rule="evenodd" d="M40.0209 88.2949C40.0209 88.2949 47.2561 113.032 52.5041 116.261C57.7517 119.493 53.8847 125.801 49.2252 126.915C44.5647 128.031 36.1333 126.461 34.1916 120.195C32.251 113.93 29.706 91.8826 29.706 91.8826L40.0209 88.2949Z" fill="#90D2EA"/>
<path fill-rule="evenodd" clip-rule="evenodd" d="M47.1066 127.217C31.3745 122.585 32.9331 95.2894 32.9331 95.2894L30.0198 94.4995C30.7574 100.526 32.6626 115.258 34.1916 120.195C35.8644 125.595 42.3594 127.506 47.1066 127.217Z" fill="#7AC8DD"/>
<path fill-rule="evenodd" clip-rule="evenodd" d="M11.6038 64.6445C11.6038 64.6445 -2.54694 69.6393 1.2524 84.8793C5.05227 100.12 20.8165 96.2542 20.8165 96.2542C20.8165 96.2542 12.26 65.2809 11.6038 64.6445Z" fill="#90D2EA"/>
<path fill-rule="evenodd" clip-rule="evenodd" d="M20.8171 96.2544C20.8171 96.2544 19.9479 93.1104 18.7438 88.8081C16.9343 89.8039 6.15123 94.868 0.762616 77.6433C0.474668 79.7482 0.571355 82.1463 1.25292 84.8795C5.05279 100.12 20.8171 96.2544 20.8171 96.2544Z" fill="#7AC8DD"/>
<path fill-rule="evenodd" clip-rule="evenodd" d="M85.1813 5.3877C85.1232 5.4491 85.0471 5.46499 84.9917 5.53539C76.6464 15.6065 46.3579 63.2275 46.3579 63.2275L51.6678 85.5094C88.2669 107.168 106.22 114.87 111.788 117.035L85.1813 5.3877Z" fill="#90D2EA"/>
<path fill-rule="evenodd" clip-rule="evenodd" d="M93.1388 40.3162C93.1388 40.3162 102.22 97.2539 99.4884 101.173C96.7569 105.09 50.3025 79.7825 50.3025 79.7825L51.6678 85.5094C88.1359 107.09 106.087 114.812 111.724 117.01L93.1388 40.3162Z" fill="#7AC8DD"/>
<path fill-rule="evenodd" clip-rule="evenodd" d="M52.5628 55.878C52.5628 55.878 61.1368 87.1992 58.8971 89.0828C56.6601 90.9642 26.1016 99.4101 20.3363 97.7616C14.5704 96.1141 7.83454 66.434 10.9486 64.0078C14.0648 61.5801 51.9488 53.589 52.5628 55.878Z" fill="#EF5F3C"/>
<path fill-rule="evenodd" clip-rule="evenodd" d="M89.9734 0.979004C89.9734 0.979004 80.9984 1.48192 83.8367 7.45764C86.675 13.4328 106.397 116.825 110.176 118.614C113.955 120.402 119.121 121.407 120.55 116.132C121.979 110.857 105.533 8.02356 89.9734 0.979004Z" fill="#EF5F3C"/>
</svg>
