<svg xmlns="http://www.w3.org/2000/svg" viewBox="0 0 100 100" xmlns:v="https://vecta.io/nano"><path d="M77.34,79.84V77.4H74.9L72.37,75h0V52.4l2.43-2.19h2.64V45.13L47.61,35.19,17.68,45v5.17h2.54l2.53,2.33V74.87L20.22,77.4H17.78v2.44H15.14v5.07H79.88V79.84Zm-34.8-27.3,2.53-2.28h5l2.43,2.28h.1V74.87L50.05,77.4h-5L42.54,75ZM65,77.4H60l-2.54-2.53V52.54L60,50l5,.1,2.44,2.43h.1V75ZM27.62,52.54,30.16,50h5l2.54,2.53V74.87L35.13,77.4h-5l-2.54-2.53Z" fill="#ffa300"/><path d="M59.89 15.26L35.03 25.2v5.07L40 35.14v14.12l-4.99 5.79 49.84.08-4.88-5.07V35.24l4.78-4.97V25.2l-24.86-9.94z" fill="#0a763a"/><path d="M74.81 50.2h2.63v-5.07l-29.83-9.94-7.61 2.5v11.57l-2.6 3.02.26.26v2.52h4.88v-2.52l2.53-2.28h4.98l2.43 2.28h.1v2.54l4.87.01v-2.55l2.54-2.53 4.97.1 2.44 2.43h.1v2.56l4.87.01V52.4l2.44-2.2z" fill="#084800"/></svg>