<svg width="1307.2" height="96" viewBox="0 0 1307.2 96" xmlns="http://www.w3.org/2000/svg"><g id="svgGroup" stroke-linecap="round" fill-rule="evenodd" font-size="9pt" stroke="#000" stroke-width="0.25mm" fill="#F25435" style="stroke:#000;stroke-width:0.25mm;fill:#F25435"><path d="M 146.8 74 L 136.9 74 L 120.5 24.4 L 128.8 21.5 L 142.2 63.8 L 154.4 25.7 L 164.1 25.7 L 176 63.8 L 189.3 21.5 L 197.3 24.4 L 180.8 74 L 170.9 74 L 158.9 35.3 L 146.8 74 Z M 1256.7 74 L 1246.8 74 L 1230.4 24.4 L 1238.7 21.5 L 1252.1 63.8 L 1264.3 25.7 L 1274 25.7 L 1285.9 63.8 L 1299.2 21.5 L 1307.2 24.4 L 1290.7 74 L 1280.8 74 L 1268.8 35.3 L 1256.7 74 Z M 216.8 74 L 207.8 74 L 207.8 22 L 216.5 22 L 216.5 30.7 Q 219.3 26.5 223.65 23.65 A 17.316 17.316 0 0 1 230.756 21.025 A 22.629 22.629 0 0 1 234 20.8 A 23.225 23.225 0 0 1 239.065 21.318 Q 244.159 22.456 247.15 26.1 Q 251.275 31.126 251.488 39.209 A 33.764 33.764 0 0 1 251.5 40.1 L 251.5 74 L 242.5 74 L 242.5 41.1 A 19.265 19.265 0 0 0 242.158 37.359 Q 241.719 35.145 240.719 33.397 A 10.966 10.966 0 0 0 239.85 32.1 A 8.579 8.579 0 0 0 233.573 28.747 A 12.061 12.061 0 0 0 232.5 28.7 A 13.122 13.122 0 0 0 225.651 30.664 A 17.353 17.353 0 0 0 223.8 31.95 Q 219.7 35.2 216.8 39.6 L 216.8 74 Z M 582.6 74 L 573.6 74 L 573.6 22 L 582.3 22 L 582.3 30.7 Q 585.1 26.5 589.45 23.65 A 17.316 17.316 0 0 1 596.556 21.025 A 22.629 22.629 0 0 1 599.8 20.8 A 23.225 23.225 0 0 1 604.865 21.318 Q 609.959 22.456 612.95 26.1 Q 617.075 31.126 617.288 39.209 A 33.764 33.764 0 0 1 617.3 40.1 L 617.3 74 L 608.3 74 L 608.3 41.1 A 19.265 19.265 0 0 0 607.958 37.359 Q 607.519 35.145 606.519 33.397 A 10.966 10.966 0 0 0 605.65 32.1 A 8.579 8.579 0 0 0 599.373 28.747 A 12.061 12.061 0 0 0 598.3 28.7 A 13.122 13.122 0 0 0 591.451 30.664 A 17.353 17.353 0 0 0 589.6 31.95 Q 585.5 35.2 582.6 39.6 L 582.6 74 Z M 1126.9 74 L 1117.9 74 L 1117.9 22 L 1126.6 22 L 1126.6 30.7 Q 1129.4 26.5 1133.75 23.65 A 17.316 17.316 0 0 1 1140.856 21.025 A 22.629 22.629 0 0 1 1144.1 20.8 A 23.225 23.225 0 0 1 1149.165 21.318 Q 1154.259 22.456 1157.25 26.1 Q 1161.375 31.126 1161.588 39.209 A 33.764 33.764 0 0 1 1161.6 40.1 L 1161.6 74 L 1152.6 74 L 1152.6 41.1 A 19.265 19.265 0 0 0 1152.258 37.359 Q 1151.819 35.145 1150.819 33.397 A 10.966 10.966 0 0 0 1149.95 32.1 A 8.579 8.579 0 0 0 1143.673 28.747 A 12.061 12.061 0 0 0 1142.6 28.7 A 13.122 13.122 0 0 0 1135.751 30.664 A 17.353 17.353 0 0 0 1133.9 31.95 Q 1129.8 35.2 1126.9 39.6 L 1126.9 74 Z M 455 27.2 L 455 0 L 464 0 L 464 61.4 A 12.15 12.15 0 0 0 464.102 63.036 Q 464.434 65.47 465.85 66.35 Q 467.7 67.5 469.9 67.5 L 468 74.5 Q 458.5 74.5 456.4 66.9 Q 454.2 70 450.25 72.6 Q 446.3 75.2 440.3 75.2 Q 433.9 75.2 428.6 71.9 A 22.692 22.692 0 0 1 421.062 64.109 A 27.622 27.622 0 0 1 420.2 62.55 A 27.533 27.533 0 0 1 417.612 54.608 A 37.221 37.221 0 0 1 417.1 48.3 A 33.94 33.94 0 0 1 417.989 40.386 A 27.963 27.963 0 0 1 420.25 34.2 A 27.291 27.291 0 0 1 424.869 27.609 A 24.186 24.186 0 0 1 428.65 24.4 Q 433.9 20.8 440.2 20.8 A 21.642 21.642 0 0 1 444.472 21.202 A 15.942 15.942 0 0 1 449.15 22.9 A 34.343 34.343 0 0 1 451.73 24.489 Q 452.954 25.324 453.925 26.174 A 16.59 16.59 0 0 1 455 27.2 Z M 667.2 27.2 L 667.2 0 L 676.2 0 L 676.2 61.4 A 12.15 12.15 0 0 0 676.302 63.036 Q 676.634 65.47 678.05 66.35 Q 679.9 67.5 682.1 67.5 L 680.2 74.5 Q 670.7 74.5 668.6 66.9 Q 666.4 70 662.45 72.6 Q 658.5 75.2 652.5 75.2 Q 646.1 75.2 640.8 71.9 A 22.692 22.692 0 0 1 633.262 64.109 A 27.622 27.622 0 0 1 632.4 62.55 A 27.533 27.533 0 0 1 629.812 54.608 A 37.221 37.221 0 0 1 629.3 48.3 A 33.94 33.94 0 0 1 630.189 40.386 A 27.963 27.963 0 0 1 632.45 34.2 A 27.291 27.291 0 0 1 637.069 27.609 A 24.186 24.186 0 0 1 640.85 24.4 Q 646.1 20.8 652.4 20.8 A 21.642 21.642 0 0 1 656.672 21.202 A 15.942 15.942 0 0 1 661.35 22.9 A 34.343 34.343 0 0 1 663.93 24.489 Q 665.154 25.324 666.125 26.174 A 16.59 16.59 0 0 1 667.2 27.2 Z M 850.2 27.2 L 850.2 0 L 859.2 0 L 859.2 61.4 A 12.15 12.15 0 0 0 859.302 63.036 Q 859.634 65.47 861.05 66.35 Q 862.9 67.5 865.1 67.5 L 863.2 74.5 Q 853.7 74.5 851.6 66.9 Q 849.4 70 845.45 72.6 Q 841.5 75.2 835.5 75.2 Q 829.1 75.2 823.8 71.9 A 22.692 22.692 0 0 1 816.262 64.109 A 27.622 27.622 0 0 1 815.4 62.55 A 27.533 27.533 0 0 1 812.812 54.608 A 37.221 37.221 0 0 1 812.3 48.3 A 33.94 33.94 0 0 1 813.189 40.386 A 27.963 27.963 0 0 1 815.45 34.2 A 27.291 27.291 0 0 1 820.069 27.609 A 24.186 24.186 0 0 1 823.85 24.4 Q 829.1 20.8 835.4 20.8 A 21.642 21.642 0 0 1 839.672 21.202 A 15.942 15.942 0 0 1 844.35 22.9 A 34.343 34.343 0 0 1 846.93 24.489 Q 848.154 25.324 849.125 26.174 A 16.59 16.59 0 0 1 850.2 27.2 Z M 978.2 96 L 969.2 96 L 969.2 35.3 A 11.015 11.015 0 0 0 969.073 33.564 Q 968.742 31.498 967.55 30.45 A 5.718 5.718 0 0 0 964.76 29.128 A 7.991 7.991 0 0 0 963.3 29 L 965.2 22 Q 971.062 22 974.122 24.964 A 10.15 10.15 0 0 1 976.7 29.3 Q 977.655 27.867 979.752 25.977 A 38.58 38.58 0 0 1 979.95 25.8 A 18.902 18.902 0 0 1 982.651 23.816 A 25.569 25.569 0 0 1 985.55 22.3 A 16.955 16.955 0 0 1 990.109 21.011 A 21.886 21.886 0 0 1 993.2 20.8 Q 999.2 20.8 1004.45 23.95 A 22.329 22.329 0 0 1 1011.628 30.917 A 27.464 27.464 0 0 1 1012.9 33.05 Q 1016.1 39 1016.1 47.5 Q 1016.1 55.8 1012.9 62.05 A 27.846 27.846 0 0 1 1008.966 67.882 A 23.029 23.029 0 0 1 1004.55 71.75 Q 999.4 75.2 993.4 75.2 Q 988.8 75.2 984.8 73.35 A 30.352 30.352 0 0 1 981.384 71.511 Q 979.591 70.384 978.2 69.1 L 978.2 96 Z M 1037.5 96 L 1028.5 96 L 1028.5 35.3 A 11.015 11.015 0 0 0 1028.373 33.564 Q 1028.042 31.498 1026.85 30.45 A 5.718 5.718 0 0 0 1024.06 29.128 A 7.991 7.991 0 0 0 1022.6 29 L 1024.5 22 Q 1030.362 22 1033.422 24.964 A 10.15 10.15 0 0 1 1036 29.3 Q 1036.955 27.867 1039.052 25.977 A 38.58 38.58 0 0 1 1039.25 25.8 A 18.902 18.902 0 0 1 1041.951 23.816 A 25.569 25.569 0 0 1 1044.85 22.3 A 16.955 16.955 0 0 1 1049.409 21.011 A 21.886 21.886 0 0 1 1052.5 20.8 Q 1058.5 20.8 1063.75 23.95 A 22.329 22.329 0 0 1 1070.928 30.917 A 27.464 27.464 0 0 1 1072.2 33.05 Q 1075.4 39 1075.4 47.5 Q 1075.4 55.8 1072.2 62.05 A 27.846 27.846 0 0 1 1068.266 67.882 A 23.029 23.029 0 0 1 1063.85 71.75 Q 1058.7 75.2 1052.7 75.2 Q 1048.1 75.2 1044.1 73.35 A 30.352 30.352 0 0 1 1040.684 71.511 Q 1038.891 70.384 1037.5 69.1 L 1037.5 96 Z M 0 73.8 L 0 4.2 Q 4.7 3.7 9.2 3.45 A 151.31 151.31 0 0 1 13.386 3.279 Q 16.238 3.2 19.5 3.2 A 48.608 48.608 0 0 1 26.844 3.726 Q 30.778 4.328 34.11 5.618 A 29.198 29.198 0 0 1 35.05 6 A 30.978 30.978 0 0 1 42.339 10.32 A 27.223 27.223 0 0 1 45.85 13.7 Q 50.1 18.6 52.15 25.05 A 44.256 44.256 0 0 1 54.122 36.046 A 51.506 51.506 0 0 1 54.2 38.9 A 45.309 45.309 0 0 1 52.719 50.597 A 41.802 41.802 0 0 1 52.1 52.7 Q 50 59.2 45.65 64.15 Q 41.3 69.1 34.55 71.95 Q 28.275 74.6 19.709 74.786 A 60.192 60.192 0 0 1 18.4 74.8 A 186.98 186.98 0 0 1 14.329 74.758 Q 12.315 74.714 10.522 74.624 A 101.5 101.5 0 0 1 8.45 74.5 Q 4.2 74.2 0 73.8 Z M 395.5 26.2 L 395.5 22 L 403.7 22 L 403.7 61.4 A 12.15 12.15 0 0 0 403.802 63.036 Q 404.134 65.47 405.55 66.35 Q 407.4 67.5 409.6 67.5 L 407.7 74.5 A 17.722 17.722 0 0 1 403.435 74.028 Q 397.798 72.628 396.203 67.08 A 13.59 13.59 0 0 1 396.1 66.7 A 21.307 21.307 0 0 1 392.99 70.126 A 28.498 28.498 0 0 1 389.85 72.55 Q 385.9 75.2 379.8 75.2 Q 373.3 75.2 368 71.9 A 22.947 22.947 0 0 1 360.587 64.373 A 27.923 27.923 0 0 1 359.55 62.55 A 27.228 27.228 0 0 1 356.92 54.608 A 36.644 36.644 0 0 1 356.4 48.3 A 33.142 33.142 0 0 1 357.397 40.031 A 27.968 27.968 0 0 1 359.55 34.3 Q 362.7 28.1 368.25 24.45 A 22.297 22.297 0 0 1 379.445 20.844 A 27.388 27.388 0 0 1 381 20.8 A 22.584 22.584 0 0 1 385.794 21.29 A 18.703 18.703 0 0 1 389.15 22.35 A 26.002 26.002 0 0 1 393.437 24.644 A 22.103 22.103 0 0 1 395.5 26.2 Z M 547.5 26.2 L 547.5 22 L 555.7 22 L 555.7 61.4 A 12.15 12.15 0 0 0 555.802 63.036 Q 556.134 65.47 557.55 66.35 Q 559.4 67.5 561.6 67.5 L 559.7 74.5 A 17.722 17.722 0 0 1 555.435 74.028 Q 549.798 72.628 548.203 67.08 A 13.59 13.59 0 0 1 548.1 66.7 A 21.307 21.307 0 0 1 544.99 70.126 A 28.498 28.498 0 0 1 541.85 72.55 Q 537.9 75.2 531.8 75.2 Q 525.3 75.2 520 71.9 A 22.947 22.947 0 0 1 512.587 64.373 A 27.923 27.923 0 0 1 511.55 62.55 A 27.228 27.228 0 0 1 508.92 54.608 A 36.644 36.644 0 0 1 508.4 48.3 A 33.142 33.142 0 0 1 509.397 40.031 A 27.968 27.968 0 0 1 511.55 34.3 Q 514.7 28.1 520.25 24.45 A 22.297 22.297 0 0 1 531.445 20.844 A 27.388 27.388 0 0 1 533 20.8 A 22.584 22.584 0 0 1 537.794 21.29 A 18.703 18.703 0 0 1 541.15 22.35 A 26.002 26.002 0 0 1 545.437 24.644 A 22.103 22.103 0 0 1 547.5 26.2 Z M 942.7 26.2 L 942.7 22 L 950.9 22 L 950.9 61.4 A 12.15 12.15 0 0 0 951.002 63.036 Q 951.334 65.47 952.75 66.35 Q 954.6 67.5 956.8 67.5 L 954.9 74.5 A 17.722 17.722 0 0 1 950.635 74.028 Q 944.998 72.628 943.403 67.08 A 13.59 13.59 0 0 1 943.3 66.7 A 21.307 21.307 0 0 1 940.19 70.126 A 28.498 28.498 0 0 1 937.05 72.55 Q 933.1 75.2 927 75.2 Q 920.5 75.2 915.2 71.9 A 22.947 22.947 0 0 1 907.787 64.373 A 27.923 27.923 0 0 1 906.75 62.55 A 27.228 27.228 0 0 1 904.12 54.608 A 36.644 36.644 0 0 1 903.6 48.3 A 33.142 33.142 0 0 1 904.597 40.031 A 27.968 27.968 0 0 1 906.75 34.3 Q 909.9 28.1 915.45 24.45 A 22.297 22.297 0 0 1 926.645 20.844 A 27.388 27.388 0 0 1 928.2 20.8 A 22.584 22.584 0 0 1 932.994 21.29 A 18.703 18.703 0 0 1 936.35 22.35 A 26.002 26.002 0 0 1 940.637 24.644 A 22.103 22.103 0 0 1 942.7 26.2 Z M 266.5 57.7 L 266.5 0 L 275.5 0 L 275.5 56.8 A 20.644 20.644 0 0 0 275.688 59.688 Q 276.15 62.952 277.75 64.8 A 7.363 7.363 0 0 0 282.334 67.276 A 10.724 10.724 0 0 0 284 67.4 Q 285.9 67.4 287.75 66.95 A 22.192 22.192 0 0 0 289.213 66.544 Q 290.148 66.247 290.9 65.9 L 293.1 73.2 Q 291.701 73.822 289.788 74.323 A 34.978 34.978 0 0 1 288.65 74.6 A 23.816 23.816 0 0 1 285.495 75.085 A 30.514 30.514 0 0 1 282.8 75.2 A 20.862 20.862 0 0 1 277.91 74.646 A 17.544 17.544 0 0 1 274.5 73.45 A 12.683 12.683 0 0 1 269.175 68.685 A 15.856 15.856 0 0 1 268.65 67.8 Q 266.916 64.654 266.58 60.012 A 32.105 32.105 0 0 1 266.5 57.7 Z M 703.1 74 L 694.1 74 L 694.1 22 L 702.8 22 L 702.8 33.3 Q 704.1 30 706.3 27.15 Q 708.5 24.3 711.8 22.55 A 14.817 14.817 0 0 1 716.48 21.026 A 19.459 19.459 0 0 1 719.5 20.8 Q 721 20.8 722.5 20.95 A 18.972 18.972 0 0 1 723.555 21.084 Q 724.055 21.162 724.482 21.262 A 8.817 8.817 0 0 1 725 21.4 L 722.3 30.7 A 9.763 9.763 0 0 0 720.155 30.088 Q 719.059 29.9 717.8 29.9 A 12.958 12.958 0 0 0 711.17 31.746 A 15.609 15.609 0 0 0 710.75 32 Q 707.422 34.086 705.278 38.442 A 22.927 22.927 0 0 0 705.25 38.5 Q 703.487 42.107 703.17 47.328 A 39.09 39.09 0 0 0 703.1 49.7 L 703.1 74 Z M 75.8 71.75 A 24.559 24.559 0 0 0 80.398 73.84 Q 84.453 75.2 89.1 75.2 Q 96.5 75.2 102.35 71.8 Q 108.2 68.4 111.6 62.25 A 26.255 26.255 0 0 0 114.253 55.109 A 34.184 34.184 0 0 0 115 47.8 A 34.542 34.542 0 0 0 114.515 41.891 A 25.795 25.795 0 0 0 111.55 33.45 Q 108.1 27.4 102.25 24.1 A 24.848 24.848 0 0 0 97.609 22.073 A 27.738 27.738 0 0 0 89.1 20.8 A 31.325 31.325 0 0 0 87.52 20.839 A 26.169 26.169 0 0 0 75.9 24.1 Q 70 27.4 66.6 33.5 A 26.023 26.023 0 0 0 63.851 41.09 A 35.006 35.006 0 0 0 63.2 48 A 34.82 34.82 0 0 0 63.465 52.354 A 27.451 27.451 0 0 0 66.55 62.15 Q 69.9 68.3 75.8 71.75 Z M 308.7 71.75 A 24.559 24.559 0 0 0 313.298 73.84 Q 317.353 75.2 322 75.2 Q 329.4 75.2 335.25 71.8 Q 341.1 68.4 344.5 62.25 A 26.255 26.255 0 0 0 347.153 55.109 A 34.184 34.184 0 0 0 347.9 47.8 A 34.542 34.542 0 0 0 347.415 41.891 A 25.795 25.795 0 0 0 344.45 33.45 Q 341 27.4 335.15 24.1 A 24.848 24.848 0 0 0 330.509 22.073 A 27.738 27.738 0 0 0 322 20.8 A 31.325 31.325 0 0 0 320.42 20.839 A 26.169 26.169 0 0 0 308.8 24.1 Q 302.9 27.4 299.5 33.5 A 26.023 26.023 0 0 0 296.751 41.09 A 35.006 35.006 0 0 0 296.1 48 A 34.82 34.82 0 0 0 296.365 52.354 A 27.451 27.451 0 0 0 299.45 62.15 Q 302.8 68.3 308.7 71.75 Z M 739.6 71.75 A 24.559 24.559 0 0 0 744.198 73.84 Q 748.253 75.2 752.9 75.2 Q 760.3 75.2 766.15 71.8 Q 772 68.4 775.4 62.25 A 26.255 26.255 0 0 0 778.053 55.109 A 34.184 34.184 0 0 0 778.8 47.8 A 34.542 34.542 0 0 0 778.315 41.891 A 25.795 25.795 0 0 0 775.35 33.45 Q 771.9 27.4 766.05 24.1 A 24.848 24.848 0 0 0 761.409 22.073 A 27.738 27.738 0 0 0 752.9 20.8 A 31.325 31.325 0 0 0 751.32 20.839 A 26.169 26.169 0 0 0 739.7 24.1 Q 733.8 27.4 730.4 33.5 A 26.023 26.023 0 0 0 727.651 41.09 A 35.006 35.006 0 0 0 727 48 A 34.82 34.82 0 0 0 727.265 52.354 A 27.451 27.451 0 0 0 730.35 62.15 Q 733.7 68.3 739.6 71.75 Z M 1185.7 71.75 A 24.559 24.559 0 0 0 1190.298 73.84 Q 1194.353 75.2 1199 75.2 Q 1206.4 75.2 1212.25 71.8 Q 1218.1 68.4 1221.5 62.25 A 26.255 26.255 0 0 0 1224.153 55.109 A 34.184 34.184 0 0 0 1224.9 47.8 A 34.542 34.542 0 0 0 1224.415 41.891 A 25.795 25.795 0 0 0 1221.45 33.45 Q 1218 27.4 1212.15 24.1 A 24.848 24.848 0 0 0 1207.509 22.073 A 27.738 27.738 0 0 0 1199 20.8 A 31.325 31.325 0 0 0 1197.42 20.839 A 26.169 26.169 0 0 0 1185.8 24.1 Q 1179.9 27.4 1176.5 33.5 A 26.023 26.023 0 0 0 1173.751 41.09 A 35.006 35.006 0 0 0 1173.1 48 A 34.82 34.82 0 0 0 1173.365 52.354 A 27.451 27.451 0 0 0 1176.45 62.15 Q 1179.8 68.3 1185.7 71.75 Z M 9.5 11.9 L 9.5 66 Q 11.6 66.3 13.9 66.4 A 107.265 107.265 0 0 0 17.463 66.494 A 121.297 121.297 0 0 0 18.7 66.5 A 37.906 37.906 0 0 0 24.864 66.028 Q 29.793 65.215 33.4 63 Q 39.1 59.5 41.8 53.25 A 32.292 32.292 0 0 0 44.054 45.176 A 42.502 42.502 0 0 0 44.5 38.9 Q 44.5 31.7 41.8 25.4 Q 39.1 19.1 33.5 15.25 A 20.895 20.895 0 0 0 26.448 12.19 Q 23.607 11.511 20.296 11.416 A 38.008 38.008 0 0 0 19.2 11.4 Q 16.3 11.4 13.9 11.55 Q 11.5 11.7 9.5 11.9 Z M 799.8 74 L 790.8 74 L 790.8 22 L 799.8 22 L 799.8 74 Z M 89.1 67.2 Q 97 67.2 101.4 61.85 A 18.802 18.802 0 0 0 105.219 53.76 A 27.105 27.105 0 0 0 105.8 48 Q 105.8 42.8 103.6 38.45 A 19.198 19.198 0 0 0 99.428 32.881 A 18.17 18.17 0 0 0 97.65 31.45 Q 93.9 28.8 89.1 28.8 A 19.249 19.249 0 0 0 83.874 29.472 A 14.037 14.037 0 0 0 76.8 34 A 17.878 17.878 0 0 0 73.126 41.374 Q 72.4 44.306 72.4 47.8 Q 72.4 53 74.6 57.45 A 19.437 19.437 0 0 0 78.13 62.49 A 17.627 17.627 0 0 0 80.55 64.55 Q 84.3 67.2 89.1 67.2 Z M 322 67.2 Q 329.9 67.2 334.3 61.85 A 18.802 18.802 0 0 0 338.119 53.76 A 27.105 27.105 0 0 0 338.7 48 Q 338.7 42.8 336.5 38.45 A 19.198 19.198 0 0 0 332.328 32.881 A 18.17 18.17 0 0 0 330.55 31.45 Q 326.8 28.8 322 28.8 A 19.249 19.249 0 0 0 316.774 29.472 A 14.037 14.037 0 0 0 309.7 34 A 17.878 17.878 0 0 0 306.026 41.374 Q 305.3 44.306 305.3 47.8 Q 305.3 53 307.5 57.45 A 19.437 19.437 0 0 0 311.03 62.49 A 17.627 17.627 0 0 0 313.45 64.55 Q 317.2 67.2 322 67.2 Z M 752.9 67.2 Q 760.8 67.2 765.2 61.85 A 18.802 18.802 0 0 0 769.019 53.76 A 27.105 27.105 0 0 0 769.6 48 Q 769.6 42.8 767.4 38.45 A 19.198 19.198 0 0 0 763.228 32.881 A 18.17 18.17 0 0 0 761.45 31.45 Q 757.7 28.8 752.9 28.8 A 19.249 19.249 0 0 0 747.674 29.472 A 14.037 14.037 0 0 0 740.6 34 A 17.878 17.878 0 0 0 736.926 41.374 Q 736.2 44.306 736.2 47.8 Q 736.2 53 738.4 57.45 A 19.437 19.437 0 0 0 741.93 62.49 A 17.627 17.627 0 0 0 744.35 64.55 Q 748.1 67.2 752.9 67.2 Z M 1199 67.2 Q 1206.9 67.2 1211.3 61.85 A 18.802 18.802 0 0 0 1215.119 53.76 A 27.105 27.105 0 0 0 1215.7 48 Q 1215.7 42.8 1213.5 38.45 A 19.198 19.198 0 0 0 1209.328 32.881 A 18.17 18.17 0 0 0 1207.55 31.45 Q 1203.8 28.8 1199 28.8 A 19.249 19.249 0 0 0 1193.774 29.472 A 14.037 14.037 0 0 0 1186.7 34 A 17.878 17.878 0 0 0 1183.026 41.374 Q 1182.3 44.306 1182.3 47.8 Q 1182.3 53 1184.5 57.45 A 19.437 19.437 0 0 0 1188.03 62.49 A 17.627 17.627 0 0 0 1190.45 64.55 Q 1194.2 67.2 1199 67.2 Z M 394.7 60.7 L 394.7 32.8 Q 392 30.9 388.75 29.75 Q 385.5 28.6 381.9 28.6 A 15.924 15.924 0 0 0 376.929 29.354 A 14.024 14.024 0 0 0 373.45 31.05 A 16.301 16.301 0 0 0 368.431 36.474 A 19.962 19.962 0 0 0 367.7 37.85 A 20.663 20.663 0 0 0 365.947 43.527 A 27.678 27.678 0 0 0 365.6 48 Q 365.6 53.6 367.7 57.95 A 17.602 17.602 0 0 0 370.806 62.496 A 15.697 15.697 0 0 0 373.5 64.75 Q 377.2 67.2 381.8 67.2 Q 385.6 67.2 389 65.35 Q 392.4 63.5 394.7 60.7 Z M 546.7 60.7 L 546.7 32.8 Q 544 30.9 540.75 29.75 Q 537.5 28.6 533.9 28.6 A 15.924 15.924 0 0 0 528.929 29.354 A 14.024 14.024 0 0 0 525.45 31.05 A 16.301 16.301 0 0 0 520.431 36.474 A 19.962 19.962 0 0 0 519.7 37.85 A 20.663 20.663 0 0 0 517.947 43.527 A 27.678 27.678 0 0 0 517.6 48 Q 517.6 53.6 519.7 57.95 A 17.602 17.602 0 0 0 522.806 62.496 A 15.697 15.697 0 0 0 525.5 64.75 Q 529.2 67.2 533.8 67.2 Q 537.6 67.2 541 65.35 Q 544.4 63.5 546.7 60.7 Z M 941.9 60.7 L 941.9 32.8 Q 939.2 30.9 935.95 29.75 Q 932.7 28.6 929.1 28.6 A 15.924 15.924 0 0 0 924.129 29.354 A 14.024 14.024 0 0 0 920.65 31.05 A 16.301 16.301 0 0 0 915.631 36.474 A 19.962 19.962 0 0 0 914.9 37.85 A 20.663 20.663 0 0 0 913.147 43.527 A 27.678 27.678 0 0 0 912.8 48 Q 912.8 53.6 914.9 57.95 A 17.602 17.602 0 0 0 918.006 62.496 A 15.697 15.697 0 0 0 920.7 64.75 Q 924.4 67.2 929 67.2 Q 932.8 67.2 936.2 65.35 Q 939.6 63.5 941.9 60.7 Z M 978.2 35.4 L 978.2 61 Q 980.8 63.7 984.2 65.45 Q 987.6 67.2 991.6 67.2 Q 998.294 67.2 1002.517 62.016 A 17.38 17.38 0 0 0 1002.65 61.85 A 18.792 18.792 0 0 0 1006.144 54.544 Q 1006.805 51.855 1006.888 48.708 A 34.555 34.555 0 0 0 1006.9 47.8 Q 1006.9 41.8 1004.75 37.5 Q 1002.6 33.2 999.05 30.9 Q 995.5 28.6 991.2 28.6 A 14.741 14.741 0 0 0 985.573 29.663 A 14.054 14.054 0 0 0 983.45 30.75 Q 980 32.9 978.2 35.4 Z M 1037.5 35.4 L 1037.5 61 Q 1040.1 63.7 1043.5 65.45 Q 1046.9 67.2 1050.9 67.2 Q 1057.594 67.2 1061.817 62.016 A 17.38 17.38 0 0 0 1061.95 61.85 A 18.792 18.792 0 0 0 1065.444 54.544 Q 1066.105 51.855 1066.188 48.708 A 34.555 34.555 0 0 0 1066.2 47.8 Q 1066.2 41.8 1064.05 37.5 Q 1061.9 33.2 1058.35 30.9 Q 1054.8 28.6 1050.5 28.6 A 14.741 14.741 0 0 0 1044.873 29.663 A 14.054 14.054 0 0 0 1042.75 30.75 Q 1039.3 32.9 1037.5 35.4 Z M 455 60.9 L 455 35.1 A 15.847 15.847 0 0 0 452.889 32.927 Q 451.768 31.964 450.369 31.066 A 28.139 28.139 0 0 0 449.7 30.65 Q 446.3 28.6 442.2 28.6 A 14.946 14.946 0 0 0 437.244 29.4 A 13.385 13.385 0 0 0 433.8 31.2 A 16.69 16.69 0 0 0 428.63 37.35 A 19.924 19.924 0 0 0 428.25 38.15 A 22.19 22.19 0 0 0 426.51 44.514 A 28.113 28.113 0 0 0 426.3 48 A 24.757 24.757 0 0 0 426.893 53.519 A 20.327 20.327 0 0 0 428.4 57.85 A 18.205 18.205 0 0 0 431.44 62.363 A 16.122 16.122 0 0 0 434.15 64.7 Q 437.8 67.2 442.3 67.2 Q 446 67.2 449.35 65.45 Q 452.7 63.7 455 60.9 Z M 667.2 60.9 L 667.2 35.1 A 15.847 15.847 0 0 0 665.089 32.927 Q 663.968 31.964 662.569 31.066 A 28.139 28.139 0 0 0 661.9 30.65 Q 658.5 28.6 654.4 28.6 A 14.946 14.946 0 0 0 649.444 29.4 A 13.385 13.385 0 0 0 646 31.2 A 16.69 16.69 0 0 0 640.83 37.35 A 19.924 19.924 0 0 0 640.45 38.15 A 22.19 22.19 0 0 0 638.71 44.514 A 28.113 28.113 0 0 0 638.5 48 A 24.757 24.757 0 0 0 639.093 53.519 A 20.327 20.327 0 0 0 640.6 57.85 A 18.205 18.205 0 0 0 643.64 62.363 A 16.122 16.122 0 0 0 646.35 64.7 Q 650 67.2 654.5 67.2 Q 658.2 67.2 661.55 65.45 Q 664.9 63.7 667.2 60.9 Z M 850.2 60.9 L 850.2 35.1 A 15.847 15.847 0 0 0 848.089 32.927 Q 846.968 31.964 845.569 31.066 A 28.139 28.139 0 0 0 844.9 30.65 Q 841.5 28.6 837.4 28.6 A 14.946 14.946 0 0 0 832.444 29.4 A 13.385 13.385 0 0 0 829 31.2 A 16.69 16.69 0 0 0 823.83 37.35 A 19.924 19.924 0 0 0 823.45 38.15 A 22.19 22.19 0 0 0 821.71 44.514 A 28.113 28.113 0 0 0 821.5 48 A 24.757 24.757 0 0 0 822.093 53.519 A 20.327 20.327 0 0 0 823.6 57.85 A 18.205 18.205 0 0 0 826.64 62.363 A 16.122 16.122 0 0 0 829.35 64.7 Q 833 67.2 837.5 67.2 Q 841.2 67.2 844.55 65.45 Q 847.9 63.7 850.2 60.9 Z M 790.937 11.288 A 5.973 5.973 0 0 0 795.3 13.1 A 8.175 8.175 0 0 0 796.796 12.969 A 5.647 5.647 0 0 0 799.9 11.35 Q 801.6 9.6 801.6 6.8 A 7.26 7.26 0 0 0 801.6 6.719 A 6.06 6.06 0 0 0 799.75 2.35 A 7.395 7.395 0 0 0 799.692 2.293 A 6.059 6.059 0 0 0 795.3 0.5 A 8.264 8.264 0 0 0 793.644 0.658 A 5.661 5.661 0 0 0 790.7 2.2 A 5.588 5.588 0 0 0 789.229 4.832 A 7.987 7.987 0 0 0 789 6.8 A 5.992 5.992 0 0 0 789.492 9.219 A 6.643 6.643 0 0 0 790.85 11.2 A 7.466 7.466 0 0 0 790.937 11.288 Z" vector-effect="non-scaling-stroke"/></g></svg>