<svg width="1073.6" height="96" viewBox="0 0 1073.6 96" xmlns="http://www.w3.org/2000/svg"><g id="svgGroup" stroke-linecap="round" fill-rule="evenodd" font-size="9pt" stroke="#000" stroke-width="0.25mm" fill="#F25435" style="stroke:#000;stroke-width:0.25mm;fill:#F25435"><path d="M 146.8 74 L 136.9 74 L 120.5 24.4 L 128.8 21.5 L 142.2 63.8 L 154.4 25.7 L 164.1 25.7 L 176 63.8 L 189.3 21.5 L 197.3 24.4 L 180.8 74 L 170.9 74 L 158.9 35.3 L 146.8 74 Z M 1023.1 74 L 1013.2 74 L 996.8 24.4 L 1005.1 21.5 L 1018.5 63.8 L 1030.7 25.7 L 1040.4 25.7 L 1052.3 63.8 L 1065.6 21.5 L 1073.6 24.4 L 1057.1 74 L 1047.2 74 L 1035.2 35.3 L 1023.1 74 Z M 216.8 74 L 207.8 74 L 207.8 22 L 216.5 22 L 216.5 30.7 Q 219.3 26.5 223.65 23.65 A 17.316 17.316 0 0 1 230.756 21.025 A 22.629 22.629 0 0 1 234 20.8 A 23.225 23.225 0 0 1 239.065 21.318 Q 244.159 22.456 247.15 26.1 Q 251.275 31.126 251.488 39.209 A 33.764 33.764 0 0 1 251.5 40.1 L 251.5 74 L 242.5 74 L 242.5 41.1 A 19.265 19.265 0 0 0 242.158 37.359 Q 241.719 35.145 240.719 33.397 A 10.966 10.966 0 0 0 239.85 32.1 A 8.579 8.579 0 0 0 233.573 28.747 A 12.061 12.061 0 0 0 232.5 28.7 A 13.122 13.122 0 0 0 225.651 30.664 A 17.353 17.353 0 0 0 223.8 31.95 Q 219.7 35.2 216.8 39.6 L 216.8 74 Z M 893.3 74 L 884.3 74 L 884.3 22 L 893 22 L 893 30.7 Q 895.8 26.5 900.15 23.65 A 17.316 17.316 0 0 1 907.256 21.025 A 22.629 22.629 0 0 1 910.5 20.8 A 23.225 23.225 0 0 1 915.565 21.318 Q 920.659 22.456 923.65 26.1 Q 927.775 31.126 927.988 39.209 A 33.764 33.764 0 0 1 928 40.1 L 928 74 L 919 74 L 919 41.1 A 19.265 19.265 0 0 0 918.658 37.359 Q 918.219 35.145 917.219 33.397 A 10.966 10.966 0 0 0 916.35 32.1 A 8.579 8.579 0 0 0 910.073 28.747 A 12.061 12.061 0 0 0 909 28.7 A 13.122 13.122 0 0 0 902.151 30.664 A 17.353 17.353 0 0 0 900.3 31.95 Q 896.2 35.2 893.3 39.6 L 893.3 74 Z M 592.2 69.8 L 596 62.3 A 18.557 18.557 0 0 0 599.144 64.426 Q 600.698 65.27 602.55 65.95 A 24.073 24.073 0 0 0 610.161 67.387 A 27.464 27.464 0 0 0 611 67.4 Q 616.392 67.4 619.235 65.685 A 7.738 7.738 0 0 0 619.45 65.55 Q 622.3 63.7 622.3 60.8 A 7.123 7.123 0 0 0 621.986 58.653 A 6.212 6.212 0 0 0 621.25 57.1 A 6.384 6.384 0 0 0 620.321 56.006 Q 619.307 55.034 617.634 54.081 A 22.3 22.3 0 0 0 617.4 53.95 A 28.462 28.462 0 0 0 615.406 52.957 Q 613.29 51.995 610.301 50.946 A 103.602 103.602 0 0 0 609.3 50.6 A 46.616 46.616 0 0 1 604.902 48.857 Q 602.788 47.883 601.112 46.795 A 19.335 19.335 0 0 1 598.35 44.65 A 11.324 11.324 0 0 1 595.056 38.654 A 16.794 16.794 0 0 1 594.7 35.1 Q 594.7 29.1 599.95 24.95 Q 604.354 21.469 611.608 20.908 A 37.527 37.527 0 0 1 614.5 20.8 A 40.794 40.794 0 0 1 618.946 21.031 Q 621.254 21.284 623.27 21.815 A 25.234 25.234 0 0 1 623.4 21.85 Q 627.3 22.9 630.4 24.5 L 627.9 31.9 Q 625.2 30.3 621.75 29.3 A 25.024 25.024 0 0 0 617.267 28.453 A 31.837 31.837 0 0 0 614.1 28.3 A 20.632 20.632 0 0 0 611.163 28.495 Q 608.077 28.94 606.2 30.4 A 9.322 9.322 0 0 0 604.842 31.673 Q 604.14 32.492 603.805 33.365 A 4.529 4.529 0 0 0 603.5 35 A 4.921 4.921 0 0 0 604.995 38.552 A 7.082 7.082 0 0 0 605.6 39.1 A 9.88 9.88 0 0 0 606.9 39.969 Q 609.173 41.271 613.598 42.734 A 84.459 84.459 0 0 0 613.8 42.8 A 67.753 67.753 0 0 1 618.862 44.698 Q 624.789 47.217 627.6 50.1 Q 631.5 54.1 631.5 60.1 Q 631.5 66.848 626.249 70.855 A 16.618 16.618 0 0 1 625.85 71.15 Q 621.11 74.547 613.662 75.095 A 40.423 40.423 0 0 1 610.7 75.2 Q 604.8 75.2 600.05 73.7 A 30.883 30.883 0 0 1 596.21 72.215 Q 594.229 71.284 592.648 70.136 A 18.229 18.229 0 0 1 592.2 69.8 Z M 455 27.2 L 455 0 L 464 0 L 464 61.4 A 12.15 12.15 0 0 0 464.102 63.036 Q 464.434 65.47 465.85 66.35 Q 467.7 67.5 469.9 67.5 L 468 74.5 Q 458.5 74.5 456.4 66.9 Q 454.2 70 450.25 72.6 Q 446.3 75.2 440.3 75.2 Q 433.9 75.2 428.6 71.9 A 22.692 22.692 0 0 1 421.062 64.109 A 27.622 27.622 0 0 1 420.2 62.55 A 27.533 27.533 0 0 1 417.612 54.608 A 37.221 37.221 0 0 1 417.1 48.3 A 33.94 33.94 0 0 1 417.989 40.386 A 27.963 27.963 0 0 1 420.25 34.2 A 27.291 27.291 0 0 1 424.869 27.609 A 24.186 24.186 0 0 1 428.65 24.4 Q 433.9 20.8 440.2 20.8 A 21.642 21.642 0 0 1 444.472 21.202 A 15.942 15.942 0 0 1 449.15 22.9 A 34.343 34.343 0 0 1 451.73 24.489 Q 452.954 25.324 453.925 26.174 A 16.59 16.59 0 0 1 455 27.2 Z M 744.6 96 L 735.6 96 L 735.6 35.3 A 11.015 11.015 0 0 0 735.473 33.564 Q 735.142 31.498 733.95 30.45 A 5.718 5.718 0 0 0 731.16 29.128 A 7.991 7.991 0 0 0 729.7 29 L 731.6 22 Q 737.462 22 740.522 24.964 A 10.15 10.15 0 0 1 743.1 29.3 Q 744.055 27.867 746.152 25.977 A 38.58 38.58 0 0 1 746.35 25.8 A 18.902 18.902 0 0 1 749.051 23.816 A 25.569 25.569 0 0 1 751.95 22.3 A 16.955 16.955 0 0 1 756.509 21.011 A 21.886 21.886 0 0 1 759.6 20.8 Q 765.6 20.8 770.85 23.95 A 22.329 22.329 0 0 1 778.028 30.917 A 27.464 27.464 0 0 1 779.3 33.05 Q 782.5 39 782.5 47.5 Q 782.5 55.8 779.3 62.05 A 27.846 27.846 0 0 1 775.366 67.882 A 23.029 23.029 0 0 1 770.95 71.75 Q 765.8 75.2 759.8 75.2 Q 755.2 75.2 751.2 73.35 A 30.352 30.352 0 0 1 747.784 71.511 Q 745.991 70.384 744.6 69.1 L 744.6 96 Z M 803.9 96 L 794.9 96 L 794.9 35.3 A 11.015 11.015 0 0 0 794.773 33.564 Q 794.442 31.498 793.25 30.45 A 5.718 5.718 0 0 0 790.46 29.128 A 7.991 7.991 0 0 0 789 29 L 790.9 22 Q 796.762 22 799.822 24.964 A 10.15 10.15 0 0 1 802.4 29.3 Q 803.355 27.867 805.452 25.977 A 38.58 38.58 0 0 1 805.65 25.8 A 18.902 18.902 0 0 1 808.351 23.816 A 25.569 25.569 0 0 1 811.25 22.3 A 16.955 16.955 0 0 1 815.809 21.011 A 21.886 21.886 0 0 1 818.9 20.8 Q 824.9 20.8 830.15 23.95 A 22.329 22.329 0 0 1 837.328 30.917 A 27.464 27.464 0 0 1 838.6 33.05 Q 841.8 39 841.8 47.5 Q 841.8 55.8 838.6 62.05 A 27.846 27.846 0 0 1 834.666 67.882 A 23.029 23.029 0 0 1 830.25 71.75 Q 825.1 75.2 819.1 75.2 Q 814.5 75.2 810.5 73.35 A 30.352 30.352 0 0 1 807.084 71.511 Q 805.291 70.384 803.9 69.1 L 803.9 96 Z M 0 73.8 L 0 4.2 Q 4.7 3.7 9.2 3.45 A 151.31 151.31 0 0 1 13.386 3.279 Q 16.238 3.2 19.5 3.2 A 48.608 48.608 0 0 1 26.844 3.726 Q 30.778 4.328 34.11 5.618 A 29.198 29.198 0 0 1 35.05 6 A 30.978 30.978 0 0 1 42.339 10.32 A 27.223 27.223 0 0 1 45.85 13.7 Q 50.1 18.6 52.15 25.05 A 44.256 44.256 0 0 1 54.122 36.046 A 51.506 51.506 0 0 1 54.2 38.9 A 45.309 45.309 0 0 1 52.719 50.597 A 41.802 41.802 0 0 1 52.1 52.7 Q 50 59.2 45.65 64.15 Q 41.3 69.1 34.55 71.95 Q 28.275 74.6 19.709 74.786 A 60.192 60.192 0 0 1 18.4 74.8 A 186.98 186.98 0 0 1 14.329 74.758 Q 12.315 74.714 10.522 74.624 A 101.5 101.5 0 0 1 8.45 74.5 Q 4.2 74.2 0 73.8 Z M 395.5 26.2 L 395.5 22 L 403.7 22 L 403.7 61.4 A 12.15 12.15 0 0 0 403.802 63.036 Q 404.134 65.47 405.55 66.35 Q 407.4 67.5 409.6 67.5 L 407.7 74.5 A 17.722 17.722 0 0 1 403.435 74.028 Q 397.798 72.628 396.203 67.08 A 13.59 13.59 0 0 1 396.1 66.7 A 21.307 21.307 0 0 1 392.99 70.126 A 28.498 28.498 0 0 1 389.85 72.55 Q 385.9 75.2 379.8 75.2 Q 373.3 75.2 368 71.9 A 22.947 22.947 0 0 1 360.587 64.373 A 27.923 27.923 0 0 1 359.55 62.55 A 27.228 27.228 0 0 1 356.92 54.608 A 36.644 36.644 0 0 1 356.4 48.3 A 33.142 33.142 0 0 1 357.397 40.031 A 27.968 27.968 0 0 1 359.55 34.3 Q 362.7 28.1 368.25 24.45 A 22.297 22.297 0 0 1 379.445 20.844 A 27.388 27.388 0 0 1 381 20.8 A 22.584 22.584 0 0 1 385.794 21.29 A 18.703 18.703 0 0 1 389.15 22.35 A 26.002 26.002 0 0 1 393.437 24.644 A 22.103 22.103 0 0 1 395.5 26.2 Z M 709.1 26.2 L 709.1 22 L 717.3 22 L 717.3 61.4 A 12.15 12.15 0 0 0 717.402 63.036 Q 717.734 65.47 719.15 66.35 Q 721 67.5 723.2 67.5 L 721.3 74.5 A 17.722 17.722 0 0 1 717.035 74.028 Q 711.398 72.628 709.803 67.08 A 13.59 13.59 0 0 1 709.7 66.7 A 21.307 21.307 0 0 1 706.59 70.126 A 28.498 28.498 0 0 1 703.45 72.55 Q 699.5 75.2 693.4 75.2 Q 686.9 75.2 681.6 71.9 A 22.947 22.947 0 0 1 674.187 64.373 A 27.923 27.923 0 0 1 673.15 62.55 A 27.228 27.228 0 0 1 670.52 54.608 A 36.644 36.644 0 0 1 670 48.3 A 33.142 33.142 0 0 1 670.997 40.031 A 27.968 27.968 0 0 1 673.15 34.3 Q 676.3 28.1 681.85 24.45 A 22.297 22.297 0 0 1 693.045 20.844 A 27.388 27.388 0 0 1 694.6 20.8 A 22.584 22.584 0 0 1 699.394 21.29 A 18.703 18.703 0 0 1 702.75 22.35 A 26.002 26.002 0 0 1 707.037 24.644 A 22.103 22.103 0 0 1 709.1 26.2 Z M 266.5 57.7 L 266.5 0 L 275.5 0 L 275.5 56.8 A 20.644 20.644 0 0 0 275.688 59.688 Q 276.15 62.952 277.75 64.8 A 7.363 7.363 0 0 0 282.334 67.276 A 10.724 10.724 0 0 0 284 67.4 Q 285.9 67.4 287.75 66.95 A 22.192 22.192 0 0 0 289.213 66.544 Q 290.148 66.247 290.9 65.9 L 293.1 73.2 Q 291.701 73.822 289.788 74.323 A 34.978 34.978 0 0 1 288.65 74.6 A 23.816 23.816 0 0 1 285.495 75.085 A 30.514 30.514 0 0 1 282.8 75.2 A 20.862 20.862 0 0 1 277.91 74.646 A 17.544 17.544 0 0 1 274.5 73.45 A 12.683 12.683 0 0 1 269.175 68.685 A 15.856 15.856 0 0 1 268.65 67.8 Q 266.916 64.654 266.58 60.012 A 32.105 32.105 0 0 1 266.5 57.7 Z M 75.8 71.75 A 24.559 24.559 0 0 0 80.398 73.84 Q 84.453 75.2 89.1 75.2 Q 96.5 75.2 102.35 71.8 Q 108.2 68.4 111.6 62.25 A 26.255 26.255 0 0 0 114.253 55.109 A 34.184 34.184 0 0 0 115 47.8 A 34.542 34.542 0 0 0 114.515 41.891 A 25.795 25.795 0 0 0 111.55 33.45 Q 108.1 27.4 102.25 24.1 A 24.848 24.848 0 0 0 97.609 22.073 A 27.738 27.738 0 0 0 89.1 20.8 A 31.325 31.325 0 0 0 87.52 20.839 A 26.169 26.169 0 0 0 75.9 24.1 Q 70 27.4 66.6 33.5 A 26.023 26.023 0 0 0 63.851 41.09 A 35.006 35.006 0 0 0 63.2 48 A 34.82 34.82 0 0 0 63.465 52.354 A 27.451 27.451 0 0 0 66.55 62.15 Q 69.9 68.3 75.8 71.75 Z M 308.7 71.75 A 24.559 24.559 0 0 0 313.298 73.84 Q 317.353 75.2 322 75.2 Q 329.4 75.2 335.25 71.8 Q 341.1 68.4 344.5 62.25 A 26.255 26.255 0 0 0 347.153 55.109 A 34.184 34.184 0 0 0 347.9 47.8 A 34.542 34.542 0 0 0 347.415 41.891 A 25.795 25.795 0 0 0 344.45 33.45 Q 341 27.4 335.15 24.1 A 24.848 24.848 0 0 0 330.509 22.073 A 27.738 27.738 0 0 0 322 20.8 A 31.325 31.325 0 0 0 320.42 20.839 A 26.169 26.169 0 0 0 308.8 24.1 Q 302.9 27.4 299.5 33.5 A 26.023 26.023 0 0 0 296.751 41.09 A 35.006 35.006 0 0 0 296.1 48 A 34.82 34.82 0 0 0 296.365 52.354 A 27.451 27.451 0 0 0 299.45 62.15 Q 302.8 68.3 308.7 71.75 Z M 545.5 71.75 A 24.559 24.559 0 0 0 550.098 73.84 Q 554.153 75.2 558.8 75.2 Q 566.2 75.2 572.05 71.8 Q 577.9 68.4 581.3 62.25 A 26.255 26.255 0 0 0 583.953 55.109 A 34.184 34.184 0 0 0 584.7 47.8 A 34.542 34.542 0 0 0 584.215 41.891 A 25.795 25.795 0 0 0 581.25 33.45 Q 577.8 27.4 571.95 24.1 A 24.848 24.848 0 0 0 567.309 22.073 A 27.738 27.738 0 0 0 558.8 20.8 A 31.325 31.325 0 0 0 557.22 20.839 A 26.169 26.169 0 0 0 545.6 24.1 Q 539.7 27.4 536.3 33.5 A 26.023 26.023 0 0 0 533.551 41.09 A 35.006 35.006 0 0 0 532.9 48 A 34.82 34.82 0 0 0 533.165 52.354 A 27.451 27.451 0 0 0 536.25 62.15 Q 539.6 68.3 545.5 71.75 Z M 952.1 71.75 A 24.559 24.559 0 0 0 956.698 73.84 Q 960.753 75.2 965.4 75.2 Q 972.8 75.2 978.65 71.8 Q 984.5 68.4 987.9 62.25 A 26.255 26.255 0 0 0 990.553 55.109 A 34.184 34.184 0 0 0 991.3 47.8 A 34.542 34.542 0 0 0 990.815 41.891 A 25.795 25.795 0 0 0 987.85 33.45 Q 984.4 27.4 978.55 24.1 A 24.848 24.848 0 0 0 973.909 22.073 A 27.738 27.738 0 0 0 965.4 20.8 A 31.325 31.325 0 0 0 963.82 20.839 A 26.169 26.169 0 0 0 952.2 24.1 Q 946.3 27.4 942.9 33.5 A 26.023 26.023 0 0 0 940.151 41.09 A 35.006 35.006 0 0 0 939.5 48 A 34.82 34.82 0 0 0 939.765 52.354 A 27.451 27.451 0 0 0 942.85 62.15 Q 946.2 68.3 952.1 71.75 Z M 9.5 11.9 L 9.5 66 Q 11.6 66.3 13.9 66.4 A 107.265 107.265 0 0 0 17.463 66.494 A 121.297 121.297 0 0 0 18.7 66.5 A 37.906 37.906 0 0 0 24.864 66.028 Q 29.793 65.215 33.4 63 Q 39.1 59.5 41.8 53.25 A 32.292 32.292 0 0 0 44.054 45.176 A 42.502 42.502 0 0 0 44.5 38.9 Q 44.5 31.7 41.8 25.4 Q 39.1 19.1 33.5 15.25 A 20.895 20.895 0 0 0 26.448 12.19 Q 23.607 11.511 20.296 11.416 A 38.008 38.008 0 0 0 19.2 11.4 Q 16.3 11.4 13.9 11.55 Q 11.5 11.7 9.5 11.9 Z M 520.9 74 L 511.9 74 L 511.9 22 L 520.9 22 L 520.9 74 Z M 89.1 67.2 Q 97 67.2 101.4 61.85 A 18.802 18.802 0 0 0 105.219 53.76 A 27.105 27.105 0 0 0 105.8 48 Q 105.8 42.8 103.6 38.45 A 19.198 19.198 0 0 0 99.428 32.881 A 18.17 18.17 0 0 0 97.65 31.45 Q 93.9 28.8 89.1 28.8 A 19.249 19.249 0 0 0 83.874 29.472 A 14.037 14.037 0 0 0 76.8 34 A 17.878 17.878 0 0 0 73.126 41.374 Q 72.4 44.306 72.4 47.8 Q 72.4 53 74.6 57.45 A 19.437 19.437 0 0 0 78.13 62.49 A 17.627 17.627 0 0 0 80.55 64.55 Q 84.3 67.2 89.1 67.2 Z M 322 67.2 Q 329.9 67.2 334.3 61.85 A 18.802 18.802 0 0 0 338.119 53.76 A 27.105 27.105 0 0 0 338.7 48 Q 338.7 42.8 336.5 38.45 A 19.198 19.198 0 0 0 332.328 32.881 A 18.17 18.17 0 0 0 330.55 31.45 Q 326.8 28.8 322 28.8 A 19.249 19.249 0 0 0 316.774 29.472 A 14.037 14.037 0 0 0 309.7 34 A 17.878 17.878 0 0 0 306.026 41.374 Q 305.3 44.306 305.3 47.8 Q 305.3 53 307.5 57.45 A 19.437 19.437 0 0 0 311.03 62.49 A 17.627 17.627 0 0 0 313.45 64.55 Q 317.2 67.2 322 67.2 Z M 558.8 67.2 Q 566.7 67.2 571.1 61.85 A 18.802 18.802 0 0 0 574.919 53.76 A 27.105 27.105 0 0 0 575.5 48 Q 575.5 42.8 573.3 38.45 A 19.198 19.198 0 0 0 569.128 32.881 A 18.17 18.17 0 0 0 567.35 31.45 Q 563.6 28.8 558.8 28.8 A 19.249 19.249 0 0 0 553.574 29.472 A 14.037 14.037 0 0 0 546.5 34 A 17.878 17.878 0 0 0 542.826 41.374 Q 542.1 44.306 542.1 47.8 Q 542.1 53 544.3 57.45 A 19.437 19.437 0 0 0 547.83 62.49 A 17.627 17.627 0 0 0 550.25 64.55 Q 554 67.2 558.8 67.2 Z M 965.4 67.2 Q 973.3 67.2 977.7 61.85 A 18.802 18.802 0 0 0 981.519 53.76 A 27.105 27.105 0 0 0 982.1 48 Q 982.1 42.8 979.9 38.45 A 19.198 19.198 0 0 0 975.728 32.881 A 18.17 18.17 0 0 0 973.95 31.45 Q 970.2 28.8 965.4 28.8 A 19.249 19.249 0 0 0 960.174 29.472 A 14.037 14.037 0 0 0 953.1 34 A 17.878 17.878 0 0 0 949.426 41.374 Q 948.7 44.306 948.7 47.8 Q 948.7 53 950.9 57.45 A 19.437 19.437 0 0 0 954.43 62.49 A 17.627 17.627 0 0 0 956.85 64.55 Q 960.6 67.2 965.4 67.2 Z M 394.7 60.7 L 394.7 32.8 Q 392 30.9 388.75 29.75 Q 385.5 28.6 381.9 28.6 A 15.924 15.924 0 0 0 376.929 29.354 A 14.024 14.024 0 0 0 373.45 31.05 A 16.301 16.301 0 0 0 368.431 36.474 A 19.962 19.962 0 0 0 367.7 37.85 A 20.663 20.663 0 0 0 365.947 43.527 A 27.678 27.678 0 0 0 365.6 48 Q 365.6 53.6 367.7 57.95 A 17.602 17.602 0 0 0 370.806 62.496 A 15.697 15.697 0 0 0 373.5 64.75 Q 377.2 67.2 381.8 67.2 Q 385.6 67.2 389 65.35 Q 392.4 63.5 394.7 60.7 Z M 708.3 60.7 L 708.3 32.8 Q 705.6 30.9 702.35 29.75 Q 699.1 28.6 695.5 28.6 A 15.924 15.924 0 0 0 690.529 29.354 A 14.024 14.024 0 0 0 687.05 31.05 A 16.301 16.301 0 0 0 682.031 36.474 A 19.962 19.962 0 0 0 681.3 37.85 A 20.663 20.663 0 0 0 679.547 43.527 A 27.678 27.678 0 0 0 679.2 48 Q 679.2 53.6 681.3 57.95 A 17.602 17.602 0 0 0 684.406 62.496 A 15.697 15.697 0 0 0 687.1 64.75 Q 690.8 67.2 695.4 67.2 Q 699.2 67.2 702.6 65.35 Q 706 63.5 708.3 60.7 Z M 744.6 35.4 L 744.6 61 Q 747.2 63.7 750.6 65.45 Q 754 67.2 758 67.2 Q 764.694 67.2 768.917 62.016 A 17.38 17.38 0 0 0 769.05 61.85 A 18.792 18.792 0 0 0 772.544 54.544 Q 773.205 51.855 773.288 48.708 A 34.555 34.555 0 0 0 773.3 47.8 Q 773.3 41.8 771.15 37.5 Q 769 33.2 765.45 30.9 Q 761.9 28.6 757.6 28.6 A 14.741 14.741 0 0 0 751.973 29.663 A 14.054 14.054 0 0 0 749.85 30.75 Q 746.4 32.9 744.6 35.4 Z M 803.9 35.4 L 803.9 61 Q 806.5 63.7 809.9 65.45 Q 813.3 67.2 817.3 67.2 Q 823.994 67.2 828.217 62.016 A 17.38 17.38 0 0 0 828.35 61.85 A 18.792 18.792 0 0 0 831.844 54.544 Q 832.505 51.855 832.588 48.708 A 34.555 34.555 0 0 0 832.6 47.8 Q 832.6 41.8 830.45 37.5 Q 828.3 33.2 824.75 30.9 Q 821.2 28.6 816.9 28.6 A 14.741 14.741 0 0 0 811.273 29.663 A 14.054 14.054 0 0 0 809.15 30.75 Q 805.7 32.9 803.9 35.4 Z M 455 60.9 L 455 35.1 A 15.847 15.847 0 0 0 452.889 32.927 Q 451.768 31.964 450.369 31.066 A 28.139 28.139 0 0 0 449.7 30.65 Q 446.3 28.6 442.2 28.6 A 14.946 14.946 0 0 0 437.244 29.4 A 13.385 13.385 0 0 0 433.8 31.2 A 16.69 16.69 0 0 0 428.63 37.35 A 19.924 19.924 0 0 0 428.25 38.15 A 22.19 22.19 0 0 0 426.51 44.514 A 28.113 28.113 0 0 0 426.3 48 A 24.757 24.757 0 0 0 426.893 53.519 A 20.327 20.327 0 0 0 428.4 57.85 A 18.205 18.205 0 0 0 431.44 62.363 A 16.122 16.122 0 0 0 434.15 64.7 Q 437.8 67.2 442.3 67.2 Q 446 67.2 449.35 65.45 Q 452.7 63.7 455 60.9 Z M 512.037 11.288 A 5.973 5.973 0 0 0 516.4 13.1 A 8.175 8.175 0 0 0 517.896 12.969 A 5.647 5.647 0 0 0 521 11.35 Q 522.7 9.6 522.7 6.8 A 7.26 7.26 0 0 0 522.7 6.719 A 6.06 6.06 0 0 0 520.85 2.35 A 7.395 7.395 0 0 0 520.792 2.293 A 6.059 6.059 0 0 0 516.4 0.5 A 8.264 8.264 0 0 0 514.744 0.658 A 5.661 5.661 0 0 0 511.8 2.2 A 5.588 5.588 0 0 0 510.329 4.832 A 7.987 7.987 0 0 0 510.1 6.8 A 5.992 5.992 0 0 0 510.592 9.219 A 6.643 6.643 0 0 0 511.95 11.2 A 7.466 7.466 0 0 0 512.037 11.288 Z" vector-effect="non-scaling-stroke"/></g></svg>