
<svg width="276" height="40" viewBox="0 0 276 40" fill="none" xmlns="http://www.w3.org/2000/svg">
<g clip-path="url(#clip0)">
<rect width="276" height="39.5541" rx="19.7771" fill="#F25435"/>
<g clip-path="url(#clip1)">
<path fill-rule="evenodd" clip-rule="evenodd" d="M65.7754 -8.78979H45.941L35.1592 22.9299H47.5016L36.1064 56.7204L67.4798 13.1863H54.6277L65.7754 -8.78979Z" fill="#DD4F2E"/>
<path d="M41.0415 30.3395C42.366 30.3395 43.4398 29.2658 43.4398 27.9412V20.6779C43.4398 19.5981 44.7962 19.1171 45.4766 19.9555L53.0918 29.3405C53.6046 29.9725 54.3751 30.3395 55.1889 30.3395C56.6805 30.3395 57.8896 29.1304 57.8896 27.6389V11.5004C57.8896 10.1759 56.8158 9.10214 55.4913 9.10214C54.1667 9.10214 53.093 10.1759 53.093 11.5004V18.7565C53.093 19.8371 51.7349 20.3177 51.0552 19.4777L43.4766 10.111C42.9603 9.47291 42.1834 9.10214 41.3626 9.10214C39.8607 9.10214 38.6432 10.3197 38.6432 11.8215V27.9412C38.6432 29.2658 39.7169 30.3395 41.0415 30.3395Z" fill="white"/>
</g>
<path d="M88.3341 20.5159C88.3341 22.5875 87.759 24.1726 86.6088 25.2713C85.4586 26.3643 83.8019 26.9108 81.6388 26.9108H78.128V14.3613H82.0079C84.005 14.3613 85.5587 14.8992 86.6689 15.9751C87.779 17.0509 88.3341 18.5645 88.3341 20.5159ZM86.171 20.5846C86.171 17.5802 84.7661 16.0781 81.9564 16.0781H80.1795V25.1855H81.6388C84.6603 25.1855 86.171 23.6518 86.171 20.5846ZM99.2441 22.1468C99.2441 23.6976 98.8464 24.9079 98.051 25.7778C97.2555 26.6476 96.1482 27.0825 94.7291 27.0825C93.8421 27.0825 93.0581 26.8822 92.3771 26.4816C91.6961 26.0811 91.1725 25.5059 90.8063 24.7563C90.44 24.0066 90.2569 23.1368 90.2569 22.1468C90.2569 20.6075 90.6517 19.4057 91.4415 18.5416C92.2312 17.6775 93.3442 17.2455 94.7806 17.2455C96.154 17.2455 97.2412 17.689 98.0424 18.576C98.8436 19.4572 99.2441 20.6475 99.2441 22.1468ZM92.3342 22.1468C92.3342 24.3385 93.1439 25.4344 94.7634 25.4344C96.3657 25.4344 97.1669 24.3385 97.1669 22.1468C97.1669 19.978 96.36 18.8936 94.7462 18.8936C93.8993 18.8936 93.2841 19.174 92.9007 19.7348C92.523 20.2956 92.3342 21.0996 92.3342 22.1468ZM109.356 26.9108L108.128 22.4816C107.98 22.0123 107.711 20.9222 107.321 19.2112H107.244C106.912 20.7562 106.649 21.8521 106.455 22.4988L105.193 26.9108H102.961L100.3 17.4171H102.36L103.57 22.0953C103.845 23.2513 104.04 24.2413 104.154 25.0653H104.206C104.263 24.6476 104.349 24.1697 104.463 23.6318C104.583 23.0882 104.686 22.6819 104.772 22.4129L106.214 17.4171H108.429L109.828 22.4129C109.914 22.6933 110.02 23.1225 110.146 23.7005C110.277 24.2785 110.354 24.7277 110.377 25.0481H110.446C110.532 24.3443 110.732 23.36 111.047 22.0953L112.274 17.4171H114.3L111.622 26.9108H109.356ZM124.292 26.9108H122.266V21.0738C122.266 20.3414 122.117 19.7949 121.82 19.4343C121.528 19.0738 121.061 18.8936 120.42 18.8936C119.568 18.8936 118.944 19.1454 118.549 19.6489C118.154 20.1525 117.957 20.9966 117.957 22.1812V26.9108H115.94V17.4171H117.519L117.802 18.6618H117.905C118.191 18.2097 118.598 17.8606 119.124 17.6146C119.651 17.3685 120.234 17.2455 120.875 17.2455C123.153 17.2455 124.292 18.4043 124.292 20.7219V26.9108ZM129.116 26.9108H127.099V13.5544H129.116V26.9108ZM140.429 22.1468C140.429 23.6976 140.031 24.9079 139.236 25.7778C138.441 26.6476 137.333 27.0825 135.914 27.0825C135.027 27.0825 134.243 26.8822 133.562 26.4816C132.881 26.0811 132.358 25.5059 131.991 24.7563C131.625 24.0066 131.442 23.1368 131.442 22.1468C131.442 20.6075 131.837 19.4057 132.627 18.5416C133.416 17.6775 134.529 17.2455 135.966 17.2455C137.339 17.2455 138.426 17.689 139.227 18.576C140.029 19.4572 140.429 20.6475 140.429 22.1468ZM133.519 22.1468C133.519 24.3385 134.329 25.4344 135.948 25.4344C137.551 25.4344 138.352 24.3385 138.352 22.1468C138.352 19.978 137.545 18.8936 135.931 18.8936C135.084 18.8936 134.469 19.174 134.086 19.7348C133.708 20.2956 133.519 21.0996 133.519 22.1468ZM148.695 26.9108L148.292 25.5889H148.223C147.765 26.1669 147.305 26.5618 146.841 26.7735C146.378 26.9795 145.783 27.0825 145.056 27.0825C144.123 27.0825 143.393 26.8307 142.867 26.3271C142.346 25.8235 142.086 25.1111 142.086 24.1898C142.086 23.2112 142.449 22.473 143.176 21.9751C143.903 21.4773 145.01 21.2055 146.498 21.1597L148.137 21.1082V20.6017C148.137 19.9951 147.994 19.5431 147.708 19.2455C147.428 18.9422 146.99 18.7906 146.395 18.7906C145.909 18.7906 145.442 18.8621 144.996 19.0051C144.549 19.1482 144.12 19.317 143.708 19.5116L143.056 18.0695C143.571 17.8006 144.135 17.5974 144.747 17.4601C145.359 17.317 145.937 17.2455 146.481 17.2455C147.688 17.2455 148.598 17.5087 149.21 18.0352C149.828 18.5617 150.137 19.3886 150.137 20.5159V26.9108H148.695ZM145.691 25.5374C146.424 25.5374 147.01 25.3343 147.451 24.928C147.897 24.5159 148.12 23.9408 148.12 23.2026V22.3786L146.901 22.4301C145.951 22.4644 145.259 22.6247 144.824 22.9108C144.395 23.1912 144.18 23.6232 144.18 24.2069C144.18 24.6304 144.306 24.9594 144.558 25.1941C144.81 25.423 145.187 25.5374 145.691 25.5374ZM156.155 27.0825C154.97 27.0825 154.046 26.6533 153.382 25.7949C152.718 24.9366 152.386 23.732 152.386 22.1812C152.386 20.6246 152.721 19.4143 153.391 18.5502C154.066 17.6804 154.999 17.2455 156.189 17.2455C157.437 17.2455 158.386 17.7061 159.039 18.6275H159.142C159.045 17.9465 158.996 17.4086 158.996 17.0137V13.5544H161.022V26.9108H159.442L159.09 25.6662H158.996C158.349 26.6104 157.402 27.0825 156.155 27.0825ZM156.695 25.4516C157.525 25.4516 158.129 25.2198 158.507 24.7563C158.884 24.287 159.079 23.5288 159.09 22.4816V22.1983C159.09 21.0023 158.896 20.1525 158.507 19.6489C158.118 19.1454 157.508 18.8936 156.678 18.8936C155.969 18.8936 155.422 19.1825 155.039 19.7605C154.655 20.3328 154.464 21.1511 154.464 22.2155C154.464 23.2684 154.65 24.0725 155.022 24.6275C155.394 25.1769 155.952 25.4516 156.695 25.4516ZM174.412 26.9108L174.009 25.5889H173.94C173.483 26.1669 173.022 26.5618 172.558 26.7735C172.095 26.9795 171.5 27.0825 170.773 27.0825C169.84 27.0825 169.111 26.8307 168.584 26.3271C168.063 25.8235 167.803 25.1111 167.803 24.1898C167.803 23.2112 168.166 22.473 168.893 21.9751C169.62 21.4773 170.727 21.2055 172.215 21.1597L173.854 21.1082V20.6017C173.854 19.9951 173.711 19.5431 173.425 19.2455C173.145 18.9422 172.707 18.7906 172.112 18.7906C171.626 18.7906 171.159 18.8621 170.713 19.0051C170.266 19.1482 169.837 19.317 169.425 19.5116L168.773 18.0695C169.288 17.8006 169.852 17.5974 170.464 17.4601C171.076 17.317 171.654 17.2455 172.198 17.2455C173.405 17.2455 174.315 17.5087 174.927 18.0352C175.546 18.5617 175.855 19.3886 175.855 20.5159V26.9108H174.412ZM171.408 25.5374C172.141 25.5374 172.727 25.3343 173.168 24.928C173.614 24.5159 173.837 23.9408 173.837 23.2026V22.3786L172.618 22.4301C171.668 22.4644 170.976 22.6247 170.541 22.9108C170.112 23.1912 169.897 23.6232 169.897 24.2069C169.897 24.6304 170.023 24.9594 170.275 25.1941C170.527 25.423 170.905 25.5374 171.408 25.5374ZM183.486 27.0825C182.284 27.0825 181.351 26.6505 180.687 25.7864H180.567C180.647 26.5875 180.687 27.0739 180.687 27.2456V31.1341H178.67V17.4171H180.301C180.347 17.5945 180.441 18.018 180.584 18.6875H180.687C181.317 17.7262 182.261 17.2455 183.52 17.2455C184.704 17.2455 185.626 17.6747 186.284 18.533C186.948 19.3914 187.28 20.596 187.28 22.1468C187.28 23.6976 186.942 24.9079 186.267 25.7778C185.597 26.6476 184.67 27.0825 183.486 27.0825ZM182.996 18.8936C182.195 18.8936 181.609 19.1282 181.237 19.5974C180.87 20.0667 180.687 20.8163 180.687 21.8464V22.1468C180.687 23.3028 180.87 24.1411 181.237 24.6619C181.603 25.1769 182.201 25.4344 183.031 25.4344C183.729 25.4344 184.267 25.1483 184.644 24.576C185.022 24.0038 185.211 23.1883 185.211 22.1297C185.211 21.0653 185.022 20.2612 184.644 19.7176C184.272 19.1682 183.723 18.8936 182.996 18.8936ZM194.438 27.0825C193.237 27.0825 192.304 26.6505 191.64 25.7864H191.52C191.6 26.5875 191.64 27.0739 191.64 27.2456V31.1341H189.623V17.4171H191.254C191.3 17.5945 191.394 18.018 191.537 18.6875H191.64C192.27 17.7262 193.214 17.2455 194.473 17.2455C195.657 17.2455 196.579 17.6747 197.237 18.533C197.901 19.3914 198.232 20.596 198.232 22.1468C198.232 23.6976 197.895 24.9079 197.22 25.7778C196.55 26.6476 195.623 27.0825 194.438 27.0825ZM193.949 18.8936C193.148 18.8936 192.561 19.1282 192.189 19.5974C191.823 20.0667 191.64 20.8163 191.64 21.8464V22.1468C191.64 23.3028 191.823 24.1411 192.189 24.6619C192.556 25.1769 193.154 25.4344 193.984 25.4344C194.682 25.4344 195.22 25.1483 195.597 24.576C195.975 24.0038 196.164 23.1883 196.164 22.1297C196.164 21.0653 195.975 20.2612 195.597 19.7176C195.225 19.1682 194.676 18.8936 193.949 18.8936ZM213.494 26.9108H211.469V21.0738C211.469 20.3414 211.32 19.7949 211.022 19.4343C210.731 19.0738 210.264 18.8936 209.623 18.8936C208.771 18.8936 208.147 19.1454 207.752 19.6489C207.357 20.1525 207.16 20.9966 207.16 22.1812V26.9108H205.142V17.4171H206.722L207.005 18.6618H207.108C207.394 18.2097 207.801 17.8606 208.327 17.6146C208.854 17.3685 209.437 17.2455 210.078 17.2455C212.356 17.2455 213.494 18.4043 213.494 20.7219V26.9108ZM224.722 22.1468C224.722 23.6976 224.324 24.9079 223.529 25.7778C222.734 26.6476 221.626 27.0825 220.207 27.0825C219.32 27.0825 218.536 26.8822 217.855 26.4816C217.174 26.0811 216.65 25.5059 216.284 24.7563C215.918 24.0066 215.735 23.1368 215.735 22.1468C215.735 20.6075 216.13 19.4057 216.919 18.5416C217.709 17.6775 218.822 17.2455 220.259 17.2455C221.632 17.2455 222.719 17.689 223.52 18.576C224.322 19.4572 224.722 20.6475 224.722 22.1468ZM217.812 22.1468C217.812 24.3385 218.622 25.4344 220.241 25.4344C221.844 25.4344 222.645 24.3385 222.645 22.1468C222.645 19.978 221.838 18.8936 220.224 18.8936C219.377 18.8936 218.762 19.174 218.379 19.7348C218.001 20.2956 217.812 21.0996 217.812 22.1468ZM234.834 26.9108L233.606 22.4816C233.458 22.0123 233.189 20.9222 232.799 19.2112H232.722C232.39 20.7562 232.127 21.8521 231.932 22.4988L230.671 26.9108H228.439L225.778 17.4171H227.838L229.048 22.0953C229.323 23.2513 229.518 24.2413 229.632 25.0653H229.684C229.741 24.6476 229.827 24.1697 229.941 23.6318C230.061 23.0882 230.164 22.6819 230.25 22.4129L231.692 17.4171H233.907L235.306 22.4129C235.392 22.6933 235.498 23.1225 235.624 23.7005C235.755 24.2785 235.832 24.7277 235.855 25.0481H235.924C236.01 24.3443 236.21 23.36 236.525 22.0953L237.752 17.4171H239.778L237.1 26.9108H234.834Z" fill="white"/>
</g>
<defs>
<clipPath id="clip0">
<rect width="276" height="39.5541" rx="19.7771" fill="white"/>
</clipPath>
<clipPath id="clip1">
<rect width="32.5223" height="39.5541" fill="white" transform="translate(35.1592)"/>
</clipPath>
</defs>
</svg>
