<svg xmlns="http://www.w3.org/2000/svg" viewBox="0 0 100 100" xmlns:v="https://vecta.io/nano"><path d="M59.91 30.22H25a10.05 10.05 0 0 0-10 10V75a10.05 10.05 0 0 0 10 10h34.91a10.05 10.05 0 0 0 10-10V40.24a10.05 10.05 0 0 0-10-10.02zm-33 47.28h-6.7v-6.7h6.7zm0-12.44h-6.7v-6.7h6.7zm0-12.44h-6.7v-6.7h6.7zM39.56 77.5h-6.7v-6.7h6.7zm0-12.44h-6.7v-6.7h6.7zm0-12.44h-6.7v-6.7h6.7zM52.21 77.5h-6.7v-6.7h6.7zm0-12.44h-6.7v-6.7h6.7zm0-12.44h-6.7v-6.7h6.7zM64.86 77.5h-6.7v-6.7h6.7zm0-12.44h-6.7v-6.7h6.7zm0-12.44h-6.7v-6.7h6.7z" fill="#0f615c"/><rect x="39.86" y="15.21" width="45.06" height="44.94" rx="8.22" fill="#0bad7f"/><path d="M59.91,30.22h-20V51.93a8.25,8.25,0,0,0,5.65,7.8V58.36h6.7v1.79h5.95V58.36h6.7v1.79h5.07V40.24A10.05,10.05,0,0,0,59.91,30.22Zm-7.7,22.4h-6.7v-6.7h6.7Zm12.65,0h-6.7v-6.7h6.7Z" fill="#002f1d"/></svg>