<svg width="124" height="117" viewBox="0 0 124 117" fill="none" xmlns="http://www.w3.org/2000/svg">
<path fill-rule="evenodd" clip-rule="evenodd" d="M110.38 58.5007C110.38 59.2883 110.36 60.0754 110.322 60.862C110.283 61.6486 110.225 62.4338 110.147 63.2176C110.07 64.0014 109.973 64.7828 109.857 65.5619C109.741 66.3409 109.606 67.1167 109.452 67.8891C109.298 68.6616 109.125 69.4298 108.933 70.1938C108.742 70.9577 108.531 71.7165 108.302 72.4702C108.072 73.2239 107.825 73.9715 107.559 74.713C107.293 75.4546 107.008 76.1891 106.706 76.9168C106.404 77.6444 106.084 78.3642 105.746 79.0761C105.409 79.7881 105.054 80.4914 104.681 81.186C104.309 81.8805 103.92 82.5656 103.514 83.2411C103.108 83.9166 102.685 84.5818 102.247 85.2367C101.808 85.8915 101.353 86.5353 100.883 87.1678C100.412 87.8004 99.9265 88.4211 99.4254 89.0299C98.9244 89.6387 98.4087 90.2349 97.8783 90.8185C97.3479 91.402 96.8035 91.9723 96.245 92.5292C95.6865 93.0861 95.1147 93.629 94.5295 94.1579C93.9443 94.6868 93.3464 95.201 92.7359 95.7007C92.1254 96.2003 91.503 96.6847 90.8686 97.1539C90.2342 97.623 89.5887 98.0764 88.932 98.514C88.2753 98.9515 87.6082 99.3727 86.9308 99.7776C86.2534 100.183 85.5664 100.571 84.8699 100.942C84.1733 101.313 83.4681 101.667 82.7541 102.004C82.0401 102.341 81.3183 102.66 80.5887 102.961C79.859 103.262 79.1223 103.546 78.3787 103.811C77.6351 104.076 76.8854 104.323 76.1296 104.552C75.3738 104.781 74.6129 104.991 73.8468 105.182C73.0806 105.373 72.3103 105.546 71.5356 105.7C70.761 105.853 69.9831 105.988 69.2018 106.103C68.4206 106.219 67.637 106.315 66.851 106.393C66.065 106.47 65.2776 106.528 64.4887 106.566C63.6999 106.605 62.9106 106.624 62.1208 106.624C61.331 106.624 60.5417 106.605 59.7528 106.566C58.964 106.528 58.1766 106.47 57.3906 106.393C56.6046 106.315 55.821 106.219 55.0397 106.103C54.2585 105.988 53.4806 105.853 52.706 105.7C51.9313 105.546 51.161 105.373 50.3948 105.182C49.6287 104.991 48.8678 104.781 48.112 104.552C47.3562 104.323 46.6065 104.076 45.8629 103.811C45.1192 103.546 44.3826 103.262 43.6529 102.961C42.9233 102.66 42.2014 102.341 41.4875 102.004C40.7735 101.667 40.0682 101.313 39.3717 100.942C38.6752 100.571 37.9882 100.183 37.3108 99.7776C36.6333 99.3727 35.9663 98.9515 35.3096 98.5139C34.6529 98.0764 34.0074 97.623 33.373 97.1539C32.7386 96.6847 32.1162 96.2003 31.5057 95.7007C30.8952 95.201 30.2973 94.6868 29.7121 94.1579C29.1269 93.629 28.5551 93.0861 27.9966 92.5292C27.4381 91.9723 26.8937 91.402 26.3633 90.8185C25.8329 90.2349 25.3172 89.6387 24.8162 89.0299C24.3151 88.4211 23.8294 87.8004 23.3589 87.1678C22.8884 86.5353 22.4338 85.8915 21.995 85.2367C21.5562 84.5818 21.1338 83.9166 20.7278 83.2411C20.3217 82.5656 19.9325 81.8805 19.5602 81.186C19.1879 80.4914 18.8329 79.7881 18.4953 79.0761C18.1576 78.3642 17.8376 77.6444 17.5354 76.9168C17.2331 76.1891 16.949 75.4545 16.6829 74.713C16.4168 73.9715 16.1692 73.2239 15.9399 72.4702C15.7107 71.7165 15.5001 70.9577 15.3082 70.1937C15.1163 69.4298 14.9433 68.6616 14.7892 67.8891C14.6351 67.1167 14.5001 66.3409 14.3842 65.5619C14.2683 64.7828 14.1717 64.0014 14.0943 63.2176C14.0169 62.4338 13.9588 61.6486 13.92 60.862C13.8813 60.0754 13.8619 59.2883 13.8619 58.5007C13.8619 57.7131 13.8813 56.926 13.92 56.1394C13.9588 55.3527 14.0169 54.5675 14.0943 53.7838C14.1717 53 14.2684 52.2185 14.3842 51.4395C14.5001 50.6604 14.6351 49.8847 14.7892 49.1122C14.9433 48.3398 15.1163 47.5716 15.3082 46.8076C15.5001 46.0436 15.7107 45.2848 15.9399 44.5312C16.1692 43.7775 16.4168 43.0299 16.6829 42.2883C16.949 41.5468 17.2331 40.8122 17.5354 40.0846C17.8376 39.357 18.1576 38.6372 18.4953 37.9252C18.833 37.2133 19.188 36.51 19.5603 35.8154C19.9326 35.1208 20.3217 34.4358 20.7278 33.7602C21.1338 33.0847 21.5562 32.4195 21.995 31.7647C22.4338 31.1098 22.8884 30.4661 23.3589 29.8335C23.8294 29.2009 24.3151 28.5802 24.8162 27.9714C25.3172 27.3626 25.8329 26.7664 26.3633 26.1829C26.8937 25.5993 27.4381 25.0291 27.9966 24.4722C28.5551 23.9153 29.1269 23.3724 29.7121 22.8435C30.2973 22.3146 30.8952 21.8003 31.5057 21.3007C32.1162 20.801 32.7386 20.3166 33.373 19.8475C34.0074 19.3783 34.6529 18.925 35.3096 18.4874C35.9663 18.0498 36.6333 17.6286 37.3108 17.2237C37.9882 16.8188 38.6752 16.4308 39.3717 16.0595C40.0683 15.6882 40.7735 15.3342 41.4875 14.9975C42.2014 14.6608 42.9233 14.3417 43.6529 14.0403C44.3826 13.7389 45.1192 13.4556 45.8629 13.1902C46.6065 12.9249 47.3562 12.6779 48.112 12.4493C48.8678 12.2207 49.6287 12.0107 50.3948 11.8193C51.161 11.628 51.9313 11.4555 52.706 11.3018C53.4806 11.1482 54.2585 11.0136 55.0397 10.898C55.821 10.7824 56.6046 10.6861 57.3906 10.6089C58.1766 10.5317 58.964 10.4737 59.7528 10.4351C60.5417 10.3965 61.331 10.3771 62.1208 10.3771C62.9106 10.3771 63.6999 10.3965 64.4888 10.4351C65.2776 10.4737 66.065 10.5317 66.851 10.6089C67.637 10.6861 68.4206 10.7824 69.2019 10.898C69.9831 11.0136 70.761 11.1482 71.5356 11.3018C72.3103 11.4555 73.0806 11.628 73.8468 11.8193C74.6129 12.0107 75.3738 12.2207 76.1296 12.4493C76.8854 12.6779 77.6351 12.9249 78.3787 13.1902C79.1224 13.4556 79.859 13.7389 80.5887 14.0403C81.3183 14.3417 82.0401 14.6608 82.7541 14.9975C83.4681 15.3342 84.1733 15.6882 84.8699 16.0595C85.5664 16.4308 86.2534 16.8188 86.9308 17.2237C87.6082 17.6286 88.2753 18.0499 88.932 18.4874C89.5887 18.925 90.2342 19.3783 90.8686 19.8475C91.503 20.3167 92.1254 20.8011 92.7359 21.3007C93.3464 21.8003 93.9443 22.3146 94.5295 22.8435C95.1147 23.3724 95.6865 23.9153 96.245 24.4722C96.8035 25.0291 97.3479 25.5993 97.8783 26.1829C98.4087 26.7664 98.9244 27.3626 99.4254 27.9714C99.9265 28.5802 100.412 29.2009 100.883 29.8335C101.353 30.4661 101.808 31.1098 102.247 31.7647C102.685 32.4195 103.108 33.0847 103.514 33.7602C103.92 34.4358 104.309 35.1208 104.681 35.8154C105.054 36.51 105.409 37.2133 105.746 37.9252C106.084 38.6372 106.404 39.357 106.706 40.0846C107.008 40.8122 107.293 41.5468 107.559 42.2883C107.825 43.0299 108.072 43.7775 108.302 44.5312C108.531 45.2848 108.742 46.0436 108.933 46.8076C109.125 47.5716 109.298 48.3398 109.452 49.1122C109.606 49.8847 109.741 50.6604 109.857 51.4395C109.973 52.2185 110.07 53 110.147 53.7838C110.225 54.5675 110.283 55.3527 110.322 56.1394C110.36 56.926 110.38 57.7131 110.38 58.5007Z" fill="white"/>
<path fill-rule="evenodd" clip-rule="evenodd" d="M110.38 58.5007C110.38 59.2883 110.36 60.0754 110.322 60.862C110.283 61.6486 110.225 62.4338 110.147 63.2176C110.07 64.0014 109.973 64.7828 109.857 65.5619C109.741 66.3409 109.606 67.1167 109.452 67.8891C109.298 68.6616 109.125 69.4298 108.933 70.1938C108.742 70.9577 108.531 71.7165 108.302 72.4702C108.072 73.2239 107.825 73.9715 107.559 74.713C107.293 75.4545 107.008 76.1891 106.706 76.9168C106.404 77.6444 106.084 78.3642 105.746 79.0761C105.409 79.7881 105.054 80.4914 104.681 81.186C104.309 81.8805 103.92 82.5656 103.514 83.2411C103.108 83.9166 102.685 84.5818 102.247 85.2367C101.808 85.8915 101.353 86.5353 100.883 87.1678C100.412 87.8004 99.9265 88.4211 99.4254 89.0299C98.9244 89.6387 98.4087 90.2349 97.8783 90.8185C97.3479 91.402 96.8035 91.9723 96.245 92.5292C95.6865 93.0861 95.1147 93.629 94.5295 94.1579C93.9443 94.6868 93.3464 95.201 92.7359 95.7007C92.1254 96.2003 91.503 96.6847 90.8686 97.1539C90.2342 97.623 89.5887 98.0764 88.932 98.514C88.2753 98.9515 87.6082 99.3727 86.9308 99.7776C86.2534 100.183 85.5664 100.571 84.8699 100.942C84.1733 101.313 83.4681 101.667 82.7541 102.004C82.0401 102.341 81.3183 102.66 80.5887 102.961C79.859 103.262 79.1223 103.546 78.3787 103.811C77.6351 104.076 76.8854 104.323 76.1296 104.552C75.3738 104.781 74.6129 104.991 73.8468 105.182C73.0806 105.373 72.3103 105.546 71.5356 105.7C70.761 105.853 69.9831 105.988 69.2018 106.103C68.4206 106.219 67.637 106.315 66.851 106.393C66.065 106.47 65.2776 106.528 64.4887 106.566C63.6999 106.605 62.9106 106.624 62.1208 106.624C61.331 106.624 60.5417 106.605 59.7528 106.566C58.964 106.528 58.1766 106.47 57.3906 106.393C56.6046 106.315 55.821 106.219 55.0397 106.103C54.2585 105.988 53.4806 105.853 52.706 105.7C51.9313 105.546 51.161 105.373 50.3948 105.182C49.6287 104.991 48.8678 104.781 48.112 104.552C47.3562 104.323 46.6065 104.076 45.8629 103.811C45.1192 103.546 44.3826 103.262 43.6529 102.961C42.9233 102.66 42.2014 102.341 41.4875 102.004C40.7735 101.667 40.0682 101.313 39.3717 100.942C38.6752 100.571 37.9882 100.183 37.3108 99.7776C36.6333 99.3727 35.9663 98.9515 35.3096 98.5139C34.6529 98.0764 34.0074 97.623 33.373 97.1539C32.7386 96.6847 32.1162 96.2003 31.5057 95.7007C30.8952 95.201 30.2973 94.6868 29.7121 94.1579C29.1269 93.629 28.5551 93.0861 27.9966 92.5292C27.4381 91.9723 26.8937 91.402 26.3633 90.8185C25.8329 90.2349 25.3172 89.6387 24.8162 89.0299C24.3151 88.4211 23.8294 87.8004 23.3589 87.1678C22.8884 86.5353 22.4338 85.8915 21.995 85.2367C21.5562 84.5818 21.1338 83.9166 20.7278 83.2411C20.3217 82.5656 19.9325 81.8805 19.5602 81.186C19.1879 80.4914 18.8329 79.7881 18.4953 79.0761C18.1576 78.3642 17.8376 77.6444 17.5354 76.9168C17.2331 76.1891 16.949 75.4545 16.6829 74.713C16.4168 73.9715 16.1692 73.2239 15.9399 72.4702C15.7107 71.7165 15.5001 70.9577 15.3082 70.1937C15.1163 69.4298 14.9433 68.6616 14.7892 67.8891C14.6351 67.1167 14.5001 66.3409 14.3842 65.5619C14.2683 64.7828 14.1717 64.0014 14.0943 63.2176C14.0169 62.4338 13.9588 61.6486 13.92 60.862C13.8813 60.0754 13.8619 59.2883 13.8619 58.5007C13.8619 57.7131 13.8813 56.926 13.92 56.1394C13.9588 55.3527 14.0169 54.5675 14.0943 53.7838C14.1717 53 14.2684 52.2185 14.3842 51.4395C14.5001 50.6604 14.6351 49.8847 14.7892 49.1122C14.9433 48.3398 15.1163 47.5716 15.3082 46.8076C15.5001 46.0436 15.7107 45.2848 15.9399 44.5312C16.1692 43.7775 16.4168 43.0299 16.6829 42.2883C16.949 41.5468 17.2331 40.8122 17.5354 40.0846C17.8376 39.357 18.1576 38.6372 18.4953 37.9252C18.833 37.2133 19.188 36.51 19.5603 35.8154C19.9326 35.1208 20.3217 34.4358 20.7278 33.7602C21.1338 33.0847 21.5562 32.4195 21.995 31.7647C22.4338 31.1098 22.8884 30.4661 23.3589 29.8335C23.8294 29.2009 24.3151 28.5802 24.8162 27.9714C25.3172 27.3626 25.8329 26.7664 26.3633 26.1829C26.8937 25.5993 27.4381 25.0291 27.9966 24.4722C28.5551 23.9153 29.1269 23.3724 29.7121 22.8435C30.2973 22.3146 30.8952 21.8003 31.5057 21.3007C32.1162 20.801 32.7386 20.3166 33.373 19.8475C34.0074 19.3783 34.6529 18.925 35.3096 18.4874C35.9663 18.0498 36.6333 17.6286 37.3108 17.2237C37.9882 16.8188 38.6752 16.4308 39.3717 16.0595C40.0683 15.6882 40.7735 15.3342 41.4875 14.9975C42.2014 14.6608 42.9233 14.3417 43.6529 14.0403C44.3826 13.7389 45.1192 13.4556 45.8629 13.1902C46.6065 12.9249 47.3562 12.6779 48.112 12.4493C48.8678 12.2207 49.6287 12.0107 50.3948 11.8193C51.161 11.628 51.9313 11.4555 52.706 11.3018C53.4806 11.1482 54.2585 11.0136 55.0397 10.898C55.821 10.7824 56.6046 10.6861 57.3906 10.6089C58.1766 10.5317 58.964 10.4737 59.7528 10.4351C60.5417 10.3965 61.331 10.3771 62.1208 10.3771C62.9106 10.3771 63.6999 10.3965 64.4888 10.4351C65.2776 10.4737 66.065 10.5317 66.851 10.6089C67.637 10.6861 68.4206 10.7824 69.2019 10.898C69.9831 11.0136 70.761 11.1482 71.5356 11.3018C72.3103 11.4555 73.0806 11.628 73.8468 11.8193C74.6129 12.0107 75.3738 12.2207 76.1296 12.4493C76.8854 12.6779 77.6351 12.9249 78.3787 13.1902C79.1223 13.4556 79.859 13.7389 80.5887 14.0403C81.3183 14.3417 82.0401 14.6608 82.7541 14.9975C83.4681 15.3342 84.1733 15.6882 84.8699 16.0595C85.5664 16.4308 86.2534 16.8188 86.9308 17.2237C87.6082 17.6286 88.2753 18.0499 88.932 18.4874C89.5887 18.925 90.2342 19.3783 90.8686 19.8475C91.503 20.3167 92.1254 20.8011 92.7359 21.3007C93.3464 21.8003 93.9443 22.3146 94.5295 22.8435C95.1147 23.3724 95.6865 23.9153 96.245 24.4722C96.8035 25.0291 97.3479 25.5993 97.8783 26.1829C98.4087 26.7664 98.9244 27.3626 99.4254 27.9714C99.9265 28.5802 100.412 29.2009 100.883 29.8335C101.353 30.4661 101.808 31.1098 102.247 31.7647C102.685 32.4195 103.108 33.0847 103.514 33.7602C103.92 34.4358 104.309 35.1208 104.681 35.8154C105.054 36.51 105.409 37.2133 105.746 37.9252C106.084 38.6372 106.404 39.357 106.706 40.0846C107.008 40.8122 107.293 41.5468 107.559 42.2883C107.825 43.0299 108.072 43.7775 108.302 44.5312C108.531 45.2848 108.742 46.0436 108.933 46.8076C109.125 47.5716 109.298 48.3398 109.452 49.1122C109.606 49.8847 109.741 50.6604 109.857 51.4395C109.973 52.2185 110.07 53 110.147 53.7838C110.225 54.5675 110.283 55.3527 110.322 56.1394C110.36 56.926 110.38 57.7131 110.38 58.5007Z" stroke="#17142B" stroke-width="2.06148" stroke-linecap="round" stroke-linejoin="round"/>
<path d="M62.1208 29.2718V53.7098" stroke="#17142B" stroke-width="2.06148" stroke-linecap="round" stroke-linejoin="round"/>
<path d="M58.1475 35.2393L62.1208 29.2718L66.1191 35.2393" stroke="#17142B" stroke-width="2.06148" stroke-linecap="round" stroke-linejoin="round"/>
<path d="M42.0139 59.0732H60.9698" stroke="#17142B" stroke-width="2.06148" stroke-linecap="round" stroke-linejoin="round"/>
<path d="M46.6429 63.0354L42.0139 59.0732L46.6429 55.0867" stroke="#17142B" stroke-width="2.06148" stroke-linecap="round" stroke-linejoin="round"/>
<path d="M34.3536 30.812L39.871 36.3144" stroke="#17142B" stroke-width="2.06148" stroke-linecap="round" stroke-linejoin="round"/>
<path d="M84.3701 80.6881L89.888 86.1905" stroke="#17142B" stroke-width="2.06148" stroke-linecap="round" stroke-linejoin="round"/>
<path d="M22.8514 58.5007H30.6558" stroke="#17142B" stroke-width="2.06148" stroke-linecap="round" stroke-linejoin="round"/>
<path d="M93.5864 58.5007H101.39" stroke="#17142B" stroke-width="2.06148" stroke-linecap="round" stroke-linejoin="round"/>
<path d="M34.3536 86.1905L39.871 80.6875" stroke="#17142B" stroke-width="2.06148" stroke-linecap="round" stroke-linejoin="round"/>
<path d="M84.3701 36.3144L89.888 30.8114" stroke="#17142B" stroke-width="2.06148" stroke-linecap="round" stroke-linejoin="round"/>
<path d="M62.1208 97.6599V89.8781" stroke="#17142B" stroke-width="2.06148" stroke-linecap="round" stroke-linejoin="round"/>
<path d="M62.1208 27.1239V19.342" stroke="#17142B" stroke-width="2.06148" stroke-linecap="round" stroke-linejoin="round"/>
<path fill-rule="evenodd" clip-rule="evenodd" d="M66.9246 58.5007C66.9246 58.8152 66.8938 59.1267 66.8323 59.4352C66.7707 59.7437 66.6796 60.0433 66.5589 60.3339C66.4382 60.6245 66.2902 60.9005 66.115 61.162C65.9397 61.4236 65.7406 61.6655 65.5176 61.888C65.2945 62.1104 65.0519 62.3089 64.7896 62.4837C64.5274 62.6584 64.2505 62.806 63.9591 62.9264C63.6677 63.0467 63.3673 63.1376 63.058 63.199C62.7486 63.2603 62.4362 63.291 62.1208 63.291C61.8054 63.291 61.493 63.2603 61.1836 63.199C60.8743 63.1376 60.5739 63.0467 60.2825 62.9264C59.991 62.806 59.7142 62.6584 59.4519 62.4837C59.1897 62.3089 58.947 62.1104 58.724 61.888C58.501 61.6655 58.3018 61.4236 58.1266 61.162C57.9513 60.9005 57.8034 60.6245 57.6827 60.3339C57.562 60.0433 57.4708 59.7437 57.4093 59.4352C57.3478 59.1267 57.317 58.8152 57.317 58.5007C57.317 58.1862 57.3478 57.8746 57.4093 57.5661C57.4708 57.2577 57.562 56.9581 57.6827 56.6675C57.8034 56.3769 57.9513 56.1009 58.1266 55.8393C58.3018 55.5778 58.501 55.3358 58.724 55.1134C58.947 54.891 59.1897 54.6924 59.4519 54.5177C59.7142 54.3429 59.991 54.1954 60.2825 54.075C60.5739 53.9547 60.8743 53.8638 61.1836 53.8024C61.493 53.7411 61.8054 53.7104 62.1208 53.7104C62.4362 53.7104 62.7486 53.7411 63.058 53.8024C63.3673 53.8638 63.6677 53.9547 63.9591 54.075C64.2505 54.1954 64.5274 54.3429 64.7896 54.5177C65.0519 54.6924 65.2945 54.891 65.5176 55.1134C65.7406 55.3358 65.9397 55.5778 66.115 55.8393C66.2902 56.1009 66.4382 56.3769 66.5589 56.6675C66.6796 56.9581 66.7707 57.2577 66.8323 57.5661C66.8938 57.8746 66.9246 58.1862 66.9246 58.5007Z" fill="#DD4F2E"/>
<path fill-rule="evenodd" clip-rule="evenodd" d="M66.9246 58.5007C66.9246 58.8152 66.8938 59.1267 66.8323 59.4352C66.7707 59.7437 66.6796 60.0433 66.5589 60.3339C66.4382 60.6245 66.2902 60.9005 66.115 61.162C65.9397 61.4236 65.7406 61.6655 65.5176 61.888C65.2945 62.1104 65.0519 62.3089 64.7896 62.4837C64.5274 62.6584 64.2505 62.806 63.9591 62.9264C63.6677 63.0467 63.3673 63.1376 63.058 63.199C62.7486 63.2603 62.4362 63.291 62.1208 63.291C61.8054 63.291 61.493 63.2603 61.1836 63.199C60.8743 63.1376 60.5739 63.0467 60.2825 62.9264C59.991 62.806 59.7142 62.6584 59.4519 62.4837C59.1897 62.3089 58.947 62.1104 58.724 61.888C58.501 61.6655 58.3018 61.4236 58.1266 61.162C57.9513 60.9005 57.8034 60.6245 57.6827 60.3339C57.562 60.0433 57.4708 59.7437 57.4093 59.4352C57.3478 59.1267 57.317 58.8152 57.317 58.5007C57.317 58.1862 57.3478 57.8746 57.4093 57.5661C57.4708 57.2577 57.562 56.9581 57.6827 56.6675C57.8034 56.3769 57.9513 56.1009 58.1266 55.8393C58.3018 55.5778 58.501 55.3358 58.724 55.1134C58.947 54.891 59.1897 54.6924 59.4519 54.5177C59.7142 54.3429 59.991 54.1954 60.2825 54.075C60.5739 53.9547 60.8743 53.8638 61.1836 53.8024C61.493 53.7411 61.8054 53.7104 62.1208 53.7104C62.4362 53.7104 62.7486 53.7411 63.058 53.8024C63.3673 53.8638 63.6677 53.9547 63.9591 54.075C64.2505 54.1954 64.5274 54.3429 64.7896 54.5177C65.0519 54.6924 65.2945 54.891 65.5176 55.1134C65.7406 55.3358 65.9397 55.5778 66.115 55.8393C66.2902 56.1009 66.4382 56.3769 66.5589 56.6675C66.6796 56.9581 66.7707 57.2577 66.8323 57.5661C66.8938 57.8746 66.9246 58.1862 66.9246 58.5007Z" stroke="#17142B" stroke-width="2.06148" stroke-linecap="round" stroke-linejoin="round"/>
<path d="M61.8008 55.0677C61.8008 55.0677 65.5635 55.2281 65.5635 59.0611" stroke="white" stroke-width="2.06148" stroke-linecap="round" stroke-linejoin="round"/>
<path fill-rule="evenodd" clip-rule="evenodd" d="M99.4626 33.7124C96.7716 33.1232 94.1119 34.8221 93.5216 37.5055C93.2653 38.6718 93.4412 39.8311 93.9441 40.8197C94.598 42.1042 95.8035 43.0962 97.3249 43.4292L116.564 47.6372C118.137 47.9812 119.78 47.5472 120.975 46.471C122.17 45.3947 122.771 43.8106 122.589 42.215L120.135 20.7466C119.824 18.0171 117.352 16.0561 114.615 16.3672C111.878 16.6782 109.912 19.1429 110.224 21.8719L110.411 23.5172C90.2312 1.99972 57.4339 -4.66493 29.7981 9.32167C27.3416 10.5653 26.3607 13.5591 27.6078 16.0083C28.8543 18.4585 31.8566 19.4361 34.3132 18.1931C59.9744 5.20596 90.8399 13.0859 107.392 35.4459L99.4626 33.7124Z" fill="#DD4F2E"/>
<path fill-rule="evenodd" clip-rule="evenodd" d="M99.4626 33.7124C96.7716 33.1232 94.1119 34.8221 93.5216 37.5055C93.2653 38.6718 93.4412 39.8311 93.9441 40.8197C94.598 42.1042 95.8035 43.0962 97.3249 43.4292L116.564 47.6372C118.137 47.9812 119.78 47.5472 120.975 46.471C122.17 45.3947 122.771 43.8106 122.589 42.215L120.135 20.7466C119.824 18.0171 117.352 16.0561 114.615 16.3672C111.878 16.6782 109.912 19.1429 110.224 21.8719L110.411 23.5172C90.2312 1.99972 57.4339 -4.66493 29.7981 9.32167C27.3416 10.5653 26.3607 13.5591 27.6078 16.0083C28.8543 18.4585 31.8566 19.4361 34.3132 18.1931C59.9744 5.20596 90.8399 13.0859 107.392 35.4459L99.4626 33.7124Z" stroke="#17142B" stroke-width="2.06148" stroke-linecap="round" stroke-linejoin="round"/>
<path fill-rule="evenodd" clip-rule="evenodd" d="M93.0592 104.297C92.0917 101.727 89.2219 100.417 86.6409 101.378C72.0895 106.796 56.2933 106.24 42.1615 99.8101C31.0001 94.7319 21.9452 86.4629 15.9499 76.0652L23.646 78.6793C26.2542 79.564 29.0875 78.1738 29.9758 75.5735C30.8629 72.9726 29.4694 70.1472 26.8618 69.2614L8.21611 62.9297C6.69181 62.4127 5.01127 62.6597 3.70225 63.5951C2.39381 64.5306 1.61836 66.0385 1.62067 67.6439L1.64613 89.2525C1.64613 90.0593 1.84 90.821 2.18317 91.4945C3.00724 93.1137 4.69472 94.2229 6.63915 94.2206C9.39434 94.2177 11.6246 91.9884 11.6218 89.241L11.6194 87.6309C18.3902 96.7314 27.3959 104.027 38.0197 108.86C54.5757 116.393 73.0825 117.045 90.1304 110.697C92.712 109.736 94.0228 106.871 93.0592 104.297Z" fill="#DD4F2E"/>
<path fill-rule="evenodd" clip-rule="evenodd" d="M93.0592 104.297C92.0916 101.727 89.2219 100.417 86.6409 101.378C72.0895 106.796 56.2933 106.24 42.1615 99.8101C31.0001 94.7319 21.9452 86.4629 15.9498 76.0652L23.646 78.6793C26.2542 79.564 29.0875 78.1738 29.9758 75.5735C30.8629 72.9726 29.4694 70.1472 26.8618 69.2614L8.21611 62.9297C6.69181 62.4127 5.01127 62.6597 3.70225 63.5951C2.39381 64.5306 1.61836 66.0385 1.62067 67.6439L1.64613 89.2525C1.64613 90.0593 1.84 90.821 2.18317 91.4945C3.00724 93.1137 4.69472 94.2229 6.63915 94.2206C9.39434 94.2177 11.6246 91.9884 11.6218 89.241L11.6194 87.6309C18.3902 96.7314 27.3959 104.027 38.0197 108.86C54.5757 116.393 73.0825 117.045 90.1304 110.697C92.712 109.736 94.0228 106.871 93.0592 104.297Z" stroke="#17142B" stroke-width="2.06148" stroke-linecap="round" stroke-linejoin="round"/>
<path d="M7.7242 66.0315L24.3508 72.4267" stroke="white" stroke-width="2.06148" stroke-linecap="round" stroke-linejoin="round"/>
<path d="M13.8619 78.1115C40.9774 122.641 87.1287 104.877 87.1287 104.877" stroke="white" stroke-width="2.06148" stroke-linecap="round" stroke-linejoin="round"/>
<path d="M116.478 43.9058L99.2374 39.4075" stroke="white" stroke-width="2.06148" stroke-linecap="round" stroke-linejoin="round"/>
<path d="M109.022 32.5877C77.075 -8.63287 33.209 14.1743 33.209 14.1743" stroke="white" stroke-width="2.06148" stroke-linecap="round" stroke-linejoin="round"/>
</svg>
