<svg xmlns="http://www.w3.org/2000/svg" viewBox="0 0 100 100" xmlns:v="https://vecta.io/nano"><path d="M64.33 43.61H41.79l-4.7-4.69H25.77a9.39 9.39 0 0 0-9.39 9.39v10.32h.05v16.92a9.38 9.38 0 0 0 9.39 9.39h38.51a9.38 9.38 0 0 0 9.39-9.39V53a9.39 9.39 0 0 0-9.39-9.4" fill="#ff8080"/><path d="M51.91 17.83H41.69a8.48 8.48 0 0 0-8.48 8.48v9.32h0v3.31h3.84l4.7 4.69h22.58A9.39 9.39 0 0 1 73.72 53v6.4h2.8A8.48 8.48 0 0 0 85 50.92V30.56a8.49 8.49 0 0 0-8.48-8.49H56.16l-4.25-4.24" fill="#80d080"/><path d="M37.09,38.92H33.25v12a8.48,8.48,0,0,0,8.48,8.48h32V53a9.39,9.39,0,0,0-9.39-9.4H41.79l-4.7-4.69" fill="#ff6402"/></svg>