<svg xmlns="http://www.w3.org/2000/svg" viewBox="0 0 100 100" xmlns:v="https://vecta.io/nano"><path d="M50.44 25.35h-25.9a9.47 9.47 0 0 0-9.45 9.45v40.78A9.47 9.47 0 0 0 24.54 85h25.9a9.47 9.47 0 0 0 9.45-9.45V34.8a9.47 9.47 0 0 0-9.45-9.45zm-6.81 51.21H20.12v-3h23.51zm11.29-9.94h-34.8v-3h34.8zm0-10h-34.8v-3h34.8zm0-9.95h-34.8v-3h34.8zm0-9.84h-34.8v-3h34.8z" fill="#fc968b"/><rect x="44.97" y="15.39" width="39.85" height="54.38" rx="8.51" fill="#0bad7f"/><path d="M50.44 25.35H45v8.44h10v3H45v6.84h10v3H45v6.95h10v3H45v4.69a8.72 8.72 0 0 0 .34 2.35h9.61v3h-8a8.49 8.49 0 0 0 6.59 3.15h6.41v-35a9.47 9.47 0 0 0-9.51-9.42z" fill="#ffcc98"/></svg>