<svg width="120" height="121" viewBox="0 0 120 121" fill="none" xmlns="http://www.w3.org/2000/svg">
<mask id="mask0" mask-type="alpha" maskUnits="userSpaceOnUse" x="0" y="0" width="120" height="121">
<path fill-rule="evenodd" clip-rule="evenodd" d="M0.322205 0.623047H119.919V120.377H0.322205V0.623047Z" fill="white"/>
</mask>
<g mask="url(#mask0)">
<path fill-rule="evenodd" clip-rule="evenodd" d="M119.919 60.4076C119.919 61.3862 119.895 62.3643 119.847 63.3418C119.799 64.3192 119.727 65.2949 119.631 66.2689C119.535 67.2428 119.415 68.2138 119.272 69.1818C119.128 70.1499 118.961 71.1138 118.77 72.0737C118.579 73.0335 118.365 73.9881 118.127 74.9374C117.889 75.8867 117.628 76.8296 117.344 77.7662C117.06 78.7027 116.753 79.6316 116.423 80.5531C116.094 81.4745 115.742 82.3873 115.367 83.2915C114.993 84.1956 114.596 85.09 114.178 85.9747C113.759 86.8594 113.319 87.7333 112.858 88.5964C112.397 89.4594 111.915 90.3107 111.411 91.1501C110.908 91.9895 110.385 92.8161 109.841 93.6298C109.298 94.4435 108.734 95.2434 108.151 96.0295C107.568 96.8155 106.966 97.5868 106.345 98.3433C105.725 99.0998 105.086 99.8406 104.428 100.566C103.771 101.291 103.097 101.999 102.405 102.691C101.712 103.383 101.004 104.058 100.279 104.715C99.5537 105.373 98.8129 106.012 98.0564 106.632C97.2998 107.253 96.5286 107.855 95.7425 108.438C94.9564 109.021 94.1566 109.584 93.3428 110.128C92.5291 110.672 91.7026 111.195 90.8631 111.698C90.0237 112.202 89.1725 112.684 88.3094 113.145C87.4463 113.606 86.5724 114.046 85.6877 114.465C84.8031 114.883 83.9086 115.28 83.0045 115.654C82.1003 116.029 81.1875 116.381 80.2661 116.71C79.3447 117.04 78.4157 117.347 77.4792 117.631C76.5427 117.915 75.5998 118.176 74.6505 118.414C73.7011 118.652 72.7466 118.866 71.7867 119.057C70.8269 119.248 69.8629 119.415 68.8949 119.559C67.9268 119.702 66.9558 119.822 65.9819 119.918C65.008 120.014 64.0323 120.086 63.0548 120.134C62.0773 120.182 61.0993 120.206 60.1206 120.206C59.142 120.206 58.1639 120.182 57.1865 120.134C56.209 120.086 55.2333 120.014 54.2593 119.918C53.2854 119.822 52.3144 119.702 51.3464 119.559C50.3783 119.415 49.4144 119.248 48.4545 119.057C47.4947 118.866 46.5401 118.652 45.5908 118.414C44.6415 118.176 43.6986 117.915 42.7621 117.631C41.8255 117.347 40.8966 117.04 39.9751 116.71C39.0537 116.381 38.1409 116.029 37.2367 115.654C36.3326 115.28 35.4382 114.883 34.5535 114.465C33.6688 114.046 32.7949 113.606 31.9318 113.145C31.0687 112.684 30.2175 112.202 29.3781 111.698C28.5387 111.195 27.7121 110.672 26.8984 110.128C26.0847 109.584 25.2848 109.021 24.4987 108.438C23.7127 107.855 22.9414 107.253 22.1849 106.632C21.4284 106.012 20.6876 105.373 19.9624 104.715C19.2373 104.058 18.5287 103.383 17.8367 102.691C17.1447 101.999 16.4701 101.291 15.8129 100.566C15.1557 99.8406 14.5166 99.0998 13.8958 98.3433C13.2749 97.5868 12.673 96.8155 12.0901 96.0295C11.5071 95.2434 10.9437 94.4435 10.4 93.6298C9.85632 92.8161 9.3329 91.9895 8.82978 91.1501C8.32666 90.3107 7.84443 89.4594 7.3831 88.5964C6.92177 87.7333 6.48188 86.8594 6.06346 85.9747C5.64503 85.09 5.24857 84.1956 4.87406 83.2915C4.49955 82.3873 4.14744 81.4745 3.81774 80.5531C3.48805 79.6316 3.18116 78.7027 2.89708 77.7661C2.61299 76.8296 2.35205 75.8867 2.11426 74.9374C1.87647 73.9881 1.66211 73.0335 1.47118 72.0737C1.28026 71.1138 1.113 70.1499 0.969402 69.1818C0.825802 68.2138 0.706042 67.2428 0.610121 66.2688C0.514196 65.2949 0.442225 64.3192 0.394208 63.3418C0.346184 62.3643 0.322174 61.3862 0.322174 60.4076C0.322174 59.4289 0.346184 58.4509 0.394208 57.4734C0.442225 56.4959 0.514196 55.5202 0.610121 54.5463C0.706042 53.5724 0.825802 52.6014 0.969399 51.6333C1.113 50.6653 1.28026 49.7013 1.47118 48.7415C1.66211 47.7816 1.87647 46.8271 2.11426 45.8778C2.35205 44.9284 2.61299 43.9855 2.89708 43.049C3.18116 42.1125 3.48805 41.1835 3.81774 40.2621C4.14744 39.3406 4.49955 38.4279 4.87406 37.5237C5.24857 36.6195 5.64503 35.7251 6.06346 34.8404C6.48188 33.9558 6.92177 33.0819 7.3831 32.2188C7.84443 31.3557 8.32666 30.5044 8.82978 29.665C9.3329 28.8256 9.85632 27.9991 10.4 27.1853C10.9437 26.3716 11.5071 25.5717 12.0901 24.7857C12.673 23.9996 13.2749 23.2283 13.8958 22.4718C14.5166 21.7153 15.1557 20.9745 15.8129 20.2494C16.4701 19.5243 17.1447 18.8157 17.8367 18.1237C18.5287 17.4317 19.2373 16.7571 19.9624 16.0998C20.6876 15.4426 21.4284 14.8036 22.1849 14.1828C22.9414 13.5619 23.7127 12.96 24.4987 12.377C25.2848 11.794 26.0847 11.2307 26.8984 10.687C27.7121 10.1433 28.5386 9.61986 29.3781 9.11674C30.2175 8.61361 31.0687 8.13138 31.9318 7.67005C32.7949 7.20872 33.6688 6.76884 34.5535 6.35042C35.4382 5.93199 36.3326 5.53552 37.2367 5.16101C38.1409 4.7865 39.0537 4.4344 39.9751 4.1047C40.8966 3.77501 41.8255 3.46812 42.762 3.18403C43.6986 2.89995 44.6415 2.63901 45.5908 2.40121C46.5401 2.16342 47.4947 1.94906 48.4545 1.75814C49.4144 1.56721 50.3783 1.39995 51.3464 1.25636C52.3144 1.11276 53.2854 0.992999 54.2593 0.897077C55.2333 0.801153 56.209 0.729181 57.1865 0.681164C58.1639 0.633141 59.142 0.609131 60.1206 0.609131C61.0993 0.609131 62.0773 0.633141 63.0548 0.681164C64.0323 0.729181 65.008 0.801153 65.9819 0.897077C66.9558 0.992999 67.9268 1.11276 68.8949 1.25636C69.8629 1.39995 70.8269 1.56721 71.7867 1.75814C72.7466 1.94906 73.7011 2.16342 74.6505 2.40121C75.5998 2.63901 76.5427 2.89995 77.4792 3.18403C78.4157 3.46812 79.3447 3.77501 80.2661 4.1047C81.1875 4.4344 82.1003 4.7865 83.0045 5.16101C83.9086 5.53552 84.8031 5.93199 85.6877 6.35042C86.5724 6.76884 87.4463 7.20872 88.3094 7.67005C89.1725 8.13138 90.0237 8.61361 90.8631 9.11674C91.7026 9.61986 92.5291 10.1433 93.3428 10.687C94.1566 11.2307 94.9564 11.794 95.7425 12.377C96.5286 12.96 97.2998 13.5619 98.0564 14.1828C98.8129 14.8036 99.5537 15.4426 100.279 16.0998C101.004 16.7571 101.712 17.4317 102.405 18.1237C103.097 18.8157 103.771 19.5243 104.428 20.2494C105.086 20.9745 105.725 21.7153 106.345 22.4718C106.966 23.2283 107.568 23.9996 108.151 24.7857C108.734 25.5717 109.298 26.3716 109.841 27.1853C110.385 27.999 110.908 28.8256 111.411 29.665C111.915 30.5044 112.397 31.3557 112.858 32.2188C113.319 33.0819 113.759 33.9557 114.178 34.8404C114.596 35.7251 114.993 36.6195 115.367 37.5237C115.742 38.4278 116.094 39.3406 116.423 40.2621C116.753 41.1835 117.06 42.1125 117.344 43.049C117.628 43.9855 117.889 44.9284 118.127 45.8777C118.365 46.8271 118.579 47.7816 118.77 48.7415C118.961 49.7013 119.128 50.6653 119.272 51.6333C119.415 52.6014 119.535 53.5724 119.631 54.5463C119.727 55.5202 119.799 56.4959 119.847 57.4734C119.895 58.4509 119.919 59.4289 119.919 60.4076Z" fill="#DD4F2E"/>
<path fill-rule="evenodd" clip-rule="evenodd" d="M104.455 68.9421C93.7766 61.816 87.6301 52.0276 87.6301 52.0276C87.6301 36.7936 75.2804 24.4438 60.0464 24.4438C44.8124 24.4438 29.305 38.4184 24.5585 52.8946C16.2363 78.2773 22.6156 95.7065 25.3205 105.858C25.32 105.858 99.3922 95.3082 104.455 68.9421Z" fill="#252E4F"/>
<path fill-rule="evenodd" clip-rule="evenodd" d="M60.1126 106.288C60.1126 106.288 41.3105 101.447 39.6853 106.288C38.5196 109.761 24.2666 108.398 27.3174 110.471C37.0484 117.08 48.2257 120.377 60.0608 120.377C60.078 120.377 60.0953 120.376 60.1126 120.376V106.288H60.1126Z" fill="#252E4F"/>
<path fill-rule="evenodd" clip-rule="evenodd" d="M60.1126 106.288C60.1126 106.288 78.9147 101.447 80.5399 106.288C81.7057 109.761 96.0418 108.784 92.9078 110.728C82.8959 116.94 71.9996 120.377 60.1645 120.377C60.1472 120.377 60.1299 120.376 60.1126 120.376V106.288H60.1126Z" fill="#252E4F"/>
<path fill-rule="evenodd" clip-rule="evenodd" d="M71.4971 109.403C64.2157 91.8543 67.7918 82.1605 70.8815 69.1365C67.3923 70.3672 63.6622 71.0469 59.7949 71.0469C56.08 71.0469 52.492 70.4187 49.1235 69.2795C52.163 82.2288 55.9973 91.9239 48.7442 109.403C48.7442 109.403 55.7716 120.376 60.0607 120.376C64.3503 120.376 71.4216 109.403 71.4971 109.403Z" fill="#F5A68A"/>
<path fill-rule="evenodd" clip-rule="evenodd" d="M60.1438 27.4723V27.4694C60.1413 27.4694 60.1384 27.4694 60.135 27.4694C60.1261 27.4694 60.1164 27.4702 60.1063 27.4702C60.0966 27.4702 60.0869 27.4694 60.0776 27.4694C60.0671 27.4694 60.0569 27.4702 60.0468 27.4702C60.0367 27.4702 60.0257 27.4694 60.016 27.4694C60.0063 27.4694 59.997 27.4702 59.9865 27.4702C59.9772 27.4702 59.9675 27.4694 59.9578 27.4694C59.9548 27.4694 59.9515 27.4694 59.9489 27.4694V27.4723C46.9304 27.5424 36.3957 38.1151 36.3957 51.1517V63.4222C40.6857 89.42 56.8036 94.1657 59.9907 94.2505C59.9991 94.2517 60.0088 94.2526 60.0164 94.2526C60.0261 94.2526 60.038 94.2522 60.0472 94.2517C60.0565 94.2522 60.0683 94.2526 60.078 94.2526C60.0856 94.2526 60.0953 94.2517 60.1029 94.2505C63.2905 94.1657 79.4079 89.42 83.6988 63.4222V51.1517C83.6975 38.115 73.1628 27.5424 60.1438 27.4723Z" fill="#F9C5AF"/>
<path fill-rule="evenodd" clip-rule="evenodd" d="M54.9092 79.8813V79.9379C54.9092 82.8276 57.2508 85.1688 60.1392 85.1688C63.0276 85.1688 65.3696 82.8272 65.3696 79.9379V79.8813H54.9092Z" fill="white"/>
<path fill-rule="evenodd" clip-rule="evenodd" d="M87.6297 65.009C87.6297 67.1818 85.8691 68.942 83.6975 68.942C81.5246 68.942 79.7653 67.1818 79.7653 65.009V61.1101C79.7653 58.9385 81.5246 57.177 83.6975 57.177C85.8691 57.177 87.6297 58.9381 87.6297 61.1101V65.009Z" fill="#F9C5AF"/>
<path fill-rule="evenodd" clip-rule="evenodd" d="M40.3275 65.009C40.3275 67.1818 38.5656 68.942 36.3948 68.942C34.2228 68.942 32.4626 67.1818 32.4626 65.009V61.1101C32.4626 58.9385 34.2228 57.177 36.3948 57.177C38.566 57.177 40.3275 58.9381 40.3275 61.1101V65.009Z" fill="#F9C5AF"/>
<path fill-rule="evenodd" clip-rule="evenodd" d="M62.0134 72.8241C62.0134 75.9762 61.1737 75.7037 60.1384 75.7037C59.103 75.7037 58.2638 75.9762 58.2638 72.8241C58.2638 72.8241 59.103 61.4574 60.1384 61.4574C61.1737 61.4574 62.0134 72.8241 62.0134 72.8241Z" fill="#F5A68A"/>
<path fill-rule="evenodd" clip-rule="evenodd" d="M60.1518 26.3424V26.339C60.1485 26.339 60.1459 26.339 60.1421 26.339C60.1324 26.339 60.1219 26.3398 60.1109 26.3398C60.1004 26.3398 60.0898 26.339 60.0797 26.339C60.0683 26.339 60.0573 26.3398 60.0464 26.3398C60.035 26.3398 60.0232 26.339 60.013 26.339C60.0025 26.339 59.9924 26.3398 59.981 26.3398C59.9708 26.3398 59.9599 26.339 59.9497 26.339C59.9464 26.339 59.943 26.339 59.9409 26.339V26.3424C45.8672 26.4204 34.4789 38.2302 34.4789 52.7912L36.3952 61.4568C40.8165 37.9323 117.327 52.4022 60.1518 26.3424Z" fill="#252E4F"/>
<path fill-rule="evenodd" clip-rule="evenodd" d="M59.9401 26.3424V26.339C59.9426 26.339 59.946 26.339 59.9489 26.339C59.9591 26.339 59.9696 26.3398 59.9802 26.3398C59.9911 26.3398 60.0017 26.339 60.0114 26.339C60.0228 26.339 60.0342 26.3398 60.0451 26.3398C60.0565 26.3398 60.0683 26.339 60.0789 26.339C60.089 26.339 60.0987 26.3398 60.1101 26.3398C60.1207 26.3398 60.1316 26.339 60.1413 26.339C60.1447 26.339 60.1481 26.339 60.151 26.339V26.3424C74.2239 26.4204 85.6126 38.2302 85.6126 52.7912L83.6967 61.4568C64.679 39.4107 45.8664 26.4204 59.9401 26.3424Z" fill="#252E4F"/>
<path fill-rule="evenodd" clip-rule="evenodd" d="M42.8163 58.5479C42.8163 58.5479 42.8353 58.6204 42.8699 58.7491C42.8872 58.8128 42.9079 58.8909 42.9315 58.9799C42.9547 59.0689 42.9775 59.1723 43.0357 59.2672C43.0847 59.3626 43.1378 59.4664 43.1944 59.5756C43.2357 59.6862 43.3391 59.7819 43.415 59.8878C43.5007 59.9895 43.5682 60.1064 43.6838 60.1878C43.7859 60.2756 43.8897 60.3646 43.9935 60.4536C44.1112 60.5195 44.2285 60.5853 44.3445 60.6498C44.4512 60.7249 44.5841 60.7473 44.6981 60.7886C44.8153 60.8199 44.9166 60.8781 45.0309 60.8777C45.1398 60.8895 45.2411 60.9013 45.3351 60.9118C45.425 60.9312 45.5123 60.9182 45.5879 60.9097C45.6621 60.9025 45.7279 60.8962 45.7807 60.8911C45.8849 60.8823 45.944 60.8785 45.944 60.8785L45.9807 62.167C45.9807 62.167 45.8908 62.1514 45.7334 62.1244C45.6549 62.1101 45.5613 62.0923 45.4524 62.0717C45.3453 62.0522 45.2254 62.032 45.1022 61.9738C44.979 61.924 44.8461 61.8696 44.7061 61.8126C44.5626 61.7662 44.4377 61.6582 44.2998 61.5746C44.1673 61.481 44.0205 61.4046 43.9065 61.2759C43.7897 61.1591 43.6707 61.0405 43.5505 60.922C43.4572 60.7848 43.364 60.6477 43.272 60.5127C43.1724 60.387 43.1243 60.23 43.0623 60.0933C43.0091 59.9499 42.9332 59.8296 42.9151 59.6853C42.8881 59.5507 42.8615 59.4237 42.8383 59.306C42.807 59.1913 42.8117 59.0883 42.8129 58.9951C42.8142 58.9031 42.8142 58.8225 42.8151 58.7567C42.8155 58.6234 42.8163 58.5479 42.8163 58.5479Z" fill="#252E4F"/>
<path fill-rule="evenodd" clip-rule="evenodd" d="M45.5136 58.1398C45.5136 58.1398 45.5153 58.1782 45.5191 58.2457C45.5292 58.3106 45.5149 58.4144 45.5482 58.5195C45.5634 58.5689 45.579 58.6237 45.5959 58.6798C45.606 58.7326 45.6478 58.7904 45.674 58.8456C45.706 58.9009 45.7267 58.9587 45.7752 59.0064L45.8955 59.1498L46.0406 59.2621C46.0798 59.3009 46.1402 59.3194 46.1857 59.3435C46.2364 59.3637 46.2718 59.3933 46.3233 59.3992C46.3672 59.4089 46.4085 59.4182 46.4478 59.4262C46.5195 59.4464 46.5908 59.4287 46.6292 59.4338C46.6705 59.4346 47.3827 59.4123 47.3827 59.4123L46.3005 60.6624C46.3005 60.6624 46.2554 60.6333 46.176 60.5822C46.1009 60.5244 45.9832 60.4654 45.8756 60.3514C45.8225 60.2962 45.7647 60.2363 45.7052 60.173C45.6436 60.1139 45.601 60.0287 45.5499 59.9527C45.5022 59.8734 45.4482 59.7996 45.4187 59.7072C45.3871 59.6203 45.355 59.5329 45.3229 59.4456C45.3082 59.3549 45.293 59.265 45.279 59.176C45.2605 59.0912 45.2719 59.0017 45.2736 58.9212C45.2807 58.8385 45.2744 58.7672 45.298 58.6904C45.3166 58.6199 45.3335 58.552 45.3491 58.49C45.379 58.3714 45.4398 58.2967 45.4651 58.2334C45.4955 58.1739 45.5136 58.1398 45.5136 58.1398Z" fill="#252E4F"/>
<path fill-rule="evenodd" clip-rule="evenodd" d="M53.1418 62.2509C52.9064 62.2509 52.6806 62.1189 52.5714 61.8931C52.0212 60.7536 50.8673 60.0456 49.5602 60.0456C49.5597 60.0456 49.5597 60.0456 49.5593 60.0456C48.2527 60.046 47.1 60.7536 46.5507 61.8927C46.3988 62.2079 46.0203 62.3399 45.706 62.1881C45.3908 62.0362 45.2588 61.6581 45.4107 61.3434C46.1731 59.7625 47.7624 58.7807 49.5593 58.7803C49.5598 58.7803 49.5598 58.7803 49.5602 58.7803C51.3575 58.7803 52.9481 59.7625 53.7114 61.343C53.8633 61.6577 53.7312 62.0362 53.4165 62.1881C53.3278 62.2307 53.2338 62.2509 53.1418 62.2509Z" fill="#252E4F"/>
<path fill-rule="evenodd" clip-rule="evenodd" d="M77.276 59.0575C77.276 59.0575 77.257 59.1301 77.2224 59.2588C77.2051 59.3225 77.1845 59.4005 77.1608 59.4895C77.1376 59.579 77.1149 59.6819 77.0566 59.7769C77.0077 59.8722 76.9545 59.976 76.898 60.0853C76.8566 60.1958 76.7533 60.2916 76.6773 60.3975C76.5917 60.4992 76.5242 60.616 76.4086 60.6975C76.3065 60.7852 76.2027 60.8743 76.0989 60.9633C75.9812 61.0291 75.8639 61.0949 75.7479 61.1595C75.6411 61.2341 75.5082 61.2569 75.3943 61.2983C75.277 61.3295 75.1758 61.3877 75.0614 61.3873C74.9526 61.3991 74.8513 61.4109 74.7572 61.4215C74.6674 61.4409 74.58 61.4278 74.5045 61.4194C74.4302 61.4122 74.3644 61.4059 74.3117 61.4008C74.2075 61.3919 74.1484 61.3881 74.1484 61.3881L74.1117 62.6767C74.1117 62.6767 74.2016 62.661 74.3589 62.634C74.4374 62.6197 74.5311 62.6016 74.6399 62.5813C74.7471 62.5619 74.8669 62.5416 74.9901 62.4834C75.1133 62.4336 75.2462 62.3792 75.3863 62.3222C75.5297 62.2758 75.6546 62.1678 75.7926 62.0843C75.9251 61.9906 76.0719 61.9143 76.1858 61.7856C76.3027 61.6687 76.4217 61.5502 76.5419 61.4316C76.6351 61.2945 76.7284 61.1574 76.8204 61.0223C76.9199 60.8966 76.968 60.7397 77.0301 60.603C77.0832 60.4595 77.1592 60.3393 77.1773 60.195C77.2043 60.0604 77.2309 59.9334 77.2541 59.8157C77.2853 59.7009 77.2807 59.598 77.2794 59.5047C77.2781 59.4127 77.2781 59.3322 77.2773 59.2663C77.2769 59.133 77.276 59.0575 77.276 59.0575Z" fill="#252E4F"/>
<path fill-rule="evenodd" clip-rule="evenodd" d="M74.5787 58.6499C74.5787 58.6499 74.577 58.6883 74.5732 58.7558C74.5631 58.8208 74.5775 58.9246 74.5441 59.0296C74.5289 59.079 74.5133 59.1338 74.4964 59.19C74.4863 59.2431 74.4446 59.3009 74.4184 59.3562C74.3863 59.4115 74.3657 59.4693 74.3171 59.5169L74.1969 59.6604L74.0518 59.7726C74.0125 59.8114 73.9522 59.83 73.9066 59.854C73.856 59.8743 73.8206 59.9038 73.7691 59.9097C73.7252 59.9194 73.6838 59.9287 73.6446 59.9367C73.5729 59.957 73.5016 59.9393 73.4632 59.9443C73.4218 59.9452 72.7097 59.9228 72.7097 59.9228L73.7919 61.1729C73.7919 61.1729 73.837 61.1438 73.9163 61.0928C73.9914 61.035 74.1091 60.9759 74.2167 60.862C74.2699 60.8067 74.3277 60.7468 74.3872 60.6835C74.4488 60.6245 74.4914 60.5392 74.5424 60.4633C74.5901 60.384 74.6441 60.3101 74.6737 60.2177C74.7053 60.1308 74.7374 60.0435 74.7694 59.9561C74.7842 59.8654 74.7994 59.7756 74.8133 59.6865C74.8319 59.6017 74.8205 59.5123 74.8188 59.4317C74.8116 59.349 74.818 59.2777 74.7943 59.2009C74.7758 59.1305 74.7589 59.0625 74.7433 59.0005C74.7133 58.8819 74.6526 58.8073 74.6273 58.744C74.5969 58.6841 74.5787 58.6499 74.5787 58.6499Z" fill="#252E4F"/>
<path fill-rule="evenodd" clip-rule="evenodd" d="M66.9505 62.7998C66.8581 62.7998 66.7645 62.7796 66.6759 62.7365C66.3611 62.5846 66.2291 62.2062 66.381 61.8914C67.1442 60.3105 68.7348 59.3287 70.5322 59.3287C70.5326 59.3287 70.5326 59.3287 70.533 59.3287C72.3295 59.3292 73.9193 60.3114 74.6817 61.8919C74.8336 62.2066 74.7015 62.5851 74.3863 62.7365C74.0716 62.8876 73.6927 62.7563 73.5417 62.4412C72.9923 61.302 71.8397 60.5945 70.533 60.5941C70.533 60.5941 70.5326 60.5941 70.5322 60.5941C69.2247 60.5941 68.0711 61.302 67.521 62.4416C67.4117 62.6677 67.186 62.7998 66.9505 62.7998Z" fill="#252E4F"/>
<path fill-rule="evenodd" clip-rule="evenodd" d="M61.7644 15.3039L89.741 34.6629L89.8587 32.0112C81.4479 21.6043 73.9505 19.9985 67.7176 16.1709C67.7176 16.1709 62.3812 14.9727 61.7644 15.3039Z" fill="#E3E4F4"/>
<path fill-rule="evenodd" clip-rule="evenodd" d="M55.4463 33.8971L89.4587 33.1119L89.1891 35.0266C76.4411 39.0942 68.2062 36.6771 60.8957 36.4472C60.8957 36.4472 55.7796 34.5135 55.4463 33.8971Z" fill="#E3E4F4"/>
<path fill-rule="evenodd" clip-rule="evenodd" d="M109.133 29.643C104.358 26.7457 101.529 34.3726 87.7555 32.9326C87.2817 32.8829 87.8525 33.6301 88.7035 34.2494L88.701 34.2499C88.7027 34.2511 88.7043 34.2528 88.7065 34.2537C88.7124 34.2583 88.7191 34.2625 88.7263 34.2676C88.7326 34.2726 88.7381 34.2773 88.744 34.2815C88.7516 34.287 88.7588 34.2912 88.7655 34.2963C88.7723 34.3013 88.7786 34.3068 88.7849 34.3115C88.7917 34.3165 88.798 34.3199 88.8052 34.3254C88.8115 34.3296 88.8174 34.3347 88.8233 34.3389C88.8254 34.3406 88.8275 34.3418 88.8297 34.3431C88.8297 34.3431 88.8318 34.3427 88.8322 34.3427C97.2206 32.1099 109.018 44.7331 110.755 34.2292C110.755 34.2288 110.173 30.2738 109.133 29.643ZM106.367 36.2093C104.752 36.5034 103.203 35.4326 102.909 33.8166C102.615 32.2007 103.686 30.6523 105.302 30.3582C106.918 30.0641 108.466 31.1354 108.76 32.7513C109.054 34.3672 107.983 35.9152 106.367 36.2093Z" fill="#E3E4F4"/>
<path fill-rule="evenodd" clip-rule="evenodd" d="M104.642 48.4978C111.048 39.9942 93.7711 40.1608 89.6018 32.5479C89.6013 32.5474 89.6005 32.5457 89.6005 32.5457C89.598 32.5449 89.5954 32.5445 89.5925 32.5436C89.5853 32.5428 89.5781 32.5419 89.5701 32.5403C89.5617 32.539 89.5541 32.5365 89.5469 32.5356C89.538 32.5339 89.53 32.5327 89.5216 32.5314C89.5136 32.5301 89.5051 32.528 89.4958 32.5259C89.4887 32.5246 89.4819 32.5242 89.4739 32.5225C89.465 32.5208 89.4575 32.5192 89.4499 32.5175C89.4473 32.5171 89.4452 32.5171 89.4431 32.5166L89.4444 32.5183C88.4098 32.3301 87.6487 32.7208 88.0116 33.0297C98.556 42.008 94.8115 49.0286 100.203 50.4867C101.377 50.804 104.642 48.4978 104.642 48.4978ZM102.196 48.0738C100.823 48.9746 98.9796 48.5928 98.078 47.2203C97.1764 45.8478 97.5582 44.0037 98.9311 43.1025C100.304 42.2008 102.147 42.5827 103.049 43.9551C103.951 45.328 103.569 47.1722 102.196 48.0738Z" fill="#E3E4F4"/>
<path fill-rule="evenodd" clip-rule="evenodd" d="M90.7848 33.2496C90.7848 33.4868 90.7394 33.715 90.6486 33.9342C90.5578 34.1533 90.4286 34.3468 90.2609 34.5145C90.0931 34.6823 89.8997 34.8115 89.6805 34.9023C89.4613 34.9931 89.2331 35.0385 88.9959 35.0385C88.7587 35.0385 88.5305 34.9931 88.3113 34.9023C88.0921 34.8115 87.8987 34.6823 87.731 34.5145C87.5632 34.3468 87.4339 34.1533 87.3432 33.9342C87.2524 33.715 87.207 33.4868 87.207 33.2496C87.207 33.0124 87.2524 32.7842 87.3432 32.565C87.4339 32.3458 87.5632 32.1524 87.731 31.9846C87.8987 31.8169 88.0921 31.6876 88.3113 31.5969C88.5305 31.5061 88.7587 31.4607 88.9959 31.4607C89.2331 31.4607 89.4613 31.5061 89.6805 31.5969C89.8997 31.6876 90.0931 31.8169 90.2609 31.9846C90.4286 32.1524 90.5579 32.3458 90.6486 32.565C90.7394 32.7842 90.7848 33.0124 90.7848 33.2496Z" fill="#00B2B8"/>
<path fill-rule="evenodd" clip-rule="evenodd" d="M43.5311 34.1828L43.5285 34.1824C43.5268 34.1849 43.5252 34.187 43.5231 34.1895C43.5176 34.1971 43.5121 34.2052 43.5062 34.2127C43.4994 34.2216 43.4944 34.2284 43.4885 34.2359C43.4821 34.244 43.4766 34.2528 43.4699 34.2617C43.464 34.2701 43.4576 34.2777 43.4505 34.2866C43.445 34.2942 43.4404 34.3018 43.4336 34.3102C43.4277 34.3182 43.4222 34.3258 43.4159 34.3334C43.4138 34.3359 43.4125 34.3385 43.4108 34.3402L43.4133 34.3406C35.6531 44.8306 54.1827 33.2213 78.4688 23.1266C78.4688 23.1262 54.4058 16.4182 43.5311 34.1828Z" fill="#252E4F"/>
</g>
</svg>
