<svg xmlns="http://www.w3.org/2000/svg" viewBox="0 0 100 100" xmlns:v="https://vecta.io/nano"><path d="M29.69 36.83h-.2A14.72 14.72 0 0 0 15 51.72c.16 13.28 17.05 25.56 27.1 31.7l.9.58.93-.6C53.86 77 70.41 64.26 70.24 51a15.07 15.07 0 0 0-.24-2.54 91.81 91.81 0 0 1-6.6 4.57l-.76.49-.77-.52c-4.76-3-11.41-7.69-16.11-13.26a15.08 15.08 0 0 0-3.25 3.28 16.46 16.46 0 0 0-12.82-6.23" fill="#0bad7f"/><path d="M73.07 15h0a13.4 13.4 0 0 0-10.5 5.23A13.37 13.37 0 0 0 52 15.06h0A12 12 0 0 0 40.1 27c0 4.46 2.35 8.82 5.66 12.74a16.66 16.66 0 0 1 9.59-3.29h.2A14.73 14.73 0 0 1 70 48.46c7.27-5.55 15-13.38 15-21.55A12 12 0 0 0 73.07 15" fill="#007c32"/><path d="M55.55,36.49h-.2a16.66,16.66,0,0,0-9.59,3.29C50.46,45.35,57.11,50.06,61.87,53l.76.48.76-.49c2-1.24,4.26-2.79,6.6-4.57a14.73,14.73,0,0,0-14.44-12" fill="#005700"/></svg>