<svg xmlns="http://www.w3.org/2000/svg" viewBox="0 0 100 100" xmlns:v="https://vecta.io/nano"><g fill="#ff4856"><circle cx="54.82" cy="45.24" r="4.92"/><path d="M54.82 10.49a34.75 34.75 0 1 0 34.75 34.75 34.75 34.75 0 0 0-34.75-34.75zm-.3 63.36a28.14 28.14 0 1 1 28.14-28.14 28.14 28.14 0 0 1-28.14 28.14zm.16-49.35a20.74 20.74 0 1 0 20.74 20.74A20.74 20.74 0 0 0 54.68 24.5zm-.16 34.41a13.74 13.74 0 1 1 13.74-13.74 13.74 13.74 0 0 1-13.74 13.74z"/></g><path d="M55.95 44.89L45.4 48.41l2.67 2.66L21.84 77.3l-8.01 2.67.94.94-2.81.94.93.93-2.81.94 7.03 7.03.94-2.81.94.94.94-2.81.93.93 2.95-8.83 25.67-25.68 2.95 2.95 3.52-10.55z" fill="#ffa300"/><path d="M34.09 65.05l-4.29 4.3 1.42 1.4 4.29-4.29-1.42-1.41zM44.55 54.6l-4.91 4.9a19 19 0 0 0 1.45 1.39L46 56a14.43 14.43 0 0 1-1.45-1.4zm9.66-4.5L56 44.89l-5.78 1.92a4.88 4.88 0 0 0 3.99 3.29z" fill="red"/></svg>