<svg xmlns="http://www.w3.org/2000/svg" viewBox="0 0 100 100" xmlns:v="https://vecta.io/nano"><path d="M75.09,15.88H39.43a9.91,9.91,0,0,0-9.91,9.91V35.7h34.8a9.91,9.91,0,0,1,9.91,9.9V57.49h.86A9.91,9.91,0,0,0,85,47.59V25.79a9.91,9.91,0,0,0-9.91-9.91" fill="#ffae33"/><path d="M29.52,35.7H24.69a9.9,9.9,0,0,0-9.9,9.9V65.42a9.9,9.9,0,0,0,9.9,9.9H64.32a9.91,9.91,0,0,0,9.91-9.9V57.49H39.43a9.91,9.91,0,0,1-9.91-9.9V35.7" fill="#ff4856"/><path d="M64.32,35.7H29.52V47.59a9.91,9.91,0,0,0,9.91,9.9h34.8V45.6a9.91,9.91,0,0,0-9.91-9.9" fill="red"/><path d="M51.5 79.29h-14L33 85l17.08-.06 5.91.06-4.5-5.71M56 85h0" fill="#ff4856"/></svg>