<svg width="86" height="21" viewBox="0 0 86 21" fill="none" xmlns="http://www.w3.org/2000/svg">
<path id="Nearz" fill-rule="evenodd" clip-rule="evenodd" d="M20.2016 17.8051C18.3474 19.935 15.6394 21 12.0774 21C9.8573 21 7.89335 20.5654 6.18557 19.6963C4.47779 18.8272 3.16036 17.6215 2.23327 16.0791C1.30619 14.5367 0.842651 12.7863 0.842651 10.8277C0.842651 8.89359 1.30009 7.14924 2.21498 5.59463C3.12986 4.04002 4.3863 2.82815 5.98429 1.95904C7.58229 1.08992 9.36936 0.655365 11.3455 0.655365C13.2729 0.655365 15.0172 1.07156 16.5786 1.90395C18.14 2.73634 19.366 3.92985 20.2565 5.48446C21.147 7.03907 21.5922 8.84463 21.5922 10.9011C21.5922 11.7732 20.8081 12.4435 19.9361 12.4435H6.58812C6.85648 13.6676 7.4908 14.6347 8.49107 15.3446C9.49135 16.0546 10.7356 16.4096 12.2238 16.4096C13.2485 16.4096 14.1573 16.2566 14.9502 15.9506C15.3734 15.7872 15.9756 15.3849 16.4452 15.0454C16.9064 14.7118 17.4893 14.5736 18.027 14.7603C19.3389 15.2159 21.5475 16.259 20.2016 17.8051ZM6.51492 9.1017H16.2127C16.0175 7.85312 15.4808 6.85547 14.6025 6.10877C13.7242 5.36206 12.6507 4.98871 11.3821 4.98871C10.0891 4.98871 9.0034 5.35594 8.12511 6.0904C7.24682 6.82487 6.71009 7.82863 6.51492 9.1017ZM33.1197 21C36.0473 21 38.0479 20.0819 39.1213 18.2458V18.8701C39.1213 19.8841 39.9434 20.7062 40.9575 20.7062H42.6281C43.6422 20.7062 44.4643 19.8841 44.4643 18.8701V9.4322C44.4643 6.49435 43.647 4.29708 42.0124 2.84039C40.3778 1.38371 38.0357 0.655365 34.9861 0.655365C33.4003 0.655365 31.8572 0.863463 30.3568 1.27966C28.8564 1.69585 27.5694 2.28343 26.496 3.04237C25.9042 3.655 26.7786 4.99147 27.5616 5.9517C28.1053 6.61833 29.0569 6.70787 29.8146 6.30061C30.252 6.06549 30.7308 5.83358 31.1253 5.7048C32.1377 5.37429 33.1685 5.20904 34.2176 5.20904C35.7302 5.20904 36.8646 5.54567 37.6209 6.21892C38.3772 6.89218 38.7554 7.85311 38.7554 9.10169H34.2176C31.3387 9.10169 29.2101 9.62806 27.8317 10.6808C26.4533 11.7335 25.7641 13.178 25.7641 15.0141C25.7641 16.1648 26.0568 17.193 26.6423 18.0989C27.2279 19.0047 28.0757 19.7147 29.1857 20.2288C30.2958 20.7429 31.6071 21 33.1197 21ZM32.1865 16.5014C32.7599 16.9299 33.5467 17.1441 34.5469 17.1441C35.5228 17.1441 36.3889 16.9176 37.1452 16.4647C37.9015 16.0118 38.4382 15.3446 38.7554 14.4633V12.4435H34.8397C32.4976 12.4435 31.3265 13.2147 31.3265 14.7571C31.3265 15.4915 31.6132 16.073 32.1865 16.5014ZM55.6926 20.7062C56.7067 20.7062 57.5288 19.8841 57.5288 18.8701V11.3785C57.5288 9.54237 57.9923 8.16525 58.9194 7.24717C59.8465 6.32909 61.1273 5.87005 62.7619 5.87005C63.4557 5.87005 64.0428 5.35427 64.0428 4.66047V2.65612C64.0428 1.57999 63.1205 0.732187 62.0578 0.90177C61.31 1.02111 60.5232 1.18379 60.0356 1.38983C59.1965 1.74435 58.124 2.72136 57.596 3.23357C57.4772 3.34885 57.2726 3.26445 57.2726 3.09889V2.78531C57.2726 1.77123 56.4506 0.94915 55.4365 0.94915H53.6561C52.642 0.94915 51.8199 1.77123 51.8199 2.78531V18.8701C51.8199 19.8841 52.642 20.7062 53.6561 20.7062H55.6926ZM86 18.8701C86 19.8841 85.1779 20.7062 84.1638 20.7062H70.2704C69.2563 20.7062 68.4342 19.8841 68.4342 18.8701V18.5953C68.4342 17.7292 68.7403 16.891 69.2984 16.2288L77.189 6.86564C77.6922 6.26862 77.2678 5.35594 76.487 5.35594H70.5265C69.5125 5.35594 68.6904 4.53386 68.6904 3.51978V2.78532C68.6904 1.77123 69.5125 0.949158 70.5265 0.949158H83.8344C84.8485 0.949158 85.6706 1.77123 85.6706 2.78531V3.06009C85.6706 3.92615 85.3645 4.76434 84.8064 5.4266L76.9158 14.7897C76.4126 15.3868 76.837 16.2994 77.6178 16.2994H84.1638C85.1779 16.2994 86 17.1215 86 18.1356V18.8701Z" fill="#F25435"/>
</svg>
