<svg width="284" height="64" viewBox="0 0 284 64" fill="none" xmlns="http://www.w3.org/2000/svg">
<path id="Nearz" fill-rule="evenodd" clip-rule="evenodd" d="M9.93638 63.2316C12.4308 63.2316 14.4529 61.2094 14.4529 58.715V31.1494C14.4529 29.0292 17.1109 28.0777 18.4564 29.7163L44.6232 61.5813C45.4811 62.626 46.7619 63.2316 48.1137 63.2316H53.4758C55.9702 63.2316 57.9924 61.2094 57.9924 58.715V4.51654C57.9924 2.02213 55.9702 0 53.4758 0H48.056C45.5616 0 43.5394 2.02212 43.5394 4.51654V32.0681C43.5394 34.1899 40.8782 35.1405 39.5339 33.4988L13.4596 1.65516C12.6018 0.607507 11.3191 0 9.96509 0H4.51653C2.02212 0 0 2.02212 0 4.51654V58.715C0 61.2094 2.02212 63.2316 4.51654 63.2316H9.93638ZM101.532 63.9542C110.324 63.9542 117.008 61.3346 121.585 56.0954C124.912 52.287 119.441 49.7195 116.204 48.6013C114.884 48.1454 113.455 48.4834 112.323 49.3001C111.162 50.1368 109.67 51.1308 108.623 51.5337C106.666 52.2865 104.422 52.6628 101.893 52.6628C98.2197 52.6628 95.1484 51.7896 92.6794 50.0432C90.2104 48.2968 88.6446 45.9181 87.9822 42.9071H120.943C123.088 42.9071 125.018 41.2584 125.018 39.1132C125.018 34.0547 123.919 29.6134 121.721 25.7894C119.523 21.9654 116.497 19.0297 112.643 16.9822C108.788 14.9347 104.483 13.9109 99.7252 13.9109C94.8473 13.9109 90.4362 14.9798 86.4917 17.1177C82.5473 19.2555 79.4459 22.2364 77.1877 26.0604C74.9294 29.8844 73.8003 34.1751 73.8003 38.9326C73.8003 43.7502 74.9445 48.056 77.2328 51.8499C79.5212 55.6437 82.7731 58.6096 86.9886 60.7474C91.204 62.8853 96.0518 63.9542 101.532 63.9542ZM87.8015 34.687H111.739C111.257 31.6158 109.933 29.1618 107.765 27.3251C105.597 25.4883 102.947 24.57 99.8155 24.57C96.6238 24.57 93.944 25.4733 91.7761 27.2799C89.6081 29.0865 88.2833 31.5555 87.8015 34.687ZM153.472 63.9542C160.698 63.9542 165.637 61.6959 168.286 57.1794V58.715C168.286 61.2094 170.308 63.2315 172.803 63.2315H176.958C179.452 63.2315 181.475 61.2094 181.475 58.715V35.5C181.475 28.2735 179.457 22.8687 175.422 19.2856C171.388 15.7025 165.606 13.9109 158.079 13.9109C154.165 13.9109 150.356 14.4228 146.652 15.4466C142.948 16.4703 139.772 17.9156 137.122 19.7824C135.659 21.2923 137.828 24.5898 139.764 26.9527C141.101 28.5851 143.435 28.8046 145.295 27.8073C146.38 27.2254 147.569 26.65 148.549 26.3314C151.048 25.5184 153.592 25.1119 156.182 25.1119C159.916 25.1119 162.716 25.94 164.583 27.596C166.45 29.2521 167.383 31.6158 167.383 34.687H156.182C149.076 34.687 143.822 35.9818 140.419 38.5712C137.017 41.1607 135.316 44.7137 135.316 49.2303C135.316 52.0606 136.038 54.5899 137.483 56.8181C138.929 59.0462 141.021 60.7926 143.761 62.0572C146.501 63.3219 149.738 63.9542 153.472 63.9542ZM151.169 52.8887C152.584 53.9425 154.526 54.4695 156.995 54.4695C159.404 54.4695 161.542 53.9124 163.408 52.7983C165.275 51.6843 166.6 50.0433 167.383 47.8753V42.9071H157.718C151.936 42.9071 149.046 44.8041 149.046 48.598C149.046 50.4046 149.753 51.8348 151.169 52.8887ZM209.206 63.2315C211.7 63.2315 213.723 61.2094 213.723 58.715V40.2875C213.723 35.771 214.867 32.3836 217.155 30.1253C219.444 27.867 222.605 26.7379 226.64 26.7379C228.353 26.7379 229.801 25.4643 229.801 23.7516V18.8309C229.801 16.1844 227.534 14.0993 224.92 14.5141C223.069 14.8079 221.118 15.2091 219.91 15.7175C217.837 16.5904 215.187 18.9972 213.885 20.2562C213.592 20.539 213.09 20.3311 213.09 19.9243V19.1501C213.09 16.6557 211.068 14.6336 208.574 14.6336H204.148C201.653 14.6336 199.631 16.6557 199.631 19.1501V58.715C199.631 61.2094 201.653 63.2315 204.148 63.2315H209.206ZM284 58.715C284 61.2094 281.978 63.2316 279.483 63.2316H245.158C242.663 63.2316 240.641 61.2094 240.641 58.715V58.0479C240.641 55.9123 241.398 53.8457 242.777 52.215L262.249 29.1898C263.49 27.722 262.447 25.4733 260.525 25.4733H245.79C243.296 25.4733 241.273 23.4512 241.273 20.9567V19.1501C241.273 16.6557 243.296 14.6336 245.79 14.6336H278.67C281.165 14.6336 283.187 16.6557 283.187 19.1501V19.8172C283.187 21.9529 282.43 24.0195 281.051 25.6502L261.579 48.6754C260.338 50.1432 261.381 52.3919 263.304 52.3919H279.483C281.978 52.3919 284 54.414 284 56.9084V58.715Z" fill="#4A4A4A"/>
</svg>
