<svg xmlns="http://www.w3.org/2000/svg" viewBox="0 0 100 100" xmlns:v="https://vecta.io/nano"><g fill="#ff4856"><circle cx="39.79" cy="43.57" r="14.04"/><path d="M26.16,60H53.84a11,11,0,0,1,11,11V85a0,0,0,0,1,0,0H15.19a0,0,0,0,1,0,0V71A11,11,0,0,1,26.16,60Z"/></g><g fill="#0f615d"><circle cx="59.78" cy="29.01" r="14.04"/><path d="M46.15 45.49h27.68a11 11 0 0 1 11 11v14a0 0 0 0 1 0 0H35.18a0 0 0 0 1 0 0v-14a11 11 0 0 1 10.97-11z"/></g><path d="M39.79 57.61a14 14 0 0 0 13.9-12.12h-7.54a11 11 0 0 0-11 11v.36a13.82 13.82 0 0 0 4.64.76zm13.89-15.96a14 14 0 0 0-7.79-10.71 14 14 0 0 0 7.79 10.71zm.23 18.4H35.24v10.37h29.61a11 11 0 0 0-10.94-10.37z" fill="#0a000b"/></svg>