<svg width="12" height="13" viewBox="0 0 12 13" fill="none" xmlns="http://www.w3.org/2000/svg">
<path d="M11.34 8.75333C10.52 8.75333 9.72667 8.62 8.98667 8.38C8.75333 8.3 8.49333 8.36 8.31333 8.54L7.26667 9.85333C5.38 8.95333 3.61333 7.25333 2.67333 5.3L3.97333 4.19333C4.15333 4.00667 4.20667 3.74667 4.13333 3.51333C3.88667 2.77333 3.76 1.98 3.76 1.16C3.76 0.8 3.46 0.5 3.1 0.5H0.793333C0.433333 0.5 0 0.66 0 1.16C0 7.35333 5.15333 12.5 11.34 12.5C11.8133 12.5 12 12.08 12 11.7133V9.41333C12 9.05333 11.7 8.75333 11.34 8.75333Z" fill="#F25435"/>
</svg>
