<svg version="1.2" baseProfile="tiny-ps" xmlns="http://www.w3.org/2000/svg" viewBox="0 0 201 201" width="201" height="201">
	<title>Phorest-LogoMark-svg</title>
	<defs>
		<clipPath clipPathUnits="userSpaceOnUse" id="cp1">
			<path d="M0 0L201 0L201 201L0 201L0 0Z" />
		</clipPath>
	</defs>
	<style>
		tspan { white-space:pre }
		.shp0 { fill: #ff8080 } 
		.shp1 { fill: #fc968b } 
		.shp2 { fill: #0bad7f } 
		.shp3 { fill: #00a06e } 
		.shp4 { fill: #0f615d } 
		.shp5 { fill: #ffae33 } 
		.shp6 { fill: #ffa300 } 
		.shp7 { fill: #ff4856 } 
		.shp8 { fill: #007c32 } 
	</style>
	<g id="g10">
		<g id="g12">
			<g id="Clip-Path: g14" clip-path="url(#cp1)">
				<g id="g14">
					<g id="g20">
						<path id="path22" class="shp0" d="M161.97 95.23C162.04 95.06 162.1 94.89 162.17 94.71C162.09 94.92 162.01 95.13 161.93 95.33C161.94 95.3 161.95 95.27 161.97 95.23Z" />
					</g>
					<g id="g24">
						<path id="path26" class="shp0" d="M104.22 136.15C104.12 136.16 104.03 136.16 103.93 136.17C104.03 136.16 104.12 136.16 104.22 136.15Z" />
					</g>
					<g id="g28">
						<path id="path30" class="shp0" d="M120.18 133.27C120.04 133.31 119.89 133.36 119.75 133.4C119.89 133.36 120.04 133.31 120.18 133.27Z" />
					</g>
					<g id="g32">
						<path id="path34" class="shp0" d="M116.9 134.19C116.85 134.21 116.8 134.22 116.75 134.23C116.8 134.22 116.85 134.21 116.9 134.19Z" />
					</g>
					<g id="g36">
						<path id="path38" class="shp0" d="M163.43 91.38C163.32 91.68 163.22 91.98 163.11 92.28C163.22 91.98 163.32 91.68 163.43 91.38Z" />
					</g>
					<g id="g40">
						<path id="path42" class="shp0" d="M162.82 93.05C162.73 93.3 162.64 93.55 162.54 93.8C162.64 93.55 162.73 93.3 162.82 93.05Z" />
					</g>
					<g id="g44">
						<path id="path46" class="shp0" d="M115.28 134.59C115.27 134.59 115.26 134.59 115.25 134.6C115.26 134.59 115.27 134.59 115.28 134.59Z" />
					</g>
					<g id="g48">
						<path id="path50" class="shp0" d="M105.78 136.05C105.75 136.05 105.71 136.05 105.67 136.05C105.71 136.05 105.75 136.05 105.78 136.05Z" />
					</g>
					<g id="g52">
						<path id="path54" class="shp0" d="M102.67 136.22C102.49 136.23 102.32 136.23 102.14 136.23C102.32 136.23 102.49 136.23 102.67 136.22Z" />
					</g>
					<g id="g56">
						<path id="path58" class="shp0" d="M163.98 89.72C163.86 90.07 163.75 90.43 163.63 90.78C163.75 90.43 163.86 90.07 163.98 89.72Z" />
					</g>
					<g id="g60">
						<path id="path62" class="shp0" d="M101.11 136.25C100.85 136.26 100.59 136.25 100.34 136.25C100.59 136.25 100.85 136.26 101.11 136.25Z" />
					</g>
					<g id="g64">
						<path id="path66" class="shp0" d="M99.56 136.25C99.22 136.24 98.87 136.23 98.53 136.22C98.87 136.23 99.22 136.24 99.56 136.25Z" />
					</g>
					<g id="g68">
						<path id="path70" class="shp0" d="M118.54 133.76C118.44 133.78 118.35 133.81 118.25 133.84C118.35 133.81 118.44 133.78 118.54 133.76Z" />
					</g>
					<g id="g72">
						<path id="path74" class="shp0" d="M96.45 136.13C95.96 136.1 95.48 136.07 95 136.02C95.48 136.06 95.97 136.1 96.45 136.13Z" />
					</g>
					<g id="g76">
						<path id="path78" class="shp0" d="M98 136.21C97.58 136.19 97.16 136.17 96.75 136.15C97.17 136.17 97.58 136.19 98 136.21Z" />
					</g>
					<g id="g80">
						<path id="path82" class="shp0" d="M161.51 96.3C161.42 96.49 161.35 96.68 161.26 96.87C161.35 96.68 161.42 96.49 161.51 96.3Z" />
					</g>
					<g id="g84">
						<path id="path86" class="shp0" d="M144.96 119.25C144.87 119.33 144.78 119.4 144.69 119.48C144.78 119.4 144.87 119.33 144.96 119.25Z" />
					</g>
					<g id="g88">
						<path id="path90" class="shp0" d="M142.38 121.44C142.38 121.44 142.38 121.44 142.37 121.45C142.38 121.44 142.38 121.44 142.38 121.44Z" />
					</g>
					<g id="g92">
						<path id="path94" class="shp0" d="M165.41 54.93L165.42 54.97L165.41 54.93Z" />
					</g>
					<g id="g96">
						<path id="path98" class="shp0" d="M147.45 116.89C147.27 117.07 147.09 117.24 146.91 117.42C147.09 117.25 147.27 117.07 147.45 116.89Z" />
					</g>
					<g id="g100">
						<path id="path102" class="shp0" d="M143.68 120.36C143.63 120.4 143.59 120.44 143.55 120.48C143.59 120.44 143.63 120.4 143.68 120.36Z" />
					</g>
					<g id="g104">
						<path id="path106" class="shp0" d="M148.65 115.66C148.43 115.9 148.21 116.13 147.98 116.36C148.21 116.13 148.43 115.9 148.65 115.66Z" />
					</g>
					<g id="g108">
						<path id="path110" class="shp0" d="M166.97 66C166.98 66.09 166.98 66.19 166.99 66.29C166.98 66.19 166.98 66.09 166.97 66Z" />
					</g>
					<g id="g112">
						<path id="path114" class="shp0" d="M166.87 64.43C166.87 64.47 166.87 64.51 166.87 64.55C166.87 64.51 166.87 64.47 166.87 64.43Z" />
					</g>
					<g id="g116">
						<path id="path118" class="shp0" d="M146.21 118.09C146.08 118.21 145.95 118.34 145.82 118.46C145.95 118.34 146.08 118.21 146.21 118.09Z" />
					</g>
					<g id="g120">
						<path id="path122" class="shp0" d="M152.04 111.84C155.53 107.56 158.54 102.79 160.94 97.56C158.75 102.31 156.01 106.8 152.75 110.94C152.52 111.24 152.28 111.54 152.04 111.84Z" />
					</g>
					<g id="g124">
						<path id="path126" class="shp0" d="M149.82 114.41C149.56 114.7 149.3 114.98 149.03 115.26C149.3 114.98 149.56 114.7 149.82 114.41Z" />
					</g>
					<g id="g128">
						<path id="path130" class="shp0" d="M152.02 111.85C151.71 112.24 151.38 112.62 151.06 113.01C151.38 112.63 151.71 112.24 152.02 111.85Z" />
					</g>
					<g id="g132">
						<path id="path134" class="shp0" d="M150.95 113.14C150.65 113.48 150.35 113.81 150.05 114.15C150.35 113.81 150.65 113.48 150.95 113.14Z" />
					</g>
					<g id="g136">
						<path id="path138" class="shp1" d="M145.77 97.91C140.9 89.9 135.31 82.6 129.15 76.02C114.12 82.06 97.9 85.41 81.23 85.6C83.78 101.49 85.59 118.13 85.59 133.39C85.59 133.78 85.58 134.16 85.57 134.54C88.63 135.25 91.74 135.75 94.89 136.02C94.92 136.02 94.96 136.02 95 136.02C95.48 136.07 95.96 136.1 96.45 136.13C96.55 136.14 96.65 136.14 96.75 136.15C97.16 136.17 97.58 136.19 98 136.21C98.18 136.21 98.35 136.22 98.53 136.22C98.87 136.23 99.22 136.24 99.56 136.25C99.82 136.25 100.08 136.25 100.34 136.25C100.59 136.25 100.85 136.26 101.11 136.25C101.45 136.25 101.8 136.24 102.14 136.23C102.32 136.23 102.49 136.23 102.67 136.22C103.09 136.21 103.51 136.19 103.93 136.17C104.03 136.16 104.12 136.16 104.22 136.15C104.71 136.12 105.19 136.09 105.67 136.05C105.71 136.05 105.75 136.05 105.78 136.05C108.98 135.79 112.14 135.3 115.25 134.6C115.26 134.59 115.27 134.59 115.28 134.59C115.77 134.48 116.26 134.36 116.75 134.23C116.8 134.22 116.85 134.21 116.9 134.19C117.35 134.08 117.8 133.96 118.25 133.84C118.35 133.81 118.44 133.78 118.54 133.76C118.94 133.64 119.35 133.52 119.75 133.4C119.89 133.36 120.04 133.31 120.18 133.27C120.54 133.16 120.9 133.04 121.25 132.93C121.45 132.86 121.65 132.79 121.85 132.73C122.15 132.62 122.46 132.52 122.76 132.41C123.01 132.32 123.27 132.23 123.52 132.13C123.77 132.04 124.03 131.95 124.28 131.85C124.58 131.74 124.89 131.61 125.19 131.49C125.4 131.41 125.6 131.33 125.81 131.25C126.14 131.11 126.46 130.97 126.78 130.83C126.97 130.75 127.16 130.67 127.35 130.59C127.58 130.49 127.81 130.38 128.05 130.28C133.15 127.96 137.97 125 142.37 121.45C142.37 121.44 142.38 121.44 142.38 121.44C142.77 121.12 143.16 120.8 143.55 120.48C143.59 120.44 143.63 120.4 143.68 120.36C144.02 120.07 144.36 119.78 144.69 119.48C144.78 119.4 144.87 119.33 144.96 119.25C145.24 118.99 145.53 118.73 145.82 118.46C145.95 118.34 146.08 118.21 146.21 118.09C146.45 117.87 146.68 117.64 146.91 117.42C147.09 117.24 147.27 117.07 147.45 116.89C147.63 116.71 147.81 116.53 147.98 116.36C148.21 116.13 148.43 115.9 148.65 115.66C148.78 115.53 148.91 115.4 149.03 115.26C149.3 114.98 149.56 114.7 149.82 114.41C149.9 114.32 149.98 114.24 150.05 114.15C150.35 113.81 150.65 113.48 150.95 113.14C150.98 113.09 151.02 113.05 151.06 113.01C151.38 112.62 151.71 112.24 152.02 111.85C152.03 111.85 152.03 111.84 152.04 111.84C152.28 111.54 152.52 111.24 152.75 110.94C150.69 106.52 148.37 102.17 145.77 97.91Z" />
					</g>
					<g id="g140">
						<path id="path142" class="shp0" d="M85.57 134.55C88.67 135.26 91.78 135.75 94.89 136.02C91.74 135.75 88.63 135.25 85.57 134.54L85.57 134.55Z" />
					</g>
					<g id="g144">
						<path id="path146" class="shp0" d="M167.07 70.66C167.06 71 167.05 71.35 167.04 71.69C167.05 71.35 167.06 71 167.07 70.66Z" />
					</g>
					<g id="g148">
						<path id="path150" class="shp0" d="M165.32 84.82C165.21 85.31 165.09 85.8 164.96 86.29C165.09 85.8 165.21 85.31 165.32 84.82Z" />
					</g>
					<g id="g152">
						<path id="path154" class="shp0" d="M167.04 67.55C167.05 67.73 167.05 67.9 167.05 68.08C167.05 67.9 167.05 67.73 167.04 67.55Z" />
					</g>
					<g id="g156">
						<path id="path158" class="shp0" d="M166.84 75.33C166.56 78.53 166.06 81.69 165.33 84.79C166.07 81.64 166.57 78.48 166.84 75.33Z" />
					</g>
					<g id="g160">
						<path id="path162" class="shp0" d="M123.52 132.13C123.27 132.23 123.01 132.32 122.76 132.41C123.01 132.32 123.27 132.23 123.52 132.13Z" />
					</g>
					<g id="g164">
						<path id="path166" class="shp0" d="M164.92 86.44C164.81 86.89 164.68 87.34 164.56 87.78C164.68 87.34 164.81 86.89 164.92 86.44Z" />
					</g>
					<g id="g168">
						<path id="path170" class="shp0" d="M164.47 88.07C164.36 88.48 164.24 88.88 164.11 89.28C164.24 88.88 164.36 88.48 164.47 88.07Z" />
					</g>
					<g id="g172">
						<path id="path174" class="shp0" d="M125.19 131.49C124.89 131.61 124.58 131.74 124.28 131.85C124.58 131.74 124.89 131.61 125.19 131.49Z" />
					</g>
					<g id="g176">
						<path id="path178" class="shp0" d="M128.05 130.28C127.81 130.38 127.58 130.49 127.35 130.59C127.58 130.49 127.81 130.38 128.05 130.28Z" />
					</g>
					<g id="g180">
						<path id="path182" class="shp0" d="M166.95 73.77C166.92 74.25 166.88 74.74 166.84 75.22C166.88 74.74 166.92 74.25 166.95 73.77Z" />
					</g>
					<g id="g184">
						<path id="path186" class="shp0" d="M167.07 69.11C167.08 69.37 167.07 69.63 167.07 69.89C167.07 69.63 167.08 69.37 167.07 69.11Z" />
					</g>
					<g id="g188">
						<path id="path190" class="shp0" d="M121.85 132.73C121.65 132.79 121.45 132.86 121.25 132.93C121.45 132.86 121.65 132.79 121.85 132.73Z" />
					</g>
					<g id="g192">
						<path id="path194" class="shp0" d="M126.78 130.83C126.46 130.97 126.14 131.11 125.81 131.25C126.13 131.11 126.46 130.97 126.78 130.83Z" />
					</g>
					<g id="g196">
						<path id="path198" class="shp0" d="M167.03 72.21C167.01 72.64 166.99 73.06 166.97 73.48C166.99 73.06 167.01 72.64 167.03 72.21Z" />
					</g>
					<g id="g200">
						<path id="path202" class="shp2" d="M82.44 133.74C82.34 133.71 82.24 133.68 82.14 133.65C82.24 133.68 82.34 133.71 82.44 133.74Z" />
					</g>
					<g id="g204">
						<path id="path206" class="shp2" d="M38.36 93.44C38.28 93.23 38.2 93.01 38.12 92.8C38.2 93.01 38.28 93.23 38.36 93.44Z" />
					</g>
					<g id="g208">
						<path id="path210" class="shp2" d="M37.79 91.88C37.71 91.67 37.64 91.45 37.56 91.24C37.64 91.45 37.71 91.67 37.79 91.88Z" />
					</g>
					<g id="g212">
						<path id="path214" class="shp2" d="M85.43 134.51L85.39 134.5L85.43 134.51Z" />
					</g>
					<g id="g216">
						<path id="path218" class="shp2" d="M48.77 111.55C45.22 107.15 42.26 102.32 39.94 97.21C42.32 102.46 45.3 107.25 48.77 111.55Z" />
					</g>
					<g id="g220">
						<path id="path222" class="shp2" d="M36.74 88.68C36.69 88.51 36.64 88.34 36.59 88.16C36.64 88.34 36.69 88.51 36.74 88.68Z" />
					</g>
					<g id="g224">
						<path id="path226" class="shp2" d="M38.93 94.89C38.95 94.93 38.96 94.96 38.97 94.99C38.89 94.79 38.81 94.59 38.73 94.39C38.8 94.56 38.86 94.73 38.93 94.89Z" />
					</g>
					<g id="g228">
						<path id="path230" class="shp2" d="M39.63 96.53C39.54 96.34 39.46 96.15 39.38 95.96C39.46 96.15 39.54 96.34 39.63 96.53Z" />
					</g>
					<g id="g232">
						<path id="path234" class="shp3" d="M85.57 134.55C85.53 134.54 85.48 134.52 85.43 134.51L85.39 134.5C84.91 134.39 84.42 134.27 83.93 134.14C83.88 134.13 83.83 134.12 83.78 134.1C83.33 133.99 82.88 133.86 82.44 133.74C82.34 133.71 82.24 133.68 82.14 133.65C81.74 133.54 81.34 133.42 80.94 133.3C80.79 133.25 80.64 133.2 80.5 133.16C80.14 133.04 79.79 132.93 79.44 132.81C79.24 132.75 79.04 132.68 78.84 132.61C78.54 132.5 78.24 132.4 77.93 132.29C77.68 132.2 77.42 132.1 77.17 132C76.92 131.91 76.67 131.82 76.42 131.72C76.11 131.6 75.81 131.48 75.5 131.35C75.33 131.28 75.16 131.22 74.98 131.15C74.95 131.13 74.92 131.12 74.89 131.11C74.56 130.97 74.24 130.83 73.91 130.68C73.72 130.6 73.54 130.52 73.35 130.44C73.11 130.33 72.87 130.22 72.63 130.11C67.42 127.71 62.65 124.7 58.38 121.21C58.38 121.21 58.37 121.21 58.37 121.2C57.98 120.89 57.59 120.56 57.21 120.24C57.17 120.2 57.13 120.16 57.08 120.13C56.74 119.83 56.4 119.53 56.07 119.24C55.98 119.16 55.9 119.08 55.81 119C55.52 118.74 55.24 118.48 54.95 118.21C54.82 118.09 54.69 117.96 54.56 117.83C54.32 117.61 54.09 117.39 53.87 117.16C53.68 116.99 53.5 116.81 53.33 116.63C53.15 116.45 52.97 116.27 52.8 116.09C52.57 115.86 52.35 115.63 52.13 115.39C52 115.26 51.88 115.13 51.76 115C51.49 114.71 51.23 114.42 50.97 114.13C50.89 114.05 50.82 113.96 50.74 113.88C50.44 113.54 50.15 113.2 49.85 112.86C49.82 112.81 49.78 112.77 49.74 112.73C49.42 112.34 49.1 111.96 48.78 111.56C48.78 111.56 48.77 111.55 48.77 111.55C45.3 107.25 42.32 102.46 39.94 97.21C39.83 96.99 39.73 96.76 39.63 96.53C39.54 96.34 39.46 96.15 39.38 95.96C39.24 95.63 39.11 95.31 38.97 94.99C38.96 94.96 38.94 94.93 38.93 94.89C38.86 94.73 38.8 94.56 38.73 94.39C38.61 94.08 38.48 93.76 38.36 93.44C38.28 93.23 38.2 93.01 38.12 92.8C38.01 92.49 37.89 92.19 37.79 91.88C37.71 91.67 37.64 91.45 37.56 91.24C37.46 90.93 37.35 90.61 37.25 90.3C37.18 90.1 37.12 89.9 37.06 89.69C36.95 89.36 36.85 89.02 36.74 88.68C36.69 88.51 36.64 88.34 36.59 88.16C36.48 87.78 36.38 87.4 36.27 87.02C36.24 86.9 36.21 86.77 36.17 86.65C36.06 86.2 35.94 85.75 35.83 85.29C35.82 85.24 35.81 85.19 35.79 85.14C35.21 82.69 34.76 80.2 34.45 77.69C34.44 77.62 34.44 77.55 34.43 77.48C34.33 105.35 33.93 197.86 33.93 197.86C33.93 197.86 84.85 188.47 85.57 134.55Z" />
					</g>
					<g id="g236">
						<path id="path238" class="shp2" d="M43.99 34.58C43.98 34.58 43.97 34.58 43.96 34.58C43.92 34.66 43.87 34.73 43.82 34.81C43.51 35.33 43.2 35.86 42.9 36.4C43.26 35.79 43.62 35.18 43.99 34.58Z" />
					</g>
					<g id="g240">
						<path id="path242" class="shp2" d="M34.47 77.7C34.46 77.58 34.44 77.47 34.43 77.36C34.43 77.4 34.43 77.44 34.43 77.48C34.44 77.55 34.44 77.62 34.45 77.69C34.46 77.69 34.46 77.69 34.47 77.7Z" />
					</g>
					<g id="g244">
						<path id="path246" class="shp2" d="M49.74 112.73C49.42 112.34 49.1 111.95 48.78 111.56C49.1 111.96 49.42 112.34 49.74 112.73Z" />
					</g>
					<g id="g248">
						<path id="path250" class="shp2" d="M36.27 87.02C36.24 86.9 36.21 86.77 36.17 86.65C36.21 86.77 36.24 86.9 36.27 87.02Z" />
					</g>
					<g id="g252">
						<path id="path254" class="shp2" d="M35.83 85.29C35.82 85.24 35.81 85.19 35.79 85.14C35.81 85.19 35.82 85.24 35.83 85.29Z" />
					</g>
					<g id="g256">
						<path id="path258" class="shp3" d="M81.23 85.6C78.53 68.76 74.99 52.76 71.88 40.14C62.81 37.3 53.46 35.44 43.99 34.58C43.62 35.18 43.26 35.79 42.9 36.4C38.12 44.92 34.45 56.02 34.45 70.07C34.45 71.04 34.44 73.6 34.43 77.36C34.44 77.47 34.46 77.58 34.47 77.7C39.05 79.34 43.77 80.76 48.61 81.92C59.54 84.54 70.48 85.72 81.23 85.6Z" />
					</g>
					<g id="g260">
						<path id="path262" class="shp2" d="M37.25 90.3C37.18 90.1 37.12 89.9 37.06 89.69C37.12 89.9 37.18 90.1 37.25 90.3Z" />
					</g>
					<g id="g264">
						<path id="path266" class="shp2" d="M77.93 132.29C77.68 132.2 77.42 132.1 77.17 132C77.42 132.1 77.68 132.2 77.93 132.29Z" />
					</g>
					<g id="g268">
						<path id="path270" class="shp2" d="M50.74 113.88C50.44 113.54 50.14 113.2 49.85 112.86C50.15 113.2 50.44 113.54 50.74 113.88Z" />
					</g>
					<g id="g272">
						<path id="path274" class="shp2" d="M74.89 131.11C74.56 130.97 74.24 130.83 73.91 130.68C74.24 130.83 74.56 130.97 74.89 131.11Z" />
					</g>
					<g id="g276">
						<path id="path278" class="shp2" d="M83.93 134.14C83.88 134.13 83.83 134.12 83.78 134.1C83.83 134.12 83.88 134.13 83.93 134.14Z" />
					</g>
					<g id="g280">
						<path id="path282" class="shp2" d="M73.35 130.44C73.11 130.33 72.87 130.22 72.63 130.11C72.87 130.22 73.11 130.33 73.35 130.44Z" />
					</g>
					<g id="g284">
						<path id="path286" class="shp2" d="M79.44 132.81C79.24 132.75 79.04 132.68 78.84 132.61C79.04 132.68 79.24 132.75 79.44 132.81Z" />
					</g>
					<g id="g288">
						<path id="path290" class="shp2" d="M80.94 133.3C80.79 133.25 80.64 133.2 80.5 133.16C80.64 133.2 80.79 133.25 80.94 133.3Z" />
					</g>
					<g id="g292">
						<path id="path294" class="shp2" d="M76.42 131.72C76.11 131.6 75.81 131.48 75.5 131.35C75.81 131.48 76.11 131.6 76.42 131.72Z" />
					</g>
					<g id="g296">
						<path id="path298" class="shp2" d="M52.8 116.09C52.57 115.86 52.35 115.63 52.13 115.39C52.35 115.63 52.57 115.86 52.8 116.09Z" />
					</g>
					<g id="g300">
						<path id="path302" class="shp2" d="M51.76 115C51.49 114.71 51.23 114.42 50.97 114.13C51.23 114.42 51.49 114.71 51.76 115Z" />
					</g>
					<g id="g304">
						<path id="path306" class="shp2" d="M58.38 121.21C58.38 121.21 58.37 121.21 58.37 121.2C58.37 121.21 58.38 121.21 58.38 121.21Z" />
					</g>
					<g id="g308">
						<path id="path310" class="shp2" d="M53.87 117.16C53.68 116.99 53.5 116.81 53.32 116.63C53.5 116.81 53.68 116.99 53.87 117.16Z" />
					</g>
					<g id="g312">
						<path id="path314" class="shp2" d="M57.21 120.24C57.17 120.2 57.13 120.16 57.08 120.13C57.13 120.16 57.17 120.2 57.21 120.24Z" />
					</g>
					<g id="g316">
						<path id="path318" class="shp2" d="M56.07 119.24C55.98 119.16 55.9 119.08 55.81 119C55.9 119.08 55.98 119.16 56.07 119.24Z" />
					</g>
					<g id="g320">
						<path id="path322" class="shp2" d="M54.95 118.21C54.82 118.09 54.69 117.96 54.56 117.83C54.69 117.96 54.82 118.09 54.95 118.21Z" />
					</g>
					<g id="g324">
						<path id="path326" class="shp2" d="M72.63 130.11C67.55 127.77 62.75 124.78 58.38 121.21C62.65 124.7 67.42 127.71 72.63 130.11Z" />
					</g>
					<g id="g328">
						<path id="path330" class="shp2" d="M48.78 111.56C48.78 111.56 48.77 111.55 48.77 111.55C48.77 111.55 48.78 111.56 48.78 111.56Z" />
					</g>
					<g id="g332">
						<path id="path334" class="shp2" d="M49.85 112.86C49.82 112.81 49.78 112.77 49.74 112.73C49.78 112.77 49.82 112.81 49.85 112.86Z" />
					</g>
					<g id="g336">
						<path id="path338" class="shp2" d="M39.94 97.21C39.83 96.98 39.73 96.76 39.63 96.53C39.73 96.76 39.83 96.99 39.94 97.21Z" />
					</g>
					<g id="g340">
						<path id="path342" class="shp2" d="M57.08 120.13C56.74 119.83 56.41 119.54 56.07 119.24C56.4 119.53 56.74 119.83 57.08 120.13Z" />
					</g>
					<g id="g344">
						<path id="path346" class="shp2" d="M55.81 119C55.52 118.74 55.24 118.48 54.95 118.21C55.24 118.48 55.52 118.74 55.81 119Z" />
					</g>
					<g id="g348">
						<path id="path350" class="shp2" d="M54.56 117.83C54.32 117.61 54.09 117.39 53.87 117.16C54.09 117.39 54.32 117.61 54.56 117.83Z" />
					</g>
					<g id="g352">
						<path id="path354" class="shp2" d="M39.38 95.96C39.24 95.63 39.11 95.31 38.97 94.99C39.11 95.31 39.24 95.63 39.38 95.96Z" />
					</g>
					<g id="g356">
						<path id="path358" class="shp2" d="M52.13 115.39C52 115.26 51.88 115.13 51.76 115C51.88 115.13 52 115.26 52.13 115.39Z" />
					</g>
					<g id="g360">
						<path id="path362" class="shp2" d="M53.32 116.63C53.15 116.45 52.97 116.27 52.8 116.09C52.97 116.27 53.15 116.45 53.32 116.63Z" />
					</g>
					<g id="g364">
						<path id="path366" class="shp2" d="M50.97 114.13C50.89 114.05 50.82 113.96 50.74 113.88C50.82 113.96 50.89 114.05 50.97 114.13Z" />
					</g>
					<g id="g368">
						<path id="path370" class="shp2" d="M34.45 77.69C34.76 80.2 35.21 82.69 35.79 85.14C35.21 82.67 34.77 80.18 34.47 77.69C34.46 77.69 34.46 77.69 34.45 77.69Z" />
					</g>
					<g id="g372">
						<path id="path374" class="shp2" d="M38.73 94.39C38.61 94.08 38.48 93.76 38.36 93.44C38.48 93.76 38.61 94.08 38.73 94.39Z" />
					</g>
					<g id="g376">
						<path id="path378" class="shp2" d="M85.43 134.51C85.48 134.52 85.53 134.54 85.57 134.55L85.57 134.54C85.53 134.53 85.48 134.52 85.43 134.51Z" />
					</g>
					<g id="g380">
						<path id="path382" class="shp2" d="M36.17 86.65C36.06 86.2 35.94 85.75 35.83 85.29C35.94 85.75 36.06 86.2 36.17 86.65Z" />
					</g>
					<g id="g384">
						<path id="path386" class="shp4" d="M85.59 133.39C85.59 118.13 83.78 101.49 81.23 85.6C70.48 85.72 59.54 84.54 48.61 81.92C43.77 80.76 39.05 79.34 34.47 77.7C34.77 80.18 35.21 82.67 35.79 85.14C35.81 85.19 35.82 85.24 35.83 85.29C35.94 85.75 36.06 86.2 36.17 86.65C36.21 86.77 36.24 86.9 36.27 87.02C36.38 87.4 36.48 87.78 36.59 88.16C36.64 88.34 36.69 88.51 36.74 88.68C36.85 89.02 36.95 89.36 37.06 89.69C37.12 89.9 37.18 90.1 37.25 90.3C37.35 90.61 37.46 90.92 37.56 91.24C37.64 91.45 37.71 91.67 37.79 91.88C37.89 92.19 38.01 92.49 38.12 92.8C38.2 93.01 38.28 93.23 38.36 93.44C38.48 93.76 38.61 94.08 38.73 94.39C38.81 94.59 38.89 94.79 38.97 94.99C39.11 95.31 39.24 95.63 39.38 95.96C39.46 96.15 39.54 96.34 39.63 96.53C39.73 96.76 39.83 96.99 39.94 97.21C42.26 102.32 45.22 107.15 48.77 111.55C48.77 111.55 48.78 111.56 48.78 111.56C49.1 111.95 49.42 112.34 49.74 112.73C49.78 112.77 49.82 112.81 49.85 112.86C50.14 113.2 50.44 113.54 50.74 113.88C50.82 113.96 50.89 114.05 50.97 114.13C51.23 114.42 51.49 114.71 51.76 115C51.88 115.13 52 115.26 52.13 115.39C52.35 115.63 52.57 115.86 52.8 116.09C52.97 116.27 53.15 116.45 53.32 116.63C53.5 116.81 53.68 116.99 53.87 117.16C54.09 117.39 54.32 117.61 54.56 117.83C54.69 117.96 54.82 118.09 54.95 118.21C55.24 118.48 55.52 118.74 55.81 119C55.9 119.08 55.98 119.16 56.07 119.24C56.41 119.54 56.74 119.83 57.08 120.13C57.13 120.16 57.17 120.2 57.21 120.24C57.59 120.56 57.98 120.89 58.37 121.2C58.37 121.21 58.38 121.21 58.38 121.21C62.75 124.78 67.55 127.77 72.63 130.11C72.87 130.22 73.11 130.33 73.35 130.44C73.54 130.52 73.72 130.6 73.91 130.68C74.24 130.83 74.56 130.97 74.89 131.11C75.09 131.19 75.3 131.27 75.5 131.35C75.81 131.48 76.11 131.6 76.42 131.72C76.67 131.82 76.92 131.91 77.17 132C77.42 132.1 77.68 132.2 77.93 132.29C78.23 132.4 78.54 132.5 78.84 132.61C79.04 132.68 79.24 132.75 79.44 132.81C79.79 132.93 80.14 133.04 80.5 133.16C80.64 133.2 80.79 133.25 80.94 133.3C81.34 133.42 81.74 133.54 82.14 133.65C82.24 133.68 82.34 133.71 82.44 133.74C82.88 133.86 83.33 133.99 83.78 134.1C83.83 134.12 83.88 134.13 83.93 134.14C84.42 134.27 84.9 134.39 85.39 134.5L85.43 134.51C85.48 134.52 85.53 134.53 85.57 134.54C85.58 134.16 85.59 133.78 85.59 133.39Z" />
					</g>
					<g id="g388">
						<path id="path390" class="shp2" d="M37.56 91.24C37.46 90.92 37.35 90.61 37.25 90.3C37.35 90.61 37.46 90.93 37.56 91.24Z" />
					</g>
					<g id="g392">
						<path id="path394" class="shp2" d="M38.12 92.8C38.01 92.49 37.89 92.19 37.79 91.88C37.89 92.19 38.01 92.49 38.12 92.8Z" />
					</g>
					<g id="g396">
						<path id="path398" class="shp2" d="M37.06 89.69C36.95 89.36 36.85 89.02 36.74 88.68C36.85 89.02 36.95 89.36 37.06 89.69Z" />
					</g>
					<g id="g400">
						<path id="path402" class="shp2" d="M36.59 88.16C36.48 87.78 36.38 87.4 36.27 87.02C36.38 87.4 36.48 87.78 36.59 88.16Z" />
					</g>
					<g id="g404">
						<path id="path406" class="shp2" d="M78.84 132.61C78.54 132.5 78.23 132.4 77.93 132.29C78.24 132.4 78.54 132.5 78.84 132.61Z" />
					</g>
					<g id="g408">
						<path id="path410" class="shp2" d="M82.14 133.65C81.74 133.54 81.34 133.42 80.94 133.3C81.34 133.42 81.74 133.54 82.14 133.65Z" />
					</g>
					<g id="g412">
						<path id="path414" class="shp2" d="M83.78 134.1C83.33 133.99 82.88 133.86 82.44 133.74C82.88 133.86 83.33 133.99 83.78 134.1Z" />
					</g>
					<g id="g416">
						<path id="path418" class="shp2" d="M77.17 132C76.92 131.91 76.67 131.82 76.42 131.72C76.67 131.82 76.92 131.91 77.17 132Z" />
					</g>
					<g id="g420">
						<path id="path422" class="shp2" d="M73.91 130.68C73.72 130.6 73.54 130.52 73.35 130.44C73.54 130.52 73.72 130.6 73.91 130.68Z" />
					</g>
					<g id="g424">
						<path id="path426" class="shp2" d="M80.5 133.16C80.14 133.04 79.79 132.93 79.44 132.81C79.79 132.93 80.14 133.04 80.5 133.16Z" />
					</g>
					<g id="g428">
						<path id="path430" class="shp2" d="M58.37 121.2C57.98 120.89 57.59 120.56 57.21 120.24C57.59 120.56 57.98 120.89 58.37 121.2Z" />
					</g>
					<g id="g432">
						<path id="path434" class="shp2" d="M85.39 134.5C84.9 134.39 84.42 134.27 83.93 134.14C84.42 134.27 84.91 134.39 85.39 134.5Z" />
					</g>
					<g id="g436">
						<path id="path438" class="shp2" d="M74.98 131.15C75.16 131.22 75.33 131.28 75.5 131.35C75.3 131.27 75.09 131.19 74.89 131.11C74.92 131.12 74.95 131.13 74.98 131.15Z" />
					</g>
					<g id="g440">
						<path id="path442" class="shp5" d="M156.15 33.19C156.41 33.57 156.65 33.96 156.9 34.35C156.65 33.96 156.41 33.57 156.15 33.19Z" />
					</g>
					<g id="g444">
						<path id="path446" class="shp5" d="M156.96 34.45C157.23 34.87 157.49 35.3 157.74 35.73C157.49 35.3 157.23 34.87 156.96 34.45Z" />
					</g>
					<g id="g448">
						<path id="path450" class="shp5" d="M161.41 42.87C161.49 43.06 161.57 43.25 161.65 43.43C161.57 43.25 161.49 43.06 161.41 42.87Z" />
					</g>
					<g id="g452">
						<path id="path454" class="shp5" d="M162.11 44.5C162.09 44.47 162.08 44.44 162.07 44.41C162.15 44.61 162.23 44.82 162.31 45.02C162.24 44.85 162.18 44.68 162.11 44.5Z" />
					</g>
					<g id="g456">
						<path id="path458" class="shp5" d="M166.97 73.48C166.96 73.57 166.96 73.67 166.95 73.77C166.96 73.67 166.96 73.57 166.97 73.48Z" />
					</g>
					<g id="g460">
						<path id="path462" class="shp5" d="M162.54 93.8C162.42 94.11 162.3 94.41 162.17 94.71C162.3 94.41 162.42 94.11 162.54 93.8Z" />
					</g>
					<g id="g464">
						<path id="path466" class="shp5" d="M155.33 31.96C155.56 32.29 155.78 32.62 156 32.95C155.78 32.62 155.56 32.29 155.33 31.96Z" />
					</g>
					<g id="g468">
						<path id="path470" class="shp5" d="M152.79 28.51C152.84 28.58 152.9 28.65 152.96 28.73C152.9 28.65 152.84 28.58 152.79 28.51Z" />
					</g>
					<g id="g472">
						<path id="path474" class="shp6" d="M165.05 53.47C165.04 53.42 165.03 53.36 165.01 53.31C164.9 52.86 164.78 52.42 164.66 51.97C164.63 51.87 164.6 51.78 164.58 51.68C164.46 51.28 164.34 50.87 164.22 50.47C164.18 50.32 164.13 50.18 164.09 50.03C163.98 49.68 163.86 49.32 163.75 48.97C163.68 48.77 163.61 48.57 163.55 48.37C163.44 48.06 163.34 47.76 163.23 47.46C163.14 47.21 163.05 46.95 162.95 46.69C162.86 46.44 162.77 46.19 162.67 45.94C162.56 45.64 162.43 45.33 162.31 45.02C162.23 44.82 162.15 44.61 162.07 44.41C161.93 44.08 161.79 43.76 161.65 43.43C161.57 43.25 161.49 43.06 161.41 42.87C161.3 42.62 161.19 42.38 161.08 42.13C160.08 39.95 158.98 37.82 157.76 35.75C157.75 35.75 157.75 35.74 157.74 35.73C157.49 35.3 157.23 34.88 156.96 34.45C156.94 34.41 156.92 34.38 156.9 34.35C156.65 33.96 156.41 33.57 156.15 33.19C156.1 33.11 156.05 33.03 156 32.95C155.78 32.62 155.56 32.29 155.33 31.96C155.24 31.83 155.15 31.69 155.05 31.56C154.87 31.29 154.68 31.03 154.49 30.77C154.34 30.56 154.19 30.36 154.04 30.15C153.91 29.97 153.78 29.8 153.64 29.62C153.42 29.32 153.19 29.02 152.96 28.73C152.9 28.65 152.84 28.58 152.79 28.51C134.94 5.89 103.67 -3.05 75.47 8.06C75.42 8.08 75.37 8.09 75.32 8.11C75.26 8.14 75.2 8.16 75.14 8.19C75.13 8.19 75.12 8.2 75.12 8.2C71.42 9.68 67.93 11.47 64.67 13.54C64.67 13.54 64.68 13.57 64.69 13.62C65 14.64 68.13 24.94 71.88 40.14C93.35 46.85 113.19 58.99 129.15 76.02C142.25 70.75 154.46 63.43 165.27 54.35C165.2 54.06 165.13 53.76 165.05 53.47Z" />
					</g>
					<g id="g476">
						<path id="path478" class="shp5" d="M165.41 54.93C165.29 54.44 165.18 53.96 165.05 53.47C165.13 53.76 165.2 54.06 165.27 54.35C165.31 54.55 165.36 54.74 165.41 54.93Z" />
					</g>
					<g id="g480">
						<path id="path482" class="shp5" d="M163.11 92.28C163.02 92.54 162.92 92.79 162.82 93.05C162.92 92.79 163.02 92.54 163.11 92.28Z" />
					</g>
					<g id="g484">
						<path id="path486" class="shp5" d="M154.49 30.77C154.68 31.03 154.87 31.29 155.05 31.56C154.87 31.29 154.68 31.03 154.49 30.77Z" />
					</g>
					<g id="g488">
						<path id="path490" class="shp5" d="M153.64 29.62C153.78 29.8 153.91 29.97 154.04 30.15C153.91 29.97 153.78 29.8 153.64 29.62Z" />
					</g>
					<g id="g492">
						<path id="path494" class="shp5" d="M161.93 95.33C161.79 95.66 161.65 95.98 161.51 96.3C161.65 95.98 161.79 95.65 161.93 95.33Z" />
					</g>
					<g id="g496">
						<path id="path498" class="shp5" d="M157.76 35.75C158.98 37.82 160.08 39.95 161.08 42.13C160.07 39.92 158.96 37.8 157.76 35.75Z" />
					</g>
					<g id="g500">
						<path id="path502" class="shp5" d="M166.99 66.29C167.01 66.71 167.03 67.13 167.04 67.55C167.03 67.13 167.01 66.71 166.99 66.29Z" />
					</g>
					<g id="g504">
						<path id="path506" class="shp5" d="M164.96 86.29C164.95 86.34 164.94 86.39 164.92 86.44C164.94 86.39 164.95 86.34 164.96 86.29Z" />
					</g>
					<g id="g508">
						<path id="path510" class="shp5" d="M167.05 68.08C167.06 68.42 167.07 68.76 167.07 69.11C167.07 68.76 167.06 68.42 167.05 68.08Z" />
					</g>
					<g id="g512">
						<path id="path514" class="shp5" d="M166.87 64.55C166.91 65.03 166.94 65.51 166.97 66C166.94 65.51 166.91 65.03 166.87 64.55Z" />
					</g>
					<g id="g516">
						<path id="path518" class="shp5" d="M166.84 75.22C166.84 75.26 166.84 75.29 166.84 75.33C166.84 75.29 166.84 75.26 166.84 75.22Z" />
					</g>
					<g id="g520">
						<path id="path522" class="shp5" d="M167.04 71.69C167.04 71.87 167.03 72.04 167.03 72.21C167.03 72.04 167.04 71.87 167.04 71.69Z" />
					</g>
					<g id="g524">
						<path id="path526" class="shp5" d="M165.42 54.97C166.12 58.08 166.61 61.24 166.87 64.43C166.61 61.28 166.13 58.12 165.42 54.97Z" />
					</g>
					<g id="g528">
						<path id="path530" class="shp5" d="M165.33 84.79C165.33 84.8 165.33 84.81 165.32 84.82C165.33 84.81 165.33 84.8 165.33 84.79Z" />
					</g>
					<g id="g532">
						<path id="path534" class="shp5" d="M167.07 69.89C167.07 70.14 167.07 70.4 167.07 70.66C167.07 70.4 167.07 70.14 167.07 69.89Z" />
					</g>
					<g id="g536">
						<path id="path538" class="shp5" d="M164.56 87.78C164.53 87.88 164.5 87.98 164.47 88.07C164.5 87.98 164.53 87.88 164.56 87.78Z" />
					</g>
					<g id="g540">
						<path id="path542" class="shp5" d="M161.26 96.87C161.16 97.1 161.05 97.33 160.94 97.56C161.05 97.33 161.16 97.1 161.26 96.87Z" />
					</g>
					<g id="g544">
						<path id="path546" class="shp5" d="M163.75 48.97C163.86 49.32 163.98 49.68 164.09 50.03C163.98 49.68 163.86 49.32 163.75 48.97Z" />
					</g>
					<g id="g548">
						<path id="path550" class="shp5" d="M162.67 45.94C162.77 46.19 162.86 46.44 162.95 46.69C162.86 46.44 162.77 46.19 162.67 45.94Z" />
					</g>
					<g id="g552">
						<path id="path554" class="shp5" d="M163.23 47.46C163.34 47.76 163.44 48.06 163.55 48.37C163.44 48.06 163.34 47.76 163.23 47.46Z" />
					</g>
					<g id="g556">
						<path id="path558" class="shp5" d="M164.22 50.47C164.34 50.87 164.46 51.28 164.58 51.68C164.46 51.28 164.34 50.87 164.22 50.47Z" />
					</g>
					<g id="g560">
						<path id="path562" class="shp5" d="M163.63 90.78C163.57 90.98 163.5 91.18 163.43 91.38C163.5 91.18 163.57 90.98 163.63 90.78Z" />
					</g>
					<g id="g564">
						<path id="path566" class="shp5" d="M164.66 51.97C164.78 52.42 164.9 52.86 165.01 53.31C164.9 52.87 164.78 52.42 164.66 51.97Z" />
					</g>
					<g id="g568">
						<path id="path570" class="shp5" d="M164.11 89.28C164.07 89.43 164.02 89.57 163.98 89.72C164.02 89.57 164.07 89.43 164.11 89.28Z" />
					</g>
					<g id="g572">
						<path id="path574" class="shp7" d="M129.15 76.02C135.31 82.6 140.9 89.9 145.77 97.91C148.37 102.17 150.69 106.52 152.75 110.94C156.01 106.8 158.75 102.31 160.94 97.56C161.05 97.33 161.16 97.1 161.26 96.87C161.35 96.68 161.42 96.49 161.51 96.3C161.65 95.98 161.79 95.66 161.92 95.33C162.01 95.13 162.09 94.92 162.17 94.71C162.3 94.41 162.42 94.11 162.54 93.8C162.64 93.55 162.73 93.3 162.82 93.05C162.92 92.79 163.02 92.54 163.11 92.28C163.22 91.98 163.32 91.68 163.43 91.38C163.5 91.18 163.57 90.98 163.63 90.78C163.75 90.43 163.86 90.07 163.98 89.72C164.02 89.57 164.07 89.43 164.11 89.28C164.24 88.88 164.36 88.48 164.47 88.07C164.5 87.98 164.53 87.88 164.56 87.78C164.68 87.34 164.81 86.89 164.92 86.44C164.94 86.39 164.95 86.34 164.96 86.29C165.09 85.8 165.21 85.31 165.32 84.82C165.33 84.81 165.33 84.8 165.33 84.79C166.06 81.69 166.56 78.53 166.84 75.33C166.84 75.29 166.84 75.26 166.84 75.22C166.88 74.74 166.92 74.25 166.95 73.77C166.96 73.67 166.96 73.57 166.97 73.48C166.99 73.06 167.01 72.64 167.03 72.21C167.03 72.04 167.04 71.87 167.04 71.69C167.05 71.35 167.06 71 167.07 70.66C167.07 70.4 167.07 70.14 167.07 69.89C167.07 69.63 167.08 69.37 167.07 69.11C167.07 68.76 167.06 68.42 167.05 68.08C167.05 67.9 167.05 67.73 167.04 67.55C167.03 67.13 167.01 66.71 166.99 66.29C166.98 66.19 166.98 66.09 166.97 66C166.94 65.51 166.91 65.03 166.87 64.55C166.87 64.51 166.87 64.47 166.87 64.43C166.61 61.24 166.12 58.08 165.42 54.97L165.41 54.93C165.36 54.74 165.31 54.55 165.27 54.35C154.46 63.43 142.25 70.75 129.15 76.02Z" />
					</g>
					<g id="g576">
						<path id="path578" class="shp8" d="M71.88 40.14C68.13 24.94 65 14.64 64.69 13.62C64.68 13.57 64.67 13.54 64.67 13.54C64.67 13.54 64.66 13.53 64.66 13.53C64.36 13.77 52.71 20.14 43.97 34.57C43.97 34.57 43.97 34.58 43.96 34.58C43.92 34.66 43.87 34.73 43.82 34.81C43.87 34.73 43.92 34.66 43.96 34.58C43.97 34.58 43.98 34.58 43.99 34.58C53.46 35.44 62.81 37.3 71.88 40.14Z" />
					</g>
				</g>
			</g>
		</g>
	</g>
</svg>