<svg width="123" height="119" viewBox="0 0 123 119" fill="none" xmlns="http://www.w3.org/2000/svg">
<path d="M117.103 64.8745L112.134 63.2831C110.945 62.9023 110.022 61.9634 109.647 60.7725C103.929 42.5899 82.6967 34.2397 61.3247 34.2397C36.3208 34.2397 16.0511 45.6658 16.0511 70.8983C16.0511 85.4407 23.1837 95.6264 34.2036 101.509C34.4747 101.654 34.6678 101.911 34.7258 102.213L37.1946 115.036C37.4233 116.244 38.479 117.119 39.7085 117.119H48.0454C49.2748 117.119 50.3306 116.244 50.5592 115.036L51.9088 107.907C52.0083 107.381 52.4985 107.026 53.0302 107.088C55.7191 107.4 58.4912 107.557 61.3245 107.557C65.1114 107.557 68.8935 107.278 72.5863 106.719C73.1289 106.637 73.6404 106.994 73.7425 107.533L75.1627 115.037C75.3914 116.245 76.4471 117.119 77.6766 117.119H86.0135C87.2429 117.119 88.2987 116.245 88.5273 115.037L91.0916 101.459C91.1494 101.153 91.3466 100.891 91.6236 100.747C98.1678 97.3449 103.582 92.6638 107.035 86.696C107.495 85.9006 108.223 85.2947 109.098 85.0145L117.103 82.4501C119.133 81.8 120.51 79.9131 120.51 77.7821V69.5426C120.51 67.4114 119.133 65.5245 117.103 64.8745Z" fill="#27AE60"/>
<path d="M119.886 67.1561C119.669 66.7692 119.404 66.4115 119.092 66.0961C119.086 66.0895 119.08 66.0819 119.073 66.0753C118.534 65.536 117.864 65.1183 117.103 64.8745L113.42 63.6946V68.0278C113.42 73.4111 109.99 78.1962 104.891 79.9254C102.573 80.6679 100.568 82.1369 99.0997 84.0783C97.3014 86.4557 95.1643 88.5918 92.7556 90.488C89.9162 92.7232 88.0009 95.9218 87.4536 99.4935C87.0634 102.041 86.7608 105.464 86.5682 107.39C86.4198 108.871 85.1748 109.999 83.6861 109.999H79.5597C78.3303 109.999 77.2745 109.125 77.0459 107.917L75.6257 99.7073C75.5236 99.168 75.0123 98.8112 74.4697 98.8932C70.7771 99.4511 65.1116 99.7309 61.3247 99.7309C58.4915 99.7309 53.3655 99.5743 50.6766 99.2621C50.1449 99.2002 49.6547 99.5547 49.5549 100.081L48.2054 107.681C47.9767 108.889 46.9209 109.764 45.6915 109.764H41.5916C40.3622 109.764 39.3064 108.889 39.0778 107.681L37.0798 95.7991C37.0217 95.4974 36.8286 95.2401 36.5578 95.0956C26.5439 89.75 17.3874 79.4377 16.2283 66.9455C16.2283 66.9458 16.2283 66.946 16.2283 66.9462C16.2009 67.2528 16.1767 67.5618 16.1551 67.8726C16.1546 67.8788 16.1544 67.8849 16.1539 67.8911C16.1518 67.9219 16.1499 67.9527 16.148 67.9833C16.1295 68.2629 16.1134 68.5441 16.1002 68.827C16.0947 68.9445 16.0909 69.0632 16.0866 69.1812C16.0784 69.397 16.0698 69.6127 16.0644 69.8306C16.0563 70.1839 16.0509 70.5393 16.0509 70.8983C16.0509 72.716 16.1622 74.4657 16.3788 76.1475C16.6442 78.2078 17.0687 80.1651 17.6381 82.0217C17.6691 82.1231 17.7016 82.2238 17.7336 82.3248C17.8127 82.5745 17.8949 82.8233 17.98 83.0709C18.0139 83.1697 18.0475 83.2687 18.0821 83.367C18.3162 84.0281 18.5697 84.6754 18.8417 85.3092C18.8706 85.3764 18.8993 85.4437 18.9286 85.5108C19.0628 85.8174 19.2006 86.1214 19.3435 86.4215C19.3672 86.4713 19.3918 86.5203 19.4155 86.5699C19.5487 86.8461 19.6864 87.1203 19.8271 87.3927C19.8513 87.4394 19.875 87.4866 19.8994 87.5332C20.0529 87.8256 20.2114 88.1144 20.3735 88.4004C20.4088 88.4625 20.4443 88.5243 20.4801 88.5862C21.0049 89.4976 21.5721 90.3759 22.1801 91.2215C22.2381 91.3023 22.2973 91.3824 22.3563 91.4625C22.5039 91.6637 22.6539 91.8629 22.806 92.0603C22.866 92.138 22.9254 92.2159 22.9861 92.2932C23.192 92.555 23.4005 92.8144 23.6144 93.0696C23.6163 93.072 23.6185 93.0744 23.6204 93.0767C23.8346 93.3319 24.054 93.5826 24.276 93.8311C24.3432 93.9065 24.4117 93.9809 24.4797 94.0555C24.6456 94.2377 24.8136 94.4178 24.9837 94.5962C25.0524 94.6682 25.1206 94.7405 25.1898 94.8118C25.4227 95.0515 25.6582 95.289 25.8987 95.5221C25.8992 95.5226 25.8999 95.5233 25.9004 95.5238C26.1683 95.7834 26.441 96.0388 26.7185 96.29C27.2731 96.7923 27.846 97.2778 28.4365 97.7464C29.0269 98.2151 29.6351 98.6669 30.2599 99.1017C30.5724 99.3192 30.889 99.5324 31.2098 99.7416C31.4986 99.9297 31.7917 100.114 32.0869 100.295C32.1717 100.347 32.2575 100.398 32.343 100.45C32.5662 100.584 32.7906 100.717 33.0161 100.847C33.1055 100.899 33.1945 100.951 33.2846 101.002C33.5883 101.174 33.894 101.344 34.2039 101.51C34.2716 101.546 34.3344 101.589 34.3915 101.638C34.4429 101.682 34.488 101.733 34.5292 101.786C34.5415 101.801 34.5522 101.818 34.5633 101.835C34.5917 101.876 34.6166 101.919 34.6386 101.964C34.6474 101.982 34.6566 101.999 34.6645 102.018C34.6905 102.081 34.7126 102.145 34.7258 102.213L37.1947 115.037C37.2233 115.188 37.2648 115.334 37.3179 115.473C37.3444 115.543 37.374 115.611 37.4062 115.678C37.4385 115.744 37.4735 115.809 37.511 115.872C37.5484 115.935 37.5887 115.996 37.6313 116.055C37.6742 116.115 37.7195 116.172 37.7669 116.228C37.8206 116.29 37.8782 116.349 37.9377 116.406C37.9564 116.424 37.9763 116.441 37.9957 116.459C38.0386 116.497 38.0824 116.535 38.1279 116.571C38.1507 116.589 38.1739 116.606 38.1974 116.623C38.244 116.657 38.2919 116.69 38.3407 116.721C38.3627 116.735 38.3843 116.749 38.4068 116.763C38.4776 116.804 38.5501 116.844 38.625 116.879C38.6262 116.88 38.6271 116.88 38.6283 116.881C38.7032 116.915 38.7804 116.946 38.8589 116.973C38.8837 116.982 38.9091 116.989 38.9342 116.997C38.9901 117.015 39.0468 117.031 39.1041 117.045C39.133 117.052 39.1621 117.059 39.1915 117.065C39.2496 117.077 39.3083 117.086 39.3678 117.094C39.3946 117.098 39.4211 117.102 39.4481 117.105C39.5337 117.114 39.6199 117.119 39.7073 117.119C39.7078 117.119 39.7083 117.119 39.7085 117.119H48.0454C48.4297 117.119 48.797 117.034 49.1273 116.88C49.2595 116.818 49.3855 116.745 49.5047 116.662C49.6236 116.58 49.7357 116.487 49.839 116.385C49.9942 116.233 50.1302 116.061 50.243 115.872C50.3932 115.62 50.5022 115.339 50.5593 115.037L51.9088 107.907V107.907C51.92 107.848 51.9377 107.791 51.9584 107.737C51.9645 107.721 51.9716 107.705 51.9787 107.689C51.996 107.65 52.0152 107.613 52.037 107.576C52.0455 107.562 52.0538 107.548 52.0631 107.534C52.0946 107.487 52.1285 107.442 52.1669 107.401C52.2713 107.29 52.4019 107.208 52.5448 107.153C52.5585 107.148 52.5722 107.143 52.5862 107.138C52.6206 107.126 52.6549 107.116 52.6905 107.109C52.7175 107.102 52.7452 107.099 52.7729 107.095C52.7997 107.091 52.826 107.086 52.8532 107.085C52.9113 107.081 52.9703 107.082 53.0302 107.089C53.4783 107.141 53.9296 107.187 54.3824 107.23C54.4957 107.241 54.6091 107.252 54.7226 107.262C55.1752 107.303 55.6291 107.341 56.0859 107.374C56.0881 107.374 56.0904 107.374 56.0926 107.374C56.5494 107.407 57.0088 107.433 57.4696 107.457C57.5857 107.463 57.7018 107.469 57.8181 107.475C58.2809 107.496 58.745 107.515 59.2115 107.528C59.9119 107.548 60.6163 107.558 61.3247 107.558C62.2715 107.558 63.2178 107.54 64.1627 107.505C64.6465 107.488 65.1299 107.465 65.6125 107.438C65.6615 107.435 65.7106 107.431 65.7596 107.428C66.1982 107.403 66.6363 107.374 67.0737 107.341C67.0838 107.34 67.094 107.339 67.1042 107.339C68.0633 107.266 69.0193 107.175 69.9709 107.066C69.9737 107.065 69.9768 107.065 69.9796 107.065C70.4149 107.015 70.8489 106.961 71.2823 106.904C71.4917 106.877 71.7002 106.845 71.909 106.816C72.1388 106.783 72.3691 106.753 72.5982 106.718C73.0626 106.648 73.5009 106.909 73.6777 107.325C73.68 107.331 73.6836 107.336 73.6857 107.341C73.7104 107.402 73.7295 107.467 73.7423 107.534L74.4524 111.285L75.1625 115.037C75.3911 116.245 76.4469 117.12 77.6764 117.12H86.0133C86.0137 117.12 86.0142 117.12 86.0145 117.12C86.1019 117.12 86.1881 117.114 86.2737 117.105C86.3007 117.102 86.3272 117.098 86.354 117.094C86.4132 117.087 86.4722 117.077 86.5303 117.065C86.5594 117.059 86.5885 117.053 86.6174 117.046C86.675 117.032 86.7314 117.016 86.7876 116.998C86.8127 116.99 86.838 116.982 86.8627 116.974C86.9416 116.946 87.0191 116.915 87.0944 116.88C87.0949 116.88 87.0951 116.88 87.0956 116.88C87.1709 116.845 87.2437 116.805 87.315 116.763C87.3375 116.75 87.359 116.735 87.3811 116.721C87.4301 116.69 87.478 116.658 87.5247 116.623C87.5479 116.606 87.5709 116.589 87.5936 116.571C87.6391 116.535 87.6832 116.497 87.7261 116.459C87.7452 116.442 87.7651 116.425 87.7839 116.407C87.8433 116.35 87.9009 116.29 87.9547 116.228C87.9758 116.203 87.9947 116.177 88.0149 116.152C88.0855 116.063 88.152 115.97 88.2108 115.872C88.2859 115.746 88.3508 115.613 88.4039 115.473C88.457 115.334 88.4987 115.188 88.5271 115.037L89.0891 112.062L89.6731 108.97L90.0395 107.031L91.0917 101.46L91.186 100.96C91.3587 100.875 91.4283 100.84 91.6011 100.754C91.6077 100.757 91.6117 100.756 91.615 100.754C91.6181 100.752 91.6205 100.75 91.6236 100.748C91.8235 100.644 92.019 100.535 92.2169 100.429C92.4237 100.318 92.6329 100.209 92.8376 100.095C93.0148 99.9961 93.1878 99.8928 93.3634 99.7921C93.5842 99.6653 93.8069 99.5409 94.0246 99.4113C94.204 99.3045 94.3786 99.1929 94.5558 99.0841C94.7648 98.9557 94.9759 98.8294 95.1821 98.6982C95.3669 98.5804 95.5467 98.4577 95.7291 98.3376C95.9227 98.2101 96.1189 98.0848 96.3099 97.9547C96.4902 97.8317 96.6652 97.7038 96.8432 97.5784C97.0308 97.4462 97.2211 97.3161 97.4057 97.1813C97.5779 97.0555 97.7449 96.925 97.9146 96.7968C98.0996 96.6572 98.2873 96.5198 98.4695 96.3774C98.6341 96.2485 98.7936 96.1149 98.9557 95.9839C99.1369 95.8374 99.3208 95.6932 99.4989 95.5439C99.6629 95.4065 99.8209 95.2643 99.9821 95.1245C100.153 94.9764 100.326 94.8307 100.494 94.68C100.65 94.5393 100.8 94.3941 100.954 94.251C101.12 94.096 101.289 93.9434 101.452 93.7859C101.601 93.6418 101.744 93.493 101.89 93.3468C102.051 93.1852 102.215 93.0263 102.373 92.8618C102.517 92.7123 102.654 92.5578 102.795 92.406C102.949 92.2401 103.105 92.0764 103.255 91.9077C103.392 91.7537 103.523 91.595 103.657 91.4388C103.804 91.267 103.954 91.0979 104.097 90.9235C104.228 90.765 104.352 90.6015 104.479 90.4404C104.619 90.2634 104.762 90.0888 104.898 89.9089C105.023 89.7438 105.142 89.5737 105.264 89.4062C105.395 89.2259 105.53 89.0477 105.657 88.8645C105.776 88.6932 105.888 88.5172 106.004 88.3435C106.127 88.159 106.253 87.9768 106.372 87.7896C106.52 87.5572 106.655 87.3162 106.803 87.084C106.891 86.9461 106.973 86.8051 107.055 86.6639C107.505 85.8889 108.215 85.2985 109.069 85.0251L109.098 85.0158H109.098L113.182 83.7077L117.104 82.4518C119.133 81.8016 120.51 79.9147 120.51 77.7837V69.5425C120.51 68.8144 120.346 68.1164 120.054 67.485C120.001 67.3732 119.945 67.2635 119.886 67.1561Z" fill="#219653"/>
<path d="M80.7451 38.69C80.9986 37.4864 81.8312 36.4856 82.9495 35.9738C87.2465 34.0071 98.1946 29.2739 101.009 30.7483C104.534 32.5945 102.687 52.5247 97.3166 55.5667C92.1289 58.5046 77.0767 56.0995 80.7451 38.69Z" fill="#DD4F2E"/>
<path d="M55.6215 46.4275C67.9545 46.4275 77.9524 36.4297 77.9524 24.0967C77.9524 11.7637 67.9545 1.76587 55.6215 1.76587C43.2886 1.76587 33.2907 11.7637 33.2907 24.0967C33.2907 36.4297 43.2886 46.4275 55.6215 46.4275Z" fill="#FFB125"/>
<path d="M99.5146 33.0571C97.0638 33.0571 91.1293 35.0767 84.0271 38.3279C83.6392 38.5054 83.3594 38.8404 83.2786 39.2235C82.2437 44.1356 82.7972 48.089 84.8798 50.6559C85.1234 50.9561 85.3904 51.2386 85.678 51.5027C86.013 51.8105 86.553 51.638 86.6644 51.1971C89.133 41.4215 101.112 33.0571 99.5146 33.0571Z" fill="#F25435"/>
<path d="M71.6855 8.58618L40.112 40.1599C48.8529 48.6049 62.784 48.5146 71.4121 39.8865C80.0402 31.2584 80.1305 17.3271 71.6855 8.58618Z" fill="#FF901D"/>
<path d="M55.1081 35.1758C51.249 35.1135 48.6347 33.0282 48.6347 31.5033C48.6347 30.7563 49.2881 29.7292 50.0662 29.7292C51.0933 29.7292 51.9335 31.9078 55.1081 32.1568V24.8429C52.3071 23.8471 49.1948 22.7267 49.1948 18.7429C49.1948 14.8214 52.1514 13.2653 55.1081 12.9539V12.0515C55.1081 11.6781 55.4815 11.3357 56.0108 11.3357C56.4776 11.3357 56.9446 11.6781 56.9446 12.0515V12.8919C59.0608 12.9542 62.0488 13.6076 62.0488 15.1328C62.0488 15.7241 61.6131 16.9067 60.6793 16.9067C59.9325 16.9067 59.1232 15.9108 56.9446 15.7552V22.073C59.6522 23.0688 62.6089 24.4383 62.6089 28.671C62.6089 32.4991 60.3059 34.6154 56.9446 35.0824V36.1406C56.9446 36.514 56.4778 36.8563 56.0108 36.8563C55.4818 36.8563 55.1081 36.514 55.1081 36.1406V35.1758ZM55.295 21.4816V15.8175C53.5522 16.0352 52.3073 16.8133 52.3073 18.4318C52.3071 20.2057 53.6453 20.8592 55.295 21.4816ZM56.7576 25.5277V32.0945C58.4382 31.7831 59.4963 30.7873 59.4963 29.0132C59.4966 27.0526 58.2828 26.1811 56.7576 25.5277Z" fill="#DD4F2E"/>
<path d="M102.836 64.67C102.836 63.6948 102.045 62.9047 101.07 62.9047C100.096 62.9047 99.3051 63.6951 99.3051 64.67C99.3051 65.9061 98.2996 66.9116 97.0635 66.9116C95.8277 66.9116 94.8219 65.9061 94.8219 64.67C94.8219 63.6948 94.0315 62.9047 93.0565 62.9047C92.0815 62.9047 91.2911 63.6951 91.2911 64.67C91.2911 67.853 93.8808 70.4424 97.0635 70.4424C100.246 70.4424 102.836 67.8527 102.836 64.67Z" fill="black"/>
<path d="M117.642 63.1933L112.673 61.6015C112.036 61.3975 111.535 60.8896 111.331 60.2425C110.284 56.9129 108.704 53.7871 106.634 50.9515C105.691 49.659 104.642 48.4248 103.496 47.2499C103.496 47.2501 103.496 47.2501 103.496 47.2501C104.229 44.0342 104.628 40.3947 104.576 37.2502C104.502 32.752 103.603 30.1138 101.828 29.1841C100.872 28.6827 97.9624 27.1597 82.2143 34.3686C81.8414 34.5392 81.4931 34.7494 81.1706 34.9901C80.1089 34.7048 79.0238 34.4409 77.932 34.2039C77.8005 34.1753 77.665 34.1499 77.5325 34.122C78.8086 31.3342 79.5538 28.3065 79.6938 25.1809C79.7374 24.2066 78.9833 23.3816 78.009 23.3383C77.0373 23.2899 76.2097 24.0486 76.1664 25.0228C75.9363 30.1621 73.8044 34.9977 70.1637 38.6386C67.9884 40.8139 65.4414 42.394 62.7269 43.3891C58.0193 42.7285 53.2243 42.7285 48.5167 43.3891C45.8019 42.394 43.2551 40.8139 41.0799 38.6386C37.1956 34.7543 35.0563 29.5899 35.0563 24.0967C35.0563 18.6032 37.1956 13.439 41.0799 9.55475C44.9641 5.67025 50.1288 3.53099 55.6218 3.53099C61.1148 3.53099 66.2794 5.67025 70.1637 9.55475C71.7246 11.1157 73.0145 12.8969 73.9975 14.8485C74.4361 15.7195 75.4977 16.0701 76.3685 15.6313C77.2394 15.193 77.5899 14.1313 77.1513 13.2606C75.9991 10.9721 74.4882 8.88542 72.6607 7.05772C68.1095 2.5065 62.0583 0 55.622 0C49.1858 0 43.1345 2.5065 38.5833 7.05772C34.0321 11.6092 31.5256 17.6602 31.5256 24.0964C31.5256 30.5327 34.0321 36.5839 38.5833 41.1351C39.8961 42.448 41.3244 43.577 42.835 44.5228C42.8355 44.5228 42.836 44.5226 42.8365 44.5226C41.7388 44.8078 40.6493 45.1282 39.572 45.4883C38.6473 45.7975 38.1483 46.7976 38.4575 47.7226C38.7665 48.6473 39.767 49.1463 40.6915 48.8373C50.3195 45.6186 60.9245 45.6186 70.5525 48.8373C70.7383 48.8994 70.9269 48.9288 71.1124 48.9288C71.8509 48.9288 72.5394 48.4615 72.7865 47.7226C73.0957 46.7978 72.5968 45.7975 71.672 45.4883C70.5947 45.1282 69.5053 44.8076 68.4076 44.5226C68.408 44.5226 68.4085 44.5228 68.409 44.5228C69.9199 43.577 71.3479 42.448 72.6607 41.1351C73.8222 39.9737 74.8474 38.7054 75.7375 37.3575C76.2242 37.452 76.7073 37.5511 77.1833 37.6544C77.8173 37.792 78.4485 37.9399 79.074 38.0951C79.0543 38.1718 79.0342 38.2484 79.0178 38.3263C78.1568 42.4122 78.2127 46.0259 79.1839 49.0664C80.0568 51.7994 81.6321 54.0136 83.8657 55.6477C86.4983 57.5735 89.6765 58.4053 92.5554 58.4053C94.7222 58.4053 96.7197 57.9338 98.1868 57.1029C99.8463 56.163 101.237 54.1825 102.337 51.209C102.846 51.8028 103.328 52.411 103.782 53.0336C105.625 55.5579 107.032 58.3399 107.963 61.3021C108.51 63.0419 109.868 64.4109 111.596 64.9646L116.565 66.5563C117.869 66.974 118.745 68.174 118.745 69.543V77.7823C118.745 79.1513 117.869 80.3514 116.565 80.7691L108.559 83.3334C107.278 83.744 106.194 84.6242 105.507 85.8122C102.362 91.2479 97.4168 95.746 90.8085 99.1818C90.0451 99.5791 89.5163 100.29 89.3571 101.132L86.793 114.709C86.7222 115.083 86.3945 115.354 86.0137 115.354H77.6768C77.2961 115.354 76.9684 115.082 76.8975 114.709L75.4774 107.205C75.1978 105.729 73.8132 104.748 72.3229 104.974C68.7317 105.517 65.0313 105.792 61.325 105.792C58.5676 105.792 55.8454 105.638 53.2337 105.335C51.7896 105.169 50.4443 106.153 50.1745 107.579L48.8249 114.709C48.7541 115.083 48.4264 115.354 48.0457 115.354H39.7087C39.328 115.354 39.0003 115.082 38.9285 114.703L36.4597 101.88C36.3007 101.054 35.7818 100.351 35.0353 99.9523C23.7708 93.9385 17.8167 83.8919 17.8167 70.8985C17.8167 64.3336 19.253 58.5285 22.0855 53.644C24.7287 49.0856 28.5893 45.3167 33.5599 42.4416C34.4038 41.9533 34.6922 40.8733 34.2041 40.0291C33.716 39.1852 32.6361 38.8973 31.7919 39.3849C22.1537 44.9602 16.3406 53.562 14.7402 64.4867V64.4864C14.5703 64.471 14.4002 64.4563 14.2308 64.4388C14.2616 63.2601 14.0483 62.0707 13.5839 60.9163C12.5597 58.3703 10.4557 56.5326 8.22358 56.2348C6.4646 55.9993 4.79068 56.7461 3.629 58.2809C1.94465 60.5067 2.21926 62.268 2.74596 63.3537C3.63516 65.1859 5.92084 66.4819 9.71388 67.2967C9.60963 67.4528 9.49496 67.6097 9.36938 67.7672C7.12825 70.5779 4.48788 71.1994 2.77344 71.2579C1.7698 71.2921 0.966125 72.0979 0.966125 73.1022V73.1107C0.966125 74.1014 1.74776 74.9093 2.73743 74.9546C2.86419 74.9605 2.99663 74.9635 3.13453 74.9635C5.30387 74.9635 8.78558 74.1634 12.1306 69.969C12.6587 69.307 13.089 68.6086 13.4197 67.8869C13.7529 67.9246 14.073 67.9568 14.3795 67.9852C14.3795 67.9845 14.3795 67.984 14.3798 67.9833C14.3196 68.94 14.2862 69.9108 14.2862 70.8985C14.2862 78.25 16.0388 84.8047 19.4949 90.3814C22.6816 95.5228 27.2442 99.7326 33.0604 102.899L35.4605 115.365C35.8465 117.404 37.6332 118.885 39.709 118.885H48.0459C50.1216 118.885 51.9083 117.404 52.2943 115.365L53.5145 108.918C56.0487 109.187 58.6725 109.323 61.325 109.323C64.9642 109.323 68.5992 109.069 72.1418 108.569L73.4281 115.365C73.8143 117.405 75.6011 118.885 77.6766 118.885H86.0135C88.0892 118.885 89.876 117.405 90.2622 115.364L92.7587 102.146C99.8117 98.4162 105.128 93.517 108.563 87.5804C108.811 87.1525 109.192 86.8386 109.636 86.6962L117.642 84.1319C120.413 83.2436 122.275 80.6921 122.275 77.7819V69.5425C122.275 66.6326 120.413 64.081 117.642 63.1933ZM100.78 42.2113C100.101 48.0223 98.278 52.9931 96.4465 54.0304C94.3649 55.2096 89.5587 55.4373 85.9502 52.7976C82.3375 50.1549 81.1351 45.4025 82.4725 39.0542C82.4725 39.0539 82.4725 39.0539 82.4725 39.0539C82.6069 38.4164 83.0599 37.8648 83.6842 37.579C92.5227 33.5332 97.6184 32.2099 99.5115 32.2099C99.7972 32.2099 100.01 32.24 100.152 32.2955C100.72 32.9013 101.466 36.3468 100.78 42.2113ZM5.92297 61.8122C5.7403 61.4355 6.17152 60.7732 6.44494 60.4117C6.87828 59.8392 7.27751 59.7222 7.57913 59.7222C7.64286 59.7222 7.70233 59.7274 7.75683 59.7348C8.56855 59.843 9.70583 60.7363 10.3083 62.2339C10.4503 62.5865 10.6346 63.1705 10.6777 63.8988C8.23377 63.3923 6.335 62.6623 5.92297 61.8122Z" fill="black"/>
</svg>
