<svg xmlns="http://www.w3.org/2000/svg" viewBox="0 0 100 100" xmlns:v="https://vecta.io/nano"><path d="M57.45 57.61h32.12v17.4H57.45zm0-7.81h32.12v5.28H57.45zM15.32 69.99H35.2l4.88-39.77H10.35l4.97 39.77zm-.02 2.44h19.83v7.51H15.3z" fill="#80d080"/><path d="M62.47 30.71v-6A9 9 0 0 0 58 16.82c-7.69-4.2-15.46 1.25-15.46 8.53v5.36a10.07 10.07 0 0 0-7.33 9.66V85H69.8V40.37a10.07 10.07 0 0 0-7.33-9.66z" fill="#fc968b"/><path d="M57.45 49.8H69.8v5.28H57.45zm0 7.81H69.8v17.4H57.45zM35.2 70l4.67-38.11a10.06 10.06 0 0 0-4.71 8.49V70z" fill="#ff6e0c"/></svg>