<svg xmlns="http://www.w3.org/2000/svg" viewBox="0 0 100 100" xmlns:v="https://vecta.io/nano"><path d="M35,65,20.79,79.22A20,20,0,1,0,14.91,65v0Z" fill="#fc968b"/><path d="M55.25 44.78h28a28 28 0 1 1-28-27.95zM58.69 43h30.38a31.75 31.75 0 0 0-3.91-15.28zm25.6-16.77a32.25 32.25 0 0 0-27.37-15.38h0V42z" fill="#ffa300"/><path d="M27.36,46.49A28.11,28.11,0,0,0,53.48,72.67,20,20,0,0,0,27.36,46.49Z" fill="#ff6e0c"/><path d="M12.83,67.49c.27,4.83,1.21,8.21,4.28,11.56L29.63,67.4Z" fill="#fc968b"/></svg>