<svg width="121" height="104" viewBox="0 0 121 104" fill="none" xmlns="http://www.w3.org/2000/svg">
<mask id="mask0" mask-type="alpha" maskUnits="userSpaceOnUse" x="0" y="0" width="121" height="104">
<path fill-rule="evenodd" clip-rule="evenodd" d="M0 0.0756836H120.241V103.924H0V0.0756836Z" fill="white"/>
</mask>
<g mask="url(#mask0)">
<path fill-rule="evenodd" clip-rule="evenodd" d="M118.028 18.751C119.251 18.751 120.241 17.7535 120.241 16.5213C120.241 15.2944 119.251 14.2969 118.028 14.2969H103.06V4.53515H118.028C119.251 4.53515 120.241 3.53764 120.241 2.30542C120.241 1.0732 119.251 0.0756836 118.028 0.0756836H88.3366C84.3167 0.0756836 81.0648 3.35627 81.0648 7.39966V96.749C81.0648 100.792 84.3167 104.073 88.3366 104.073H118.028C119.251 104.073 120.241 103.075 120.241 101.843C120.241 100.616 119.251 99.6188 118.028 99.6188H103.06V89.8518H118.028C119.251 89.8518 120.241 88.8543 120.241 87.6274C120.241 86.3951 119.251 85.3976 118.028 85.3976H103.06V75.6359H118.028C119.251 75.6359 120.241 74.633 120.241 73.4062C120.241 72.1739 119.251 71.1764 118.028 71.1764H103.06V61.4147H118.028C119.251 61.4147 120.241 60.4118 120.241 59.185C120.241 57.9527 119.251 56.9552 118.028 56.9552H103.06V47.1935H118.028C119.251 47.1935 120.241 46.196 120.241 44.9637C120.241 43.7315 119.251 42.734 118.028 42.734H103.06V32.9723H118.028C119.251 32.9723 120.241 31.9748 120.241 30.7425C120.241 29.5103 119.251 28.5128 118.028 28.5128H103.06V18.7511H118.028" fill="#27AE60"/>
<path fill-rule="evenodd" clip-rule="evenodd" d="M32.9058 76.3827C31.3381 79.6953 29.3308 79.5779 26.0418 78.0043L21.1163 75.6359C17.822 74.0569 16.4185 72.5313 17.9809 69.2187L52.4437 4.2471C54.647 0.982512 55.8016 -0.911158 59.0906 0.667791L59.8903 1.05186C63.1793 2.63081 62.4431 4.82854 61.3203 8.5092L32.9058 76.3827" fill="#AFCEDE"/>
<path fill-rule="evenodd" clip-rule="evenodd" d="M42.8469 76.3827C44.4199 79.6953 46.4219 79.5779 49.7109 78.0043L54.6417 75.6359C57.9307 74.0569 59.3395 72.5313 57.7718 69.2187L23.3089 4.2471C21.1057 0.982512 19.9511 -0.911158 16.6621 0.667791L15.8624 1.05186C12.5734 2.63081 13.3096 4.82854 14.4377 8.5092L42.8469 76.3827" fill="#C3E6F8"/>
<path fill-rule="evenodd" clip-rule="evenodd" d="M17.3453 98.0079C11.0798 98.0079 6.006 92.8977 6.006 86.5925C6.006 80.2821 11.0798 75.1718 17.3453 75.1718C23.6002 75.1718 28.6794 80.282 28.6794 86.5925C28.6794 92.8977 23.6002 98.0079 17.3453 98.0079ZM17.3453 69.1067C7.75908 69.1067 -0.0137329 76.9374 -0.0137329 86.5925C-0.0137329 96.2475 7.75908 104.073 17.3453 104.073C26.9316 104.073 34.7012 96.2475 34.7012 86.5925C34.7012 76.9374 26.9316 69.1067 17.3453 69.1067Z" fill="#DD4F2E"/>
<path fill-rule="evenodd" clip-rule="evenodd" d="M58.0843 98.0079C51.8188 98.0079 46.745 92.8977 46.745 86.5925C46.745 80.2821 51.8188 75.1718 58.0843 75.1718C64.3445 75.1718 69.413 80.282 69.413 86.5925C69.413 92.8977 64.3445 98.0079 58.0843 98.0079ZM58.0843 69.1067C48.4927 69.1067 40.7231 76.9374 40.7231 86.5925C40.7231 96.2475 48.4927 104.073 58.0843 104.073C67.6652 104.073 75.4402 96.2475 75.4402 86.5925C75.4402 76.9374 67.6652 69.1067 58.0843 69.1067Z" fill="#DD4F2E"/>
<path fill-rule="evenodd" clip-rule="evenodd" d="M40.7231 46.596C40.7231 47.9723 39.6162 49.0871 38.2497 49.0871C36.8886 49.0871 35.7817 47.9723 35.7817 46.596C35.7817 45.2251 36.8886 44.1102 38.2497 44.1102C39.6162 44.1102 40.7231 45.2251 40.7231 46.596Z" fill="#DD4F2E"/>
</g>
</svg>
