<svg width="126" height="133" viewBox="0 0 126 133" fill="none" xmlns="http://www.w3.org/2000/svg">
<path fill-rule="evenodd" clip-rule="evenodd" d="M79.518 56.0806C79.518 56.0806 71.458 58.7169 69.0942 58.6294V62.4865C65.0003 60.0251 54.9073 54.5975 50.1518 56.1085C50.1518 56.1085 44.6628 58.9197 44.3798 65.0989C44.3798 65.0989 61.4167 60.3234 65.9251 65.9419L68.0378 70.5743L73.5786 74.2047C73.5786 74.2047 74.7346 76.7137 75.213 77.3937C75.6873 78.0736 79.4981 77.8708 79.9047 77.6641C80.3113 77.4613 80.3831 74.8846 80.3831 74.8846C80.3831 74.8846 80.1718 74.0774 79.8688 73.0873C80.0203 72.6738 80.1917 72.2563 80.3831 71.9143C80.973 70.8248 80.8813 60.2041 79.518 56.0806H79.518ZM45.9304 12.9217C45.2607 11.0219 47.0744 8.92037 48.9758 10.2532C48.9758 10.2532 50.3112 14.0478 50.5305 12.1837C50.7497 10.32 49.6894 4.59294 51.4473 4.70348C53.2052 4.81204 58.3155 6.28009 60.0734 5.29516C60.0734 5.29516 63.1707 11.8545 63.1707 12.1837C63.1707 12.5114 61.4128 13.4995 61.4128 13.4995L61.2653 19.5169C61.2493 20.3491 60.763 21.1042 60.0176 21.4724L59.2642 21.8418C59.2642 21.8418 58.4191 33.7167 51.826 33.3886C45.2328 33.0594 45.9304 27.0142 45.9304 25.3521C45.9304 23.6904 46.7276 20.0759 46.7276 20.0759L47.5966 15.3787C47.5966 15.3787 46.4406 14.3802 45.9304 12.9217V12.9217Z" fill="#F9C5AF"/>
<path fill-rule="evenodd" clip-rule="evenodd" d="M42.7255 16.9028C42.7255 18.5569 45.0813 15.5981 45.2567 16.9028C45.4321 18.2094 47.0744 18.1827 47.0824 18.1378L47.776 15.2673C45.6235 13.7467 46.0061 11.5614 46.4207 10.679C46.8313 9.79826 48.2583 10.1975 48.6609 10.4289C49.0635 10.6619 48.5772 11.1916 49.809 12.4079C51.0407 13.6239 51.1762 12.2942 51.0487 9.82928C50.9171 7.36436 51.24 5.94004 51.5111 5.76469C51.7821 5.58893 57.5501 5.87165 59.7505 5.96629C61.9549 6.06291 62.3854 4.98175 63.1707 4.04664C64.1234 2.90345 64.227 2.05383 63.9958 1.38282C63.8483 0.963441 63.5972 0.275339 63.1986 0.475706C60.8029 1.69659 54.9751 -0.900458 47.0824 2.43436C38.4874 6.06569 44.037 11.5954 44.3798 12.465C44.7266 13.3366 42.7255 15.25 42.7255 16.9026L42.7255 16.9028ZM84.6403 121.059C84.6403 121.059 81.8938 121.277 80.3831 121.059C79.7054 120.959 79.0995 120.728 78.6331 120.502C78.0551 120.22 77.7083 119.619 77.7322 118.979C77.9316 114.064 78.7926 92.0751 78.5972 90.8107C78.378 89.3871 66.2998 86.8821 66.2959 86.8821C65.0522 96.2105 63.6331 106.131 63.8603 107.491C64.2629 109.897 53.9745 110.458 54.0543 108.454C54.138 106.45 49.6615 91.4707 51.5151 85.9715C51.5151 85.9715 36.0893 87.8324 33.4732 80.7943C30.5365 72.9013 30.7625 69.597 34.9899 62.714C34.9899 62.714 36.7446 61.7159 37.1217 62.714C37.4968 63.716 37.2461 67.8434 40.1301 67.5929C43.0125 67.3424 44.3798 65.0998 44.3798 65.0998C44.3798 65.0998 56.8605 61.366 63.4099 64.1654C63.4099 64.1654 67.8664 65.231 68.0378 70.5752L73.5786 74.2056C73.5786 74.2056 74.9778 77.0168 75.3047 77.486C75.6275 77.9552 80.2396 77.486 80.2396 77.486C92.7044 80.182 93.968 85.717 94.1833 87.4586C94.9964 94.0752 84.6403 121.059 84.6403 121.059V121.059Z" fill="#2E6173"/>
<mask id="mask0" mask-type="alpha" maskUnits="userSpaceOnUse" x="0" y="20" width="126" height="113">
<path fill-rule="evenodd" clip-rule="evenodd" d="M0.74353 20.8721H125.498V132.613H0.74353V20.8721Z" fill="white"/>
</mask>
<g mask="url(#mask0)">
<path fill-rule="evenodd" clip-rule="evenodd" d="M115.844 77.2028L96.5311 77.827C96.3039 77.835 95.8814 77.8787 95.6023 78.0855C95.3911 78.2406 95.3831 78.3837 95.415 78.4752C95.4588 78.5945 95.5705 78.6581 95.7578 78.6581C95.7658 78.6581 95.7777 78.6541 95.7857 78.6541L115.095 78.0338C115.322 78.0259 115.745 77.9861 116.024 77.7753C116.239 77.6203 116.243 77.4771 116.215 77.3896C116.167 77.2624 116.048 77.2067 115.844 77.2028V77.2028ZM25.4534 83.4615L8.68503 82.698C8.40002 82.6861 7.89537 82.7935 7.73512 83.1314C7.64344 83.3303 7.69765 83.4734 7.73991 83.541C7.82561 83.6802 8.0014 83.7676 8.22582 83.7796L24.9941 84.543H25.0408C25.329 84.543 25.793 84.4317 25.944 84.1056C26.0373 83.9108 25.9811 83.7676 25.9409 83.7C25.8552 83.5569 25.6778 83.4694 25.4534 83.4615V83.4615ZM125.479 71.3577C125.451 71.2782 125.363 71.1469 125.108 71.139C114.397 70.6777 103.599 70.638 93.0153 71.0157C90.0257 71.1231 86.9563 71.2662 83.8909 71.4452C83.6159 71.4611 83.1296 71.5366 82.9581 71.8428C82.8625 72.0257 82.9143 72.1569 82.9502 72.2205C83.0498 72.3716 83.2452 72.4035 83.3847 72.4035C83.4046 72.4035 83.4205 72.4035 83.4405 72.3995C94.0557 71.7792 104.802 71.5764 115.37 71.7951C118.367 71.8587 121.393 71.9541 124.363 72.0814C124.558 72.0854 125.044 72.0814 125.327 71.807C125.475 71.6678 125.531 71.4969 125.479 71.3577ZM27.5939 75.155C21.0402 75.4771 14.4662 75.5646 8.0556 75.4135C6.09519 75.3658 4.13625 75.3101 2.17915 75.2505L1.74454 75.2385C1.46116 75.2266 0.955113 75.3379 0.796263 75.664C0.702843 75.8549 0.754225 75.9901 0.793154 76.0537C0.877239 76.1928 1.04852 76.2724 1.27899 76.2803C5.72918 76.4076 10.2822 76.5348 14.8707 76.5348C16.8594 76.5348 18.8541 76.5109 20.85 76.4513C22.7466 76.3956 24.7521 76.3121 27.1609 76.1928C27.4368 76.1809 27.9271 76.1093 28.0921 75.7714C28.1902 75.5725 28.128 75.4294 28.0829 75.3618C27.9909 75.2226 27.8075 75.1431 27.5938 75.155H27.5939ZM83.5521 121.121C82.6153 121.161 81.284 121.185 80.3831 121.058C79.9526 120.994 79.5619 120.879 79.2071 120.743C79.4782 123.646 80.0482 128.131 81.1086 130.617C82.7628 134.49 87.3509 132.959 84.8795 124.298L83.5521 121.121ZM61.9868 109.109C60.6394 109.53 58.7938 109.721 57.2233 109.661C57.7255 112.246 59.2762 119.248 61.7117 121.841C64.7293 125.054 65.3312 119.304 63.8244 115.264C62.7561 112.401 62.214 110.17 61.9868 109.109ZM69.8755 58.7567V62.9875C64.8289 59.3094 52.4518 56.0806 52.4518 56.0806C45.4202 57.0031 45.4879 67.6636 45.4879 67.6636C42.3707 70.0693 36.4784 68.4827 36.6793 65.9776C36.8802 63.4726 34.9899 62.7131 34.9899 62.7131C34.168 62.1246 33.3954 58.7169 32.2853 51.4641C31.1767 44.2153 33.8873 31.6759 37.4609 27.496C41.0354 23.3177 46.5562 20.879 46.5562 20.879C46.5562 20.879 47.194 20.4488 46.7396 26.3497C46.2932 32.2489 50.4826 31.963 50.4826 31.963C59.6828 32.8641 58.8855 21.8314 58.8855 21.8314C64.9007 21.8218 72.2114 28.3581 74.6748 32.2553C77.1383 36.1521 78.8564 46.8555 79.1274 48.6131C79.3985 50.3706 83.1933 51.0466 81.7025 54.2912C80.2117 57.5359 69.8755 58.7567 69.8755 58.7567H69.8755Z" fill="#27AE60"/>
</g>
<path fill-rule="evenodd" clip-rule="evenodd" d="M66.3158 14.1054C65.9849 13.8819 64.9246 14.3603 65.403 14.6832C67.0174 15.7782 68.4962 17.0646 69.8117 18.5028C70.0987 18.8134 71.2029 18.3879 70.884 18.0416C69.5207 16.5548 67.986 15.2379 66.3158 14.1054V14.1054ZM72.2791 11.2194C70.88 11.2194 69.4888 10.8003 68.3089 10.0591C68.0617 9.90243 67.711 9.94895 67.4798 10.1243C67.2924 10.269 67.1728 10.578 67.42 10.7335C68.855 11.6313 70.4933 12.0814 72.1795 12.0814C72.4386 12.0814 72.7854 11.8858 72.8173 11.6095C72.8452 11.3065 72.5103 11.2194 72.2791 11.2194V11.2194ZM65.7418 8.05706C66.7941 6.79577 67.994 5.6653 69.3254 4.70542C69.5526 4.54199 69.8595 4.43026 70.1425 4.48632C70.3578 4.52808 70.4455 4.72689 70.2462 4.87163C68.9746 5.78936 67.8186 6.85979 66.8141 8.06501C66.6347 8.27933 66.3238 8.37079 66.0527 8.37238C65.8933 8.37397 65.5704 8.26542 65.7418 8.05706V8.05706Z" fill="#AFCEDE"/>
<path fill-rule="evenodd" clip-rule="evenodd" d="M50.8693 19.6133C51.0208 19.3819 51.3636 19.267 51.6307 19.2869C51.822 19.3012 52.109 19.4376 51.9536 19.6706C51.6068 20.2034 51.7303 20.8822 52.0851 21.384C52.4917 21.9633 53.1295 22.2381 53.8271 22.2818C54.6402 22.3331 55.4335 22.1156 56.2188 21.9367C57.0758 21.7442 57.9448 21.5876 58.8258 21.6727C59.037 21.6929 59.2842 21.8095 59.1526 22.0564C59.029 22.291 58.6424 22.4075 58.3913 22.3828C57.3748 22.2834 56.4061 22.5956 55.4215 22.7976C54.5207 22.9837 53.572 23.1002 52.6631 22.889C51.8898 22.7089 51.2241 22.2755 50.8454 21.5689C50.5145 20.9458 50.4747 20.2157 50.8693 19.6133Z" fill="#2E6173"/>
</svg>
