<svg xmlns="http://www.w3.org/2000/svg" viewBox="0 0 100 100" xmlns:v="https://vecta.io/nano"><path d="M44.14 35.08h-19a9.73 9.73 0 0 0-9.73 9.73v18a9.73 9.73 0 0 0 9.12 9.7V84.7l12.1-12.1h-.21 18.83A9.73 9.73 0 0 0 65 62.82v-14.6H53a8.85 8.85 0 0 1-8.85-8.85z" fill="#0f615c"/><path d="M76 15.49H53a8.85 8.85 0 0 0-8.85 8.85v10.74h11.1A9.73 9.73 0 0 1 65 44.81v3.41h1.27l11.5 11.5V48a8.85 8.85 0 0 0 7.08-8.67v-15A8.85 8.85 0 0 0 76 15.49" fill="#ff4757"/><path d="M55.25,35.08H44.14v4.29A8.85,8.85,0,0,0,53,48.22H65V44.81a9.73,9.73,0,0,0-9.73-9.73" fill="#0f0000"/></svg>