<svg xmlns="http://www.w3.org/2000/svg" viewBox="0 0 100 100" xmlns:v="https://vecta.io/nano"><path d="M59.62 15.2l5.99 18.43H85l-15.69 11.4 6 18.44-15.69-11.39-15.69 11.39 5.99-18.44-15.68-11.4h19.39l5.99-18.43z" fill="#ffae33"/><path d="M50.12 18.4l8.23 25.34H85L63.44 59.41l8.24 25.34-21.56-15.66-21.56 15.66 8.24-25.34-21.56-15.67h26.65l8.23-25.34z" fill="#ff4856"/><path d="M69.31 45.03l1.78-1.29H58.35l-4-12.32-.72 2.21h-8.46l-2.09 6.43 6.84 4.97-5.99 18.44 15.69-11.39 6.96 5.05 5.39-3.92-2.66-8.18z" fill="red"/></svg>