<svg xmlns="http://www.w3.org/2000/svg" version="1.1"><defs><font id="Tiempos-Bold" horiz-adv-x="500"><font-face font-family="Tiempos" font-weight="600" font-stretch="normal" units-per-em="1000" panose-1="2 2 8 3 6 3 3 6 4 3" ascent="783" descent="-217" x-height="539" cap-height="702" bbox="-106 -245 1326 1047" underline-thickness="30" underline-position="-100" stemh="62" stemv="196" unicode-range="U+0020-FB04"/><glyph glyph-name="fi" unicode="fi" horiz-adv-x="670" d="M598 549V78c0-32 16-36 56-39V0H360v39c40 3 54 7 54 39v407H263V78c0-32 14-36 54-39V0H23v39c40 3 56 7 56 39v407H7v40l72 19v13c0 157 119 226 262 226 119 0 181-36 181-98 0-29-15-52-38-63H379c2 14 4 29 4 46 0 36-11 72-53 72-45 0-67-39-67-116v-85h257l38 10h40z"/><glyph glyph-name="fl" unicode="fl" horiz-adv-x="670" d="M598 783V78c0-32 16-36 56-39V0H360v39c40 3 54 7 54 39v591c-15 38-40 71-85 71s-66-32-66-102v-99h92v-54h-92V78c0-32 14-36 54-39V0H23v39c40 3 56 7 56 39v407H7v40l72 19v19c0 152 97 220 233 220 58 0 101-13 133-29l122 29h31z"/><glyph glyph-name="ff" unicode="ff" horiz-adv-x="713" d="M79 544v10c0 154 109 216 237 216 64 0 115-16 156-49 43 42 106 62 176 62 107 0 155-36 155-97 0-28-15-52-37-63h-94c3 14 5 29 5 47 0 35-5 69-36 69-30 0-43-25-43-70V539h117v-54H598V93c0-43 22-47 80-54V0H360v39c40 3 54 7 54 39v407H263V78c0-32 14-36 54-39V0H23v39c40 3 56 7 56 39v407H7v40zm335 19c0 32 5 61 14 86-16 44-46 78-95 78s-70-35-70-106v-82h151v24z"/><glyph glyph-name="ffi" unicode="ffi" horiz-adv-x="1005" d="M79 544v10c0 154 109 216 237 216 66 0 120-17 161-53 49 45 120 66 199 66 119 0 181-36 181-98 0-29-15-52-38-63H713c3 14 5 29 5 46 0 36-11 72-53 72-45 0-67-39-67-116v-85h257l38 10h40V78c0-32 16-36 56-39V0H695v39c40 3 54 7 54 39v407H598V78c0-32 16-36 56-39V0H360v39c40 3 54 7 54 39v407H263V78c0-32 14-36 54-39V0H23v39c40 3 56 7 56 39v407H7v40zm335 13c0 33 5 62 15 88-15 46-45 82-96 82-49 0-70-35-70-106v-82h151v18z"/><glyph glyph-name="ffl" unicode="ffl" horiz-adv-x="1005" d="M316 770c63 0 114-16 155-48 41 41 103 61 176 61 58 0 101-13 133-29l122 29h31V78c0-32 16-36 56-39V0H695v39c40 3 54 7 54 39v591c-15 38-40 71-85 71s-66-32-66-102v-99h92v-54h-92V78c0-32 14-36 54-39V0H360v39c40 3 54 7 54 39v407H263V78c0-32 14-36 54-39V0H23v39c40 3 56 7 56 39v407H7v40l72 19v10c0 154 109 216 237 216zm98-231v24c0 33 5 62 13 88-15 43-45 76-94 76s-70-35-70-106v-82h151z"/><glyph glyph-name="f_b" unicode="fb" horiz-adv-x="989" d="M414 59v610c-15 38-40 71-85 71s-66-32-66-102v-99h92v-54h-92V78c0-32 14-36 54-39V0H23v39c40 3 56 7 56 39v407H7v40l72 19v19c0 152 97 220 233 220 58 0 101-13 133-29l122 29h31V452c29 45 83 97 168 97 118 0 202-82 202-246C968 98 837-10 670-10c-92 0-192 18-256 69zm255-22c73 0 111 92 111 210 0 132-47 193-122 193-22 0-42-5-60-17V141c0-64 18-104 71-104z"/><glyph glyph-name="f_f_b" unicode="ffb" horiz-adv-x="1324" d="M749 59v610c-15 38-40 71-85 71s-66-32-66-102v-99h92v-54h-92V78c0-32 14-36 54-39V0H360v39c40 3 54 7 54 39v407H263V78c0-32 14-36 54-39V0H23v39c40 3 56 7 56 39v407H7v40l72 19v10c0 154 109 216 237 216 63 0 114-16 155-48 41 41 103 61 176 61 58 0 101-13 133-29l122 29h31V452c29 45 83 97 168 97 118 0 202-82 202-246 0-205-131-313-298-313-92 0-192 18-256 69zm255-22c73 0 111 92 111 210 0 132-47 193-122 193-22 0-42-5-60-17V141c0-64 18-104 71-104zM414 563c0 33 5 62 13 88-15 43-45 76-94 76s-70-35-70-106v-82h151v24z"/><glyph glyph-name="f_h" unicode="fh" horiz-adv-x="1000" d="M414 78v591c-15 38-40 71-85 71s-66-32-66-102v-99h84v-54h-84V78c0-32 14-36 54-39V0H23v39c40 3 56 7 56 39v407H7v40l72 19v19c0 152 97 220 233 220 58 0 101-13 133-29l122 29h31V449c38 48 95 100 186 100 96 0 152-55 152-164V78c0-32 16-36 56-39V0H697v39c40 3 54 7 54 39v292c0 44-15 70-67 70-32 0-60-9-86-22V78c0-32 14-36 54-39V0H358v39c40 3 56 7 56 39z"/><glyph glyph-name="f_f_h" unicode="ffh" horiz-adv-x="1335" d="M749 78v591c-15 38-40 71-85 71s-66-32-66-102v-99h92v-54h-92V78c0-32 14-36 54-39V0H360v39c40 3 54 7 54 39v407H263V78c0-32 14-36 54-39V0H23v39c40 3 56 7 56 39v407H7v40l72 19v10c0 154 109 216 237 216 63 0 114-16 155-48 41 41 103 61 176 61 58 0 101-13 133-29l122 29h31V449c38 48 95 100 186 100 96 0 152-55 152-164V78c0-32 16-36 55-39V0h-294v39c40 3 54 7 54 39v292c0 44-15 70-67 70-32 0-60-9-86-22V78c0-32 14-36 54-39V0H693v39c40 3 56 7 56 39zM414 563c0 33 5 62 13 88-15 43-45 76-94 76s-70-35-70-106v-82h151v24z"/><glyph glyph-name="f_idieresis" unicode="fï" horiz-adv-x="670" d="M598 549V78c0-32 16-36 56-39V0H360v39c40 3 54 7 54 39v407H263V78c0-32 14-36 54-39V0H23v39c40 3 56 7 56 39v407H7v40l72 19v13c0 156 117 226 257 226 108 0 161-40 161-103 0-28-16-54-38-65H355c3 14 5 30 5 49 0 41-7 76-40 76-37 0-57-40-57-116v-85h257l38 10h40zm-73 138c0 46 39 83 83 83 48 0 86-37 86-83 0-45-38-83-86-83-44 0-83 38-83 83z"/><glyph glyph-name="f_f_idieresis" unicode="ffï" horiz-adv-x="1005" d="M316 770c66 0 119-18 160-53 48 45 118 66 195 66 108 0 161-40 161-103 0-28-16-54-38-65H690c3 14 5 30 5 49 0 41-7 76-40 76-37 0-57-40-57-116v-85h257l38 10h40V78c0-32 16-36 56-39V0H695v39c40 3 54 7 54 39v407H598V78c0-32 16-36 56-39V0H360v39c40 3 54 7 54 39v407H263V78c0-32 14-36 54-39V0H23v39c40 3 56 7 56 39v407H7v40l72 19v10c0 154 109 216 237 216zm98-231v18c0 33 5 63 15 88-15 46-46 82-96 82-49 0-70-35-70-106v-82h151zm446 148c0 46 39 83 83 83 48 0 86-37 86-83 0-45-38-83-86-83-44 0-83 38-83 83z"/><glyph glyph-name="f_j" unicode="fj" horiz-adv-x="653" d="M414 485H263V78c0-32 14-36 54-39V0H23v39c40 3 56 7 56 39v407H7v40l72 19v13c0 157 119 226 262 226 119 0 181-36 181-98 0-29-15-52-38-63H379c2 14 4 29 4 46 0 36-11 72-53 72-45 0-67-39-67-116v-85h257l38 10h40V106c0-113-24-161-70-207-55-54-102-80-172-112l-16 20 41 64c32 52 33 114 33 192v422z"/><glyph glyph-name="f_f_j" unicode="ffj" horiz-adv-x="988" d="M749 485H598V78c0-32 16-36 56-39V0H360v39c40 3 54 7 54 39v407H263V78c0-32 14-36 54-39V0H23v39c40 3 56 7 56 39v407H7v40l72 19v10c0 154 109 216 237 216 66 0 120-17 161-53 49 45 120 66 199 66 119 0 181-36 181-98 0-29-15-52-38-63H713c3 14 5 29 5 46 0 36-11 72-53 72-45 0-67-39-67-116v-85h257l38 10h40V106c0-113-24-161-70-207-55-54-102-80-172-112l-16 20 41 64c32 52 33 114 33 192v422zm-335 72c0 33 5 62 15 88-15 46-45 82-96 82-49 0-70-35-70-106v-82h151v18z"/><glyph glyph-name="f_k" unicode="fk" horiz-adv-x="977" d="M605 283l154 139c25 23 32 35 32 48 0 19-14 25-60 30v39h226v-39c-34-5-57-11-83-37L760 355 977 27V0H786zM414 78v591c-15 38-40 71-85 71s-66-32-66-102v-99h92v-54h-92V78c0-32 14-36 54-39V0H23v39c40 3 56 7 56 39v407H7v40l72 19v19c0 152 97 220 233 220 58 0 101-13 133-29l122 29h31V78c0-32 16-36 56-39V0H358v39c40 3 56 7 56 39z"/><glyph glyph-name="f_f_k" unicode="ffk" horiz-adv-x="1312" d="M749 78v591c-15 38-40 71-85 71s-66-32-66-102v-99h92v-54h-92V78c0-32 14-36 54-39V0H360v39c40 3 54 7 54 39v407H263V78c0-32 14-36 54-39V0H23v39c40 3 56 7 56 39v407H7v40l72 19v10c0 154 109 216 237 216 63 0 114-16 155-48 41 41 103 61 176 61 58 0 101-13 133-29l122 29h31V78c0-32 16-36 56-39V0H693v39c40 3 56 7 56 39zm191 205l154 139c25 23 32 35 32 48 0 19-14 25-60 30v39h226v-39c-34-5-57-11-83-37l-114-108 217-328V0h-191zM414 563c0 33 5 62 13 88-15 43-45 76-94 76s-70-35-70-106v-82h151v24z"/><glyph glyph-name=".notdef" horiz-adv-x="960" d="M90 0v780h780V0H90zm390 345L201 66h558zM201 714l279-279 279 279H201zm234-324L160 665V115zm90 0l275-275v550z"/><glyph glyph-name="controlHT" horiz-adv-x="173"/><glyph glyph-name="exclam" unicode="!" horiz-adv-x="293" d="M51 87c0 55 43 99 95 99 53 0 96-44 96-99 0-53-43-97-96-97-52 0-95 44-95 97zm124 147h-58L36 702h220z"/><glyph glyph-name="quotedbl" unicode="&quot;" horiz-adv-x="363" d="M101 455H86L41 599c-9 30-20 71-20 94 0 39 22 76 72 76 51 0 73-37 73-76 0-23-11-64-21-94zm176 0h-14l-45 144c-9 30-21 71-21 94 0 39 23 76 73 76s73-37 73-76c0-23-12-64-21-94z"/><glyph glyph-name="numbersign" unicode="#" horiz-adv-x="527" d="M469 230H347L272-10 221 7l70 223H159L83-10 32 7l70 223H24v47h93l49 153H58v47h123l74 236 52-17-70-219h133l74 236 51-17-69-219h77v-47h-92l-49-153h107v-47zM222 430l-48-153h132l49 153H222z"/><glyph glyph-name="dollar" unicode="$" horiz-adv-x="576" d="M272-10c-11 0-21 1-32 1l-18-104h-43L198-4C130 6 72 29 37 57L26 231h54c18-87 62-155 128-181l38 213-10 3C104 305 30 365 30 486c0 139 107 226 254 226 14 0 28-1 41-2l19 103h43l-20-108c55-10 100-29 134-53V500h-46c-16 71-48 123-98 148l-36-203c1-1 3-1 4-1 133-41 221-89 221-229C546 61 423-10 272-10zm120 144c0 61-31 88-106 115L249 39c7-1 15-1 23-1 71 0 120 34 120 96zM179 569c0-60 30-86 102-111l36 204c-11 2-22 3-33 3-61 0-105-36-105-96z"/><glyph glyph-name="percent" unicode="%" horiz-adv-x="791" d="M34 539c0 114 81 173 173 173 91 0 172-59 172-173 0-115-81-174-172-174-92 0-173 59-173 174zm112 0c0-77 15-139 61-139s61 62 61 139c0 76-15 138-61 138s-61-62-61-138zm3-549l439 722h54L203-10h-54zm608 173c0-114-81-173-173-173-91 0-173 59-173 173 0 115 82 174 173 174 92 0 173-59 173-174zm-112 0c0 77-15 139-61 139s-61-62-61-139c0-76 15-138 61-138s61 62 61 138z"/><glyph glyph-name="ampersand" unicode="&amp;" horiz-adv-x="736" d="M11 183c0 99 61 155 166 184-27 34-63 90-63 159 0 114 87 186 221 186 125 0 211-60 211-156 0-84-58-136-164-159l159-190c11 26 18 54 18 84 0 36-22 48-63 48v43h221v-43c-70 0-94-14-107-72-8-34-21-67-39-97l47-55c39-47 60-73 101-73V0H506c-21 16-39 30-56 46-55-35-122-56-192-56C120-10 11 59 11 183zM335 67c27 0 54 6 79 16-10 11-20 22-30 35L202 336c-24-27-33-63-33-106 0-93 66-163 166-163zm-67 523c0-67 46-112 81-153l7-9c41 31 57 79 57 142 0 52-21 100-76 100-45 0-69-33-69-80z"/><glyph glyph-name="quoteright" unicode="’" horiz-adv-x="280" d="M153 574h-41c-42 10-73 36-73 87 0 56 43 90 96 90 65 0 106-50 106-124 0-107-71-172-203-176v40c68 10 108 30 115 83z"/><glyph glyph-name="parenleft" unicode="(" horiz-adv-x="371" d="M60 314c0 171 87 341 233 456h56C235 634 196 468 196 314S235-6 349-142h-56C147-27 60 143 60 314z"/><glyph glyph-name="parenright" unicode=")" horiz-adv-x="371" d="M311 314c0-171-87-341-234-456H22C135-6 175 160 175 314S135 634 22 770h55c147-115 234-285 234-456z"/><glyph glyph-name="asterisk" unicode="*" horiz-adv-x="443" d="M362 595l-127-34 127-33c44-11 59-43 42-73-17-28-53-32-84 1l-92 93 35-126c13-44-8-72-42-72-33 0-54 28-41 72l35 126-92-93c-32-33-68-29-84-1-17 30-2 62 42 73l126 33-126 34c-44 10-59 42-42 72 16 28 52 32 84-1l92-94-35 127c-13 44 8 72 41 72 34 0 55-28 42-72l-35-127 92 94c31 33 67 29 84 1 17-30 2-62-42-72z"/><glyph glyph-name="plus" unicode="+" horiz-adv-x="574" d="M253 591h67V404h188v-69H320V148h-67v187H65v69h188v187z"/><glyph glyph-name="comma" unicode="," horiz-adv-x="266" d="M149 6h-41C66 16 36 42 36 93c0 55 42 90 96 90 65 0 106-50 106-124 0-108-72-175-205-179v41c68 10 110 30 116 85z"/><glyph glyph-name="hyphen" unicode="-" horiz-adv-x="320" d="M290 269H30v78h260v-78z"/><glyph glyph-name="period" unicode="." horiz-adv-x="266" d="M30 93c0 61 46 104 103 104 58 0 103-43 103-104S191-10 133-10C76-10 30 32 30 93z"/><glyph glyph-name="slash" unicode="/" horiz-adv-x="362" d="M353 770L76-141H-2l277 911h78z"/><glyph glyph-name="zero" unicode="0" horiz-adv-x="670" d="M335 32c84 0 103 143 103 319s-19 319-103 319-103-143-103-319S251 32 335 32zm0-42C158-10 26 121 26 351s132 361 309 361 309-131 309-361S512-10 335-10z"/><glyph glyph-name="one" unicode="1" horiz-adv-x="423" d="M409 0H25v42c92 4 96 12 96 73v421H25v39l46 8c99 17 151 55 203 128h42V115c0-61 10-68 93-73V0z"/><glyph glyph-name="two" unicode="2" horiz-adv-x="555" d="M179 156h175c66 0 89 5 140 100h31L502 0H5v33l192 191c81 80 119 151 119 236 0 73-41 124-119 124-56 0-102-27-134-65l-30 21c50 94 123 172 259 172 127 0 208-71 208-188 0-150-169-261-321-368z"/><glyph glyph-name="three" unicode="3" horiz-adv-x="544" d="M303 403c133-4 220-80 220-195C523 63 389-10 248-10 88-10 5 55 5 133c0 41 23 72 46 83h116c-7-17-11-37-11-65 0-67 32-121 97-121 58 0 90 50 90 136 0 98-56 161-157 161h-19l-11 29c106 43 141 83 141 144 0 54-32 90-95 90-58 0-98-26-133-68l-27 21c46 96 121 169 254 169 107 0 182-53 182-146 0-101-98-147-175-163z"/><glyph glyph-name="four" unicode="4" horiz-adv-x="638" d="M83 235h226v320zm226-127v74H6v34l343 486h150V235h115v-53H499v-74c0-52 9-64 78-68V0H230v40c69 4 79 16 79 68z"/><glyph glyph-name="five" unicode="5" horiz-adv-x="541" d="M466 542H143l-14-77c250 5 387-70 387-245C516 70 400-10 252-10 94-10 10 49 10 129c0 39 23 71 52 86h109c-4-15-9-35-9-59 0-73 30-125 101-125 62 0 101 42 101 113 0 102-92 157-305 157l63 401h275c35 0 42 4 60 42h39z"/><glyph glyph-name="six" unicode="6" horiz-adv-x="609" d="M494 683c-168-33-242-134-264-272 33 24 86 47 153 47 117 0 203-81 203-211C586 85 468-10 315-10 136-10 29 120 29 308c0 221 162 396 449 404zM274 384c-19 0-35-3-49-7-2-23-3-47-3-72 0-153 31-272 105-272 58 0 84 67 84 157 0 107-43 194-137 194z"/><glyph glyph-name="seven" unicode="7" horiz-adv-x="516" d="M404 518H141c-46 0-69-25-92-91H10l45 275h460v-39L233 0H116z"/><glyph glyph-name="eight" unicode="8" horiz-adv-x="587" d="M527 550c0-75-66-119-148-127l25-11c106-46 158-107 158-204C562 71 454-10 291-10S22 53 22 163c0 79 68 129 156 140l-16 7C91 342 42 408 42 499c0 132 108 213 250 213 148 0 235-61 235-162zM331 233l-127 58c-33-30-47-65-47-113 0-90 53-147 136-147 70 0 120 37 120 104 0 52-30 75-82 98zm-63 243l81-40c29 24 53 59 53 116 0 69-38 119-111 119-61 0-102-36-102-92 0-52 29-79 79-103z"/><glyph glyph-name="nine" unicode="9" horiz-adv-x="609" d="M115 20c167 32 241 133 264 272-34-25-86-47-153-47-117 0-203 81-203 211 0 162 118 257 271 257 179 0 286-130 286-318C580 174 418-1 131-9zm220 299c18 0 34 2 48 6 3 24 4 48 4 73 0 153-31 272-105 272-58 0-84-67-84-157 0-107 43-194 137-194z"/><glyph glyph-name="colon" unicode=":" horiz-adv-x="266" d="M30 93c0 61 46 104 103 104 58 0 103-43 103-104S191-10 133-10C76-10 30 32 30 93zm0 309c0 61 46 104 103 104 58 0 103-43 103-104s-45-103-103-103c-57 0-103 42-103 103z"/><glyph glyph-name="semicolon" unicode=";" horiz-adv-x="266" d="M149 6h-41C66 16 36 42 36 93c0 55 42 90 96 90 65 0 106-50 106-124 0-108-72-175-205-179v41c68 10 110 30 116 85zM30 402c0 61 46 104 103 104 58 0 103-43 103-104s-45-103-103-103c-57 0-103 42-103 103z"/><glyph glyph-name="less" unicode="&lt;" horiz-adv-x="425" d="M43 363v9l317 194v-81L161 368l199-119v-80z"/><glyph glyph-name="equal" unicode="=" horiz-adv-x="584" d="M70 264v65h444v-65H70zm0 145v67h444v-67H70z"/><glyph glyph-name="greater" unicode="&gt;" horiz-adv-x="425" d="M382 372v-9L65 169v80l200 119L65 485v81z"/><glyph glyph-name="question" unicode="?" horiz-adv-x="467" d="M306 596c0 47-24 77-70 77-57 0-75-49-75-99 0-25 3-42 5-58H56c-26 13-40 36-40 65 0 80 87 131 218 131 141 0 221-61 221-170 0-86-50-139-138-191-56-34-79-58-79-107v-13h-25c-47 18-78 56-78 109 0 46 25 88 78 127 51 38 93 71 93 129zM129 87c0 55 43 99 95 99 54 0 96-44 96-99 0-53-42-97-96-97-52 0-95 44-95 97z"/><glyph glyph-name="at" unicode="@" horiz-adv-x="885" d="M606 77c-106 0-128 77-112 162-50-92-99-162-175-162-58 0-103 48-103 128 0 137 112 289 257 289 46 0 81-21 96-41l75 33h41l-34-92-55-200c-12-41-7-80 29-80 75 0 140 106 140 257 0 148-103 281-283 281-220 0-358-182-358-401C124 31 274-79 460-79c111 0 185 24 270 75l14-20c-72-64-176-104-304-104C223-128 38 3 38 249c0 242 187 443 444 443 231 0 365-148 365-321 0-200-131-294-241-294zm-225 88c56 0 122 126 152 262-9 20-24 32-45 32-79 0-140-142-140-239 0-33 10-55 33-55z"/><glyph glyph-name="A" unicode="A" horiz-adv-x="759" d="M471 125l-36 92H180l-34-91c-5-15-8-27-8-37 0-33 28-44 82-47V0H5v42c27 4 47 10 58 37l208 542-34 83h209L695 79c10-26 30-33 59-37V0H401v42c50 2 78 12 78 46 0 10-3 22-8 37zM304 548L200 271h213z"/><glyph glyph-name="B" unicode="B" horiz-adv-x="700" d="M339 335h-44V115c0-54 18-68 70-68h8c69 0 117 46 117 146 0 91-50 142-151 142zm-20 320h-24V389h25c85 0 129 46 129 136 0 89-50 130-130 130zM399 0H26v42c67 7 73 15 73 67v484c0 52-6 60-73 67v42h363c155 0 246-59 246-175 0-101-91-152-188-162 133-4 233-65 233-175C680 61 583 0 399 0z"/><glyph glyph-name="C" unicode="C" horiz-adv-x="683" d="M404 712c90 0 166-21 223-59l3-175h-49c-25 119-78 184-171 184-125 0-177-133-177-302 0-183 64-317 187-317 83 0 147 59 187 211h50L640 55c-58-41-147-65-245-65C167-10 26 121 26 332c0 235 170 380 378 380z"/><glyph glyph-name="D" unicode="D" horiz-adv-x="789" d="M321 655h-26V117c0-59 23-70 68-70h9c113 0 187 115 187 293 0 192-85 315-238 315zM378 0H26v42c67 7 73 15 73 67v484c0 52-6 60-73 67v42h329c277 0 407-148 407-343C762 133 612 0 378 0z"/><glyph glyph-name="E" unicode="E" horiz-adv-x="655" d="M26 0v42c67 7 73 15 73 67v484c0 52-6 60-73 67v42h575l5-193h-38c-53 112-79 146-170 146H295V390h97c46 0 58 24 67 92h43V242h-43c-9 68-21 93-67 93h-97V114c0-54 26-67 81-67h35c89 0 111 39 183 171h45L607 0H26z"/><glyph glyph-name="F" unicode="F" horiz-adv-x="614" d="M295 327V112c0-53 27-65 116-70V0H26v42c67 7 73 15 73 67v484c0 52-6 60-73 67v42h565l5-200h-35c-55 113-81 153-172 153h-94V382h87c47 0 58 25 67 93h43V234h-43c-9 68-20 93-67 93h-87z"/><glyph glyph-name="G" unicode="G" horiz-adv-x="742" d="M477 53v170c0 52-6 60-73 68v42h328v-42c-66-8-72-16-72-68V57c-69-44-165-67-272-67C151-10 26 137 26 333c0 234 171 379 382 379 91 0 168-21 226-59l3-175h-49c-25 119-79 184-173 184-128 0-182-133-182-302 0-170 58-319 182-319 25 0 43 2 62 12z"/><glyph glyph-name="H" unicode="H" horiz-adv-x="844" d="M295 593V387h254v206c0 52-6 60-73 67v42h341v-42c-66-7-72-15-72-67V109c0-52 6-60 72-67V0H476v42c67 7 73 15 73 67v216H295V109c0-52 6-60 72-67V0H26v42c67 7 73 15 73 67v484c0 52-6 60-73 67v42h341v-42c-66-7-72-15-72-67z"/><glyph glyph-name="I" unicode="I" horiz-adv-x="394" d="M295 593V109c0-52 6-60 72-67V0H26v42c67 7 73 15 73 67v484c0 52-6 60-73 67v42h341v-42c-66-7-72-15-72-67z"/><glyph glyph-name="J" unicode="J" horiz-adv-x="583" d="M298 168v425c0 52-6 60-73 67v42h341v-42c-66-7-72-15-72-67V225c0-163-98-235-268-235C76-10-5 43-5 140c0 40 19 71 50 89h126c-4-24-7-45-7-77 0-66 16-119 67-119 57 0 67 52 67 135z"/><glyph glyph-name="K" unicode="K" horiz-adv-x="768" d="M469 429l208-321c28-41 46-61 91-66V0H535c-33 28-65 71-91 115L304 341l234 244c17 17 28 31 28 47s-16 26-69 28v42h237v-42c-41-2-58-10-85-38zM295 593V109c0-52 6-60 72-67V0H26v42c67 7 73 15 73 67v484c0 52-6 60-73 67v42h341v-42c-66-7-72-15-72-67z"/><glyph glyph-name="L" unicode="L" horiz-adv-x="644" d="M295 593V114c0-54 22-67 77-67h28c67 0 103 39 192 190h43L597 0H26v42c67 7 73 15 73 67v484c0 52-6 60-73 67v42h341v-42c-66-7-72-15-72-67z"/><glyph glyph-name="M" unicode="M" horiz-adv-x="981" d="M694 130l-48 381L467 0h-76L206 511l-50-381c-1-7-2-21-2-24 0-49 19-59 96-64V0H3v42c58 3 79 15 85 60l63 485c0 53-19 70-85 73v42h278c2-23 8-42 16-64l136-382 129 382c8 25 15 41 17 64h272v-42c-66-3-84-20-84-73l63-485c7-48 28-57 84-60V0H600v42c71 4 96 15 96 64 0 3-1 17-2 24z"/><glyph glyph-name="N" unicode="N" horiz-adv-x="754" d="M597 306v286c0 52-20 62-101 68v42h240v-42c-66-7-72-16-72-68V-1h-71L166 527V110c0-52 20-62 101-68V0H27v42c66 7 72 16 72 68v486c-25 43-39 62-73 64v42h252z"/><glyph glyph-name="O" unicode="O" horiz-adv-x="747" d="M378 38c101 0 135 154 135 301 0 178-40 325-145 325-101 0-135-154-135-301 0-178 40-325 145-325zm-14-48C142-10 26 151 26 337c0 230 150 375 356 375 222 0 338-161 338-347 0-230-149-375-356-375z"/><glyph glyph-name="P" unicode="P" horiz-adv-x="667" d="M295 271V112c0-53 27-65 116-70V0H26v42c67 7 73 15 73 67v484c0 52-6 60-73 67v42h346c195 0 285-91 285-212 0-138-95-219-293-219h-69zm0 384V323h23c96 0 147 64 147 167s-57 165-147 165h-23z"/><glyph glyph-name="Q" unicode="Q" horiz-adv-x="747" d="M353-69L307-6C122 18 26 167 26 337c0 230 150 375 356 375 222 0 338-161 338-347C720 170 613 36 454 0l83-61c48-35 78-55 135-56v-17c-25-24-67-52-128-52-65 0-127 33-191 117zm25 107c101 0 135 154 135 301 0 178-40 325-145 325-101 0-135-154-135-301 0-178 40-325 145-325z"/><glyph glyph-name="R" unicode="R" horiz-adv-x="759" d="M324 653h-29V343h30c91 0 143 58 143 159 0 93-51 151-144 151zm-29-360V109c0-52 6-60 72-67V0H26v42c67 7 73 15 73 67v484c0 52-6 60-73 67v42h367c163 0 270-76 270-199 0-102-76-157-150-181l139-199c41-60 60-79 107-81V0H530c-28 22-54 56-84 106L332 293h-37z"/><glyph glyph-name="S" unicode="S" horiz-adv-x="579" d="M275-10C175-10 87 20 40 57L29 231h53c25-112 92-193 193-193 71 0 117 34 117 96 0 65-42 93-153 127C106 300 33 365 33 486c0 139 106 226 254 226 91 0 167-24 216-60V500h-45c-23 101-78 165-171 165-62 0-103-36-103-93 0-65 40-92 143-123 133-41 221-94 221-234C548 61 425-10 275-10z"/><glyph glyph-name="T" unicode="T" horiz-adv-x="708" d="M30 702h648l15-251h-41c-73 157-100 210-167 210h-33V105c0-52 17-56 82-63V0H174v42c65 7 82 11 82 63v556h-33c-67 0-94-53-167-210H15z"/><glyph glyph-name="U" unicode="U" horiz-adv-x="753" d="M282 593V261c0-115 44-187 153-187 92 0 165 51 165 192v326c0 52-12 62-93 68v42h232v-42c-66-7-72-16-72-68V247C667 71 543-10 388-10 196-10 86 75 86 247v346c0 52-5 60-72 67v42h341v-42c-67-7-73-15-73-67z"/><glyph glyph-name="V" unicode="V" horiz-adv-x="731" d="M451 243l129 333c6 15 11 29 11 40 0 30-12 42-73 44v42h208v-42c-29-4-48-10-59-37L411-4h-56L63 623c-13 28-29 33-58 37v42h355v-42c-61-2-73-14-73-43 0-12 4-27 10-41z"/><glyph glyph-name="W" unicode="W" horiz-adv-x="1008" d="M651-4L517 387 373-4h-71L63 623c-9 23-30 33-58 37v42h328v-42c-40-3-54-16-54-39 0-15 7-34 14-54l117-318 80 218-53 156c-8 24-23 33-51 37v42h327v-42c-53-1-70-14-70-43 0-16 6-36 13-61l97-302 104 305c7 21 13 40 13 55 0 28-18 44-69 46v42h202v-42c-28-4-50-13-58-37L723-4h-72z"/><glyph glyph-name="X" unicode="X" horiz-adv-x="747" d="M432 117L317 285 177 107c-9-12-14-22-14-31 0-20 30-33 81-34V0H5v42c40 5 57 16 71 35l207 259L87 625c-14 21-35 31-62 35v42h348v-42c-38 0-56-6-56-29 0-14 8-26 22-47l84-126 105 137c10 13 14 24 14 34 0 20-25 30-64 31v42h221v-42c-40-5-57-16-72-35L456 409 674 85c20-29 38-39 68-43V0H381v42c53 1 72 6 72 30 0 13-6 23-21 45z"/><glyph glyph-name="Y" unicode="Y" horiz-adv-x="707" d="M457 263V105c0-52 17-56 83-63V0H184v42c66 7 82 11 82 63v153L63 623c-15 28-29 33-58 37v42h345v-42c-54-2-68-11-68-36 0-21 8-37 23-64l128-220 112 218c11 23 23 49 23 66 0 25-22 34-70 36v42h204v-42c-27-4-45-12-58-37z"/><glyph glyph-name="Z" unicode="Z" horiz-adv-x="632" d="M243 47h126c84 0 118 35 203 184h43L579 0H16v35l351 620H248c-93 0-110-42-168-170H39l9 217h547v-35z"/><glyph glyph-name="bracketleft" unicode="[" horiz-adv-x="336" d="M199 671V-42c0-52 25-55 105-60v-39H85v911h219v-39c-80-5-105-8-105-60z"/><glyph glyph-name="backslash" unicode="\" horiz-adv-x="362" d="M286-141L9 770h78l278-911h-79z"/><glyph glyph-name="bracketright" unicode="]" horiz-adv-x="336" d="M138-42v713c0 52-25 55-105 60v39h218v-911H33v39c80 5 105 8 105 60z"/><glyph glyph-name="asciicircum" unicode="^" horiz-adv-x="469" d="M272 770l165-290h-72L234 716 103 480H32l165 290h75z"/><glyph glyph-name="underscore" unicode="_" horiz-adv-x="414" d="M394-141H20v75h374v-75z"/><glyph glyph-name="quoteleft" unicode="‘" horiz-adv-x="280" d="M129 633h41c42-10 73-36 73-87 0-56-43-90-97-90-65 0-106 50-106 123 0 108 71 173 203 177v-41c-67-9-108-30-114-82z"/><glyph glyph-name="a" unicode="a" horiz-adv-x="554" d="M263 89c16 0 28 5 44 14v185l-55-21c-35-13-58-32-58-89 0-51 19-89 69-89zm226 286V110c0-24 3-45 27-45 14 0 27 3 34 6l7-27c-33-33-76-54-132-54-58 0-100 31-115 84-29-42-77-81-151-81C75-7 16 41 16 127c0 87 61 123 132 148l159 56v102c0 46-13 77-52 77s-54-32-54-79c0-23 4-46 9-70L99 346c-29 10-49 34-49 70 0 91 94 133 215 133 140 0 224-44 224-174z"/><glyph glyph-name="b" unicode="b" horiz-adv-x="630" d="M55 679L0 707v30l209 46h31V452c28 45 83 97 168 97 118 0 202-82 202-246C610 98 479-10 311-10 220-10 120 8 55 59v620zM311 37c72 0 111 92 111 210 0 132-47 193-123 193-21 0-41-5-59-17V141c0-64 18-104 71-104z"/><glyph glyph-name="c" unicode="c" horiz-adv-x="503" d="M181 322c0-128 57-207 157-207 59 0 101 20 133 66l22-14C460 45 379-10 267-10 128-10 21 89 21 253c0 169 108 296 274 296 101 0 183-39 183-127 0-38-22-63-44-73h-95c3 22 4 39 4 57 0 58-16 98-64 98-62 0-98-79-98-182z"/><glyph glyph-name="d" unicode="d" horiz-adv-x="641" d="M314 489c-71 0-108-75-108-188 0-123 44-207 122-207 20 0 39 4 57 14v278c0 67-19 103-71 103zm71 190l-55 28v30l209 46h31V115c0-34 2-49 34-50l24-1V25L416-10h-34l3 94c-41-61-95-94-162-94C105-10 21 82 21 245c0 195 118 300 265 300 41 0 76-11 99-30v164z"/><glyph glyph-name="e" unicode="e" horiz-adv-x="526" d="M288 549c145 0 219-92 219-219v-25H188c-2-119 64-193 155-193 64 0 111 23 149 73l19-12C484 63 407-10 281-10 133-10 21 89 21 257c0 178 123 292 267 292zm-12-42c-55 0-82-63-87-156h160c0 97-19 156-73 156z"/><glyph glyph-name="f" unicode="f" horiz-adv-x="378" d="M263 485V93c0-43 22-47 80-54V0H23v39c40 3 56 7 56 39v407H7v40l72 19v19c0 152 104 220 234 220 107 0 155-36 155-97 0-28-15-52-37-63h-94c3 14 5 29 5 47 0 35-5 69-36 69-30 0-43-25-43-70V539h117v-54H263z"/><glyph glyph-name="g" unicode="g" horiz-adv-x="557" d="M259 188c-37 0-75 5-110 17-16-14-29-30-29-50 0-17 11-29 30-29h217c135 0 192-58 192-149 0-129-124-200-305-200C96-223-2-180-2-101c0 50 48 74 92 81C48-4 24 37 24 80c0 65 46 107 98 135-55 26-95 71-95 144 0 120 101 190 239 190 40 0 69-6 95-14l178 4v-67h-45l-61 2c36-24 62-63 62-113 0-111-102-173-236-173zM375-42H111c-7-8-9-22-9-37 0-61 63-97 157-97 90 0 173 24 173 89 0 32-20 45-57 45zM266 227c45 0 59 49 59 136 0 76-20 144-67 144-45 0-60-49-60-132 0-80 22-148 68-148z"/><glyph glyph-name="h" unicode="h" horiz-adv-x="661" d="M74 78v601l-55 28v30l209 46h31V449c38 48 95 100 186 100 96 0 151-55 151-164V78c0-32 16-36 56-39V0H358v39c40 3 53 7 53 39v292c0 44-15 70-67 70-32 0-60-9-85-22V78c0-32 13-36 53-39V0H18v39c40 3 56 7 56 39z"/><glyph glyph-name="i" unicode="i" horiz-adv-x="334" d="M262 549V78c0-32 16-36 56-39V0H22v39c40 3 56 7 56 39v351l-55 34v28l208 58h31zm-90 44c-62 0-98 43-98 93s36 92 98 92c60 0 98-42 98-92s-38-93-98-93z"/><glyph glyph-name="j" unicode="j" horiz-adv-x="302" d="M63 429L7 463v28l209 58h31V106c0-113-24-161-70-207-55-54-102-80-172-112l-16 20 41 64C62-77 63-15 63 63v366zm91 164c-61 0-98 43-98 93s37 92 98 92 98-42 98-92-37-93-98-93z"/><glyph glyph-name="k" unicode="k" horiz-adv-x="638" d="M266 283l153 139c26 23 33 35 33 48 0 19-14 25-61 30v39h227v-39c-34-5-57-11-83-37L420 355 638 27V0H446zM74 78v601l-55 28v30l209 46h31V78c0-32 16-36 56-39V0H18v39c40 3 56 7 56 39z"/><glyph glyph-name="l" unicode="l" horiz-adv-x="330" d="M259 783V78c0-32 16-36 56-39V0H18v39c40 3 56 7 56 39v601l-55 28v30l209 46h31z"/><glyph glyph-name="m" unicode="m" horiz-adv-x="974" d="M725 78v295c0 43-14 68-60 68-30 0-54-11-79-23V78c0-32 10-36 50-39V0H351v39c40 3 50 7 50 39v295c0 43-14 68-59 68-31 0-55-10-80-23V78c0-32 11-36 51-39V0H22v39c40 3 56 7 56 39v351l-55 34v28l209 58h34l-4-102c38 55 92 102 181 102 77 0 125-31 139-104 36 54 97 104 183 104 93 0 145-54 145-159V78c0-32 16-36 55-39V0H675v39c40 3 50 7 50 39z"/><glyph glyph-name="n" unicode="n" horiz-adv-x="664" d="M415 78v292c0 44-15 70-67 70-32 0-60-9-86-22V78c0-32 14-36 54-39V0H22v39c40 3 56 7 56 39v351l-55 34v28l209 58h34l-4-100c38 48 96 100 186 100 97 0 152-54 152-164V78c0-32 16-36 56-39V0H362v39c40 3 53 7 53 39z"/><glyph glyph-name="o" unicode="o" horiz-adv-x="601" d="M305 32c60 0 79 77 79 204 0 164-23 271-88 271-60 0-79-77-79-204 0-164 24-271 88-271zm-5-42C135-10 21 95 21 259c0 168 116 290 280 290 165 0 279-105 279-269 0-168-116-290-280-290z"/><glyph glyph-name="p" unicode="p" horiz-adv-x="645" d="M326 37c72 0 111 92 111 210 0 132-47 193-123 193-21 0-41-5-59-17V142c0-65 18-105 71-105zM70-134v563l-55 34v28l209 58h35l-4-97c28 45 83 97 168 97 118 0 202-82 202-246C625 98 500-10 342-10c-38 0-70 7-87 21v-141c0-36 18-38 77-43v-39H14v39c40 3 56 7 56 39z"/><glyph glyph-name="q" unicode="q" horiz-adv-x="626" d="M314 501c-71 0-108-79-108-192 0-123 44-215 122-215 20 0 39 4 57 14v290c0 67-26 103-71 103zm71-631V84c-33-51-85-94-162-94C105-10 21 82 21 245c0 195 119 304 272 304 76 0 130-22 171-61l74 58h37l-5-120v-560c0-32 16-36 56-39v-39H308v39c59 5 77 7 77 43z"/><glyph glyph-name="r" unicode="r" horiz-adv-x="457" d="M262 357V93c0-43 23-47 80-54V0H22v39c40 3 56 7 56 39v351l-55 34v28l209 58h34l-4-154c41 117 76 154 139 154 23 0 40-7 50-17V393h-24c-63 0-119-2-165-36z"/><glyph glyph-name="s" unicode="s" horiz-adv-x="477" d="M227-10C144-10 80 10 37 41l-6 135h46C97 94 149 32 227 32c47 0 85 23 85 68 0 51-39 68-107 90C92 225 31 272 31 374c0 112 86 175 206 175 68 0 129-18 172-46V383h-43c-12 66-56 124-126 124-43 0-72-24-72-62 0-42 30-59 96-82 120-40 185-81 185-190 0-117-87-183-222-183z"/><glyph glyph-name="t" unicode="t" horiz-adv-x="391" d="M247 675V539h117v-54H247V154c0-48 19-69 57-69 26 0 48 9 72 25l15-22c-38-62-94-98-174-98-92 0-156 46-156 164v331H4v33c80 30 152 88 204 157h39z"/><glyph glyph-name="u" unicode="u" horiz-adv-x="647" d="M576 421V115c0-34 2-49 34-50l24-1V25L423-10h-35l3 97c-36-46-89-97-178-97S62 43 62 158v245c0 29-7 50-39 58l-15 5v36l211 46h33l-6-127V176c0-51 20-80 68-80 30 0 50 8 77 20v287c0 29-7 50-38 58l-15 5v36l210 46h33z"/><glyph glyph-name="v" unicode="v" horiz-adv-x="600" d="M595 539v-39c-35-11-41-18-51-40L338-4h-53L56 460c-11 22-16 29-51 40v39h320v-39c-53-7-66-13-66-35 0-9 2-14 8-28l106-233 97 233c6 14 8 19 8 28 0 22-13 28-66 35v39h183z"/><glyph glyph-name="w" unicode="w" horiz-adv-x="896" d="M679 214l89 223c5 12 7 23 7 31 0 21-18 27-57 32v39h173v-39c-35-11-42-18-51-40L643-4h-60L465 305 325-4h-59L56 460c-10 22-16 29-51 40v39h300v-39c-33-5-47-13-47-31 0-8 3-19 8-32l95-233 75 167-34 89c-8 22-19 32-46 40v39h296v-39c-42-5-62-9-62-34 0-8 2-17 6-29z"/><glyph glyph-name="x" unicode="x" horiz-adv-x="613" d="M337 103l-88 120-88-117c-9-13-13-23-13-32 0-20 22-33 61-35V0H5v39c34 9 55 24 69 42l142 188L77 460c-12 17-21 27-51 40v39h297v-39c-30-2-46-11-46-28 0-9 5-21 16-36l68-95 69 92c11 15 17 27 17 38 0 16-16 25-48 29v39h182v-39c-34-10-52-24-65-42L393 298 553 78c12-16 25-28 55-39V0H299v39c35 1 54 10 54 27 0 10-5 22-16 37z"/><glyph glyph-name="y" unicode="y" horiz-adv-x="599" d="M371 182l99 254c5 13 8 20 8 29 0 22-14 28-66 35v39h182v-39c-34-11-42-18-51-40L315-87c-37-88-74-134-144-134-39 0-70 16-84 42v71c26-5 47-10 78-10 56 0 85 16 103 58l16 35L56 460c-10 22-16 29-51 40v39h320v-39c-53-7-66-13-66-35 0-9 3-16 7-28z"/><glyph glyph-name="z" unicode="z" horiz-adv-x="537" d="M18 0v33l284 460h-92c-53 0-86-46-133-152H38l14 230h37l20-33h402v-33L233 46h102c66 0 98 42 150 153h37L500 0H18z"/><glyph glyph-name="braceleft" unicode="{" horiz-adv-x="367" d="M50 305v18c48 10 83 36 83 100v219c0 79 59 128 205 128v-29c-48-6-86-31-86-98V434c0-76-47-105-117-120 70-15 117-44 117-120V-14c0-67 38-92 86-98v-29c-146 0-205 49-205 128v218c0 64-35 90-83 100z"/><glyph glyph-name="bar" unicode="|" horiz-adv-x="205" d="M139 770v-911H66v911h73z"/><glyph glyph-name="braceright" unicode="}" horiz-adv-x="375" d="M325 323v-18c-48-10-83-36-83-100V-13c0-79-59-128-205-128v29c49 6 86 31 86 98v208c0 76 47 105 117 120-70 15-117 44-117 120v209c0 67-37 92-86 98v29c146 0 205-49 205-128V423c0-64 35-90 83-100z"/><glyph glyph-name="asciitilde" unicode="~" horiz-adv-x="493" d="M431 396l32-15c-31-106-75-160-143-160-61 0-113 74-168 74-41 0-67-31-90-69l-32 15c30 105 74 160 143 160 60 0 112-74 167-74 41 0 68 31 91 69z"/><glyph glyph-name="exclamdown" unicode="¡" horiz-adv-x="293" d="M51 513c0 53 43 97 95 97 53 0 96-44 96-97 0-55-43-99-96-99-52 0-95 44-95 99zm66-147h58l81-468H36z"/><glyph glyph-name="cent" unicode="¢" horiz-adv-x="533" d="M186-115L206-1C97 26 24 120 24 260c0 173 110 303 283 305l19 106h41l-19-108c86-9 153-49 153-128 0-40-23-65-47-75h-76c3 22 4 42 4 60 0 45-10 80-43 94l-69-387c22-12 48-17 77-17 67 0 111 29 145 76l22-13C481 46 392-10 277-10c-11 0-21 1-31 2l-19-107h-41zm-8 442c0-80 20-137 55-173l66 367c-73-1-121-83-121-194z"/><glyph glyph-name="sterling" unicode="£" horiz-adv-x="695" d="M100 348v43h101l3 46c11 183 95 275 261 275 99 0 187-37 187-120 0-39-24-69-52-79h-97c7 19 13 42 13 76 0 41-5 87-44 87-42 0-59-46-67-119l-18-166h153v-43H383l-1-8c-8-82-26-149-45-184 51-21 132-32 189-32 55 0 93 21 93 68 0 15-3 23-7 35l28 9c14-17 31-51 31-94 0-97-59-152-163-152-97 0-172 49-218 87-33-50-90-87-164-87C55-10 10 31 10 94c0 66 48 104 110 104 19 0 45-3 67-11l11 161h-98zm14-308c40 0 65 34 68 96-19 11-39 21-65 21-36 0-58-23-58-62 0-35 23-55 55-55z"/><glyph glyph-name="fraction" unicode="⁄" horiz-adv-x="283" d="M-106-10l438 722h54L-53-10h-53z"/><glyph glyph-name="yen" unicode="¥" horiz-adv-x="687" d="M445 273v-9h160v-44H445V105c0-52 17-56 83-63V0H176v42c66 7 82 11 82 63v115H92v44h166v9l-39 70H92v45h102L63 623c-15 28-29 33-58 37v42h341v-42c-54-2-68-11-68-37 0-20 8-36 23-63l116-215 108 213c11 24 17 42 17 65 0 26-20 35-68 37v42h208v-42c-28-4-46-12-58-37L504 388h101v-45H481z"/><glyph glyph-name="florin" unicode="ƒ" horiz-adv-x="544" d="M64 343l4 42h89l2 16c23 204 98 311 248 311 72 0 135-24 135-89 0-31-18-55-51-66h-52c0 57-2 122-43 122-25 0-38-19-43-59l-27-235h114l-4-42H321l-23-207C275-68 201-174 50-174c-72 0-135 24-135 89 0 31 19 55 52 65h52c0-56 2-121 43-121 25 0 38 18 42 59l48 425H64z"/><glyph glyph-name="section" unicode="§" horiz-adv-x="529" d="M156 630c-42-43-61-86-61-157 0-105 50-191 115-281 59-84 160-202 163-313 42 43 61 86 61 157 0 104-50 191-115 281-59 83-160 201-163 313zm75-833c-97 0-161 45-161 111 0 34 21 51 43 59h88v-44c0-41 9-92 68-92 43 0 59 29 59 64 0 83-86 173-156 270S49 357 49 473c0 145 111 239 249 239 96 0 161-45 161-110 0-35-21-52-44-60h-87v44c0 41-9 93-68 93-43 0-60-30-60-64 0-84 87-173 157-271 69-97 123-192 123-308 0-145-111-239-249-239z"/><glyph glyph-name="currency" unicode="¤" horiz-adv-x="582" d="M66 543l30 30 73-75c33 28 75 44 122 44 46 0 89-16 122-44l73 75 30-30-74-74c26-34 41-76 41-124s-15-91-41-124l74-74-30-30-73 74c-33-27-76-43-122-43-47 0-89 16-122 43l-73-74-30 30 74 74c-26 33-41 76-41 124s15 90 41 124zm89-198c0-85 59-145 136-145s136 60 136 145-59 146-136 146-136-61-136-146z"/><glyph glyph-name="quotesingle" unicode="'" horiz-adv-x="187" d="M101 455H86L41 599c-9 30-20 71-20 94 0 39 22 76 72 76 51 0 73-37 73-76 0-23-11-64-21-94z"/><glyph glyph-name="quotedblleft" unicode="“" horiz-adv-x="510" d="M359 633h41c42-10 73-36 73-87 0-56-43-90-97-90-65 0-106 50-106 123 0 108 71 173 203 177v-41c-67-9-108-30-114-82zm-230 0h41c42-10 73-36 73-87 0-56-43-90-97-90-65 0-106 50-106 123 0 108 71 173 203 177v-41c-67-9-108-30-114-82z"/><glyph glyph-name="guillemotleft" unicode="«" horiz-adv-x="469" d="M23 273v6l187 200h46l-90-203 90-204h-46zm190 0v6l187 200h46l-90-203 90-204h-46z"/><glyph glyph-name="guilsinglleft" unicode="‹" horiz-adv-x="279" d="M23 273v6l187 200h46l-90-203 90-204h-46z"/><glyph glyph-name="guilsinglright" unicode="›" horiz-adv-x="279" d="M256 279v-6L69 72H23l90 204-90 203h46z"/><glyph glyph-name="endash" unicode="–" horiz-adv-x="540" d="M510 274H30v60h480v-60z"/><glyph glyph-name="dagger" unicode="†" horiz-adv-x="378" d="M200 579c0-45 30-80 56-95v-9c-26-38-56-178-60-326h-14c-4 148-34 288-60 326v9c26 15 56 50 56 95-48 0-71-42-112-42-24 0-46 18-46 52s22 52 46 52c41 0 64-42 112-42 0 48-41 72-41 113 0 24 18 46 52 46s52-22 52-46c0-41-41-65-41-113 48 0 71 42 112 42 24 0 46-18 46-52s-22-52-46-52c-41 0-64 42-112 42z"/><glyph glyph-name="daggerdbl" unicode="‡" horiz-adv-x="394" d="M187 455c0 27-20 49-57 53v9c26 15 56 39 56 83-48 0-71-41-112-41-24 0-46 18-46 51 0 34 22 52 46 52 41 0 64-41 112-41 0 48-41 50-41 91 0 24 19 46 52 46 34 0 52-22 52-46 0-41-41-43-41-91 49 0 71 41 112 41 24 0 46-18 46-52 0-33-22-51-46-51-41 0-63 41-112 41 0-44 30-68 57-83v-9c-37-4-58-26-58-53s21-49 58-53v-9c-27-15-57-39-57-83 49 0 71 41 112 41 24 0 46-18 46-52 0-33-22-51-46-51-41 0-63 41-112 41 0-48 41-50 41-91 0-24-18-46-52-46-33 0-52 22-52 46 0 41 41 43 41 91-48 0-71-41-112-41-24 0-46 18-46 51 0 34 22 52 46 52 41 0 64-41 112-41 0 44-30 68-56 83v9c37 4 57 26 57 53z"/><glyph glyph-name="periodcentered" unicode="·" horiz-adv-x="262" d="M30 304c0 59 45 102 101 102s101-43 101-102c0-58-45-100-101-100S30 246 30 304z"/><glyph glyph-name="paragraph" unicode="¶" horiz-adv-x="616" d="M315-197v397C137 200 40 316 40 452s97 250 275 250h275v-40c-77-1-102-12-102-73v-786h-47v858h-79v-858h-47zm0 436v424c-79-8-117-113-117-211s38-206 117-213z"/><glyph glyph-name="bullet" unicode="•" horiz-adv-x="368" d="M30 308c0 86 70 157 154 157 85 0 154-71 154-157 0-85-69-157-154-157-84 0-154 72-154 157z"/><glyph glyph-name="quotesinglbase" unicode="‚" horiz-adv-x="280" d="M153 0h-41C70 10 39 36 39 87c0 56 43 90 96 90 65 0 106-50 106-123 0-108-71-173-203-177v41c68 9 108 29 115 82z"/><glyph glyph-name="quotedblbase" unicode="„" horiz-adv-x="510" d="M153 0h-41C70 10 39 36 39 87c0 56 43 90 96 90 65 0 106-50 106-123 0-108-71-173-203-177v41c68 9 108 29 115 82zm230 0h-41c-42 10-73 36-73 87 0 56 43 90 96 90 65 0 106-50 106-123 0-108-71-173-203-177v41c68 9 108 29 115 82z"/><glyph glyph-name="quotedblright" unicode="”" horiz-adv-x="510" d="M153 574h-41c-42 10-73 36-73 87 0 56 43 90 96 90 65 0 106-50 106-124 0-107-71-172-203-176v40c68 10 108 30 115 83zm230 0h-41c-42 10-73 36-73 87 0 56 43 90 96 90 65 0 106-50 106-124 0-107-71-172-203-176v40c68 10 108 30 115 83z"/><glyph glyph-name="guillemotright" unicode="»" horiz-adv-x="469" d="M446 279v-6L259 72h-46l90 204-90 203h46zm-190 0v-6L69 72H23l90 204-90 203h46z"/><glyph glyph-name="ellipsis" unicode="…" horiz-adv-x="799" d="M30 93c0 61 46 104 103 104 58 0 103-43 103-104S191-10 133-10C76-10 30 32 30 93zm266 0c0 61 46 104 104 104 57 0 103-43 103-104S457-10 400-10c-58 0-104 42-104 103zm267 0c0 61 46 104 103 104 58 0 103-43 103-104S724-10 666-10c-57 0-103 42-103 103z"/><glyph glyph-name="perthousand" unicode="‰" horiz-adv-x="1167" d="M757 163c0-114-81-173-173-173-91 0-173 59-173 173 0 115 82 174 173 174 92 0 173-59 173-174zM149-10l439 722h54L203-10h-54zM34 539c0 114 81 173 173 173 91 0 172-59 172-173 0-115-81-174-172-174-92 0-173 59-173 174zm611-376c0 77-15 139-61 139s-61-62-61-139c0-76 15-138 61-138s61 62 61 138zM146 539c0-77 15-139 61-139s61 62 61 139c0 76-15 138-61 138s-61-62-61-138zm875-376c0 77-15 139-61 139s-60-62-60-139c0-76 14-138 60-138s61 62 61 138zm112 0c0-114-81-173-173-173-91 0-172 59-172 173 0 115 81 174 172 174 92 0 173-59 173-174z"/><glyph glyph-name="questiondown" unicode="¿" horiz-adv-x="467" d="M166 4c0-47 24-77 70-77 57 0 75 49 75 99 0 25-3 42-5 58h110c26-13 40-36 40-65 0-80-87-131-218-131C97-112 17-51 17 58c0 86 50 139 138 191 56 34 79 58 79 107v13h25c47-18 78-56 78-109 0-46-25-88-78-127-51-38-93-71-93-129zm177 509c0-55-43-99-95-99-54 0-96 44-96 99 0 53 42 97 96 97 52 0 95-44 95-97z"/><glyph glyph-name="grave" unicode="`" d="M124 765h179l50-164h-51L124 756v9z"/><glyph glyph-name="acute" unicode="´" d="M174 765h179v-9L176 601h-52z"/><glyph glyph-name="circumflex" unicode="ˆ" d="M312 766l116-170h-58l-120 85-120-85H72l116 170h124z"/><glyph glyph-name="tilde" unicode="˜" d="M311 602c-63 0-93 60-136 60-28 0-46-23-65-56l-36 20c33 86 63 135 117 135 63 0 92-60 136-60 28 0 46 23 65 55l36-19c-34-87-63-135-117-135z"/><glyph glyph-name="macron" unicode="¯" d="M112 625v86h286v-86H112z"/><glyph glyph-name="breve" unicode="˘" d="M257 598c-94 0-145 61-145 168h46c7-58 48-75 99-75 50 0 91 17 98 75h46c0-107-51-168-144-168z"/><glyph glyph-name="dotaccent" unicode="˙" d="M251 597c-61 0-98 42-98 92s37 93 98 93c60 0 98-43 98-93s-38-92-98-92z"/><glyph glyph-name="dieresis" unicode="¨" d="M68 687c0 46 37 83 84 83 46 0 84-37 84-83 0-45-38-83-84-83-47 0-84 38-84 83zm204 0c0 46 39 83 83 83 49 0 86-37 86-83 0-45-37-83-86-83-44 0-83 38-83 83z"/><glyph glyph-name="ring" unicode="˚" d="M209 678c0-29 18-51 50-51s50 22 50 51c0 30-18 52-50 52s-50-22-50-52zm-54 0c0 57 44 102 104 102s103-45 103-102c0-56-43-101-103-101s-104 45-104 101z"/><glyph glyph-name="cedilla" unicode="¸" d="M151-231l-8 35c72 0 105 22 105 48 0 28-30 33-79 35L218 8h37l-19-48c63 0 105-30 105-82 0-75-90-109-190-109z"/><glyph glyph-name="hungarumlaut" unicode="˝" d="M121 765h150v-9L124 601H71zm180 0h150v-9L303 601h-53z"/><glyph glyph-name="ogonek" unicode="˛" d="M327 35l8-16c-61-30-93-65-93-114 0-28 15-50 46-50 25 0 41 7 63 24l16-20c-37-47-76-74-135-74-52 0-94 31-94 83 0 87 96 133 189 167z"/><glyph glyph-name="caron" unicode="ˇ" d="M428 770L312 600H188L72 770h58l120-85 120 85h58z"/><glyph glyph-name="emdash" unicode="—" horiz-adv-x="960" d="M930 334v-60H30v60h900z"/><glyph glyph-name="AE" unicode="Æ" horiz-adv-x="1040" d="M63 79l344 549c-16 20-47 29-94 32v42h673l5-193h-38c-53 112-79 146-170 146H680V390h97c46 0 58 24 67 92h43V242h-43c-9 68-21 93-67 93h-97V114c0-54 26-67 81-67h35c90 0 111 39 183 171h45L992 0H412v42c66 7 72 15 72 67v139H239l-76-122c-10-17-15-28-15-41 0-28 29-41 89-43V0H5v42c27 4 43 12 58 37zm421 560L273 302h211v337z"/><glyph glyph-name="ordfeminine" unicode="ª" horiz-adv-x="414" d="M187 413c14 0 23 3 36 12v112l-35-15c-28-13-38-29-38-60 0-32 14-49 37-49zm154 167V434c0-24 7-36 22-36 8 0 18 1 28 5l5-19c-22-23-55-39-89-39-42 0-73 25-82 63-23-38-58-60-105-60-53 0-90 34-90 88 0 57 41 79 88 95l105 35v50c0 45-7 68-35 68-25 0-36-18-36-47 0-15 3-32 8-49l-82-11c-18 6-29 25-29 46 0 59 60 89 147 89 99 0 145-33 145-132z"/><glyph glyph-name="Lslash" unicode="Ł" horiz-adv-x="644" d="M295 593V397l139 48v-60l-139-49V114c0-54 22-67 77-67h28c67 0 103 39 192 190h43L597 0H26v42c67 7 73 15 73 67v168l-70-24v60l70 25v255c0 52-6 60-73 67v42h341v-42c-66-7-72-15-72-67z"/><glyph glyph-name="Oslash" unicode="Ø" horiz-adv-x="747" d="M364-10c-73 0-135 17-184 47l-72-96-39 30 71 95C64 130 26 229 26 337c0 230 150 375 356 375 80 0 147-21 199-57l67 90 39-29-69-92c67-64 102-158 102-259 0-230-149-375-356-375zM233 363c0-56 4-109 13-156l245 328c-22 78-62 129-123 129-101 0-135-154-135-301zM378 38c101 0 135 154 135 301 0 47-3 92-9 132L261 146c23-66 61-108 117-108z"/><glyph glyph-name="OE" unicode="Œ" horiz-adv-x="1049" d="M493 655h-40c-138 0-223-115-223-293 0-192 88-315 243-315h20v608zM1001 0H439C159 0 26 148 26 343c0 226 161 359 413 359h561V509h-38c-52 112-78 146-169 146H689V390h97c47 0 59 24 67 92h44V242h-44c-8 68-20 93-67 93h-97V114c0-54 26-67 81-67h35c90 0 112 39 184 171h45z"/><glyph glyph-name="ordmasculine" unicode="º" horiz-adv-x="420" d="M215 376c38 0 53 54 53 139 0 94-20 166-63 166-38 0-53-53-53-138 0-95 20-167 63-167zm-10-31C97 345 26 417 26 522c0 116 77 190 189 190 108 0 179-72 179-177 0-116-77-190-189-190z"/><glyph glyph-name="ae" unicode="æ" horiz-adv-x="794" d="M559 549c142 0 216-93 216-220v-24H463c-1-115 56-193 153-193 59 0 106 23 143 73l19-12C751 63 674-10 548-10c-85 0-155 32-200 91-46-53-88-88-184-88C75-7 16 41 16 127c0 87 61 123 132 148l154 54c3 15 8 29 12 43 3 89-21 138-63 138-35 0-50-32-50-79 0-23 4-46 9-70L99 346c-29 10-49 34-49 70 0 91 94 133 213 133 63 0 112-14 143-49 43 31 95 49 153 49zm-15-42c-55 0-75-64-80-157h152c0 97-19 157-72 157zM273 89c17 0 37 6 58 18-23 40-35 91-35 150 0 9 0 18 1 26l-35-13c-45-16-68-35-68-92 0-51 19-89 79-89z"/><glyph glyph-name="dotlessi" unicode="ı" horiz-adv-x="334" d="M262 549V78c0-32 16-36 56-39V0H22v39c40 3 56 7 56 39v351l-55 34v28l208 58h31z"/><glyph glyph-name="lslash" unicode="ł" horiz-adv-x="351" d="M266 783V501l79 38v-58l-79-39V78c0-32 16-36 56-39V0H25v39c40 3 56 7 56 39v292L7 335v58l74 36v250l-55 28v30l209 46h31z"/><glyph glyph-name="oslash" unicode="ø" horiz-adv-x="601" d="M300-10c-56 0-106 12-148 34L94-58 59-33l57 80C56 94 21 167 21 259c0 168 116 290 280 290 56 0 107-13 149-35l55 77 36-25-55-76c59-47 94-120 94-210 0-168-116-290-280-290zm-83 313c0-40 1-76 4-109l150 210c-13 65-37 103-75 103-60 0-79-77-79-204zm88-271c60 0 79 77 79 204 0 38-1 74-4 105L230 132c13-63 37-100 75-100z"/><glyph glyph-name="oe" unicode="œ" horiz-adv-x="894" d="M301 549c74 0 140-30 186-75 45 45 103 75 172 75 142 0 216-92 216-219v-25H555c-1-119 64-193 155-193 65 0 112 23 149 73l19-12C851 63 774-10 648-10c-67 0-129 29-173 72-46-42-107-72-175-72C135-10 21 95 21 259c0 168 116 290 280 290zm4-517c60 0 80 77 80 204 0 164-24 271-89 271-59 0-79-77-79-204 0-164 24-271 88-271zm339 475c-55 0-83-63-88-156h160c0 97-19 156-72 156z"/><glyph glyph-name="germandbls" unicode="ß" horiz-adv-x="720" d="M367 783c136 0 222-56 222-145 0-111-139-124-139-179 0-25 42-45 105-82 87-51 148-100 148-204 0-114-90-183-213-183-70 0-125 19-166 52l-6 130h47c19-78 64-140 129-140 47 0 76 27 76 69 0 50-32 77-106 121-82 49-120 88-120 152 0 107 126 136 126 266 0 61-32 103-97 103-77 0-110-59-110-157V0H23v39c40 3 56 7 56 39v407H7v40l72 19 1 12c15 144 123 227 287 227z"/><glyph glyph-name="onesuperior" unicode="¹" horiz-adv-x="342" d="M198 712h32V381c0-35 13-37 68-41v-34H40v34c64 4 70 6 70 41v217H40v31l25 5c66 13 101 36 133 78z"/><glyph glyph-name="mu" unicode="µ" horiz-adv-x="647" d="M235-5l13-167v-15L62-197v600c0 29-7 50-39 58l-15 5v36l211 46h33l-6-127V176c0-51 20-80 68-80 30 0 50 8 77 20v287c0 29-7 50-38 58l-15 5v36l210 46h33l-5-127V115c0-34 2-49 34-50l24-1V25L423-10h-35l3 97c-27-62-76-97-138-97-10 0-13 2-18 5z"/><glyph glyph-name="trademark" unicode="™" horiz-adv-x="883" d="M357 702l6-113h-27c-21 52-35 87-76 87h-11V430c0-26 12-31 44-33v-27H110v27c31 2 41 7 41 33v246h-9c-41 0-57-35-77-87H37l7 113h313zm246-203l60 170c5 14 7 22 7 33h134v-30c-32 0-41-14-41-39l30-206c4-23 14-28 41-30v-27H655v27c34 2 46 7 46 31 0 4-2 21-3 38l-23 141-82-238h-42l-85 238-20-140c-3-18-4-35-4-39 0-24 11-29 46-31v-27H363v27c28 2 37 7 41 30l29 206c0 25-9 39-39 39v30h138c1-11 3-19 7-32z"/><glyph glyph-name="Eth" unicode="Ð" horiz-adv-x="799" d="M36 325v62h73v206c0 52-6 60-73 67v42h329c277 0 407-148 407-343C772 133 622 0 388 0H36v42c67 7 73 15 73 67v216H36zm295 330h-26V387h129v-62H305V117c0-59 23-70 68-70h9c113 0 187 115 187 293 0 192-85 315-238 315z"/><glyph glyph-name="onehalf" unicode="½" horiz-adv-x="810" d="M198 712h32V381c0-35 13-37 68-41v-34H40v34c64 4 70 6 70 41v217H40v31l25 5c66 13 101 36 133 78zM150-10l438 722h55L204-10h-54zM569 94h107c33 0 41 8 64 42h21L749 0H447v25l114 107c48 45 69 80 69 124 0 41-23 67-66 67-40 0-69-21-88-44l-21 18c28 57 82 108 164 108 77 0 124-42 124-114 0-86-81-139-174-197z"/><glyph glyph-name="plusminus" unicode="±" horiz-adv-x="574" d="M253 607h67V464h188v-66H320V257h-67v141H67v66h186v143zM67 137v67h441v-67H67z"/><glyph glyph-name="Thorn" unicode="Þ" horiz-adv-x="667" d="M295 593v-19h77c195 0 285-92 285-212 0-138-95-220-293-220h-69v-30c0-53 27-65 116-70V0H26v42c67 7 73 15 73 67v484c0 52-6 60-73 67v42h341v-42c-66-7-72-15-72-67zm0-66V195h23c96 0 147 64 147 167s-57 165-147 165h-23z"/><glyph glyph-name="onequarter" unicode="¼" horiz-adv-x="798" d="M431 143h133v167zM198 712h32V381c0-35 13-37 68-41v-34H40v34c64 4 70 6 70 41v217H40v31l25 5c66 13 101 36 133 78zM150-10l438 722h55L204-10h-54zM737 0H510v34c44 3 54 6 54 41v30H376v30l204 262h103V143h78v-38h-78V75c0-35 10-38 54-41V0z"/><glyph glyph-name="divide" unicode="÷" horiz-adv-x="574" d="M65 335v69h443v-69H65zm162-138c0 34 27 61 59 61s60-27 60-61c0-32-28-59-60-59s-59 27-59 59zm0 344c0 33 27 59 59 59s60-26 60-59c0-32-28-60-60-60s-59 28-59 60z"/><glyph glyph-name="brokenbar" unicode="¦" horiz-adv-x="205" d="M139 770V394H66v376h73zm0-535v-376H66v376h73z"/><glyph glyph-name="degree" unicode="°" horiz-adv-x="285" d="M73 591c0-44 26-74 71-74 42 0 68 30 68 74 0 43-26 74-68 74-45 0-71-31-71-74zm-53 0c0 68 54 121 124 121 67 0 121-53 121-121 0-69-54-122-121-122-70 0-124 53-124 122z"/><glyph glyph-name="thorn" unicode="þ" horiz-adv-x="637" d="M428 247c0 132-47 193-123 193-21 0-41-5-59-17V142c0-65 18-105 71-105 72 0 111 92 111 210zM61-134v813L6 707v30l209 46h31V452c28 45 83 97 168 97 118 0 202-82 202-246C616 98 492-10 333-10c-37 0-70 7-87 21v-141c0-36 18-38 77-43v-39H5v39c40 3 56 7 56 39z"/><glyph glyph-name="threequarters" unicode="¾" horiz-adv-x="821" d="M219 529c76-2 128-41 128-107 0-78-76-120-168-120-97 0-140 38-140 83 0 26 15 40 28 47h67c-3-12-4-19-4-30 0-43 19-71 54-71 33 0 56 24 56 75s-29 82-86 82h-15l-6 22c58 22 79 42 79 74 0 28-19 50-56 50s-60-21-77-43l-24 18c26 54 78 103 158 103 69 0 111-35 111-90 0-56-52-84-105-93zm234-386h133v167zM173-10l438 722h54L226-10h-53zM759 0H533v34c43 3 53 6 53 41v30H398v30l204 262h103V143h79v-38h-79V75c0-35 10-38 54-41V0z"/><glyph glyph-name="registered" unicode="®" horiz-adv-x="515" d="M244 585h-9v-98h9c30 0 47 19 47 50 0 30-17 48-47 48zm-98 23h114c69 0 98-33 98-71 0-36-27-57-53-65l44-60c11-15 19-23 34-24v-18h-69c-10 6-22 19-31 33l-41 63h-7v-53c0-19 3-25 24-25v-18H146v18c23 0 27 6 27 25v151c0 21-4 23-27 25v19zM64 484c0-105 81-196 193-196 113 0 194 91 194 196 0 106-81 197-194 197-112 0-193-91-193-197zm-34 0c0 126 95 228 227 228 133 0 228-102 228-228 0-125-95-227-228-227-132 0-227 102-227 227z"/><glyph glyph-name="minus" unicode="−" horiz-adv-x="574" d="M65 335v69h443v-69H65z"/><glyph glyph-name="eth" unicode="ð" horiz-adv-x="600" d="M121 588l-13 43 151 48c-38 32-87 58-149 74l19 34c92-12 169-39 232-76l129 41 13-42-96-31c118-90 172-222 172-353 0-201-100-336-283-336C130-10 21 107 21 263c0 175 125 285 260 285 35 0 69-12 87-33-16 47-40 90-73 128zM305 32c60 0 80 77 80 204 0 164-24 271-89 271-59 0-79-77-79-204 0-164 24-271 88-271z"/><glyph glyph-name="multiply" unicode="×" horiz-adv-x="497" d="M202 365L65 502l47 48 136-139 137 139 48-48-138-137 138-137-48-46-137 137-136-137-47 46z"/><glyph glyph-name="threesuperior" unicode="³" horiz-adv-x="387" d="M218 528c76-2 129-40 129-107 0-78-76-119-168-119-97 0-140 38-140 83 0 26 15 40 28 47h67c-3-12-4-19-4-30 0-43 19-71 54-71 33 0 56 24 56 75s-29 82-86 82h-15l-6 22c58 22 79 42 79 74 0 28-18 50-56 50-37 0-60-21-77-43l-24 18c26 54 78 103 158 103 69 0 111-35 111-90 0-56-52-85-106-94z"/><glyph glyph-name="copyright" unicode="©" horiz-adv-x="780" d="M70 351C70 172 202 25 390 25s320 147 320 326-132 326-320 326S70 530 70 351zm-38 0c0 199 149 361 358 361s358-162 358-361S599-10 390-10 32 152 32 351zm386-174c53 0 84 43 107 116h36l-9-114c-36-23-84-38-144-38-135 0-213 85-213 203 0 136 96 220 214 220 59 0 108-17 138-42V418h-35c-12 61-39 110-94 110-72 0-99-84-99-173 0-107 33-178 99-178z"/><glyph glyph-name="Aacute" unicode="Á" horiz-adv-x="759" d="M471 125l-36 92H180l-34-91c-5-15-8-27-8-37 0-33 28-44 82-47V0H5v42c27 4 47 10 58 37l208 542-34 83h209L695 79c10-26 30-33 59-37V0H401v42c50 2 78 12 78 46 0 10-3 22-8 37zM304 548L200 271h213zm44 344h180v-9L355 743h-56z"/><glyph glyph-name="Acircumflex" unicode="Â" horiz-adv-x="759" d="M471 125l-36 92H180l-34-91c-5-15-8-27-8-37 0-33 28-44 82-47V0H5v42c27 4 47 10 58 37l208 542-34 83h209L695 79c10-26 30-33 59-37V0H401v42c50 2 78 12 78 46 0 10-3 22-8 37zM304 548L200 271h213zm112 348l120-153h-57l-125 70-125-70h-57l120 153h124z"/><glyph glyph-name="Adieresis" unicode="Ä" horiz-adv-x="759" d="M471 125l-36 92H180l-34-91c-5-15-8-27-8-37 0-33 28-44 82-47V0H5v42c27 4 47 10 58 37l208 542-34 83h209L695 79c10-26 30-33 59-37V0H401v42c50 2 78 12 78 46 0 10-3 22-8 37zM304 548L200 271h213zM166 823c0 45 38 83 84 83s85-38 85-83c0-46-39-83-85-83s-84 37-84 83zm206 0c0 45 39 83 83 83 48 0 86-38 86-83 0-46-38-83-86-83-44 0-83 37-83 83z"/><glyph glyph-name="Agrave" unicode="À" horiz-adv-x="759" d="M471 125l-36 92H180l-34-91c-5-15-8-27-8-37 0-33 28-44 82-47V0H5v42c27 4 47 10 58 37l208 542-34 83h209L695 79c10-26 30-33 59-37V0H401v42c50 2 78 12 78 46 0 10-3 22-8 37zM304 548L200 271h213zM172 892h180l49-149h-55L172 883v9z"/><glyph glyph-name="Aring" unicode="Å" horiz-adv-x="759" d="M471 125l-36 92H180l-34-91c-5-15-8-27-8-37 0-33 28-44 82-47V0H5v42c27 4 47 10 58 37l208 542-34 83h209L695 79c10-26 30-33 59-37V0H401v42c50 2 78 12 78 46 0 10-3 22-8 37zM248 827c0 57 44 102 104 102s103-45 103-102c0-56-43-100-103-100s-104 44-104 100zm56-279L200 271h213zm-2 279c0-29 18-50 50-50s50 21 50 50c0 30-18 52-50 52s-50-22-50-52z"/><glyph glyph-name="Atilde" unicode="Ã" horiz-adv-x="759" d="M471 125l-36 92H180l-34-91c-5-15-8-27-8-37 0-33 28-44 82-47V0H5v42c27 4 47 10 58 37l208 542-34 83h209L695 79c10-26 30-33 59-37V0H401v42c50 2 78 12 78 46 0 10-3 22-8 37zm-48 618c-63 0-94 60-138 60-28 0-47-23-66-56l-36 20c34 86 64 135 118 135 63 0 94-60 138-60 28 0 47 23 66 55l36-19c-34-87-64-135-118-135zM304 548L200 271h213z"/><glyph glyph-name="Ccedilla" unicode="Ç" horiz-adv-x="683" d="M302-231l-8 35c72 0 105 22 105 48 0 28-30 33-79 35L362-9C153 3 26 131 26 332c0 235 170 380 378 380 90 0 166-21 223-59l3-175h-49c-25 119-78 184-171 184-125 0-177-133-177-302 0-183 64-317 187-317 83 0 147 59 187 211h50L640 55C583 14 495-9 399-10l-12-30c63 0 105-30 105-82 0-75-90-109-190-109z"/><glyph glyph-name="Eacute" unicode="É" horiz-adv-x="655" d="M339 892h180v-9L346 743h-56zM26 0v42c67 7 73 15 73 67v484c0 52-6 60-73 67v42h575l5-193h-38c-53 112-79 146-170 146H295V390h97c46 0 58 24 67 92h43V242h-43c-9 68-21 93-67 93h-97V114c0-54 26-67 81-67h35c89 0 111 39 183 171h45L607 0H26z"/><glyph glyph-name="Ecircumflex" unicode="Ê" horiz-adv-x="655" d="M26 0v42c67 7 73 15 73 67v484c0 52-6 60-73 67v42h575l5-193h-38c-53 112-79 146-170 146H295V390h97c46 0 58 24 67 92h43V242h-43c-9 68-21 93-67 93h-97V114c0-54 26-67 81-67h35c89 0 111 39 183 171h45L607 0H26zm380 896l120-153h-57l-125 70-125-70h-57l120 153h124z"/><glyph glyph-name="Edieresis" unicode="Ë" horiz-adv-x="655" d="M157 823c0 45 38 83 84 83s85-38 85-83c0-46-39-83-85-83s-84 37-84 83zm206 0c0 45 39 83 83 83 48 0 86-38 86-83 0-46-38-83-86-83-44 0-83 37-83 83zM26 0v42c67 7 73 15 73 67v484c0 52-6 60-73 67v42h575l5-193h-38c-53 112-79 146-170 146H295V390h97c46 0 58 24 67 92h43V242h-43c-9 68-21 93-67 93h-97V114c0-54 26-67 81-67h35c89 0 111 39 183 171h45L607 0H26z"/><glyph glyph-name="Egrave" unicode="È" horiz-adv-x="655" d="M167 892h180l49-149h-55L167 883v9zM26 0v42c67 7 73 15 73 67v484c0 52-6 60-73 67v42h575l5-193h-38c-53 112-79 146-170 146H295V390h97c46 0 58 24 67 92h43V242h-43c-9 68-21 93-67 93h-97V114c0-54 26-67 81-67h35c89 0 111 39 183 171h45L607 0H26z"/><glyph glyph-name="Iacute" unicode="Í" horiz-adv-x="394" d="M295 593V109c0-52 6-60 72-67V0H26v42c67 7 73 15 73 67v484c0 52-6 60-73 67v42h341v-42c-66-7-72-15-72-67zM191 892h180v-9L198 743h-56z"/><glyph glyph-name="Icircumflex" unicode="Î" horiz-adv-x="394" d="M295 593V109c0-52 6-60 72-67V0H26v42c67 7 73 15 73 67v484c0 52-6 60-73 67v42h341v-42c-66-7-72-15-72-67zm-37 303l118-153h-56l-123 70-123-70H18l118 153h122z"/><glyph glyph-name="Idieresis" unicode="Ï" horiz-adv-x="394" d="M295 593V109c0-52 6-60 72-67V0H26v42c67 7 73 15 73 67v484c0 52-6 60-73 67v42h341v-42c-66-7-72-15-72-67zM9 823c0 45 38 83 84 83s85-38 85-83c0-46-39-83-85-83S9 777 9 823zm206 0c0 45 39 83 83 83 48 0 86-38 86-83 0-46-38-83-86-83-44 0-83 37-83 83z"/><glyph glyph-name="Igrave" unicode="Ì" horiz-adv-x="394" d="M295 593V109c0-52 6-60 72-67V0H26v42c67 7 73 15 73 67v484c0 52-6 60-73 67v42h341v-42c-66-7-72-15-72-67zM19 892h180l49-149h-55L19 883v9z"/><glyph glyph-name="Ntilde" unicode="Ñ" horiz-adv-x="754" d="M460 743c-63 0-94 60-138 60-28 0-47-23-66-56l-36 20c34 86 64 135 118 135 63 0 94-60 138-60 28 0 47 23 66 55l36-19c-34-87-64-135-118-135zm137-437v286c0 52-20 62-101 68v42h240v-42c-66-7-72-16-72-68V-1h-71L166 527V110c0-52 20-62 101-68V0H27v42c66 7 72 16 72 68v486c-25 43-39 62-73 64v42h252z"/><glyph glyph-name="Oacute" unicode="Ó" horiz-adv-x="747" d="M371 892h180v-9L378 743h-56zm7-854c101 0 135 154 135 301 0 178-40 325-145 325-101 0-135-154-135-301 0-178 40-325 145-325zm-14-48C142-10 26 151 26 337c0 230 150 375 356 375 222 0 338-161 338-347 0-230-149-375-356-375z"/><glyph glyph-name="Ocircumflex" unicode="Ô" horiz-adv-x="747" d="M378 38c101 0 135 154 135 301 0 178-40 325-145 325-101 0-135-154-135-301 0-178 40-325 145-325zm-14-48C142-10 26 151 26 337c0 230 150 375 356 375 222 0 338-161 338-347 0-230-149-375-356-375zm75 906l120-153h-57l-125 70-125-70h-57l120 153h124z"/><glyph glyph-name="Odieresis" unicode="Ö" horiz-adv-x="747" d="M189 823c0 45 38 83 84 83s85-38 85-83c0-46-39-83-85-83s-84 37-84 83zm206 0c0 45 39 83 83 83 48 0 86-38 86-83 0-46-38-83-86-83-44 0-83 37-83 83zM378 38c101 0 135 154 135 301 0 178-40 325-145 325-101 0-135-154-135-301 0-178 40-325 145-325zm-14-48C142-10 26 151 26 337c0 230 150 375 356 375 222 0 338-161 338-347 0-230-149-375-356-375z"/><glyph glyph-name="Ograve" unicode="Ò" horiz-adv-x="747" d="M199 892h180l49-149h-55L199 883v9zM378 38c101 0 135 154 135 301 0 178-40 325-145 325-101 0-135-154-135-301 0-178 40-325 145-325zm-14-48C142-10 26 151 26 337c0 230 150 375 356 375 222 0 338-161 338-347 0-230-149-375-356-375z"/><glyph glyph-name="Otilde" unicode="Õ" horiz-adv-x="747" d="M454 743c-63 0-94 60-138 60-28 0-47-23-66-56l-36 20c34 86 64 135 118 135 63 0 94-60 138-60 28 0 47 23 66 55l36-19c-34-87-64-135-118-135zM378 38c101 0 135 154 135 301 0 178-40 325-145 325-101 0-135-154-135-301 0-178 40-325 145-325zm-14-48C142-10 26 151 26 337c0 230 150 375 356 375 222 0 338-161 338-347 0-230-149-375-356-375z"/><glyph glyph-name="Scaron" unicode="Š" horiz-adv-x="579" d="M275-10C175-10 87 20 40 57L29 231h53c25-112 92-193 193-193 71 0 117 34 117 96 0 65-42 93-153 127C106 300 33 365 33 486c0 139 106 226 254 226 91 0 167-24 216-60V500h-45c-23 101-78 165-171 165-62 0-103-36-103-93 0-65 40-92 143-123 133-41 221-94 221-234C548 61 425-10 275-10zm204 907L359 744H235L115 897h57l125-70 125 70h57z"/><glyph glyph-name="Uacute" unicode="Ú" horiz-adv-x="753" d="M410 892h180v-9L417 743h-56zM282 593V261c0-115 44-187 153-187 92 0 165 51 165 192v326c0 52-12 62-93 68v42h232v-42c-66-7-72-16-72-68V247C667 71 543-10 388-10 196-10 86 75 86 247v346c0 52-5 60-72 67v42h341v-42c-67-7-73-15-73-67z"/><glyph glyph-name="Ucircumflex" unicode="Û" horiz-adv-x="753" d="M282 593V261c0-115 44-187 153-187 92 0 165 51 165 192v326c0 52-12 62-93 68v42h232v-42c-66-7-72-16-72-68V247C667 71 543-10 388-10 196-10 86 75 86 247v346c0 52-5 60-72 67v42h341v-42c-67-7-73-15-73-67zm196 303l120-153h-57l-125 70-125-70h-57l120 153h124z"/><glyph glyph-name="Udieresis" unicode="Ü" horiz-adv-x="753" d="M229 823c0 45 38 83 84 83s85-38 85-83c0-46-39-83-85-83s-84 37-84 83zm206 0c0 45 39 83 83 83 48 0 86-38 86-83 0-46-38-83-86-83-44 0-83 37-83 83zM282 593V261c0-115 44-187 153-187 92 0 165 51 165 192v326c0 52-12 62-93 68v42h232v-42c-66-7-72-16-72-68V247C667 71 543-10 388-10 196-10 86 75 86 247v346c0 52-5 60-72 67v42h341v-42c-67-7-73-15-73-67z"/><glyph glyph-name="Ugrave" unicode="Ù" horiz-adv-x="753" d="M239 892h180l49-149h-55L239 883v9zm43-299V261c0-115 44-187 153-187 92 0 165 51 165 192v326c0 52-12 62-93 68v42h232v-42c-66-7-72-16-72-68V247C667 71 543-10 388-10 196-10 86 75 86 247v346c0 52-5 60-72 67v42h341v-42c-67-7-73-15-73-67z"/><glyph glyph-name="Yacute" unicode="Ý" horiz-adv-x="707" d="M457 263V105c0-52 17-56 83-63V0H184v42c66 7 82 11 82 63v153L63 623c-15 28-29 33-58 37v42h345v-42c-54-2-68-11-68-36 0-21 8-37 23-64l128-220 112 218c11 23 23 49 23 66 0 25-22 34-70 36v42h204v-42c-27-4-45-12-58-37zm-65 629h180v-9L399 743h-56z"/><glyph glyph-name="Ydieresis" unicode="Ÿ" horiz-adv-x="707" d="M457 263V105c0-52 17-56 83-63V0H184v42c66 7 82 11 82 63v153L63 623c-15 28-29 33-58 37v42h345v-42c-54-2-68-11-68-36 0-21 8-37 23-64l128-220 112 218c11 23 23 49 23 66 0 25-22 34-70 36v42h204v-42c-27-4-45-12-58-37zM211 823c0 45 38 83 84 83s85-38 85-83c0-46-39-83-85-83s-84 37-84 83zm206 0c0 45 39 83 83 83 48 0 86-38 86-83 0-46-38-83-86-83-44 0-83 37-83 83z"/><glyph glyph-name="Zcaron" unicode="Ž" horiz-adv-x="632" d="M507 897L387 744H263L143 897h57l125-70 125 70h57zM243 47h126c84 0 118 35 203 184h43L579 0H16v35l351 620H248c-93 0-110-42-168-170H39l9 217h547v-35z"/><glyph glyph-name="aacute" unicode="á" horiz-adv-x="554" d="M263 89c16 0 28 5 44 14v185l-55-21c-35-13-58-32-58-89 0-51 19-89 69-89zm226 286V110c0-24 3-45 27-45 14 0 27 3 34 6l7-27c-33-33-76-54-132-54-58 0-100 31-115 84-29-42-77-81-151-81C75-7 16 41 16 127c0 87 61 123 132 148l159 56v102c0 46-13 77-52 77s-54-32-54-79c0-23 4-46 9-70L99 346c-29 10-49 34-49 70 0 91 94 133 215 133 140 0 224-44 224-174zM267 765h179v-9L269 601h-52z"/><glyph glyph-name="acircumflex" unicode="â" horiz-adv-x="554" d="M263 89c16 0 28 5 44 14v185l-55-21c-35-13-58-32-58-89 0-51 19-89 69-89zm226 286V110c0-24 3-45 27-45 14 0 27 3 34 6l7-27c-33-33-76-54-132-54-58 0-100 31-115 84-29-42-77-81-151-81C75-7 16 41 16 127c0 87 61 123 132 148l159 56v102c0 46-13 77-52 77s-54-32-54-79c0-23 4-46 9-70L99 346c-29 10-49 34-49 70 0 91 94 133 215 133 140 0 224-44 224-174zM335 766l116-170h-58l-120 85-120-85H95l116 170h124z"/><glyph glyph-name="adieresis" unicode="ä" horiz-adv-x="554" d="M263 89c16 0 28 5 44 14v185l-55-21c-35-13-58-32-58-89 0-51 19-89 69-89zm226 286V110c0-24 3-45 27-45 14 0 27 3 34 6l7-27c-33-33-76-54-132-54-58 0-100 31-115 84-29-42-77-81-151-81C75-7 16 41 16 127c0 87 61 123 132 148l159 56v102c0 46-13 77-52 77s-54-32-54-79c0-23 4-46 9-70L99 346c-29 10-49 34-49 70 0 91 94 133 215 133 140 0 224-44 224-174zM87 687c0 46 37 83 84 83 46 0 84-37 84-83 0-45-38-83-84-83-47 0-84 38-84 83zm204 0c0 46 39 83 83 83 49 0 86-37 86-83 0-45-37-83-86-83-44 0-83 38-83 83z"/><glyph glyph-name="agrave" unicode="à" horiz-adv-x="554" d="M263 89c16 0 28 5 44 14v185l-55-21c-35-13-58-32-58-89 0-51 19-89 69-89zm226 286V110c0-24 3-45 27-45 14 0 27 3 34 6l7-27c-33-33-76-54-132-54-58 0-100 31-115 84-29-42-77-81-151-81C75-7 16 41 16 127c0 87 61 123 132 148l159 56v102c0 46-13 77-52 77s-54-32-54-79c0-23 4-46 9-70L99 346c-29 10-49 34-49 70 0 91 94 133 215 133 140 0 224-44 224-174zM99 765h179l50-164h-51L99 756v9z"/><glyph glyph-name="aring" unicode="å" horiz-adv-x="554" d="M263 89c16 0 28 5 44 14v185l-55-21c-35-13-58-32-58-89 0-51 19-89 69-89zm226 286V110c0-24 3-45 27-45 14 0 27 3 34 6l7-27c-33-33-76-54-132-54-58 0-100 31-115 84-29-42-77-81-151-81C75-7 16 41 16 127c0 87 61 123 132 148l159 56v102c0 46-13 77-52 77s-54-32-54-79c0-23 4-46 9-70L99 346c-29 10-49 34-49 70 0 91 94 133 215 133 140 0 224-44 224-174zM223 678c0-29 18-51 50-51s50 22 50 51c0 30-18 52-50 52s-50-22-50-52zm-54 0c0 57 44 102 104 102s103-45 103-102c0-56-43-101-103-101s-104 45-104 101z"/><glyph glyph-name="atilde" unicode="ã" horiz-adv-x="554" d="M263 89c16 0 28 5 44 14v185l-55-21c-35-13-58-32-58-89 0-51 19-89 69-89zm226 286V110c0-24 3-45 27-45 14 0 27 3 34 6l7-27c-33-33-76-54-132-54-58 0-100 31-115 84-29-42-77-81-151-81C75-7 16 41 16 127c0 87 61 123 132 148l159 56v102c0 46-13 77-52 77s-54-32-54-79c0-23 4-46 9-70L99 346c-29 10-49 34-49 70 0 91 94 133 215 133 140 0 224-44 224-174zM338 602c-63 0-93 60-136 60-28 0-46-23-65-56l-36 20c33 86 63 135 117 135 63 0 92-60 136-60 28 0 46 23 65 55l36-19c-34-87-63-135-117-135z"/><glyph glyph-name="ccedilla" unicode="ç" horiz-adv-x="503" d="M156-231l-8 35c72 0 105 22 105 48 0 28-30 33-79 35L217-5C103 15 21 109 21 253c0 169 108 296 274 296 101 0 183-39 183-127 0-38-22-63-44-73h-95c3 22 4 39 4 57 0 58-16 98-64 98-62 0-98-79-98-182 0-128 57-207 157-207 59 0 101 20 133 66l22-14C460 45 379-10 267-10h-14l-12-30c63 0 105-30 105-82 0-75-90-109-190-109z"/><glyph glyph-name="eacute" unicode="é" horiz-adv-x="526" d="M284 765h179v-9L286 601h-52zm4-216c145 0 219-92 219-219v-25H188c-2-119 64-193 155-193 64 0 111 23 149 73l19-12C484 63 407-10 281-10 133-10 21 89 21 257c0 178 123 292 267 292zm-12-42c-55 0-82-63-87-156h160c0 97-19 156-73 156z"/><glyph glyph-name="ecircumflex" unicode="ê" horiz-adv-x="526" d="M351 766l116-170h-58l-120 85-120-85h-58l116 170h124zm-63-217c145 0 219-92 219-219v-25H188c-2-119 64-193 155-193 64 0 111 23 149 73l19-12C484 63 407-10 281-10 133-10 21 89 21 257c0 178 123 292 267 292zm-12-42c-55 0-82-63-87-156h160c0 97-19 156-73 156z"/><glyph glyph-name="edieresis" unicode="ë" horiz-adv-x="526" d="M103 687c0 46 37 83 84 83 46 0 84-37 84-83 0-45-38-83-84-83-47 0-84 38-84 83zm204 0c0 46 39 83 83 83 49 0 86-37 86-83 0-45-37-83-86-83-44 0-83 38-83 83zm-19-138c145 0 219-92 219-219v-25H188c-2-119 64-193 155-193 64 0 111 23 149 73l19-12C484 63 407-10 281-10 133-10 21 89 21 257c0 178 123 292 267 292zm-12-42c-55 0-82-63-87-156h160c0 97-19 156-73 156z"/><glyph glyph-name="egrave" unicode="è" horiz-adv-x="526" d="M288 549c145 0 219-92 219-219v-25H188c-2-119 64-193 155-193 64 0 111 23 149 73l19-12C484 63 407-10 281-10 133-10 21 89 21 257c0 178 123 292 267 292zm-12-42c-55 0-82-63-87-156h160c0 97-19 156-73 156zM116 765h179l50-164h-51L116 756v9z"/><glyph glyph-name="iacute" unicode="í" horiz-adv-x="334" d="M167 765h179v-9L169 601h-52zm95-216V78c0-32 16-36 56-39V0H22v39c40 3 56 7 56 39v351l-55 34v28l208 58h31z"/><glyph glyph-name="icircumflex" unicode="î" horiz-adv-x="334" d="M224 766l105-168h-52l-110 84-109-84H5l106 168h113zm38-217V78c0-32 16-36 56-39V0H22v39c40 3 56 7 56 39v351l-55 34v28l208 58h31z"/><glyph glyph-name="idieresis" unicode="ï" horiz-adv-x="334" d="M-18 687c0 46 38 83 84 83s85-37 85-83c0-45-39-83-85-83s-84 38-84 83zm203 0c0 46 38 83 83 83 48 0 85-37 85-83 0-45-37-83-85-83-45 0-83 38-83 83zm77-138V78c0-32 16-36 56-39V0H22v39c40 3 56 7 56 39v351l-55 34v28l208 58h31z"/><glyph glyph-name="igrave" unicode="ì" horiz-adv-x="334" d="M262 549V78c0-32 16-36 56-39V0H22v39c40 3 56 7 56 39v351l-55 34v28l208 58h31zM-1 765h179l50-164h-51L-1 756v9z"/><glyph glyph-name="ntilde" unicode="ñ" horiz-adv-x="664" d="M415 78v292c0 44-15 70-67 70-32 0-60-9-86-22V78c0-32 14-36 54-39V0H22v39c40 3 56 7 56 39v351l-55 34v28l209 58h34l-4-100c38 48 96 100 186 100 97 0 152-54 152-164V78c0-32 16-36 56-39V0H362v39c40 3 53 7 53 39zm0 524c-63 0-93 60-136 60-28 0-46-23-65-56l-36 20c33 86 63 135 117 135 63 0 92-60 136-60 28 0 46 23 65 55l36-19c-34-87-63-135-117-135z"/><glyph glyph-name="oacute" unicode="ó" horiz-adv-x="601" d="M297 765h179v-9L299 601h-52zm8-733c60 0 79 77 79 204 0 164-23 271-88 271-60 0-79-77-79-204 0-164 24-271 88-271zm-5-42C135-10 21 95 21 259c0 168 116 290 280 290 165 0 279-105 279-269 0-168-116-290-280-290z"/><glyph glyph-name="ocircumflex" unicode="ô" horiz-adv-x="601" d="M366 766l116-170h-58l-120 85-120-85h-58l116 170h124zM305 32c60 0 79 77 79 204 0 164-23 271-88 271-60 0-79-77-79-204 0-164 24-271 88-271zm-5-42C135-10 21 95 21 259c0 168 116 290 280 290 165 0 279-105 279-269 0-168-116-290-280-290z"/><glyph glyph-name="odieresis" unicode="ö" horiz-adv-x="601" d="M118 687c0 46 37 83 84 83 46 0 84-37 84-83 0-45-38-83-84-83-47 0-84 38-84 83zm204 0c0 46 39 83 83 83 49 0 86-37 86-83 0-45-37-83-86-83-44 0-83 38-83 83zM305 32c60 0 79 77 79 204 0 164-23 271-88 271-60 0-79-77-79-204 0-164 24-271 88-271zm-5-42C135-10 21 95 21 259c0 168 116 290 280 290 165 0 279-105 279-269 0-168-116-290-280-290z"/><glyph glyph-name="ograve" unicode="ò" horiz-adv-x="601" d="M305 32c60 0 79 77 79 204 0 164-23 271-88 271-60 0-79-77-79-204 0-164 24-271 88-271zm-5-42C135-10 21 95 21 259c0 168 116 290 280 290 165 0 279-105 279-269 0-168-116-290-280-290zM130 765h179l50-164h-51L130 756v9z"/><glyph glyph-name="otilde" unicode="õ" horiz-adv-x="601" d="M305 32c60 0 79 77 79 204 0 164-23 271-88 271-60 0-79-77-79-204 0-164 24-271 88-271zm-5-42C135-10 21 95 21 259c0 168 116 290 280 290 165 0 279-105 279-269 0-168-116-290-280-290zm70 612c-63 0-93 60-136 60-28 0-46-23-65-56l-36 20c33 86 63 135 117 135 63 0 92-60 136-60 28 0 46 23 65 55l36-19c-34-87-63-135-117-135z"/><glyph glyph-name="scaron" unicode="š" horiz-adv-x="477" d="M425 770L309 600H185L69 770h58l120-85 120 85h58zM227-10C144-10 80 10 37 41l-6 135h46C97 94 149 32 227 32c47 0 85 23 85 68 0 51-39 68-107 90C92 225 31 272 31 374c0 112 86 175 206 175 68 0 129-18 172-46V383h-43c-12 66-56 124-126 124-43 0-72-24-72-62 0-42 30-59 96-82 120-40 185-81 185-190 0-117-87-183-222-183z"/><glyph glyph-name="uacute" unicode="ú" horiz-adv-x="647" d="M316 765h179v-9L318 601h-52zm260-344V115c0-34 2-49 34-50l24-1V25L423-10h-35l3 97c-36-46-89-97-178-97S62 43 62 158v245c0 29-7 50-39 58l-15 5v36l211 46h33l-6-127V176c0-51 20-80 68-80 30 0 50 8 77 20v287c0 29-7 50-38 58l-15 5v36l210 46h33z"/><glyph glyph-name="ucircumflex" unicode="û" horiz-adv-x="647" d="M385 766l116-170h-58l-120 85-120-85h-58l116 170h124zm191-345V115c0-34 2-49 34-50l24-1V25L423-10h-35l3 97c-36-46-89-97-178-97S62 43 62 158v245c0 29-7 50-39 58l-15 5v36l211 46h33l-6-127V176c0-51 20-80 68-80 30 0 50 8 77 20v287c0 29-7 50-38 58l-15 5v36l210 46h33z"/><glyph glyph-name="udieresis" unicode="ü" horiz-adv-x="647" d="M137 687c0 46 37 83 84 83 46 0 84-37 84-83 0-45-38-83-84-83-47 0-84 38-84 83zm204 0c0 46 39 83 83 83 49 0 86-37 86-83 0-45-37-83-86-83-44 0-83 38-83 83zm235-266V115c0-34 2-49 34-50l24-1V25L423-10h-35l3 97c-36-46-89-97-178-97S62 43 62 158v245c0 29-7 50-39 58l-15 5v36l211 46h33l-6-127V176c0-51 20-80 68-80 30 0 50 8 77 20v287c0 29-7 50-38 58l-15 5v36l210 46h33z"/><glyph glyph-name="ugrave" unicode="ù" horiz-adv-x="647" d="M576 421V115c0-34 2-49 34-50l24-1V25L423-10h-35l3 97c-36-46-89-97-178-97S62 43 62 158v245c0 29-7 50-39 58l-15 5v36l211 46h33l-6-127V176c0-51 20-80 68-80 30 0 50 8 77 20v287c0 29-7 50-38 58l-15 5v36l210 46h33zM149 765h179l50-164h-51L149 756v9z"/><glyph glyph-name="yacute" unicode="ý" horiz-adv-x="599" d="M371 182l99 254c5 13 8 20 8 29 0 22-14 28-66 35v39h182v-39c-34-11-42-18-51-40L315-87c-37-88-74-134-144-134-39 0-70 16-84 42v71c26-5 47-10 78-10 56 0 85 16 103 58l16 35L56 460c-10 22-16 29-51 40v39h320v-39c-53-7-66-13-66-35 0-9 3-16 7-28zm-36 583h179v-9L337 601h-52z"/><glyph glyph-name="ydieresis" unicode="ÿ" horiz-adv-x="599" d="M371 182l99 254c5 13 8 20 8 29 0 22-14 28-66 35v39h182v-39c-34-11-42-18-51-40L315-87c-37-88-74-134-144-134-39 0-70 16-84 42v71c26-5 47-10 78-10 56 0 85 16 103 58l16 35L56 460c-10 22-16 29-51 40v39h320v-39c-53-7-66-13-66-35 0-9 3-16 7-28zM155 687c0 46 37 83 84 83 46 0 84-37 84-83 0-45-38-83-84-83-47 0-84 38-84 83zm204 0c0 46 39 83 83 83 49 0 86-37 86-83 0-45-37-83-86-83-44 0-83 38-83 83z"/><glyph glyph-name="zcaron" unicode="ž" horiz-adv-x="537" d="M470 770L354 600H230L114 770h58l120-85 120 85h58zM18 0v33l284 460h-92c-53 0-86-46-133-152H38l14 230h37l20-33h402v-33L233 46h102c66 0 98 42 150 153h37L500 0H18z"/><glyph glyph-name="Ohm" unicode="Ω" horiz-adv-x="729" d="M364 671c-95 0-127-120-127-271 0-149 43-245 93-314V0H65L40 194h32c45-82 53-91 143-91h71C171 140 58 256 58 400c0 174 116 312 306 312 191 0 307-138 307-312 0-144-113-260-228-297h70c90 0 99 9 144 91h32L664 0H398v86c51 69 94 165 94 314 0 151-32 271-128 271z"/><glyph glyph-name="pi" unicode="π" horiz-adv-x="631" d="M348 174l31 254H245c0-204-10-297-40-428H31v40c55 86 117 199 117 388H28v118h572l-17-118h-80V124c0-37 18-55 45-55 13 0 29 2 43 6l8-27c-34-33-85-58-137-58-73 0-118 37-118 123 0 20 1 36 4 61z"/><glyph glyph-name="Euro" unicode="€" horiz-adv-x="679" d="M21 394v44h87c35 168 159 274 319 274 88 0 152-21 202-62V486h-50c-17 101-57 181-142 181-89 0-131-109-142-229h189l-9-44H292v-29c0-16 0-32 1-47h163l-9-46H295c11-133 50-233 148-233 86 0 125 64 166 194h48L643 45C588 9 503-10 429-10 241-10 125 99 102 272H21v46h77v20c0 19 1 38 3 56H21z"/><glyph glyph-name="partialdiff" unicode="∂" horiz-adv-x="600" d="M281 548c35 0 69-12 87-33-38 107-110 200-259 238l20 34c331-42 450-248 450-461 0-201-100-336-283-336C130-10 21 107 21 263c0 175 124 285 260 285zm24-516c60 0 79 77 79 204 0 164-23 271-88 271-60 0-79-77-79-204 0-164 24-271 88-271z"/><glyph glyph-name="product" unicode="∏" horiz-adv-x="810" d="M517 654H293V-88c0-52 6-60 73-67v-42H25v42c67 7 72 15 72 67v681c0 52-5 60-72 67v42h760v-42c-67-7-72-15-72-67V-88c0-52 5-60 72-67v-42H444v42c67 7 73 15 73 67v742z"/><glyph glyph-name="summation" unicode="∑" horiz-adv-x="607" d="M143-48h226c85 0 122 3 179 97h41l-44-246H8v47l274 371L21 648v54h541V515h-40c-45 96-68 141-160 141H219l199-326v-12z"/><glyph glyph-name="radical" unicode="√" horiz-adv-x="600" d="M360 241l180 471h57L320 0h-72L106 444c-13 40-26 53-61 57l-25 2v43h251z"/><glyph glyph-name="infinity" unicode="∞" horiz-adv-x="757" d="M348 349l-45 53c-29 34-60 51-99 51-52 0-97-39-97-104 0-67 45-105 97-105 39 0 71 16 99 50zm30-54l-33-39c-38-44-82-72-145-72-87 0-159 61-159 165 0 103 72 165 159 165 63 0 107-28 145-73l33-39 34 39c37 45 82 73 145 73 87 0 159-62 159-165 0-104-72-165-159-165-63 0-108 28-145 72zm80 107l-45-53 45-55c29-34 60-50 99-50 52 0 97 38 97 105 0 65-45 104-97 104-39 0-70-17-99-51z"/><glyph glyph-name="integral" unicode="∫" horiz-adv-x="445" d="M277 612V46c0-176-89-242-216-242-85 0-143 33-143 93 0 29 16 49 34 61h85v-59c0-29 4-57 31-57 29 0 34 31 34 62v566c0 176 88 242 215 242 85 0 143-33 143-93 0-29-15-49-34-61h-84v59c0 29-5 57-32 57-28 0-33-31-33-62z"/><glyph glyph-name="approxequal" unicode="≈" horiz-adv-x="584" d="M70 386v69c44 29 84 41 120 41 77 0 127-40 203-40 37 0 76 11 121 41v-69c-45-30-84-41-121-41-76 0-126 40-203 40-36 0-76-12-120-41zm0-138v68c44 30 84 41 120 41 77 0 127-39 203-39 37 0 76 10 121 40v-69c-45-30-84-40-121-40-76 0-126 38-203 38-36 0-76-11-120-39z"/><glyph glyph-name="notequal" unicode="≠" horiz-adv-x="584" d="M70 409v66h263l76 105h72l-76-105h109v-66H357l-59-81h216v-64H252l-76-105h-71l76 105H70v64h157l58 81H70z"/><glyph glyph-name="lessequal" unicode="≤" horiz-adv-x="445" d="M53 401v9l317 171v-78l-188-97 188-99v-77zm0-270v67h317v-67H53z"/><glyph glyph-name="greaterequal" unicode="≥" horiz-adv-x="445" d="M392 410v-9L75 230v77l189 99-189 97v78zm0-212v-67H75v67h317z"/><glyph glyph-name="lozenge" unicode="◊" horiz-adv-x="568" d="M35 351l204 351h89l205-351L328 0h-89zm421 0L284 650 112 351 284 53z"/><glyph glyph-name="nbspace" horiz-adv-x="173"/><glyph glyph-name="twosuperior" unicode="²" horiz-adv-x="393" d="M152 397h108c32 0 41 8 63 42h21l-11-136H30v25l114 107c48 46 69 81 69 124 0 41-22 67-65 67-40 0-69-21-89-44l-21 18c28 57 83 109 164 109 77 0 125-43 125-115 0-86-81-139-175-197z"/><glyph glyph-name="Tcedilla" unicode="Ţ" horiz-adv-x="708" d="M369-156h-54c-29 7-48 26-48 59 0 36 30 62 81 62 58 0 93-39 93-92 0-67-49-118-167-118v36c64 0 94 26 95 53zM30 702h648l15-251h-41c-73 157-100 210-167 210h-33V105c0-52 17-56 82-63V0H174v42c65 7 82 11 82 63v556h-33c-67 0-94-53-167-210H15z"/><glyph glyph-name="tcedilla" unicode="ţ" horiz-adv-x="391" d="M218-156h-54c-29 7-48 26-48 59 0 36 30 62 81 62 58 0 93-39 93-92 0-67-49-118-167-118v36c64 0 94 26 95 53zm29 831V539h117v-54H247V154c0-48 19-69 57-69 26 0 48 9 72 25l15-22c-38-62-94-98-174-98-92 0-156 46-156 164v331H4v33c80 30 152 88 204 157h39z"/><glyph glyph-name="i.dot" horiz-adv-x="334" d="M262 549V78c0-32 16-36 56-39V0H22v39c40 3 56 7 56 39v351l-55 34v28l208 58h31zm-88 48c-61 0-98 42-98 92s37 93 98 93c60 0 98-43 98-93s-38-92-98-92z"/><glyph glyph-name="dotlessj" unicode="ȷ" horiz-adv-x="302" d="M63 429L7 463v28l209 58h31V106c0-113-24-161-70-207-55-54-102-80-172-112l-16 20 41 64C62-77 63-15 63 63v366z"/><glyph glyph-name="space_uni0326" d="M260-156h-54c-29 7-48 26-48 59 0 36 30 62 81 62 58 0 93-39 93-92 0-67-49-118-167-118v36c64 0 94 26 95 53z"/><glyph glyph-name="space_uni0326.alt" d="M229 714h55c29-8 48-26 48-60 0-35-30-62-81-62-58 0-93 40-93 93 0 67 49 118 167 118v-37c-64 0-94-25-96-52z"/><glyph glyph-name="space_dotbelowcomb" d="M251-205c-59 0-96 41-96 89s37 89 96 89c58 0 95-41 95-89s-37-89-95-89z"/><glyph glyph-name="uni2117" unicode="℗" horiz-adv-x="780" d="M432 307h-51v-83c0-31 12-37 59-38v-32H229v32c38 1 43 7 43 38v258c0 30-5 36-43 37v32h202c110 0 157-60 157-120 0-75-50-124-156-124zm-51 209V338h20c57 0 81 38 81 91 0 47-26 87-82 87h-19zM70 351C70 172 202 25 390 25s320 147 320 326-132 326-320 326S70 530 70 351zm-38 0c0 199 149 361 358 361s358-162 358-361S599-10 390-10 32 152 32 351z"/><glyph glyph-name="Delta" unicode="∆" horiz-adv-x="671" d="M653 0H18v39l291 663h46L653 39V0zM268 471L85 54h366z"/><glyph glyph-name="Abreve" unicode="Ă" horiz-adv-x="759" d="M471 125l-36 92H180l-34-91c-5-15-8-27-8-37 0-33 28-44 82-47V0H5v42c27 4 47 10 58 37l208 542-34 83h209L695 79c10-26 30-33 59-37V0H401v42c50 2 78 12 78 46 0 10-3 22-8 37zM304 548L200 271h213zm49 192c-94 0-148 57-148 156h46c10-52 56-65 102-65 47 0 93 13 102 65h47c0-99-55-156-149-156z"/><glyph glyph-name="Amacron" unicode="Ā" horiz-adv-x="759" d="M471 125l-36 92H180l-34-91c-5-15-8-27-8-37 0-33 28-44 82-47V0H5v42c27 4 47 10 58 37l208 542-34 83h209L695 79c10-26 30-33 59-37V0H401v42c50 2 78 12 78 46 0 10-3 22-8 37zM304 548L200 271h213zm-96 203v86h292v-86H208z"/><glyph glyph-name="Aogonek" unicode="Ą" horiz-adv-x="759" d="M304 548L200 271h213zM405 26c45 16 76 24 76 58 0 10-3 22-8 37l-38 96H181l-35-91c-5-15-8-27-8-37 0-33 28-44 82-47V0H5v42c27 4 47 10 58 37l208 542-34 83h209L695 79c10-26 30-33 59-37V0H435c-49-13-71-49-71-90 0-33 17-55 49-55 22 0 37 7 60 24l16-20c-37-47-76-74-131-74-53 0-98 32-98 97 0 74 63 115 145 144z"/><glyph glyph-name="Aringacute" unicode="Ǻ" horiz-adv-x="759" d="M471 125l-36 92H180l-34-91c-5-15-8-27-8-37 0-33 28-44 82-47V0H5v42c27 4 47 10 58 37l208 542-34 83h209L695 79c10-26 30-33 59-37V0H401v42c50 2 78 12 78 46 0 10-3 22-8 37zM241 816c0 51 45 91 108 91s108-40 108-91-45-91-108-91-108 40-108 91zm63-268L200 271h213zm51 499h180v-9L368 927h-55zm-61-231c0-27 21-48 55-48s56 21 56 48-22 48-56 48-55-21-55-48z"/><glyph glyph-name="AEacute" unicode="Ǽ" horiz-adv-x="1040" d="M63 79l344 549c-16 20-47 29-94 32v42h673l5-193h-38c-53 112-79 146-170 146H680V390h97c46 0 58 24 67 92h43V242h-43c-9 68-21 93-67 93h-97V114c0-54 26-67 81-67h35c90 0 111 39 183 171h45L992 0H412v42c66 7 72 15 72 67v139H239l-76-122c-10-17-15-28-15-41 0-28 29-41 89-43V0H5v42c27 4 43 12 58 37zm421 560L273 302h211v337zm150 253h180v-9L641 743h-56z"/><glyph glyph-name="Cacute" unicode="Ć" horiz-adv-x="683" d="M404 712c90 0 166-21 223-59l3-175h-49c-25 119-78 184-171 184-125 0-177-133-177-302 0-183 64-317 187-317 83 0 147 59 187 211h50L640 55c-58-41-147-65-245-65C167-10 26 121 26 332c0 235 170 380 378 380zm-1 180h180v-9L410 743h-56z"/><glyph glyph-name="Ccaron" unicode="Č" horiz-adv-x="683" d="M404 712c90 0 166-21 223-59l3-175h-49c-25 119-78 184-171 184-125 0-177-133-177-302 0-183 64-317 187-317 83 0 147 59 187 211h50L640 55c-58-41-147-65-245-65C167-10 26 121 26 332c0 235 170 380 378 380zm187 185L471 744H347L227 897h57l125-70 125 70h57z"/><glyph glyph-name="Ccircumflex" unicode="Ĉ" horiz-adv-x="683" d="M404 712c90 0 166-21 223-59l3-175h-49c-25 119-78 184-171 184-125 0-177-133-177-302 0-183 64-317 187-317 83 0 147 59 187 211h50L640 55c-58-41-147-65-245-65C167-10 26 121 26 332c0 235 170 380 378 380zm67 184l120-153h-57l-125 70-125-70h-57l120 153h124z"/><glyph glyph-name="Cdot" unicode="Ċ" horiz-adv-x="683" d="M409 741c-61 0-98 43-98 92 0 50 37 93 98 93 60 0 98-43 98-93 0-49-38-92-98-92zm-5-29c90 0 166-21 223-59l3-175h-49c-25 119-78 184-171 184-125 0-177-133-177-302 0-183 64-317 187-317 83 0 147 59 187 211h50L640 55c-58-41-147-65-245-65C167-10 26 121 26 332c0 235 170 380 378 380z"/><glyph glyph-name="Dcaron" unicode="Ď" horiz-adv-x="789" d="M546 897L426 744H302L182 897h57l125-70 125 70h57zM321 655h-26V117c0-59 23-70 68-70h9c113 0 187 115 187 293 0 192-85 315-238 315zM378 0H26v42c67 7 73 15 73 67v484c0 52-6 60-73 67v42h329c277 0 407-148 407-343C762 133 612 0 378 0z"/><glyph glyph-name="Dcroat" unicode="Đ" horiz-adv-x="799" d="M36 325v62h73v206c0 52-6 60-73 67v42h329c277 0 407-148 407-343C772 133 622 0 388 0H36v42c67 7 73 15 73 67v216H36zm295 330h-26V387h129v-62H305V117c0-59 23-70 68-70h9c113 0 187 115 187 293 0 192-85 315-238 315z"/><glyph glyph-name="Ebreve" unicode="Ĕ" horiz-adv-x="655" d="M344 740c-94 0-148 57-148 156h46c10-52 56-65 102-65 47 0 93 13 102 65h47c0-99-55-156-149-156zM26 0v42c67 7 73 15 73 67v484c0 52-6 60-73 67v42h575l5-193h-38c-53 112-79 146-170 146H295V390h97c46 0 58 24 67 92h43V242h-43c-9 68-21 93-67 93h-97V114c0-54 26-67 81-67h35c89 0 111 39 183 171h45L607 0H26z"/><glyph glyph-name="Ecaron" unicode="Ě" horiz-adv-x="655" d="M526 897L406 744H282L162 897h57l125-70 125 70h57zM26 0v42c67 7 73 15 73 67v484c0 52-6 60-73 67v42h575l5-193h-38c-53 112-79 146-170 146H295V390h97c46 0 58 24 67 92h43V242h-43c-9 68-21 93-67 93h-97V114c0-54 26-67 81-67h35c89 0 111 39 183 171h45L607 0H26z"/><glyph glyph-name="Edot" unicode="Ė" horiz-adv-x="655" d="M345 741c-61 0-98 43-98 92 0 50 37 93 98 93 60 0 98-43 98-93 0-49-38-92-98-92zM26 0v42c67 7 73 15 73 67v484c0 52-6 60-73 67v42h575l5-193h-38c-53 112-79 146-170 146H295V390h97c46 0 58 24 67 92h43V242h-43c-9 68-21 93-67 93h-97V114c0-54 26-67 81-67h35c89 0 111 39 183 171h45L607 0H26z"/><glyph glyph-name="Emacron" unicode="Ē" horiz-adv-x="655" d="M199 751v86h292v-86H199zM26 0v42c67 7 73 15 73 67v484c0 52-6 60-73 67v42h575l5-193h-38c-53 112-79 146-170 146H295V390h97c46 0 58 24 67 92h43V242h-43c-9 68-21 93-67 93h-97V114c0-54 26-67 81-67h35c89 0 111 39 183 171h45L607 0H26z"/><glyph glyph-name="Eogonek" unicode="Ę" horiz-adv-x="655" d="M26 0v42c67 7 73 15 73 67v484c0 52-6 60-73 67v42h575l5-193h-38c-53 112-79 146-170 146H295V390h97c46 0 58 24 67 92h43V242h-43c-9 68-21 93-67 93h-97V114c0-54 26-67 81-67h35c89 0 111 39 183 171h45L607 0H500c-39-26-59-56-59-95 0-28 15-50 46-50 25 0 41 7 63 24l16-20c-37-47-76-74-135-74-52 0-94 31-94 83 0 61 46 102 106 132H26z"/><glyph glyph-name="Gbreve" unicode="Ğ" horiz-adv-x="742" d="M416 740c-94 0-148 57-148 156h46c10-52 56-65 102-65 47 0 93 13 102 65h47c0-99-55-156-149-156zm61-687v170c0 52-6 60-73 68v42h328v-42c-66-8-72-16-72-68V57c-69-44-165-67-272-67C151-10 26 137 26 333c0 234 171 379 382 379 91 0 168-21 226-59l3-175h-49c-25 119-79 184-173 184-128 0-182-133-182-302 0-170 58-319 182-319 25 0 43 2 62 12z"/><glyph glyph-name="Gcircumflex" unicode="Ĝ" horiz-adv-x="742" d="M477 53v170c0 52-6 60-73 68v42h328v-42c-66-8-72-16-72-68V57c-69-44-165-67-272-67C151-10 26 137 26 333c0 234 171 379 382 379 91 0 168-21 226-59l3-175h-49c-25 119-79 184-173 184-128 0-182-133-182-302 0-170 58-319 182-319 25 0 43 2 62 12zm2 843l120-153h-57l-125 70-125-70h-57l120 153h124z"/><glyph glyph-name="Gcedilla" unicode="Ģ" horiz-adv-x="742" d="M432-156h-54c-29 7-48 26-48 59 0 36 30 62 81 62 58 0 93-39 93-92 0-67-49-118-167-118v36c64 0 94 26 95 53zm45 209v170c0 52-6 60-73 68v42h328v-42c-66-8-72-16-72-68V57c-69-44-165-67-272-67C151-10 26 137 26 333c0 234 171 379 382 379 91 0 168-21 226-59l3-175h-49c-25 119-79 184-173 184-128 0-182-133-182-302 0-170 58-319 182-319 25 0 43 2 62 12z"/><glyph glyph-name="Gdot" unicode="Ġ" horiz-adv-x="742" d="M417 741c-61 0-98 43-98 92 0 50 37 93 98 93 60 0 98-43 98-93 0-49-38-92-98-92zm60-688v170c0 52-6 60-73 68v42h328v-42c-66-8-72-16-72-68V57c-69-44-165-67-272-67C151-10 26 137 26 333c0 234 171 379 382 379 91 0 168-21 226-59l3-175h-49c-25 119-79 184-173 184-128 0-182-133-182-302 0-170 58-319 182-319 25 0 43 2 62 12z"/><glyph glyph-name="Hbar" unicode="Ħ" horiz-adv-x="864" d="M305 593v-42h254v42c0 52-6 60-73 67v42h341v-42c-66-7-72-15-72-67v-42h72v-62h-72V109c0-52 6-60 72-67V0H486v42c67 7 73 15 73 67v216H305V109c0-52 6-60 72-67V0H36v42c67 7 73 15 73 67v380H37v62h72v42c0 52-6 60-73 67v42h341v-42c-66-7-72-15-72-67zm0-206h254v102H305V387z"/><glyph glyph-name="Hcircumflex" unicode="Ĥ" horiz-adv-x="844" d="M295 593V387h254v206c0 52-6 60-73 67v42h341v-42c-66-7-72-15-72-67V109c0-52 6-60 72-67V0H476v42c67 7 73 15 73 67v216H295V109c0-52 6-60 72-67V0H26v42c67 7 73 15 73 67v484c0 52-6 60-73 67v42h341v-42c-66-7-72-15-72-67zm189 303l120-153h-57l-125 70-125-70h-57l120 153h124z"/><glyph glyph-name="Ibreve" unicode="Ĭ" horiz-adv-x="394" d="M295 593V109c0-52 6-60 72-67V0H26v42c67 7 73 15 73 67v484c0 52-6 60-73 67v42h341v-42c-66-7-72-15-72-67zm-98 147c-93 0-146 57-146 156h45c10-52 56-65 101-65 46 0 91 13 100 65h46c0-99-54-156-146-156z"/><glyph glyph-name="Idot" unicode="İ" horiz-adv-x="394" d="M295 593V109c0-52 6-60 72-67V0H26v42c67 7 73 15 73 67v484c0 52-6 60-73 67v42h341v-42c-66-7-72-15-72-67zm-98 148c-61 0-98 43-98 92 0 50 37 93 98 93 60 0 98-43 98-93 0-49-38-92-98-92z"/><glyph glyph-name="Imacron" unicode="Ī" horiz-adv-x="394" d="M295 593V109c0-52 6-60 72-67V0H26v42c67 7 73 15 73 67v484c0 52-6 60-73 67v42h341v-42c-66-7-72-15-72-67zM51 751v86h292v-86H51z"/><glyph glyph-name="Iogonek" unicode="Į" horiz-adv-x="394" d="M295 593V109c0-52 6-60 72-67V0H245c-39-26-59-56-59-95 0-28 15-50 46-50 25 0 41 7 63 24l16-20c-37-47-76-74-135-74-52 0-94 31-94 83C82-71 128-30 188 0H26v42c67 7 73 15 73 67v484c0 52-6 60-73 67v42h341v-42c-66-7-72-15-72-67z"/><glyph glyph-name="Itilde" unicode="Ĩ" horiz-adv-x="394" d="M295 593V109c0-52 6-60 72-67V0H26v42c67 7 73 15 73 67v484c0 52-6 60-73 67v42h341v-42c-66-7-72-15-72-67zm-29 149c-62 0-93 60-136 60-27 0-46-23-65-56l-35 20c33 86 63 136 116 136 62 0 92-61 136-61 27 0 46 23 64 56l36-19c-34-88-63-136-116-136z"/><glyph glyph-name="IJ" unicode="Ĳ" horiz-adv-x="960" d="M295 593V109c0-52 6-60 72-67V0H26v42c67 7 73 15 73 67v484c0 52-6 60-73 67v42h341v-42c-66-7-72-15-72-67zm381-425v425c0 52-6 60-73 67v42h341v-42c-66-7-72-15-72-67V225c0-163-98-235-268-235-150 0-231 53-231 150 0 40 19 71 50 89h126c-4-24-7-45-7-77 0-66 16-119 67-119 57 0 67 52 67 135z"/><glyph glyph-name="Jcircumflex" unicode="Ĵ" horiz-adv-x="583" d="M298 168v425c0 52-6 60-73 67v42h341v-42c-66-7-72-15-72-67V225c0-163-98-235-268-235C76-10-5 43-5 140c0 40 19 71 50 89h126c-4-24-7-45-7-77 0-66 16-119 67-119 57 0 67 52 67 135zm160 728l120-153h-57l-125 70-125-70h-57l120 153h124z"/><glyph glyph-name="Kcedilla" unicode="Ķ" horiz-adv-x="768" d="M412-156h-54c-29 7-48 26-48 59 0 36 30 62 81 62 58 0 93-39 93-92 0-67-49-118-167-118v36c64 0 94 26 95 53zm57 585l208-321c28-41 46-61 91-66V0H535c-33 28-65 71-91 115L304 341l234 244c17 17 28 31 28 47s-16 26-69 28v42h237v-42c-41-2-58-10-85-38zM295 593V109c0-52 6-60 72-67V0H26v42c67 7 73 15 73 67v484c0 52-6 60-73 67v42h341v-42c-66-7-72-15-72-67z"/><glyph glyph-name="Lacute" unicode="Ĺ" horiz-adv-x="644" d="M222 892h180v-9L229 743h-56zm73-299V114c0-54 22-67 77-67h28c67 0 103 39 192 190h43L597 0H26v42c67 7 73 15 73 67v484c0 52-6 60-73 67v42h341v-42c-66-7-72-15-72-67z"/><glyph glyph-name="Lcaron" unicode="Ľ" horiz-adv-x="644" d="M582 691L466 497h-41l13 205h144v-11zm-287-98V114c0-54 22-67 77-67h28c67 0 103 39 192 190h43L597 0H26v42c67 7 73 15 73 67v484c0 52-6 60-73 67v42h341v-42c-66-7-72-15-72-67z"/><glyph glyph-name="Lcedilla" unicode="Ļ" horiz-adv-x="644" d="M346-156h-54c-29 7-48 26-48 59 0 36 30 62 81 62 58 0 93-39 93-92 0-67-49-118-167-118v36c64 0 94 26 95 53zm-51 749V114c0-54 22-67 77-67h28c67 0 103 39 192 190h43L597 0H26v42c67 7 73 15 73 67v484c0 52-6 60-73 67v42h341v-42c-66-7-72-15-72-67z"/><glyph glyph-name="Ldot" unicode="Ŀ" horiz-adv-x="644" d="M295 593V114c0-54 22-67 77-67h28c67 0 103 39 192 190h43L597 0H26v42c67 7 73 15 73 67v484c0 52-6 60-73 67v42h341v-42c-66-7-72-15-72-67zm139-188c0 58 44 99 98 99 55 0 98-41 98-99s-43-97-98-97c-54 0-98 39-98 97z"/><glyph glyph-name="Nacute" unicode="Ń" horiz-adv-x="754" d="M383 892h180v-9L390 743h-56zm214-586v286c0 52-20 62-101 68v42h240v-42c-66-7-72-16-72-68V-1h-71L166 527V110c0-52 20-62 101-68V0H27v42c66 7 72 16 72 68v486c-25 43-39 62-73 64v42h252z"/><glyph glyph-name="Ncaron" unicode="Ň" horiz-adv-x="754" d="M572 897L452 744H328L208 897h57l125-70 125 70h57zm25-591v286c0 52-20 62-101 68v42h240v-42c-66-7-72-16-72-68V-1h-71L166 527V110c0-52 20-62 101-68V0H27v42c66 7 72 16 72 68v486c-25 43-39 62-73 64v42h252z"/><glyph glyph-name="Ncedilla" unicode="Ņ" horiz-adv-x="754" d="M406-156h-54c-29 7-48 26-48 59 0 36 30 62 81 62 58 0 93-39 93-92 0-67-49-118-167-118v36c64 0 94 26 95 53zm191 462v286c0 52-20 62-101 68v42h240v-42c-66-7-72-16-72-68V-1h-71L166 527V110c0-52 20-62 101-68V0H27v42c66 7 72 16 72 68v486c-25 43-39 62-73 64v42h252z"/><glyph glyph-name="Eng" unicode="Ŋ" horiz-adv-x="754" d="M526 83L166 527V110c0-52 20-62 101-68V0H27v42c66 7 72 16 72 68v486c-25 43-39 62-73 64v42h253l318-396v286c0 52-20 62-101 68v42h240v-42c-66-7-72-16-72-68V106c0-108-17-156-62-204-53-57-92-80-161-111l-17 20 43 57c49 64 59 132 59 215z"/><glyph glyph-name="Obreve" unicode="Ŏ" horiz-adv-x="747" d="M376 740c-94 0-148 57-148 156h46c10-52 56-65 102-65 47 0 93 13 102 65h47c0-99-55-156-149-156zm2-702c101 0 135 154 135 301 0 178-40 325-145 325-101 0-135-154-135-301 0-178 40-325 145-325zm-14-48C142-10 26 151 26 337c0 230 150 375 356 375 222 0 338-161 338-347 0-230-149-375-356-375z"/><glyph glyph-name="Odblacute" unicode="Ő" horiz-adv-x="747" d="M378 38c101 0 135 154 135 301 0 178-40 325-145 325-101 0-135-154-135-301 0-178 40-325 145-325zm-14-48C142-10 26 151 26 337c0 230 150 375 356 375 222 0 338-161 338-347 0-230-149-375-356-375zm-55 902h150v-9L312 743h-53zm180 0h150v-9L492 743h-54z"/><glyph glyph-name="Omacron" unicode="Ō" horiz-adv-x="747" d="M231 751v86h292v-86H231zM378 38c101 0 135 154 135 301 0 178-40 325-145 325-101 0-135-154-135-301 0-178 40-325 145-325zm-14-48C142-10 26 151 26 337c0 230 150 375 356 375 222 0 338-161 338-347 0-230-149-375-356-375z"/><glyph glyph-name="Oslashacute" unicode="Ǿ" horiz-adv-x="747" d="M364-10c-73 0-135 17-184 47l-72-96-39 30 71 95C64 130 26 229 26 337c0 230 150 375 356 375 80 0 147-21 199-57l67 90 39-29-69-92c67-64 102-158 102-259 0-230-149-375-356-375zM233 363c0-56 4-109 13-156l245 328c-22 78-62 129-123 129-101 0-135-154-135-301zM378 38c101 0 135 154 135 301 0 47-3 92-9 132L261 146c23-66 61-108 117-108zm-2 854h180v-9L383 743h-56z"/><glyph glyph-name="Racute" unicode="Ŕ" horiz-adv-x="759" d="M324 653h-29V343h30c91 0 143 58 143 159 0 93-51 151-144 151zm-29-360V109c0-52 6-60 72-67V0H26v42c67 7 73 15 73 67v484c0 52-6 60-73 67v42h367c163 0 270-76 270-199 0-102-76-157-150-181l139-199c41-60 60-79 107-81V0H530c-28 22-54 56-84 106L332 293h-37zm61 599h180v-9L363 743h-56z"/><glyph glyph-name="Rcaron" unicode="Ř" horiz-adv-x="759" d="M544 897L424 744H300L180 897h57l125-70 125 70h57zM324 653h-29V343h30c91 0 143 58 143 159 0 93-51 151-144 151zm-29-360V109c0-52 6-60 72-67V0H26v42c67 7 73 15 73 67v484c0 52-6 60-73 67v42h367c163 0 270-76 270-199 0-102-76-157-150-181l139-199c41-60 60-79 107-81V0H530c-28 22-54 56-84 106L332 293h-37z"/><glyph glyph-name="Rcedilla" unicode="Ŗ" horiz-adv-x="759" d="M401-156h-54c-29 7-48 26-48 59 0 36 30 62 81 62 58 0 93-39 93-92 0-67-49-118-167-118v36c64 0 94 26 95 53zm-77 809h-29V343h30c91 0 143 58 143 159 0 93-51 151-144 151zm-29-360V109c0-52 6-60 72-67V0H26v42c67 7 73 15 73 67v484c0 52-6 60-73 67v42h367c163 0 270-76 270-199 0-102-76-157-150-181l139-199c41-60 60-79 107-81V0H530c-28 22-54 56-84 106L332 293h-37z"/><glyph glyph-name="Sacute" unicode="Ś" horiz-adv-x="579" d="M275-10C175-10 87 20 40 57L29 231h53c25-112 92-193 193-193 71 0 117 34 117 96 0 65-42 93-153 127C106 300 33 365 33 486c0 139 106 226 254 226 91 0 167-24 216-60V500h-45c-23 101-78 165-171 165-62 0-103-36-103-93 0-65 40-92 143-123 133-41 221-94 221-234C548 61 425-10 275-10zm25 902h180v-9L307 743h-56z"/><glyph glyph-name="Scedilla" unicode="Ş" horiz-adv-x="579" d="M177-231l-8 35c72 0 105 22 105 48 0 28-30 33-79 35L237-8C153-2 81 24 40 57L29 231h53c25-112 92-193 193-193 71 0 117 34 117 96 0 65-42 93-153 127C106 300 33 365 33 486c0 139 106 226 254 226 91 0 167-24 216-60V500h-45c-23 101-78 165-171 165-62 0-103-36-103-93 0-65 40-92 143-123 133-41 221-94 221-234C548 61 425-10 275-10h-1l-12-30c63 0 105-30 105-82 0-75-90-109-190-109z"/><glyph glyph-name="Scircumflex" unicode="Ŝ" horiz-adv-x="579" d="M275-10C175-10 87 20 40 57L29 231h53c25-112 92-193 193-193 71 0 117 34 117 96 0 65-42 93-153 127C106 300 33 365 33 486c0 139 106 226 254 226 91 0 167-24 216-60V500h-45c-23 101-78 165-171 165-62 0-103-36-103-93 0-65 40-92 143-123 133-41 221-94 221-234C548 61 425-10 275-10zm85 906l120-153h-57l-125 70-125-70h-57l120 153h124z"/><glyph glyph-name="Scommaaccent" unicode="Ș" horiz-adv-x="579" d="M299-156h-54c-29 7-48 26-48 59 0 36 30 62 81 62 58 0 93-39 93-92 0-67-49-118-167-118v36c64 0 94 26 95 53zM275-10C175-10 87 20 40 57L29 231h53c25-112 92-193 193-193 71 0 117 34 117 96 0 65-42 93-153 127C106 300 33 365 33 486c0 139 106 226 254 226 91 0 167-24 216-60V500h-45c-23 101-78 165-171 165-62 0-103-36-103-93 0-65 40-92 143-123 133-41 221-94 221-234C548 61 425-10 275-10z"/><glyph glyph-name="Tbar" unicode="Ŧ" horiz-adv-x="708" d="M30 702h648l15-251h-41c-73 157-100 210-167 210h-33V387h105v-62H452V105c0-52 17-56 82-63V0H174v42c65 7 82 11 82 63v220H151v62h105v274h-33c-67 0-94-53-167-210H15z"/><glyph glyph-name="Tcaron" unicode="Ť" horiz-adv-x="708" d="M535 897L415 744H291L171 897h57l125-70 125 70h57zM30 702h648l15-251h-41c-73 157-100 210-167 210h-33V105c0-52 17-56 82-63V0H174v42c65 7 82 11 82 63v556h-33c-67 0-94-53-167-210H15z"/><glyph glyph-name="Ubreve" unicode="Ŭ" horiz-adv-x="753" d="M416 740c-94 0-148 57-148 156h46c10-52 56-65 102-65 47 0 93 13 102 65h47c0-99-55-156-149-156zM282 593V261c0-115 44-187 153-187 92 0 165 51 165 192v326c0 52-12 62-93 68v42h232v-42c-66-7-72-16-72-68V247C667 71 543-10 388-10 196-10 86 75 86 247v346c0 52-5 60-72 67v42h341v-42c-67-7-73-15-73-67z"/><glyph glyph-name="Udblacute" unicode="Ű" horiz-adv-x="753" d="M282 593V261c0-115 44-187 153-187 92 0 165 51 165 192v326c0 52-12 62-93 68v42h232v-42c-66-7-72-16-72-68V247C667 71 543-10 388-10 196-10 86 75 86 247v346c0 52-5 60-72 67v42h341v-42c-67-7-73-15-73-67zm66 299h150v-9L351 743h-53zm180 0h150v-9L531 743h-54z"/><glyph glyph-name="Umacron" unicode="Ū" horiz-adv-x="753" d="M270 751v86h292v-86H270zm12-158V261c0-115 44-187 153-187 92 0 165 51 165 192v326c0 52-12 62-93 68v42h232v-42c-66-7-72-16-72-68V247C667 71 543-10 388-10 196-10 86 75 86 247v346c0 52-5 60-72 67v42h341v-42c-67-7-73-15-73-67z"/><glyph glyph-name="Uogonek" unicode="Ų" horiz-adv-x="753" d="M282 593V261c0-115 44-187 153-187 92 0 165 51 165 192v326c0 52-12 62-93 68v42h232v-42c-66-7-72-16-72-68V247c0-131-69-210-168-241-45-27-69-59-69-101 0-28 15-50 46-50 25 0 41 7 63 24l16-20c-37-47-76-74-135-74-52 0-94 31-94 83 0 55 38 94 90 123-9 0-19-1-28-1C196-10 86 75 86 247v346c0 52-5 60-72 67v42h341v-42c-67-7-73-15-73-67z"/><glyph glyph-name="Uring" unicode="Ů" horiz-adv-x="753" d="M282 593V261c0-115 44-187 153-187 92 0 165 51 165 192v326c0 52-12 62-93 68v42h232v-42c-66-7-72-16-72-68V247C667 71 543-10 388-10 196-10 86 75 86 247v346c0 52-5 60-72 67v42h341v-42c-67-7-73-15-73-67zm84 234c0-29 18-50 50-50s50 21 50 50c0 30-18 52-50 52s-50-22-50-52zm-54 0c0 57 44 102 104 102s103-45 103-102c0-56-43-100-103-100s-104 44-104 100z"/><glyph glyph-name="Utilde" unicode="Ũ" horiz-adv-x="753" d="M485 743c-63 0-94 60-138 60-28 0-47-23-66-56l-36 20c34 86 64 135 118 135 63 0 94-60 138-60 28 0 47 23 66 55l36-19c-34-87-64-135-118-135zM282 593V261c0-115 44-187 153-187 92 0 165 51 165 192v326c0 52-12 62-93 68v42h232v-42c-66-7-72-16-72-68V247C667 71 543-10 388-10 196-10 86 75 86 247v346c0 52-5 60-72 67v42h341v-42c-67-7-73-15-73-67z"/><glyph glyph-name="Wacute" unicode="Ẃ" horiz-adv-x="1008" d="M651-4L517 387 373-4h-71L63 623c-9 23-30 33-58 37v42h328v-42c-40-3-54-16-54-39 0-15 7-34 14-54l117-318 80 218-53 156c-8 24-23 33-51 37v42h327v-42c-53-1-70-14-70-43 0-16 6-36 13-61l97-302 104 305c7 21 13 40 13 55 0 28-18 44-69 46v42h202v-42c-28-4-50-13-58-37L723-4h-72zM537 892h180v-9L544 743h-56z"/><glyph glyph-name="Wcircumflex" unicode="Ŵ" horiz-adv-x="1008" d="M651-4L517 387 373-4h-71L63 623c-9 23-30 33-58 37v42h328v-42c-40-3-54-16-54-39 0-15 7-34 14-54l117-318 80 218-53 156c-8 24-23 33-51 37v42h327v-42c-53-1-70-14-70-43 0-16 6-36 13-61l97-302 104 305c7 21 13 40 13 55 0 28-18 44-69 46v42h202v-42c-28-4-50-13-58-37L723-4h-72zm-46 900l120-153h-57l-125 70-125-70h-57l120 153h124z"/><glyph glyph-name="Wgrave" unicode="Ẁ" horiz-adv-x="1008" d="M651-4L517 387 373-4h-71L63 623c-9 23-30 33-58 37v42h328v-42c-40-3-54-16-54-39 0-15 7-34 14-54l117-318 80 218-53 156c-8 24-23 33-51 37v42h327v-42c-53-1-70-14-70-43 0-16 6-36 13-61l97-302 104 305c7 21 13 40 13 55 0 28-18 44-69 46v42h202v-42c-28-4-50-13-58-37L723-4h-72zM365 892h180l49-149h-55L365 883v9z"/><glyph glyph-name="Wdieresis" unicode="Ẅ" horiz-adv-x="1008" d="M651-4L517 387 373-4h-71L63 623c-9 23-30 33-58 37v42h328v-42c-40-3-54-16-54-39 0-15 7-34 14-54l117-318 80 218-53 156c-8 24-23 33-51 37v42h327v-42c-53-1-70-14-70-43 0-16 6-36 13-61l97-302 104 305c7 21 13 40 13 55 0 28-18 44-69 46v42h202v-42c-28-4-50-13-58-37L723-4h-72zM356 823c0 45 38 83 84 83s85-38 85-83c0-46-39-83-85-83s-84 37-84 83zm206 0c0 45 39 83 83 83 48 0 86-38 86-83 0-46-38-83-86-83-44 0-83 37-83 83z"/><glyph glyph-name="Ycircumflex" unicode="Ŷ" horiz-adv-x="707" d="M457 263V105c0-52 17-56 83-63V0H184v42c66 7 82 11 82 63v153L63 623c-15 28-29 33-58 37v42h345v-42c-54-2-68-11-68-36 0-21 8-37 23-64l128-220 112 218c11 23 23 49 23 66 0 25-22 34-70 36v42h204v-42c-27-4-45-12-58-37zm3 633l120-153h-57l-125 70-125-70h-57l120 153h124z"/><glyph glyph-name="Ygrave" unicode="Ỳ" horiz-adv-x="707" d="M457 263V105c0-52 17-56 83-63V0H184v42c66 7 82 11 82 63v153L63 623c-15 28-29 33-58 37v42h345v-42c-54-2-68-11-68-36 0-21 8-37 23-64l128-220 112 218c11 23 23 49 23 66 0 25-22 34-70 36v42h204v-42c-27-4-45-12-58-37zM221 892h180l49-149h-55L221 883v9z"/><glyph glyph-name="Zacute" unicode="Ź" horiz-adv-x="632" d="M243 47h126c84 0 118 35 203 184h43L579 0H16v35l351 620H248c-93 0-110-42-168-170H39l9 217h547v-35zm76 845h180v-9L326 743h-56z"/><glyph glyph-name="Zdot" unicode="Ż" horiz-adv-x="632" d="M325 741c-61 0-98 43-98 92 0 50 37 93 98 93 60 0 98-43 98-93 0-49-38-92-98-92zM243 47h126c84 0 118 35 203 184h43L579 0H16v35l351 620H248c-93 0-110-42-168-170H39l9 217h547v-35z"/><glyph glyph-name="abreve" unicode="ă" horiz-adv-x="554" d="M263 89c16 0 28 5 44 14v185l-55-21c-35-13-58-32-58-89 0-51 19-89 69-89zm226 286V110c0-24 3-45 27-45 14 0 27 3 34 6l7-27c-33-33-76-54-132-54-58 0-100 31-115 84-29-42-77-81-151-81C75-7 16 41 16 127c0 87 61 123 132 148l159 56v102c0 46-13 77-52 77s-54-32-54-79c0-23 4-46 9-70L99 346c-29 10-49 34-49 70 0 91 94 133 215 133 140 0 224-44 224-174zM274 598c-94 0-145 61-145 168h46c7-58 48-75 99-75 50 0 91 17 98 75h46c0-107-51-168-144-168z"/><glyph glyph-name="amacron" unicode="ā" horiz-adv-x="554" d="M263 89c16 0 28 5 44 14v185l-55-21c-35-13-58-32-58-89 0-51 19-89 69-89zm226 286V110c0-24 3-45 27-45 14 0 27 3 34 6l7-27c-33-33-76-54-132-54-58 0-100 31-115 84-29-42-77-81-151-81C75-7 16 41 16 127c0 87 61 123 132 148l159 56v102c0 46-13 77-52 77s-54-32-54-79c0-23 4-46 9-70L99 346c-29 10-49 34-49 70 0 91 94 133 215 133 140 0 224-44 224-174zM131 625v86h286v-86H131z"/><glyph glyph-name="aogonek" unicode="ą" horiz-adv-x="554" d="M489 375V110c0-24 3-45 27-45 14 0 27 3 34 6l7-27C505-2 410-17 410-95c0-28 15-50 46-50 26 0 41 7 64 24l16-20c-37-47-77-74-136-74-52 0-94 31-94 83 0 56 39 93 97 123-44 8-80 38-93 83-29-42-77-81-151-81C75-7 16 41 16 127c0 87 61 123 132 148l159 56v102c0 46-13 77-52 77s-54-32-54-79c0-23 4-46 9-70L99 346c-29 10-49 34-49 70 0 91 94 133 215 133 140 0 224-44 224-174zM263 89c16 0 28 5 44 14v185l-55-21c-35-13-58-32-58-89 0-51 19-89 69-89z"/><glyph glyph-name="aringacute" unicode="ǻ" horiz-adv-x="554" d="M167 658c0 52 45 91 108 91s108-39 108-91c0-51-45-91-108-91s-108 40-108 91zm112 234h180v-9L292 772h-55zm-60-234c0-27 22-47 56-47s56 20 56 47c0 28-22 48-56 48s-56-20-56-48zm44-569c16 0 28 5 44 14v185l-55-21c-35-13-58-32-58-89 0-51 19-89 69-89zm226 286V110c0-24 3-45 27-45 14 0 27 3 34 6l7-27c-33-33-76-54-132-54-58 0-100 31-115 84-29-42-77-81-151-81C75-7 16 41 16 127c0 87 61 123 132 148l159 56v102c0 46-13 77-52 77s-54-32-54-79c0-23 4-46 9-70L99 346c-29 10-49 34-49 70 0 91 94 133 215 133 140 0 224-44 224-174z"/><glyph glyph-name="aeacute" unicode="ǽ" horiz-adv-x="794" d="M559 549c142 0 216-93 216-220v-24H463c-1-115 56-193 153-193 59 0 106 23 143 73l19-12C751 63 674-10 548-10c-85 0-155 32-200 91-46-53-88-88-184-88C75-7 16 41 16 127c0 87 61 123 132 148l154 54c3 15 8 29 12 43 3 89-21 138-63 138-35 0-50-32-50-79 0-23 4-46 9-70L99 346c-29 10-49 34-49 70 0 91 94 133 213 133 63 0 112-14 143-49 43 31 95 49 153 49zM408 765h179v-9L410 601h-52zm136-258c-55 0-75-64-80-157h152c0 97-19 157-72 157zM273 89c17 0 37 6 58 18-23 40-35 91-35 150 0 9 0 18 1 26l-35-13c-45-16-68-35-68-92 0-51 19-89 79-89z"/><glyph glyph-name="cacute" unicode="ć" horiz-adv-x="503" d="M287 765h179v-9L289 601h-52zM181 322c0-128 57-207 157-207 59 0 101 20 133 66l22-14C460 45 379-10 267-10 128-10 21 89 21 253c0 169 108 296 274 296 101 0 183-39 183-127 0-38-22-63-44-73h-95c3 22 4 39 4 57 0 58-16 98-64 98-62 0-98-79-98-182z"/><glyph glyph-name="ccaron" unicode="č" horiz-adv-x="503" d="M468 770L352 600H228L112 770h58l120-85 120 85h58zM181 322c0-128 57-207 157-207 59 0 101 20 133 66l22-14C460 45 379-10 267-10 128-10 21 89 21 253c0 169 108 296 274 296 101 0 183-39 183-127 0-38-22-63-44-73h-95c3 22 4 39 4 57 0 58-16 98-64 98-62 0-98-79-98-182z"/><glyph glyph-name="ccircumflex" unicode="ĉ" horiz-adv-x="503" d="M347 766l116-170h-58l-120 85-120-85h-58l116 170h124zM181 322c0-128 57-207 157-207 59 0 101 20 133 66l22-14C460 45 379-10 267-10 128-10 21 89 21 253c0 169 108 296 274 296 101 0 183-39 183-127 0-38-22-63-44-73h-95c3 22 4 39 4 57 0 58-16 98-64 98-62 0-98-79-98-182z"/><glyph glyph-name="cdot" unicode="ċ" horiz-adv-x="503" d="M181 322c0-128 57-207 157-207 59 0 101 20 133 66l22-14C460 45 379-10 267-10 128-10 21 89 21 253c0 169 108 296 274 296 101 0 183-39 183-127 0-38-22-63-44-73h-95c3 22 4 39 4 57 0 58-16 98-64 98-62 0-98-79-98-182zm109 275c-61 0-98 42-98 92s37 93 98 93c60 0 98-43 98-93s-38-92-98-92z"/><glyph glyph-name="dcaron" unicode="ď" horiz-adv-x="641" d="M766 772L650 578h-41l13 205h144v-11zM314 489c-71 0-108-75-108-188 0-123 44-207 122-207 20 0 39 4 57 14v278c0 67-19 103-71 103zm71 190l-55 28v30l209 46h31V115c0-34 2-49 34-50l24-1V25L416-10h-34l3 94c-41-61-95-94-162-94C105-10 21 82 21 245c0 195 118 300 265 300 41 0 76-11 99-30v164z"/><glyph glyph-name="dcroat" unicode="đ" horiz-adv-x="641" d="M385 679l-55 28v30l209 46h31V640h58v-51h-58V115c0-34 2-49 34-50l24-1V25L416-10h-34l3 94c-41-61-95-94-162-94C105-10 21 82 21 245c0 195 118 300 265 300 41 0 76-11 99-30v74H267v51h118v39zm-71-190c-71 0-108-75-108-188 0-123 44-207 122-207 20 0 39 4 57 14v278c0 67-19 103-71 103z"/><glyph glyph-name="ebreve" unicode="ĕ" horiz-adv-x="526" d="M288 549c145 0 219-92 219-219v-25H188c-2-119 64-193 155-193 64 0 111 23 149 73l19-12C484 63 407-10 281-10 133-10 21 89 21 257c0 178 123 292 267 292zm-12-42c-55 0-82-63-87-156h160c0 97-19 156-73 156zm15 91c-94 0-145 61-145 168h46c7-58 48-75 99-75 50 0 91 17 98 75h46c0-107-51-168-144-168z"/><glyph glyph-name="ecaron" unicode="ě" horiz-adv-x="526" d="M467 770L351 600H227L111 770h58l120-85 120 85h58zM288 549c145 0 219-92 219-219v-25H188c-2-119 64-193 155-193 64 0 111 23 149 73l19-12C484 63 407-10 281-10 133-10 21 89 21 257c0 178 123 292 267 292zm-12-42c-55 0-82-63-87-156h160c0 97-19 156-73 156z"/><glyph glyph-name="edot" unicode="ė" horiz-adv-x="526" d="M288 549c145 0 219-92 219-219v-25H188c-2-119 64-193 155-193 64 0 111 23 149 73l19-12C484 63 407-10 281-10 133-10 21 89 21 257c0 178 123 292 267 292zm-12-42c-55 0-82-63-87-156h160c0 97-19 156-73 156zm13 90c-61 0-98 42-98 92s37 93 98 93c60 0 98-43 98-93s-38-92-98-92z"/><glyph glyph-name="emacron" unicode="ē" horiz-adv-x="526" d="M288 549c145 0 219-92 219-219v-25H188c-2-119 64-193 155-193 64 0 111 23 149 73l19-12C484 63 407-10 281-10 133-10 21 89 21 257c0 178 123 292 267 292zm-12-42c-55 0-82-63-87-156h160c0 97-19 156-73 156zM146 625v86h286v-86H146z"/><glyph glyph-name="eogonek" unicode="ę" horiz-adv-x="526" d="M292 549c141 0 215-92 215-219v-25H188c-2-119 64-193 155-193 64 0 111 23 149 73l19-12C491 96 448 41 383 9c-51-24-78-56-78-97 0-35 17-57 47-57 26 0 41 7 64 24l16-20c-37-47-76-74-136-74-51 0-94 31-94 83 0 55 38 93 90 122h-11C133-10 21 89 21 257c0 178 123 292 271 292zm-16-42c-55 0-82-63-87-156h160c0 97-19 156-73 156z"/><glyph glyph-name="gbreve" unicode="ğ" horiz-adv-x="557" d="M259 188c-37 0-75 5-110 17-16-14-29-30-29-50 0-17 11-29 30-29h217c135 0 192-58 192-149 0-129-124-200-305-200C96-223-2-180-2-101c0 50 48 74 92 81C48-4 24 37 24 80c0 65 46 107 98 135-55 26-95 71-95 144 0 120 101 190 239 190 40 0 69-6 95-14l178 4v-67h-45l-61 2c36-24 62-63 62-113 0-111-102-173-236-173zM375-42H111c-7-8-9-22-9-37 0-61 63-97 157-97 90 0 173 24 173 89 0 32-20 45-57 45zM266 227c45 0 59 49 59 136 0 76-20 144-67 144-45 0-60-49-60-132 0-80 22-148 68-148zm12 371c-94 0-145 61-145 168h46c7-58 48-75 99-75 50 0 91 17 98 75h46c0-107-51-168-144-168z"/><glyph glyph-name="gcircumflex" unicode="ĝ" horiz-adv-x="557" d="M259 188c-37 0-75 5-110 17-16-14-29-30-29-50 0-17 11-29 30-29h217c135 0 192-58 192-149 0-129-124-200-305-200C96-223-2-180-2-101c0 50 48 74 92 81C48-4 24 37 24 80c0 65 46 107 98 135-55 26-95 71-95 144 0 120 101 190 239 190 40 0 69-6 95-14l178 4v-67h-45l-61 2c36-24 62-63 62-113 0-111-102-173-236-173zM375-42H111c-7-8-9-22-9-37 0-61 63-97 157-97 90 0 173 24 173 89 0 32-20 45-57 45zm-35 808l116-170h-58l-120 85-120-85h-58l116 170h124zm-74-539c45 0 59 49 59 136 0 76-20 144-67 144-45 0-60-49-60-132 0-80 22-148 68-148z"/><glyph glyph-name="gcedilla" unicode="ģ" horiz-adv-x="557" d="M259 188c-37 0-75 5-110 17-16-14-29-30-29-50 0-17 11-29 30-29h217c135 0 192-58 192-149 0-129-124-200-305-200C96-223-2-180-2-101c0 50 48 74 92 81C48-4 24 37 24 80c0 65 46 107 98 135-55 26-95 71-95 144 0 120 101 190 239 190 40 0 69-6 95-14l178 4v-67h-45l-61 2c36-24 62-63 62-113 0-111-102-173-236-173zM375-42H111c-7-8-9-22-9-37 0-61 63-97 157-97 90 0 173 24 173 89 0 32-20 45-57 45zM266 227c45 0 59 49 59 136 0 76-20 144-67 144-45 0-60-49-60-132 0-80 22-148 68-148zm-4 487h55c29-8 48-26 48-60 0-35-30-62-81-62-58 0-93 40-93 93 0 67 49 118 167 118v-37c-64 0-94-25-96-52z"/><glyph glyph-name="gdot" unicode="ġ" horiz-adv-x="557" d="M259 188c-37 0-75 5-110 17-16-14-29-30-29-50 0-17 11-29 30-29h217c135 0 192-58 192-149 0-129-124-200-305-200C96-223-2-180-2-101c0 50 48 74 92 81C48-4 24 37 24 80c0 65 46 107 98 135-55 26-95 71-95 144 0 120 101 190 239 190 40 0 69-6 95-14l178 4v-67h-45l-61 2c36-24 62-63 62-113 0-111-102-173-236-173zM375-42H111c-7-8-9-22-9-37 0-61 63-97 157-97 90 0 173 24 173 89 0 32-20 45-57 45zM266 227c45 0 59 49 59 136 0 76-20 144-67 144-45 0-60-49-60-132 0-80 22-148 68-148zm12 370c-61 0-98 42-98 92s37 93 98 93c60 0 98-43 98-93s-38-92-98-92z"/><glyph glyph-name="hbar" unicode="ħ" horiz-adv-x="661" d="M74 78v511H19v51h55v39l-55 28v30l209 46h31V640h121v-51H259V449c38 48 95 100 186 100 96 0 151-55 151-164V78c0-32 16-36 56-39V0H358v39c40 3 53 7 53 39v292c0 44-15 70-67 70-32 0-60-9-85-22V78c0-32 13-36 53-39V0H18v39c40 3 56 7 56 39z"/><glyph glyph-name="hcircumflex" unicode="ĥ" horiz-adv-x="661" d="M74 78v601l-55 28v30l209 46h31V449c38 48 95 100 186 100 96 0 151-55 151-164V78c0-32 16-36 56-39V0H358v39c40 3 53 7 53 39v292c0 44-15 70-67 70-32 0-60-9-85-22V78c0-32 13-36 53-39V0H18v39c40 3 56 7 56 39zm321 878l120-153h-57l-125 70-125-70h-57l120 153h124z"/><glyph glyph-name="ibreve" unicode="ĭ" horiz-adv-x="334" d="M262 549V78c0-32 16-36 56-39V0H22v39c40 3 56 7 56 39v351l-55 34v28l208 58h31zm-88 49c-93 0-143 61-143 168h45c7-58 48-75 98-75 49 0 89 17 96 75h46c0-107-51-168-142-168z"/><glyph glyph-name="imacron" unicode="ī" horiz-adv-x="334" d="M262 549V78c0-32 16-36 56-39V0H22v39c40 3 56 7 56 39v351l-55 34v28l208 58h31zM34 626v85h277v-85H34z"/><glyph glyph-name="iogonek" unicode="į" horiz-adv-x="334" d="M262 549V78c0-32 16-36 56-39V0H217c-39-26-59-56-59-95 0-28 15-50 46-50 25 0 41 7 63 24l16-20c-37-47-76-74-135-74-52 0-94 31-94 83C54-71 100-30 160 0H22v39c40 3 56 7 56 39v351l-55 34v28l208 58h31zm-90 44c-62 0-98 43-98 93s36 92 98 92c60 0 98-42 98-92s-38-93-98-93z"/><glyph glyph-name="itilde" unicode="ĩ" horiz-adv-x="334" d="M226 603c-58 0-86 59-126 59-27 0-43-22-62-55L3 627c32 86 59 134 111 134 59 0 86-59 126-59 27 0 43 22 62 54l35-19c-32-86-59-134-111-134zm36-54V78c0-32 16-36 56-39V0H22v39c40 3 56 7 56 39v351l-55 34v28l208 58h31z"/><glyph glyph-name="ij" unicode="ĳ" horiz-adv-x="636" d="M262 549V78c0-32 16-36 56-39V0H22v39c40 3 56 7 56 39v351l-55 34v28l208 58h31zm-90 44c-62 0-98 43-98 93s36 92 98 92c60 0 98-42 98-92s-38-93-98-93zm225-164l-56 34v28l209 58h31V106c0-113-24-161-70-207-55-54-102-80-172-112l-16 20 41 64c32 52 33 114 33 192v366zm91 164c-61 0-98 43-98 93s37 92 98 92 98-42 98-92-37-93-98-93z"/><glyph glyph-name="jcircumflex" unicode="ĵ" horiz-adv-x="302" d="M63 429L7 463v28l209 58h31V106c0-113-24-161-70-207-55-54-102-80-172-112l-16 20 41 64C62-77 63-15 63 63v366zm142 337l105-168h-52l-110 84-109-84h-53L92 766h113z"/><glyph glyph-name="kcedilla" unicode="ķ" horiz-adv-x="638" d="M346-156h-54c-29 7-48 26-48 59 0 36 30 62 81 62 58 0 93-39 93-92 0-67-49-118-167-118v36c64 0 94 26 95 53zm-80 439l153 139c26 23 33 35 33 48 0 19-14 25-61 30v39h227v-39c-34-5-57-11-83-37L420 355 638 27V0H446zM74 78v601l-55 28v30l209 46h31V78c0-32 16-36 56-39V0H18v39c40 3 56 7 56 39z"/><glyph glyph-name="kgreenlandic" unicode="ĸ" horiz-adv-x="641" d="M269 283l154 139c25 23 32 35 32 48 0 19-14 25-60 30v39h227v-39c-35-5-57-11-84-37L424 355 641 27V0H450zM78 78v350l-55 36v27l209 58h30V78c0-32 16-36 56-39V0H22v39c40 3 56 7 56 39z"/><glyph glyph-name="lacute" unicode="ĺ" horiz-adv-x="330" d="M161 951h180v-9L168 802h-56zm98-168V78c0-32 16-36 56-39V0H18v39c40 3 56 7 56 39v601l-55 28v30l209 46h31z"/><glyph glyph-name="lcaron" unicode="ľ" horiz-adv-x="330" d="M455 772L339 578h-41l13 205h144v-11zm-196 11V78c0-32 16-36 56-39V0H18v39c40 3 56 7 56 39v601l-55 28v30l209 46h31z"/><glyph glyph-name="lcedilla" unicode="ļ" horiz-adv-x="330" d="M182-156h-54c-29 7-48 26-48 59 0 36 30 62 81 62 58 0 93-39 93-92 0-67-49-118-167-118v36c64 0 94 26 95 53zm77 939V78c0-32 16-36 56-39V0H18v39c40 3 56 7 56 39v601l-55 28v30l209 46h31z"/><glyph glyph-name="ldot" unicode="ŀ" horiz-adv-x="455" d="M259 783V78c0-32 16-36 56-39V0H18v39c40 3 56 7 56 39v601l-55 28v30l209 46h31zm34-397c0 57 43 98 97 98s96-41 96-98-42-96-96-96-97 39-97 96z"/><glyph glyph-name="nacute" unicode="ń" horiz-adv-x="664" d="M343 765h179v-9L345 601h-52zm72-687v292c0 44-15 70-67 70-32 0-60-9-86-22V78c0-32 14-36 54-39V0H22v39c40 3 56 7 56 39v351l-55 34v28l209 58h34l-4-100c38 48 96 100 186 100 97 0 152-54 152-164V78c0-32 16-36 56-39V0H362v39c40 3 53 7 53 39z"/><glyph glyph-name="ncaron" unicode="ň" horiz-adv-x="664" d="M527 770L411 600H287L171 770h58l120-85 120 85h58zM415 78v292c0 44-15 70-67 70-32 0-60-9-86-22V78c0-32 14-36 54-39V0H22v39c40 3 56 7 56 39v351l-55 34v28l209 58h34l-4-100c38 48 96 100 186 100 97 0 152-54 152-164V78c0-32 16-36 56-39V0H362v39c40 3 53 7 53 39z"/><glyph glyph-name="ncedilla" unicode="ņ" horiz-adv-x="664" d="M365-156h-54c-29 7-48 26-48 59 0 36 30 62 81 62 58 0 93-39 93-92 0-67-49-118-167-118v36c64 0 94 26 95 53zm50 234v292c0 44-15 70-67 70-32 0-60-9-86-22V78c0-32 14-36 54-39V0H22v39c40 3 56 7 56 39v351l-55 34v28l209 58h34l-4-100c38 48 96 100 186 100 97 0 152-54 152-164V78c0-32 16-36 56-39V0H362v39c40 3 53 7 53 39z"/><glyph glyph-name="eng" unicode="ŋ" horiz-adv-x="654" d="M415 63v307c0 44-15 70-67 70-32 0-60-9-86-22V78c0-32 14-36 54-39V0H22v39c40 3 56 7 56 39v351l-55 34v28l209 58h34l-4-100c38 48 96 100 186 100 97 0 152-54 152-164V106c0-113-25-161-70-207-55-54-102-80-172-112l-17 20 41 64c32 52 33 114 33 192z"/><glyph glyph-name="obreve" unicode="ŏ" horiz-adv-x="601" d="M305 32c60 0 79 77 79 204 0 164-23 271-88 271-60 0-79-77-79-204 0-164 24-271 88-271zm-5-42C135-10 21 95 21 259c0 168 116 290 280 290 165 0 279-105 279-269 0-168-116-290-280-290zm4 608c-94 0-145 61-145 168h46c7-58 48-75 99-75 50 0 91 17 98 75h46c0-107-51-168-144-168z"/><glyph glyph-name="odblacute" unicode="ő" horiz-adv-x="601" d="M225 765h150v-9L228 601h-53zm180 0h150v-9L407 601h-53zM305 32c60 0 79 77 79 204 0 164-23 271-88 271-60 0-79-77-79-204 0-164 24-271 88-271zm-5-42C135-10 21 95 21 259c0 168 116 290 280 290 165 0 279-105 279-269 0-168-116-290-280-290z"/><glyph glyph-name="omacron" unicode="ō" horiz-adv-x="601" d="M161 625v86h286v-86H161zM305 32c60 0 79 77 79 204 0 164-23 271-88 271-60 0-79-77-79-204 0-164 24-271 88-271zm-5-42C135-10 21 95 21 259c0 168 116 290 280 290 165 0 279-105 279-269 0-168-116-290-280-290z"/><glyph glyph-name="oslashacute" unicode="ǿ" horiz-adv-x="601" d="M300-10c-56 0-106 12-148 34L94-58 59-33l57 80C56 94 21 167 21 259c0 168 116 290 280 290 56 0 107-13 149-35l55 77 36-25-55-76c59-47 94-120 94-210 0-168-116-290-280-290zm-83 313c0-40 1-76 4-109l150 210c-13 65-37 103-75 103-60 0-79-77-79-204zm88-271c60 0 79 77 79 204 0 38-1 74-4 105L230 132c13-63 37-100 75-100zm-11 733h179v-9L296 601h-52z"/><glyph glyph-name="racute" unicode="ŕ" horiz-adv-x="457" d="M255 765h179v-9L257 601h-52zm7-408V93c0-43 23-47 80-54V0H22v39c40 3 56 7 56 39v351l-55 34v28l209 58h34l-4-154c41 117 76 154 139 154 23 0 40-7 50-17V393h-24c-63 0-119-2-165-36z"/><glyph glyph-name="rcaron" unicode="ř" horiz-adv-x="457" d="M439 770L323 600H199L83 770h58l120-85 120 85h58zM262 357V93c0-43 23-47 80-54V0H22v39c40 3 56 7 56 39v351l-55 34v28l209 58h34l-4-154c41 117 76 154 139 154 23 0 40-7 50-17V393h-24c-63 0-119-2-165-36z"/><glyph glyph-name="rcedilla" unicode="ŗ" horiz-adv-x="457" d="M194-156h-54c-29 7-48 26-48 59 0 36 30 62 81 62 58 0 93-39 93-92 0-67-49-118-167-118v36c64 0 94 26 95 53zm68 513V93c0-43 23-47 80-54V0H22v39c40 3 56 7 56 39v351l-55 34v28l209 58h34l-4-154c41 117 76 154 139 154 23 0 40-7 50-17V393h-24c-63 0-119-2-165-36z"/><glyph glyph-name="sacute" unicode="ś" horiz-adv-x="477" d="M241 765h179v-9L243 601h-52zM227-10C144-10 80 10 37 41l-6 135h46C97 94 149 32 227 32c47 0 85 23 85 68 0 51-39 68-107 90C92 225 31 272 31 374c0 112 86 175 206 175 68 0 129-18 172-46V383h-43c-12 66-56 124-126 124-43 0-72-24-72-62 0-42 30-59 96-82 120-40 185-81 185-190 0-117-87-183-222-183z"/><glyph glyph-name="scedilla" unicode="ş" horiz-adv-x="477" d="M126-231l-8 35c72 0 105 22 105 48 0 28-30 33-79 35L186-8C123-2 72 15 37 41l-6 135h46C97 94 149 32 227 32c47 0 85 23 85 68 0 51-39 68-107 90C92 225 31 272 31 374c0 112 86 175 206 175 68 0 129-18 172-46V383h-43c-12 66-56 124-126 124-43 0-72-24-72-62 0-42 30-59 96-82 120-40 185-81 185-190 0-117-87-183-222-183h-4l-12-30c63 0 105-30 105-82 0-75-90-109-190-109z"/><glyph glyph-name="scircumflex" unicode="ŝ" horiz-adv-x="477" d="M309 766l116-170h-58l-120 85-120-85H69l116 170h124zM227-10C144-10 80 10 37 41l-6 135h46C97 94 149 32 227 32c47 0 85 23 85 68 0 51-39 68-107 90C92 225 31 272 31 374c0 112 86 175 206 175 68 0 129-18 172-46V383h-43c-12 66-56 124-126 124-43 0-72-24-72-62 0-42 30-59 96-82 120-40 185-81 185-190 0-117-87-183-222-183z"/><glyph glyph-name="scommaaccent" unicode="ș" horiz-adv-x="477" d="M253-156h-54c-29 7-48 26-48 59 0 36 30 62 81 62 58 0 93-39 93-92 0-67-49-118-167-118v36c64 0 94 26 95 53zM227-10C144-10 80 10 37 41l-6 135h46C97 94 149 32 227 32c47 0 85 23 85 68 0 51-39 68-107 90C92 225 31 272 31 374c0 112 86 175 206 175 68 0 129-18 172-46V383h-43c-12 66-56 124-126 124-43 0-72-24-72-62 0-42 30-59 96-82 120-40 185-81 185-190 0-117-87-183-222-183z"/><glyph glyph-name="tbar" unicode="ŧ" horiz-adv-x="402" d="M252 675V539h117v-54H252V381h118v-54H252V154c0-48 19-69 57-69 26 0 48 9 72 25l15-22c-38-62-94-98-174-98-92 0-156 46-156 164v173H9v54h57v104H9v33c80 30 152 88 204 157h39z"/><glyph glyph-name="tcaron" unicode="ť" horiz-adv-x="391" d="M441 772L325 578h-41l13 205h144v-11zm-194-97V539h117v-54H247V154c0-48 19-69 57-69 26 0 48 9 72 25l15-22c-38-62-94-98-174-98-92 0-156 46-156 164v331H4v33c80 30 152 88 204 157h39z"/><glyph glyph-name="ubreve" unicode="ŭ" horiz-adv-x="647" d="M576 421V115c0-34 2-49 34-50l24-1V25L423-10h-35l3 97c-36-46-89-97-178-97S62 43 62 158v245c0 29-7 50-39 58l-15 5v36l211 46h33l-6-127V176c0-51 20-80 68-80 30 0 50 8 77 20v287c0 29-7 50-38 58l-15 5v36l210 46h33zM323 598c-94 0-145 61-145 168h46c7-58 48-75 99-75 50 0 91 17 98 75h46c0-107-51-168-144-168z"/><glyph glyph-name="udblacute" unicode="ű" horiz-adv-x="647" d="M576 421V115c0-34 2-49 34-50l24-1V25L423-10h-35l3 97c-36-46-89-97-178-97S62 43 62 158v245c0 29-7 50-39 58l-15 5v36l211 46h33l-6-127V176c0-51 20-80 68-80 30 0 50 8 77 20v287c0 29-7 50-38 58l-15 5v36l210 46h33zM244 765h150v-9L247 601h-53zm180 0h150v-9L426 601h-53z"/><glyph glyph-name="umacron" unicode="ū" horiz-adv-x="647" d="M576 421V115c0-34 2-49 34-50l24-1V25L423-10h-35l3 97c-36-46-89-97-178-97S62 43 62 158v245c0 29-7 50-39 58l-15 5v36l211 46h33l-6-127V176c0-51 20-80 68-80 30 0 50 8 77 20v287c0 29-7 50-38 58l-15 5v36l210 46h33zM180 625v86h286v-86H180z"/><glyph glyph-name="uogonek" unicode="ų" horiz-adv-x="647" d="M576 421V115c0-34 2-49 34-50l24-1V25C448-3 398-26 398-97c0-26 15-48 46-48 25 0 41 7 63 24l16-20c-37-47-76-74-134-74-53 0-95 31-95 87 0 54 34 88 94 118l3 97c-36-46-89-97-178-97S62 43 62 158v245c0 29-7 50-39 58l-15 5v36l211 46h33l-6-127V176c0-51 20-80 68-80 30 0 50 8 77 20v287c0 29-7 50-38 58l-15 5v36l210 46h33z"/><glyph glyph-name="uring" unicode="ů" horiz-adv-x="647" d="M273 678c0-29 18-51 50-51s50 22 50 51c0 30-18 52-50 52s-50-22-50-52zm-54 0c0 57 44 102 104 102s103-45 103-102c0-56-43-101-103-101s-104 45-104 101zm357-257V115c0-34 2-49 34-50l24-1V25L423-10h-35l3 97c-36-46-89-97-178-97S62 43 62 158v245c0 29-7 50-39 58l-15 5v36l211 46h33l-6-127V176c0-51 20-80 68-80 30 0 50 8 77 20v287c0 29-7 50-38 58l-15 5v36l210 46h33z"/><glyph glyph-name="utilde" unicode="ũ" horiz-adv-x="647" d="M576 421V115c0-34 2-49 34-50l24-1V25L423-10h-35l3 97c-36-46-89-97-178-97S62 43 62 158v245c0 29-7 50-39 58l-15 5v36l211 46h33l-6-127V176c0-51 20-80 68-80 30 0 50 8 77 20v287c0 29-7 50-38 58l-15 5v36l210 46h33zM388 602c-63 0-93 60-136 60-28 0-46-23-65-56l-36 20c33 86 63 135 117 135 63 0 92-60 136-60 28 0 46 23 65 55l36-19c-34-87-63-135-117-135z"/><glyph glyph-name="wacute" unicode="ẃ" horiz-adv-x="896" d="M468 765h179v-9L470 601h-52zm211-551l89 223c5 12 7 23 7 31 0 21-18 27-57 32v39h173v-39c-35-11-42-18-51-40L643-4h-60L465 305 325-4h-59L56 460c-10 22-16 29-51 40v39h300v-39c-33-5-47-13-47-31 0-8 3-19 8-32l95-233 75 167-34 89c-8 22-19 32-46 40v39h296v-39c-42-5-62-9-62-34 0-8 2-17 6-29z"/><glyph glyph-name="wcircumflex" unicode="ŵ" horiz-adv-x="896" d="M537 766l116-170h-58l-120 85-120-85h-58l116 170h124zm142-552l89 223c5 12 7 23 7 31 0 21-18 27-57 32v39h173v-39c-35-11-42-18-51-40L643-4h-60L465 305 325-4h-59L56 460c-10 22-16 29-51 40v39h300v-39c-33-5-47-13-47-31 0-8 3-19 8-32l95-233 75 167-34 89c-8 22-19 32-46 40v39h296v-39c-42-5-62-9-62-34 0-8 2-17 6-29z"/><glyph glyph-name="wgrave" unicode="ẁ" horiz-adv-x="896" d="M679 214l89 223c5 12 7 23 7 31 0 21-18 27-57 32v39h173v-39c-35-11-42-18-51-40L643-4h-60L465 305 325-4h-59L56 460c-10 22-16 29-51 40v39h300v-39c-33-5-47-13-47-31 0-8 3-19 8-32l95-233 75 167-34 89c-8 22-19 32-46 40v39h296v-39c-42-5-62-9-62-34 0-8 2-17 6-29zM300 765h179l50-164h-51L300 756v9z"/><glyph glyph-name="wdieresis" unicode="ẅ" horiz-adv-x="896" d="M288 687c0 46 37 83 84 83 46 0 84-37 84-83 0-45-38-83-84-83-47 0-84 38-84 83zm204 0c0 46 39 83 83 83 49 0 86-37 86-83 0-45-37-83-86-83-44 0-83 38-83 83zm187-473l89 223c5 12 7 23 7 31 0 21-18 27-57 32v39h173v-39c-35-11-42-18-51-40L643-4h-60L465 305 325-4h-59L56 460c-10 22-16 29-51 40v39h300v-39c-33-5-47-13-47-31 0-8 3-19 8-32l95-233 75 167-34 89c-8 22-19 32-46 40v39h296v-39c-42-5-62-9-62-34 0-8 2-17 6-29z"/><glyph glyph-name="ycircumflex" unicode="ŷ" horiz-adv-x="599" d="M371 182l99 254c5 13 8 20 8 29 0 22-14 28-66 35v39h182v-39c-34-11-42-18-51-40L315-87c-37-88-74-134-144-134-39 0-70 16-84 42v71c26-5 47-10 78-10 56 0 85 16 103 58l16 35L56 460c-10 22-16 29-51 40v39h320v-39c-53-7-66-13-66-35 0-9 3-16 7-28zm32 584l116-170h-58l-120 85-120-85h-58l116 170h124z"/><glyph glyph-name="ygrave" unicode="ỳ" horiz-adv-x="599" d="M371 182l99 254c5 13 8 20 8 29 0 22-14 28-66 35v39h182v-39c-34-11-42-18-51-40L315-87c-37-88-74-134-144-134-39 0-70 16-84 42v71c26-5 47-10 78-10 56 0 85 16 103 58l16 35L56 460c-10 22-16 29-51 40v39h320v-39c-53-7-66-13-66-35 0-9 3-16 7-28zM167 765h179l50-164h-51L167 756v9z"/><glyph glyph-name="zacute" unicode="ź" horiz-adv-x="537" d="M285 765h179v-9L287 601h-52zM18 0v33l284 460h-92c-53 0-86-46-133-152H38l14 230h37l20-33h402v-33L233 46h102c66 0 98 42 150 153h37L500 0H18z"/><glyph glyph-name="zdot" unicode="ż" horiz-adv-x="537" d="M18 0v33l284 460h-92c-53 0-86-46-133-152H38l14 230h37l20-33h402v-33L233 46h102c66 0 98 42 150 153h37L500 0H18zm274 597c-61 0-98 42-98 92s37 93 98 93c60 0 98-43 98-93s-38-92-98-92z"/><glyph glyph-name="caron.Slovak" d="M350 772L234 578h-41l13 205h144v-11z"/><glyph glyph-name="cedilla.alt" d="M151-231l-8 35c72 0 105 22 105 48 0 28-30 33-79 35l30 73h32c68 0 110-30 110-82 0-75-90-109-190-109z"/><glyph glyph-name="grave.cap" d="M124 892h180l49-149h-55L124 883v9z"/><glyph glyph-name="acute.cap" d="M173 892h180v-9L180 743h-56z"/><glyph glyph-name="circumflex.cap" d="M312 896l120-153h-57l-125 70-125-70H68l120 153h124z"/><glyph glyph-name="tilde.cap" d="M310 743c-63 0-94 60-138 60-28 0-47-23-66-56l-36 20c34 86 64 135 118 135 63 0 94-60 138-60 28 0 47 23 66 55l36-19c-34-87-64-135-118-135z"/><glyph glyph-name="macron.cap" d="M110 751v86h292v-86H110z"/><glyph glyph-name="breve.cap" d="M257 740c-94 0-148 57-148 156h46c10-52 56-65 102-65 47 0 93 13 102 65h47c0-99-55-156-149-156z"/><glyph glyph-name="dotaccent.cap" d="M251 741c-61 0-98 43-98 92 0 50 37 93 98 93 60 0 98-43 98-93 0-49-38-92-98-92z"/><glyph glyph-name="dieresis.cap" d="M67 823c0 45 38 83 84 83s85-38 85-83c0-46-39-83-85-83s-84 37-84 83zm206 0c0 45 39 83 83 83 48 0 86-38 86-83 0-46-38-83-86-83-44 0-83 37-83 83z"/><glyph glyph-name="ring.cap" d="M209 827c0-29 18-50 50-50s50 21 50 50c0 30-18 52-50 52s-50-22-50-52zm-54 0c0 57 44 102 104 102s103-45 103-102c0-56-43-100-103-100s-104 44-104 100z"/><glyph glyph-name="hungarumlaut.cap" d="M121 892h150v-9L124 743H71zm180 0h150v-9L304 743h-54z"/><glyph glyph-name="caron.cap" d="M432 897L312 744H188L68 897h57l125-70 125 70h57z"/><glyph glyph-name="exclamdown.cap" horiz-adv-x="293" d="M51 615c0 53 43 97 95 97 53 0 96-44 96-97 0-55-43-99-96-99-52 0-95 44-95 99zm66-147h58L256 0H36z"/><glyph glyph-name="questiondown.cap" horiz-adv-x="467" d="M161 106c0-47 24-77 70-77 57 0 75 49 75 99 0 25-3 42-5 58h110c26-13 40-36 40-65 0-80-87-131-218-131C92-10 12 51 12 160c0 86 50 139 138 191 56 34 79 58 79 107v13h25c47-18 78-56 78-109 0-46-25-88-78-127-51-38-93-71-93-129zm177 509c0-55-43-99-95-99-54 0-96 44-96 99 0 53 42 97 96 97 52 0 95-44 95-97z"/><glyph glyph-name="guilsinglleft.cap" horiz-adv-x="279" d="M23 349v6l187 201h46l-90-204 90-203h-46z"/><glyph glyph-name="guilsinglright.cap" horiz-adv-x="279" d="M256 355v-6L69 149H23l90 203-90 204h46z"/><glyph glyph-name="guillemotleft.cap" horiz-adv-x="469" d="M23 349v6l187 201h46l-90-204 90-203h-46zm190 0v6l187 201h46l-90-204 90-203h-46z"/><glyph glyph-name="guillemotright.cap" horiz-adv-x="469" d="M446 355v-6L259 149h-46l90 203-90 204h46zm-190 0v-6L69 149H23l90 203-90 204h46z"/><glyph glyph-name="slash.cap" horiz-adv-x="361" d="M352 770L87-101H9l265 871h78z"/><glyph glyph-name="backslash.cap" horiz-adv-x="361" d="M274-101L9 770h78l265-871h-78z"/><glyph glyph-name="bar.cap" horiz-adv-x="205" d="M139 770v-871H66v871h73z"/><glyph glyph-name="brokenbar.cap" horiz-adv-x="205" d="M139 770V399H66v371h73zm0-500v-371H66v371h73z"/><glyph glyph-name="periodcentered.cap" horiz-adv-x="262" d="M30 348c0 59 45 101 101 101s101-42 101-101-45-101-101-101S30 289 30 348z"/><glyph glyph-name="bullet.cap" horiz-adv-x="368" d="M30 351c0 87 70 157 154 157 85 0 154-70 154-157 0-85-69-156-154-156-84 0-154 71-154 156z"/><glyph glyph-name="hyphen.cap" horiz-adv-x="320" d="M290 313H30v78h260v-78z"/><glyph glyph-name="endash.cap" horiz-adv-x="540" d="M510 318H30v60h480v-60z"/><glyph glyph-name="emdash.cap" horiz-adv-x="960" d="M930 378v-60H30v60h900z"/><glyph glyph-name="parenleft.cap" horiz-adv-x="371" d="M195 334c0-148 41-305 154-436h-56C150 5 60 170 60 334s90 329 233 436h56C236 639 195 482 195 334z"/><glyph glyph-name="parenright.cap" horiz-adv-x="371" d="M175 334c0 148-41 305-153 436h55c143-107 233-272 233-436S220 5 77-102H22C134 29 175 186 175 334z"/><glyph glyph-name="bracketleft.cap" horiz-adv-x="336" d="M199 671V-2c0-52 25-55 105-60v-39H85v871h219v-39c-80-5-105-8-105-60z"/><glyph glyph-name="bracketright.cap" horiz-adv-x="336" d="M138-2v673c0 52-25 55-105 60v39h218v-871H33v39c80 5 105 8 105 60z"/><glyph glyph-name="braceleft.cap" horiz-adv-x="367" d="M50 325v18c48 10 83 36 83 100v199c0 79 59 128 205 128v-29c-48-6-86-31-86-98V454c0-76-47-105-117-120 70-15 117-44 117-120V27c0-67 38-92 86-98v-29c-146 0-205 49-205 128v197c0 64-35 90-83 100z"/><glyph glyph-name="braceright.cap" horiz-adv-x="375" d="M325 343v-18c-48-10-83-36-83-100V28c0-79-59-128-205-128v29c49 6 86 31 86 98v187c0 76 47 105 117 120-70 15-117 44-117 120v189c0 67-37 92-86 98v29c146 0 205-49 205-128V443c0-64 35-90 83-100z"/><glyph glyph-name="at.cap" horiz-adv-x="885" d="M606 138c-106 0-128 77-112 162-50-92-99-162-175-162-58 0-103 48-103 128 0 137 112 289 257 289 46 0 81-21 96-41l75 33h41l-34-92-55-200c-12-41-7-80 29-80 75 0 140 106 140 257 0 148-103 281-283 281-220 0-358-182-358-401C124 92 274-18 460-18c111 0 185 24 270 75l14-20C672-27 568-67 440-67 223-67 38 64 38 310c0 242 187 443 444 443 231 0 365-148 365-321 0-200-131-294-241-294zm-225 88c56 0 122 126 152 262-9 20-24 32-45 32-79 0-140-142-140-239 0-33 10-55 33-55z"/><glyph glyph-name="onethird" unicode="⅓" horiz-adv-x="792" d="M198 712h32V381c0-35 13-37 68-41v-34H40v34c64 4 70 6 70 41v217H40v31l25 5c66 13 101 36 133 78zM150-10l438 722h55L204-10h-54zm474 228c76-1 128-40 128-106C752 33 676-8 584-8c-97 0-140 38-140 83 0 26 15 40 28 46h67c-4-11-5-18-5-29 0-44 20-71 55-71 33 0 52 27 52 75 0 51-25 82-82 82h-15l-6 21c58 23 75 43 75 76 0 26-15 49-52 49s-61-22-77-43l-24 18c26 54 78 103 158 103 69 0 111-35 111-90 0-56-52-84-105-94z"/><glyph glyph-name="twothirds" unicode="⅔" horiz-adv-x="843" d="M201-10l438 722h54L255-10h-54zm473 228c77-1 129-40 129-106C803 33 727-8 635-8c-97 0-140 38-140 83 0 26 15 40 28 46h67c-4-11-5-18-5-29 0-44 19-71 55-71 33 0 52 27 52 75 0 51-25 82-83 82h-14l-7 21c59 23 75 43 75 76 0 26-14 49-51 49s-61-22-77-43l-25 18c27 54 78 103 159 103 69 0 111-35 111-90 0-56-52-84-106-94zM152 397h108c32 0 41 8 63 42h21l-11-136H30v25l114 107c48 46 69 81 69 124 0 41-22 67-65 67-40 0-69-21-89-44l-21 18c28 57 83 109 164 109 77 0 125-43 125-115 0-86-81-139-175-197z"/><glyph glyph-name="oneeighth" unicode="⅛" horiz-adv-x="831" d="M198 712h37V381c0-35 12-37 67-41v-34H40v34c64 4 70 6 70 41v217H40v31l25 5c66 13 101 36 133 78zM150-10l438 722h55L204-10h-54zm624 323c0-46-43-71-90-75 68-24 106-69 106-122 0-88-79-126-163-126-89 0-167 34-167 98 0 47 40 73 92 81-46 21-79 57-79 109 0 80 64 128 154 128s147-37 147-93zM648 131l-76 30c-16-17-25-37-25-63 0-48 36-75 83-75 40 0 67 21 67 52 0 32-18 42-49 56zm-39 137l53-21c18 16 26 35 26 59 0 41-25 67-65 67-36 0-58-24-58-53 0-26 18-42 44-52z"/><glyph glyph-name="threeeighths" unicode="⅜" horiz-adv-x="854" d="M796 313c0-46-42-71-90-75 69-24 107-69 107-122 0-88-79-126-163-126-90 0-167 34-167 98 0 47 39 73 92 81-47 21-80 57-80 109 0 80 64 128 154 128s147-37 147-93zM670 131l-76 30c-15-17-24-37-24-63 0-48 36-75 82-75 40 0 67 21 67 52 0 32-18 42-49 56zm-38 137l52-21c19 16 26 35 26 59 0 41-24 67-64 67-37 0-58-24-58-53 0-26 17-42 44-52zM173-10l438 722h54L226-10h-53zm46 539c76-2 128-41 128-107 0-78-76-120-168-120-97 0-140 38-140 83 0 26 15 40 28 47h67c-3-12-4-19-4-30 0-43 19-71 54-71 33 0 56 24 56 75s-29 82-86 82h-15l-6 22c58 22 79 42 79 74 0 28-19 50-56 50s-60-21-77-43l-24 18c26 54 78 103 158 103 69 0 111-35 111-90 0-56-52-84-105-93z"/><glyph glyph-name="fiveeighths" unicode="⅝" horiz-adv-x="848" d="M168-10l438 722h54L221-10h-53zm166 736l-22-124H131l-7-40c128 0 215-30 215-135 0-78-59-126-146-126-92 0-150 35-150 83 0 23 18 42 32 48h63c-4-12-5-19-5-30 0-42 19-71 61-71 38 0 59 24 59 59 0 61-56 89-175 89l37 223h151c24 0 29 3 40 24h28zm457-413c0-46-43-71-90-75 69-24 106-69 106-122 0-88-78-126-163-126-89 0-167 34-167 98 0 47 40 73 93 81-47 21-80 57-80 109 0 80 64 128 154 128s147-37 147-93zM665 131l-76 30c-15-17-24-37-24-63 0-48 36-75 82-75 40 0 67 21 67 52 0 32-18 42-49 56zm-39 137l53-21c18 16 26 35 26 59 0 41-24 67-64 67-37 0-58-24-58-53 0-26 17-42 43-52z"/><glyph glyph-name="seveneighths" unicode="⅞" horiz-adv-x="770" d="M273 593H131c-30 0-48-18-63-61H32l32 170h298v-30L163 304H86zM89-10l438 722h54L142-10H89zm623 323c0-46-42-71-89-75 68-24 106-69 106-122 0-88-79-126-163-126-90 0-167 34-167 98 0 47 40 73 92 81-47 21-79 57-79 109 0 80 63 128 153 128s147-37 147-93zM586 131l-75 30c-16-17-25-37-25-63 0-48 36-75 82-75 40 0 67 21 67 52 0 32-18 42-49 56zm-38 137l53-21c18 16 25 35 25 59 0 41-24 67-64 67-36 0-58-24-58-53 0-26 17-42 44-52z"/></font>
</defs>
</svg>
