<svg xmlns="http://www.w3.org/2000/svg" version="1.1"><defs><font id="Urbanist-Bold" horiz-adv-x="484"><font-face font-family="Urbanist" font-weight="700" font-stretch="normal" units-per-em="2000" panose-1="2 11 10 4 4 2 0 0 2 3" ascent="1600" descent="-400" x-height="1000" cap-height="1400" bbox="-280 -500 2909 2081" underline-thickness="50" underline-position="-125" unicode-range="U+000D-FFFD"/><glyph glyph-name=".notdef" horiz-adv-x="1000" d="M100-500v2400h800V-500H100zm100 100h600v2200H200V-400z"/><glyph glyph-name="A" unicode="A" horiz-adv-x="1458" d="M588 1400h281L1378 0h-259l-90 248H429L339 0H80zm-70-908h421l-211 577z"/><glyph glyph-name="Aacute" unicode="Á" horiz-adv-x="1458" d="M588 1400h281L1378 0h-259l-90 248H429L339 0H80zm-70-908h421l-211 577zm147 1018l80 288h244l-162-288H665z"/><glyph glyph-name="Abreve" unicode="Ă" horiz-adv-x="1458" d="M588 1400h281L1378 0h-259l-90 248H429L339 0H80zm-70-908h421l-211 577zm211 996q-91 0-166.5 45T442 1653.5 397 1820h152q0-49 24.5-90t65.5-65.5 90-24.5q50 0 90.5 24t65 65 24.5 91h152q0-93-45-168.5T895.5 1532 729 1488z"/><glyph glyph-name="uni1EB6" unicode="Ặ" horiz-adv-x="1458" d="M588 1400h281L1378 0h-259l-90 248H429L339 0H80zm-70-908h421l-211 577zm213-932q-54 0-91 35.5T603-315q0 53 37 89t90 36 89.5-36 36.5-89q0-54-36-89.5T731-440zm-2 1928q-91 0-166.5 45T442 1653.5 397 1820h152q0-49 24.5-90t65.5-65.5 90-24.5q50 0 90.5 24t65 65 24.5 91h152q0-93-45-168.5T895.5 1532 729 1488z"/><glyph glyph-name="uni01CD" unicode="Ǎ" horiz-adv-x="1458" d="M588 1400h281L1378 0h-259l-90 248H429L339 0H80zm-70-908h421l-211 577zm74 1018l-194 288h163l167-193 166 193h163l-191-288H592z"/><glyph glyph-name="Acircumflex" unicode="Â" horiz-adv-x="1458" d="M588 1400h281L1378 0h-259l-90 248H429L339 0H80zm-70-908h421l-211 577zm347 1306l194-288H896l-168 193-165-193H400l191 288h274z"/><glyph glyph-name="uni1EAC" unicode="Ậ" horiz-adv-x="1458" d="M588 1400h281L1378 0h-259l-90 248H429L339 0H80zm-70-908h421l-211 577zm213-932q-54 0-91 35.5T603-315q0 53 37 89t90 36 89.5-36 36.5-89q0-54-36-89.5T731-440zm134 2238l194-288H896l-168 193-165-193H400l191 288h274z"/><glyph glyph-name="Adieresis" unicode="Ä" horiz-adv-x="1458" d="M588 1400h281L1378 0h-259l-90 248H429L339 0H80zm-70-908h421l-211 577zm14 978q-54 0-91 36t-37 89 37 89.5 91 36.5q52 0 88.5-36.5T657 1595t-36.5-89-88.5-36zm396 0q-54 0-91 36t-37 89 37 89.5 91 36.5q52 0 89-36.5t37-89.5-37-89-89-36z"/><glyph glyph-name="uni01DE" unicode="Ǟ" horiz-adv-x="1458" d="M588 1400h281L1378 0h-259l-90 248H429L339 0H80zm-70-908h421l-211 577zm14 978q-54 0-91 36t-37 89 37 89.5 91 36.5q52 0 88.5-36.5T657 1595t-36.5-89-88.5-36zm396 0q-54 0-91 36t-37 89 37 89.5 91 36.5q52 0 89-36.5t37-89.5-37-89-89-36zm-537 540h676v-183H391v183z"/><glyph glyph-name="uni1EA0" unicode="Ạ" horiz-adv-x="1458" d="M588 1400h281L1378 0h-259l-90 248H429L339 0H80zm-70-908h421l-211 577zm213-932q-54 0-91 35.5T603-315q0 53 37 89t90 36 89.5-36 36.5-89q0-54-36-89.5T731-440z"/><glyph glyph-name="Agrave" unicode="À" horiz-adv-x="1458" d="M588 1400h281L1378 0h-259l-90 248H429L339 0H80zm-70-908h421l-211 577zm-51 1306h244l80-288H628z"/><glyph glyph-name="Amacron" unicode="Ā" horiz-adv-x="1458" d="M588 1400h281L1378 0h-259l-90 248H429L339 0H80zm-70-908h421l-211 577zM391 1727h676v-183H391v183z"/><glyph glyph-name="Aogonek" unicode="Ą" horiz-adv-x="1458" d="M588 1400h281L1378 0h-259l-90 248H429L339 0H80zm-70-908h421l-211 577zm738-944q-71 1-123.5 35t-81.5 88-29 114q0 45 16.5 87.5T1091-49l168 168L1378 0q-37-37-69-67.5t-55.5-57-37-51T1203-224t17-43.5 46-20.5q38 0 66.5 27.5T1361-192h155q0-70-34-129t-93-95-133-36z"/><glyph glyph-name="Aring" unicode="Å" horiz-adv-x="1458" d="M588 1400h281L1378 0h-259l-90 248H429L339 0H80zm-70-908h421l-211 577zm211 976q-77 0-131.5 56T543 1656q0 50 25 92t67.5 67 93.5 25q76 0 130.5-54.5T914 1656q0-78-54.5-133T729 1468zm0 119q27 0 47 20t20 48q0 27-20 46.5t-47 19.5q-28 0-47.5-19.5T662 1656q0-29 19.5-49t47.5-20z"/><glyph glyph-name="Atilde" unicode="Ã" horiz-adv-x="1458" d="M588 1400h281L1378 0h-259l-90 248H429L339 0H80zm-70-908h421l-211 577zm366 1013q-37 0-87.5 26t-101 58-88 51.5-50.5 5.5q-13-13-16-33.5t7-53.5l-143-39q-27 78-13.5 142t60 102.5T572 1803q37 0 84.5-21.5t95.5-50 85-50 53-21.5q20 0 26 14t3 34-10 38l145 47q27-82 11.5-147t-63-103-118.5-38z"/><glyph glyph-name="AE" unicode="Æ" horiz-adv-x="1678" d="M80 0l508 1400h990v-244h-494V822h398V578h-398V244h494V0H840v248H429L339 0H80zm438 492h322v664h-80z"/><glyph glyph-name="uni01E2" unicode="Ǣ" horiz-adv-x="1678" d="M80 0l508 1400h990v-244h-494V822h398V578h-398V244h494V0H840v248H429L339 0H80zm438 492h322v664h-80zm227 1235h676v-183H745v183z"/><glyph glyph-name="B" unicode="B" horiz-adv-x="1174" d="M120 0v1400h510q111 0 200.5-45.5t142-130T1025 1025q0-51-15-103t-46-93.5-80-61.5q65-16 106-58t64-98.5 31.5-115T1094 387q0-111-55-198T891.5 51 687 0H120zm244 209h298q60 0 108 29t77 80 29 116q0 56-29 106t-77 81-108 31H364V209zm0 649h238q74 0 126.5 46t52.5 122q0 81-52.5 122.5T602 1190H364V858z"/><glyph glyph-name="uni1E04" unicode="Ḅ" horiz-adv-x="1174" d="M120 0v1400h510q111 0 200.5-45.5t142-130T1025 1025q0-51-15-103t-46-93.5-80-61.5q65-16 106-58t64-98.5 31.5-115T1094 387q0-111-55-198T891.5 51 687 0H120zm244 209h298q60 0 108 29t77 80 29 116q0 56-29 106t-77 81-108 31H364V209zm0 649h238q74 0 126.5 46t52.5 122q0 81-52.5 122.5T602 1190H364V858zM589-440q-54 0-91 35.5T461-315q0 53 37 89t90 36 89.5-36 36.5-89q0-54-36-89.5T589-440z"/><glyph glyph-name="C" unicode="C" horiz-adv-x="1418" d="M768-26q-142 0-267 56.5T281.5 187t-148 231.5T80 700q0 151 53.5 282.5t148 231 219.5 156 267 56.5q170 0 313-78.5t237-209.5l-218-117q-59 73-146.5 117T768 1182q-92 0-173-37.5t-142-104-95-154T324 700q0-100 34.5-187T454 359.5t141.5-104T768 218q100 0 186.5 44.5T1100 380l218-118q-94-130-237-209T768-26z"/><glyph glyph-name="Cacute" unicode="Ć" horiz-adv-x="1418" d="M768-26q-142 0-267 56.5T281.5 187t-148 231.5T80 700q0 151 53.5 282.5t148 231 219.5 156 267 56.5q170 0 313-78.5t237-209.5l-218-117q-59 73-146.5 117T768 1182q-92 0-173-37.5t-142-104-95-154T324 700q0-100 34.5-187T454 359.5t141.5-104T768 218q100 0 186.5 44.5T1100 380l218-118q-94-130-237-209T768-26zm-63 1536l80 288h244l-162-288H705z"/><glyph glyph-name="Ccaron" unicode="Č" horiz-adv-x="1418" d="M768-26q-142 0-267 56.5T281.5 187t-148 231.5T80 700q0 151 53.5 282.5t148 231 219.5 156 267 56.5q170 0 313-78.5t237-209.5l-218-117q-59 73-146.5 117T768 1182q-92 0-173-37.5t-142-104-95-154T324 700q0-100 34.5-187T454 359.5t141.5-104T768 218q100 0 186.5 44.5T1100 380l218-118q-94-130-237-209T768-26zM632 1510l-194 288h163l167-193 166 193h163l-191-288H632z"/><glyph glyph-name="Ccedilla" unicode="Ç" horiz-adv-x="1418" d="M768-26q-142 0-267 56.5T281.5 187t-148 231.5T80 700q0 151 53.5 282.5t148 231 219.5 156 267 56.5q170 0 313-78.5t237-209.5l-218-117q-59 73-146.5 117T768 1182q-92 0-173-37.5t-142-104-95-154T324 700q0-100 34.5-187T454 359.5t141.5-104T768 218q100 0 186.5 44.5T1100 380l218-118q-94-130-237-209T768-26zm7-350q-71-19-135 18t-83 108l124 33q5-19 23-29t38-5 30.5 22.5T777-190q-5 20-22 28.5t-39 6.5l-128-5L729 88l112-66-38-65q36-14 62.5-44t36.5-71q19-71-18-135t-109-83z"/><glyph glyph-name="Ccircumflex" unicode="Ĉ" horiz-adv-x="1418" d="M768-26q-142 0-267 56.5T281.5 187t-148 231.5T80 700q0 151 53.5 282.5t148 231 219.5 156 267 56.5q170 0 313-78.5t237-209.5l-218-117q-59 73-146.5 117T768 1182q-92 0-173-37.5t-142-104-95-154T324 700q0-100 34.5-187T454 359.5t141.5-104T768 218q100 0 186.5 44.5T1100 380l218-118q-94-130-237-209T768-26zm137 1824l194-288H936l-168 193-165-193H440l191 288h274z"/><glyph glyph-name="Cdotaccent" unicode="Ċ" horiz-adv-x="1418" d="M768-26q-142 0-267 56.5T281.5 187t-148 231.5T80 700q0 151 53.5 282.5t148 231 219.5 156 267 56.5q170 0 313-78.5t237-209.5l-218-117q-59 73-146.5 117T768 1182q-92 0-173-37.5t-142-104-95-154T324 700q0-100 34.5-187T454 359.5t141.5-104T768 218q100 0 186.5 44.5T1100 380l218-118q-94-130-237-209T768-26zm2 1555q-54 0-91 35.5t-37 89.5q0 53 37 89t90 36 89.5-36 36.5-89q0-54-36-89.5t-89-35.5z"/><glyph glyph-name="D" unicode="D" horiz-adv-x="1344" d="M120 0v1400h464q145 0 271.5-54.5t223-151 151-223T1284 700t-54.5-271.5-151-223-223-151T584 0H120zm244 244h220q93 0 175.5 35.5t145.5 98 99 145 36 177.5-36 177-99 145-145 98.5-176 35.5H364V244z"/><glyph glyph-name="Eth" unicode="Ð" horiz-adv-x="1460" d="M237 0v628H100v244h137v528h463q145 0 271.5-54.5t223-151 151-223T1400 700t-54.5-271.5-151-223-223-151T700 0H237zm244 244h219q95 0 177 35.5t145 99 98.5 146T1156 700q0 95-36 177.5t-99 145.5-145.5 98-175.5 35H481V872h276V628H481V244z"/><glyph glyph-name="Dcaron" unicode="Ď" horiz-adv-x="1343" d="M120 0v1400h464q145 0 271.5-54.5t223-151 151-223T1284 700t-54.5-271.5-151-223-223-151T584 0H120zm244 244h220q93 0 175.5 35.5t145.5 98 99 145 36 177.5-36 177-99 145-145 98.5-176 35.5H364V244zm152 1266l-194 288h163l167-193 166 193h163l-191-288H516z"/><glyph glyph-name="uni1E0C" unicode="Ḍ" horiz-adv-x="1343" d="M120 0v1400h464q145 0 271.5-54.5t223-151 151-223T1284 700t-54.5-271.5-151-223-223-151T584 0H120zm244 244h220q93 0 175.5 35.5t145.5 98 99 145 36 177.5-36 177-99 145-145 98.5-176 35.5H364V244zm294-684q-54 0-91 35.5T530-315q0 53 37 89t90 36 89.5-36 36.5-89q0-54-36-89.5T658-440z"/><glyph glyph-name="E" unicode="E" horiz-adv-x="1098" d="M120 0v1400h878v-244H364V872h503V628H364V244h634V0H120z"/><glyph glyph-name="Eacute" unicode="É" horiz-adv-x="1098" d="M120 0v1400h878v-244H364V872h503V628H364V244h634V0H120zm366 1510l80 288h244l-162-288H486z"/><glyph glyph-name="Ecaron" unicode="Ě" horiz-adv-x="1098" d="M120 0v1400h878v-244H364V872h503V628H364V244h634V0H120zm293 1510l-194 288h163l167-193 166 193h163l-191-288H413z"/><glyph glyph-name="Ecircumflex" unicode="Ê" horiz-adv-x="1098" d="M120 0v1400h878v-244H364V872h503V628H364V244h634V0H120zm566 1798l194-288H717l-168 193-165-193H221l191 288h274z"/><glyph glyph-name="uni1EC6" unicode="Ệ" horiz-adv-x="1098" d="M120 0v1400h878v-244H364V872h503V628H364V244h634V0H120zm431-440q-54 0-91 35.5T423-315q0 53 37 89t90 36 89.5-36 36.5-89q0-54-36-89.5T551-440zm135 2238l194-288H717l-168 193-165-193H221l191 288h274z"/><glyph glyph-name="Edieresis" unicode="Ë" horiz-adv-x="1098" d="M120 0v1400h878v-244H364V872h503V628H364V244h634V0H120zm232 1470q-54 0-91 36t-37 89 37 89.5 91 36.5q52 0 88.5-36.5T477 1595t-36.5-89-88.5-36zm396 0q-54 0-91 36t-37 89 37 89.5 91 36.5q52 0 89-36.5t37-89.5-37-89-89-36z"/><glyph glyph-name="Edotaccent" unicode="Ė" horiz-adv-x="1098" d="M120 0v1400h878v-244H364V872h503V628H364V244h634V0H120zm431 1529q-54 0-91 35.5t-37 89.5q0 53 37 89t90 36 89.5-36 36.5-89q0-54-36-89.5t-89-35.5z"/><glyph glyph-name="uni1EB8" unicode="Ẹ" horiz-adv-x="1098" d="M120 0v1400h878v-244H364V872h503V628H364V244h634V0H120zm431-440q-54 0-91 35.5T423-315q0 53 37 89t90 36 89.5-36 36.5-89q0-54-36-89.5T551-440z"/><glyph glyph-name="Egrave" unicode="È" horiz-adv-x="1098" d="M120 0v1400h878v-244H364V872h503V628H364V244h634V0H120zm168 1798h244l80-288H449z"/><glyph glyph-name="Emacron" unicode="Ē" horiz-adv-x="1098" d="M120 0v1400h878v-244H364V872h503V628H364V244h634V0H120zm91 1727h676v-183H211v183z"/><glyph glyph-name="Eogonek" unicode="Ę" horiz-adv-x="1098" d="M120 0v1400h878v-244H364V872h503V628H364V244h634V0H120zm648-452q-71 1-123.5 35T563-329t-29 114q0 45 16.5 87.5T603-49l168 168L890 0q-37-37-69-67.5t-55.5-57-37-51T715-224t17-43.5 46-20.5q38 0 66.5 27.5T873-192h155q0-70-34-129t-93-95-133-36z"/><glyph glyph-name="uni1EBC" unicode="Ẽ" horiz-adv-x="1098" d="M120 0v1400h878v-244H364V872h503V628H364V244h634V0H120zm584 1505q-37 0-87.5 26t-101 58-88 51.5-50.5 5.5q-13-13-16-33.5t7-53.5l-143-39q-27 78-13.5 142t60 102.5T392 1803q37 0 84.5-21.5t95.5-50 85-50 53-21.5q20 0 26 14t3 34-10 38l145 47q27-82 11.5-147t-63-103-118.5-38z"/><glyph glyph-name="F" unicode="F" horiz-adv-x="967" d="M120 0v1400h827v-244H364V872h487V628H364V0H120z"/><glyph glyph-name="G" unicode="G" horiz-adv-x="1537" d="M768-26q-146 0-271.5 57T278 188.5t-145.5 232T80 702q0 158 56.5 290T291 1221t222.5 150 259.5 53q151 0 293.5-70.5T1318 1136l-218-117q-67 82-153.5 122.5T770 1182q-88 0-168.5-36t-143-101.5-98.5-154T324 697q0-99 35-186.5t96.5-153T598 255t174-37q62 0 121.5 19.5t112 56.5 94 90 69.5 120H914v213h542q4-153-48-287t-147-237-221-161-272-58z"/><glyph glyph-name="Gbreve" unicode="Ğ" horiz-adv-x="1536" d="M768-26q-146 0-271.5 57T278 188.5t-145.5 232T80 702q0 158 56.5 290T291 1221t222.5 150 259.5 53q151 0 293.5-70.5T1318 1136l-218-117q-67 82-153.5 122.5T770 1182q-88 0-168.5-36t-143-101.5-98.5-154T324 697q0-99 35-186.5t96.5-153T598 255t174-37q62 0 121.5 19.5t112 56.5 94 90 69.5 120H914v213h542q4-153-48-287t-147-237-221-161-272-58zm2 1514q-91 0-166.5 45T483 1653.5 438 1820h152q0-49 24.5-90t65.5-65.5 90-24.5q50 0 90.5 24t65 65 24.5 91h152q0-93-45-168.5T936.5 1532 770 1488z"/><glyph glyph-name="Gcaron" unicode="Ǧ" horiz-adv-x="1536" d="M768-26q-146 0-271.5 57T278 188.5t-145.5 232T80 702q0 158 56.5 290T291 1221t222.5 150 259.5 53q151 0 293.5-70.5T1318 1136l-218-117q-67 82-153.5 122.5T770 1182q-88 0-168.5-36t-143-101.5-98.5-154T324 697q0-99 35-186.5t96.5-153T598 255t174-37q62 0 121.5 19.5t112 56.5 94 90 69.5 120H914v213h542q4-153-48-287t-147-237-221-161-272-58zM633 1510l-194 288h163l167-193 166 193h163l-191-288H633z"/><glyph glyph-name="Gcircumflex" unicode="Ĝ" horiz-adv-x="1536" d="M768-26q-146 0-271.5 57T278 188.5t-145.5 232T80 702q0 158 56.5 290T291 1221t222.5 150 259.5 53q151 0 293.5-70.5T1318 1136l-218-117q-67 82-153.5 122.5T770 1182q-88 0-168.5-36t-143-101.5-98.5-154T324 697q0-99 35-186.5t96.5-153T598 255t174-37q62 0 121.5 19.5t112 56.5 94 90 69.5 120H914v213h542q4-153-48-287t-147-237-221-161-272-58zm138 1824l194-288H937l-168 193-165-193H441l191 288h274z"/><glyph glyph-name="uni0122" unicode="Ģ" horiz-adv-x="1536" d="M768-26q-146 0-271.5 57T278 188.5t-145.5 232T80 702q0 158 56.5 290T291 1221t222.5 150 259.5 53q151 0 293.5-70.5T1318 1136l-218-117q-67 82-153.5 122.5T770 1182q-88 0-168.5-36t-143-101.5-98.5-154T324 697q0-99 35-186.5t96.5-153T598 255t174-37q62 0 121.5 19.5t112 56.5 94 90 69.5 120H914v213h542q4-153-48-287t-147-237-221-161-272-58zM585-441l62 338h244L748-441H585z"/><glyph glyph-name="Gdotaccent" unicode="Ġ" horiz-adv-x="1536" d="M768-26q-146 0-271.5 57T278 188.5t-145.5 232T80 702q0 158 56.5 290T291 1221t222.5 150 259.5 53q151 0 293.5-70.5T1318 1136l-218-117q-67 82-153.5 122.5T770 1182q-88 0-168.5-36t-143-101.5-98.5-154T324 697q0-99 35-186.5t96.5-153T598 255t174-37q62 0 121.5 19.5t112 56.5 94 90 69.5 120H914v213h542q4-153-48-287t-147-237-221-161-272-58zm3 1555q-54 0-91 35.5t-37 89.5q0 53 37 89t90 36 89.5-36 36.5-89q0-54-36-89.5t-89-35.5z"/><glyph glyph-name="uni1E20" unicode="Ḡ" horiz-adv-x="1536" d="M768-26q-146 0-271.5 57T278 188.5t-145.5 232T80 702q0 158 56.5 290T291 1221t222.5 150 259.5 53q151 0 293.5-70.5T1318 1136l-218-117q-67 82-153.5 122.5T770 1182q-88 0-168.5-36t-143-101.5-98.5-154T324 697q0-99 35-186.5t96.5-153T598 255t174-37q62 0 121.5 19.5t112 56.5 94 90 69.5 120H914v213h542q4-153-48-287t-147-237-221-161-272-58zM432 1727h676v-183H432v183z"/><glyph glyph-name="H" unicode="H" horiz-adv-x="1308" d="M944 1400h244V0H944v628H364V0H120v1400h244V872h580v528z"/><glyph glyph-name="Hcircumflex" unicode="Ĥ" horiz-adv-x="1308" d="M944 1400h244V0H944v628H364V0H120v1400h244V872h580v528zm-154 398l194-288H821l-168 193-165-193H325l191 288h274z"/><glyph glyph-name="uni1E24" unicode="Ḥ" horiz-adv-x="1308" d="M944 1400h244V0H944v628H364V0H120v1400h244V872h580v528zM655-440q-54 0-91 35.5T527-315q0 53 37 89t90 36 89.5-36 36.5-89q0-54-36-89.5T655-440z"/><glyph glyph-name="I" unicode="I" horiz-adv-x="544" d="M150 0v1400h244V0H150z"/><glyph glyph-name="IJ" unicode="Ĳ" horiz-adv-x="1432" d="M150 0v1400h244V0H150zm718-26q-77 0-150.5 26T584 77l156 188q22-18 54-32.5t74-14.5q55 0 100 28.5t72.5 75T1068 423v977h244V423q0-123-60-224.5t-161-163T868-26z"/><glyph glyph-name="Iacute" unicode="Í" horiz-adv-x="544" d="M150 0v1400h244V0H150zm59 1510l80 288h244l-162-288H209z"/><glyph glyph-name="uni01CF" unicode="Ǐ" horiz-adv-x="544" d="M150 0v1400h244V0H150zm-14 1510l-194 288h163l167-193 166 193h163l-191-288H136z"/><glyph glyph-name="Icircumflex" unicode="Î" horiz-adv-x="544" d="M150 0v1400h244V0H150zm259 1798l194-288H440l-168 193-165-193H-56l191 288h274z"/><glyph glyph-name="Idieresis" unicode="Ï" horiz-adv-x="544" d="M150 0v1400h244V0H150zM75 1470q-54 0-91 36t-37 89 37 89.5 91 36.5q52 0 88.5-36.5T200 1595t-36.5-89-88.5-36zm396 0q-54 0-91 36t-37 89 37 89.5 91 36.5q52 0 89-36.5t37-89.5-37-89-89-36z"/><glyph glyph-name="uni1E2E" unicode="Ḯ" horiz-adv-x="544" d="M150 0v1400h244V0H150zM75 1470q-54 0-91 36t-37 89 37 89.5 91 36.5q52 0 88.5-36.5T200 1595t-36.5-89-88.5-36zm396 0q-54 0-91 36t-37 89 37 89.5 91 36.5q52 0 89-36.5t37-89.5-37-89-89-36zm-262 323l80 288h244l-162-288H209z"/><glyph glyph-name="Idotaccent" unicode="İ" horiz-adv-x="544" d="M150 0v1400h244V0H150zm124 1529q-54 0-91 35.5t-37 89.5q0 53 37 89t90 36 89.5-36 36.5-89q0-54-36-89.5t-89-35.5z"/><glyph glyph-name="uni1ECA" unicode="Ị" horiz-adv-x="544" d="M150 0v1400h244V0H150zm124-440q-54 0-91 35.5T146-315q0 53 37 89t90 36 89.5-36 36.5-89q0-54-36-89.5T274-440z"/><glyph glyph-name="Igrave" unicode="Ì" horiz-adv-x="544" d="M150 0v1400h244V0H150zM11 1798h244l80-288H172z"/><glyph glyph-name="Imacron" unicode="Ī" horiz-adv-x="544" d="M150 0v1400h244V0H150zM-66 1727h676v-183H-66v183z"/><glyph glyph-name="Iogonek" unicode="Į" horiz-adv-x="544" d="M150 0v1400h244V0H150zm122-452q-71 1-123.5 35T67-329 38-215q0 45 16.5 87.5T107-49l168 168L394 0q-37-37-69-67.5t-55.5-57-37-51T219-224t17-43.5 46-20.5q38 0 66.5 27.5T377-192h155q0-70-34-129t-93-95-133-36z"/><glyph glyph-name="Itilde" unicode="Ĩ" horiz-adv-x="544" d="M150 0v1400h244V0H150zm277 1505q-37 0-87.5 26t-101 58-88 51.5-50.5 5.5q-13-13-16-33.5t7-53.5l-143-39q-27 78-13.5 142t60 102.5T115 1803q37 0 84.5-21.5t95.5-50 85-50 53-21.5q20 0 26 14t3 34-10 38l145 47q27-82 11.5-147t-63-103-118.5-38z"/><glyph glyph-name="J" unicode="J" horiz-adv-x="888" d="M324-26q-77 0-150.5 26T40 77l156 188q22-18 54-32.5t74-14.5q55 0 100 28.5t72.5 75T524 423v977h244V423q0-123-60-224.5t-161-163T324-26z"/><glyph glyph-name="Jcircumflex" unicode="Ĵ" horiz-adv-x="888" d="M324-26q-77 0-150.5 26T40 77l156 188q22-18 54-32.5t74-14.5q55 0 100 28.5t72.5 75T524 423v977h244V423q0-123-60-224.5t-161-163T324-26zm459 1824l194-288H814l-168 193-165-193H318l191 288h274z"/><glyph glyph-name="K" unicode="K" horiz-adv-x="1173" d="M1143 0H825L432 549l-68-81V0H120v1400h244V847l463 553h319L591 740z"/><glyph glyph-name="uni01E8" unicode="Ǩ" horiz-adv-x="1173" d="M1143 0H825L432 549l-68-81V0H120v1400h244V847l463 553h319L591 740zM450 1510l-194 288h163l167-193 166 193h163l-191-288H450z"/><glyph glyph-name="uni0136" unicode="Ķ" horiz-adv-x="1173" d="M1143 0H825L432 549l-68-81V0H120v1400h244V847l463 553h319L591 740zM402-441l62 338h244L565-441H402z"/><glyph glyph-name="L" unicode="L" horiz-adv-x="1047" d="M120 0v1400h244V244h583V0H120z"/><glyph glyph-name="Lacute" unicode="Ĺ" horiz-adv-x="1047" d="M120 0v1400h244V244h583V0H120zm59 1510l80 288h244l-162-288H179z"/><glyph glyph-name="Lcaron" unicode="Ľ" horiz-adv-x="1047" d="M120 0v1400h244V244h583V0H120zm463 1212l80 288h244l-162-288H583z"/><glyph glyph-name="uni013B" unicode="Ļ" horiz-adv-x="1047" d="M120 0v1400h244V244h583V0H120zm229-441l62 338h244L512-441H349z"/><glyph glyph-name="uni1E36" unicode="Ḷ" horiz-adv-x="1047" d="M120 0v1400h244V244h583V0H120zm415-440q-54 0-91 35.5T407-315q0 53 37 89t90 36 89.5-36 36.5-89q0-54-36-89.5T535-440z"/><glyph glyph-name="M" unicode="M" horiz-adv-x="1870" d="M120 0l272 1400h202l341-897 341 897h202L1750 0h-249l-168 866-315-834H851L536 866 369 0H120z"/><glyph glyph-name="uni1E3E" unicode="Ḿ" horiz-adv-x="1870" d="M120 0l272 1400h202l341-897 341 897h202L1750 0h-249l-168 866-315-834H851L536 866 369 0H120zm752 1510l80 288h244l-162-288H872z"/><glyph glyph-name="uni1E40" unicode="Ṁ" horiz-adv-x="1870" d="M120 0l272 1400h202l341-897 341 897h202L1750 0h-249l-168 866-315-834H851L536 866 369 0H120zm817 1529q-54 0-91 35.5t-37 89.5q0 53 37 89t90 36 89.5-36 36.5-89q0-54-36-89.5t-89-35.5z"/><glyph glyph-name="uni1E42" unicode="Ṃ" horiz-adv-x="1870" d="M120 0l272 1400h202l341-897 341 897h202L1750 0h-249l-168 866-315-834H851L536 866 369 0H120zm817-440q-54 0-91 35.5T809-315q0 53 37 89t90 36 89.5-36 36.5-89q0-54-36-89.5T937-440z"/><glyph glyph-name="N" unicode="N" horiz-adv-x="1339" d="M120 0v1400h264l591-959v959h244V0H956L364 959V0H120z"/><glyph glyph-name="Nacute" unicode="Ń" horiz-adv-x="1339" d="M120 0v1400h264l591-959v959h244V0H956L364 959V0H120zm486 1510l80 288h244l-162-288H606z"/><glyph glyph-name="Ncaron" unicode="Ň" horiz-adv-x="1339" d="M120 0v1400h264l591-959v959h244V0H956L364 959V0H120zm413 1510l-194 288h163l167-193 166 193h163l-191-288H533z"/><glyph glyph-name="uni0145" unicode="Ņ" horiz-adv-x="1339" d="M120 0v1400h264l591-959v959h244V0H956L364 959V0H120zm365-441l62 338h244L648-441H485z"/><glyph glyph-name="uni1E44" unicode="Ṅ" horiz-adv-x="1339" d="M120 0v1400h264l591-959v959h244V0H956L364 959V0H120zm551 1529q-54 0-91 35.5t-37 89.5q0 53 37 89t90 36 89.5-36 36.5-89q0-54-36-89.5t-89-35.5z"/><glyph glyph-name="uni1E46" unicode="Ṇ" horiz-adv-x="1339" d="M120 0v1400h264l591-959v959h244V0H956L364 959V0H120zm551-440q-54 0-91 35.5T543-315q0 53 37 89t90 36 89.5-36 36.5-89q0-54-36-89.5T671-440z"/><glyph glyph-name="Ntilde" unicode="Ñ" horiz-adv-x="1339" d="M120 0v1400h264l591-959v959h244V0H956L364 959V0H120zm705 1505q-37 0-87.5 26t-101 58-88 51.5-50.5 5.5q-13-13-16-33.5t7-53.5l-143-39q-27 78-13.5 142t60 102.5T513 1803q37 0 84.5-21.5t95.5-50 85-50 53-21.5q20 0 26 14t3 34-10 38l145 47q27-82 11.5-147t-63-103-118.5-38z"/><glyph glyph-name="O" unicode="O" horiz-adv-x="1540" d="M770-26q-142 0-267 56.5T283 187 134 418.5 80 700t54 281.5T283 1213t220 156.5 267 56.5q143 0 268-56.5t220-156.5 148.5-231.5T1460 700t-53.5-281.5T1258 187 1038 30.5 770-26zm0 244q92 0 173 38t142.5 104.5 96 153.5 34.5 186-35 186.5-96.5 153.5-142 104-172.5 38-173-38-142.5-104.5-96-153.5T324 700q0-100 35-187t96.5-153.5 142-104T770 218z"/><glyph glyph-name="Oacute" unicode="Ó" horiz-adv-x="1540" d="M770-26q-142 0-267 56.5T283 187 134 418.5 80 700t54 281.5T283 1213t220 156.5 267 56.5q143 0 268-56.5t220-156.5 148.5-231.5T1460 700t-53.5-281.5T1258 187 1038 30.5 770-26zm0 244q92 0 173 38t142.5 104.5 96 153.5 34.5 186-35 186.5-96.5 153.5-142 104-172.5 38-173-38-142.5-104.5-96-153.5T324 700q0-100 35-187t96.5-153.5 142-104T770 218zm-63 1292l80 288h244l-162-288H707z"/><glyph glyph-name="uni01D1" unicode="Ǒ" horiz-adv-x="1540" d="M770-26q-142 0-267 56.5T283 187 134 418.5 80 700t54 281.5T283 1213t220 156.5 267 56.5q143 0 268-56.5t220-156.5 148.5-231.5T1460 700t-53.5-281.5T1258 187 1038 30.5 770-26zm0 244q92 0 173 38t142.5 104.5 96 153.5 34.5 186-35 186.5-96.5 153.5-142 104-172.5 38-173-38-142.5-104.5-96-153.5T324 700q0-100 35-187t96.5-153.5 142-104T770 218zM634 1510l-194 288h163l167-193 166 193h163l-191-288H634z"/><glyph glyph-name="Ocircumflex" unicode="Ô" horiz-adv-x="1540" d="M770-26q-142 0-267 56.5T283 187 134 418.5 80 700t54 281.5T283 1213t220 156.5 267 56.5q143 0 268-56.5t220-156.5 148.5-231.5T1460 700t-53.5-281.5T1258 187 1038 30.5 770-26zm0 244q92 0 173 38t142.5 104.5 96 153.5 34.5 186-35 186.5-96.5 153.5-142 104-172.5 38-173-38-142.5-104.5-96-153.5T324 700q0-100 35-187t96.5-153.5 142-104T770 218zm137 1580l194-288H938l-168 193-165-193H442l191 288h274z"/><glyph glyph-name="uni1ED8" unicode="Ộ" horiz-adv-x="1540" d="M770-26q-142 0-267 56.5T283 187 134 418.5 80 700t54 281.5T283 1213t220 156.5 267 56.5q143 0 268-56.5t220-156.5 148.5-231.5T1460 700t-53.5-281.5T1258 187 1038 30.5 770-26zm0 244q92 0 173 38t142.5 104.5 96 153.5 34.5 186-35 186.5-96.5 153.5-142 104-172.5 38-173-38-142.5-104.5-96-153.5T324 700q0-100 35-187t96.5-153.5 142-104T770 218zm2-658q-54 0-91 35.5T644-315q0 53 37 89t90 36 89.5-36 36.5-89q0-54-36-89.5T772-440zm135 2238l194-288H938l-168 193-165-193H442l191 288h274z"/><glyph glyph-name="Odieresis" unicode="Ö" horiz-adv-x="1540" d="M770-26q-142 0-267 56.5T283 187 134 418.5 80 700t54 281.5T283 1213t220 156.5 267 56.5q143 0 268-56.5t220-156.5 148.5-231.5T1460 700t-53.5-281.5T1258 187 1038 30.5 770-26zm0 244q92 0 173 38t142.5 104.5 96 153.5 34.5 186-35 186.5-96.5 153.5-142 104-172.5 38-173-38-142.5-104.5-96-153.5T324 700q0-100 35-187t96.5-153.5 142-104T770 218zM573 1470q-54 0-91 36t-37 89 37 89.5 91 36.5q52 0 88.5-36.5T698 1595t-36.5-89-88.5-36zm396 0q-54 0-91 36t-37 89 37 89.5 91 36.5q52 0 89-36.5t37-89.5-37-89-89-36z"/><glyph glyph-name="uni022A" unicode="Ȫ" horiz-adv-x="1540" d="M770-26q-142 0-267 56.5T283 187 134 418.5 80 700t54 281.5T283 1213t220 156.5 267 56.5q143 0 268-56.5t220-156.5 148.5-231.5T1460 700t-53.5-281.5T1258 187 1038 30.5 770-26zm0 244q92 0 173 38t142.5 104.5 96 153.5 34.5 186-35 186.5-96.5 153.5-142 104-172.5 38-173-38-142.5-104.5-96-153.5T324 700q0-100 35-187t96.5-153.5 142-104T770 218zM573 1470q-54 0-91 36t-37 89 37 89.5 91 36.5q52 0 88.5-36.5T698 1595t-36.5-89-88.5-36zm396 0q-54 0-91 36t-37 89 37 89.5 91 36.5q52 0 89-36.5t37-89.5-37-89-89-36zm-537 540h676v-183H432v183z"/><glyph glyph-name="uni1ECC" unicode="Ọ" horiz-adv-x="1540" d="M770-26q-142 0-267 56.5T283 187 134 418.5 80 700t54 281.5T283 1213t220 156.5 267 56.5q143 0 268-56.5t220-156.5 148.5-231.5T1460 700t-53.5-281.5T1258 187 1038 30.5 770-26zm0 244q92 0 173 38t142.5 104.5 96 153.5 34.5 186-35 186.5-96.5 153.5-142 104-172.5 38-173-38-142.5-104.5-96-153.5T324 700q0-100 35-187t96.5-153.5 142-104T770 218zm2-658q-54 0-91 35.5T644-315q0 53 37 89t90 36 89.5-36 36.5-89q0-54-36-89.5T772-440z"/><glyph glyph-name="Ograve" unicode="Ò" horiz-adv-x="1540" d="M770-26q-142 0-267 56.5T283 187 134 418.5 80 700t54 281.5T283 1213t220 156.5 267 56.5q143 0 268-56.5t220-156.5 148.5-231.5T1460 700t-53.5-281.5T1258 187 1038 30.5 770-26zm0 244q92 0 173 38t142.5 104.5 96 153.5 34.5 186-35 186.5-96.5 153.5-142 104-172.5 38-173-38-142.5-104.5-96-153.5T324 700q0-100 35-187t96.5-153.5 142-104T770 218zM509 1798h244l80-288H670z"/><glyph glyph-name="Ohungarumlaut" unicode="Ő" horiz-adv-x="1540" d="M770-26q-142 0-267 56.5T283 187 134 418.5 80 700t54 281.5T283 1213t220 156.5 267 56.5q143 0 268-56.5t220-156.5 148.5-231.5T1460 700t-53.5-281.5T1258 187 1038 30.5 770-26zm0 244q92 0 173 38t142.5 104.5 96 153.5 34.5 186-35 186.5-96.5 153.5-142 104-172.5 38-173-38-142.5-104.5-96-153.5T324 700q0-100 35-187t96.5-153.5 142-104T770 218zm114 1292l80 288h244l-162-288H884zm-335 0l80 288h244l-162-288H549z"/><glyph glyph-name="Omacron" unicode="Ō" horiz-adv-x="1540" d="M770-26q-142 0-267 56.5T283 187 134 418.5 80 700t54 281.5T283 1213t220 156.5 267 56.5q143 0 268-56.5t220-156.5 148.5-231.5T1460 700t-53.5-281.5T1258 187 1038 30.5 770-26zm0 244q92 0 173 38t142.5 104.5 96 153.5 34.5 186-35 186.5-96.5 153.5-142 104-172.5 38-173-38-142.5-104.5-96-153.5T324 700q0-100 35-187t96.5-153.5 142-104T770 218zM432 1727h676v-183H432v183z"/><glyph glyph-name="Oslash" unicode="Ø" horiz-adv-x="1540" d="M446-108L234 14l82 143q-106 99-171 240T80 700q0 150 54 281.5T283 1213t220 156.5 267 56.5q67 0 129.5-13t120.5-37l76 132 212-122-83-142q108-99 171.5-240t63.5-304q0-150-53.5-281.5T1258 187 1038 30.5 770-26q-65 0-127 13.5T522 26zm0 490l449 776q-28 12-60 18t-65 6q-92 0-173-38t-142.5-104.5-96-153.5T324 700q0-93 33-175t89-143zm324-164q92 0 173 38t142.5 104.5 96 153.5 34.5 186q0 93-32 175.5t-88 143.5L647 243q29-12 60.5-18.5T770 218z"/><glyph glyph-name="Otilde" unicode="Õ" horiz-adv-x="1540" d="M770-26q-142 0-267 56.5T283 187 134 418.5 80 700t54 281.5T283 1213t220 156.5 267 56.5q143 0 268-56.5t220-156.5 148.5-231.5T1460 700t-53.5-281.5T1258 187 1038 30.5 770-26zm0 244q92 0 173 38t142.5 104.5 96 153.5 34.5 186-35 186.5-96.5 153.5-142 104-172.5 38-173-38-142.5-104.5-96-153.5T324 700q0-100 35-187t96.5-153.5 142-104T770 218zm155 1287q-37 0-87.5 26t-101 58-88 51.5-50.5 5.5q-13-13-16-33.5t7-53.5l-143-39q-27 78-13.5 142t60 102.5T613 1803q37 0 84.5-21.5t95.5-50 85-50 53-21.5q20 0 26 14t3 34-10 38l145 47q27-82 11.5-147t-63-103-118.5-38z"/><glyph glyph-name="OE" unicode="Œ" horiz-adv-x="2122" d="M770-26q-142 0-267 56.5T283 187 134 418.5 80 700t54 281.5T283 1213t220 156.5 267 56.5q89 0 170.5-25t152.5-69.5 126-105.5v174h803v-244h-559V822h463V578h-463V244h559V0h-803v174q-55-61-126-105.5T940.5-1 770-26zm0 244q92 0 173 38t142.5 104.5 96 153.5 34.5 186-35 186.5-96.5 153.5-142 104-172.5 38-173-38-142.5-104.5-96-153.5T324 700q0-100 35-187t96.5-153.5 142-104T770 218z"/><glyph glyph-name="P" unicode="P" horiz-adv-x="1107" d="M120 0v1400h500q114 0 206.5-57T973 1190t54-211q0-118-55.5-213.5T823 613.5 620 557H364V0H120zm244 801h230q52 0 95 26t68.5 70 25.5 98q0 55-25.5 99t-68.5 70-95 26H364V801z"/><glyph glyph-name="Thorn" unicode="Þ" horiz-adv-x="1087" d="M120 0v1400h244v-279h256q114 0 206.5-57T973 911.5t54-211.5q0-117-55.5-212.5T823 335.5 620 279H364V0H120zm244 523h230q52 0 95 26t68.5 69.5T783 717q0 54-25.5 98T689 885t-95 26H364V523z"/><glyph glyph-name="Q" unicode="Q" horiz-adv-x="1573" d="M1320-42l-156 154q-82-62-182.5-97T770-20q-142 0-267 56.5t-220 156T134 424 80 706t54 281.5T283 1219t220 156.5 267 56.5q143 0 268-56.5t220-156.5 148.5-231.5T1460 706q0-117-34-222.5T1333 289l159-159zM770 224q58 0 114 17.5T987 291L860 418l172 173 119-120q32 52 48.5 112t16.5 123q0 100-35 187t-96.5 153.5-142 104T770 1188t-173-38-142.5-104.5-96-153.5T324 706t35-186.5 96.5-154 142-104T770 224z"/><glyph glyph-name="R" unicode="R" horiz-adv-x="1213" d="M120 0v1400h537q114 0 206-57t146-152.5 54-211.5q0-95-34.5-174.5t-96-137.5T791 579L1126 0H845L521 557H364V0H120zm244 801h265q52 0 95 26t69 70 26 98q0 55-26 99t-69 70-95 26H364V801z"/><glyph glyph-name="Racute" unicode="Ŕ" horiz-adv-x="1213" d="M120 0v1400h537q114 0 206-57t146-152.5 54-211.5q0-95-34.5-174.5t-96-137.5T791 579L1126 0H845L521 557H364V0H120zm244 801h265q52 0 95 26t69 70 26 98q0 55-26 99t-69 70-95 26H364V801zm66 709l80 288h244l-162-288H430z"/><glyph glyph-name="Rcaron" unicode="Ř" horiz-adv-x="1213" d="M120 0v1400h537q114 0 206-57t146-152.5 54-211.5q0-95-34.5-174.5t-96-137.5T791 579L1126 0H845L521 557H364V0H120zm244 801h265q52 0 95 26t69 70 26 98q0 55-26 99t-69 70-95 26H364V801zm-7 709l-194 288h163l167-193 166 193h163l-191-288H357z"/><glyph glyph-name="uni0156" unicode="Ŗ" horiz-adv-x="1213" d="M120 0v1400h537q114 0 206-57t146-152.5 54-211.5q0-95-34.5-174.5t-96-137.5T791 579L1126 0H845L521 557H364V0H120zm244 801h265q52 0 95 26t69 70 26 98q0 55-26 99t-69 70-95 26H364V801zm55-1242l62 338h244L582-441H419z"/><glyph glyph-name="S" unicode="S" horiz-adv-x="1249" d="M624-26q-116 0-222.5 36.5T215 115.5 100 280l229 84q14-40 57-73t105-53 133-20q73 0 136.5 22.5t102.5 63 39 94.5q0 55-41 90.5T756 545t-132 32q-149 23-267 71T170.5 781 102 1001q0 127 73 222t192 148 257 53q115 0 222-36t187.5-105 115.5-166l-230-83q-14 40-57 73t-105 52.5-133 19.5q-71 1-134.5-22.5T386 1093t-40-92q0-67 37.5-101T484 850.5 624 822q140-22 259-74t191-138.5 72-211.5q0-127-72-222.5T883 27 624-26z"/><glyph glyph-name="Sacute" unicode="Ś" horiz-adv-x="1249" d="M624-26q-116 0-222.5 36.5T215 115.5 100 280l229 84q14-40 57-73t105-53 133-20q73 0 136.5 22.5t102.5 63 39 94.5q0 55-41 90.5T756 545t-132 32q-149 23-267 71T170.5 781 102 1001q0 127 73 222t192 148 257 53q115 0 222-36t187.5-105 115.5-166l-230-83q-14 40-57 73t-105 52.5-133 19.5q-71 1-134.5-22.5T386 1093t-40-92q0-67 37.5-101T484 850.5 624 822q140-22 259-74t191-138.5 72-211.5q0-127-72-222.5T883 27 624-26zm-63 1536l80 288h244l-162-288H561z"/><glyph glyph-name="Scaron" unicode="Š" horiz-adv-x="1249" d="M624-26q-116 0-222.5 36.5T215 115.5 100 280l229 84q14-40 57-73t105-53 133-20q73 0 136.5 22.5t102.5 63 39 94.5q0 55-41 90.5T756 545t-132 32q-149 23-267 71T170.5 781 102 1001q0 127 73 222t192 148 257 53q115 0 222-36t187.5-105 115.5-166l-230-83q-14 40-57 73t-105 52.5-133 19.5q-71 1-134.5-22.5T386 1093t-40-92q0-67 37.5-101T484 850.5 624 822q140-22 259-74t191-138.5 72-211.5q0-127-72-222.5T883 27 624-26zM488 1510l-194 288h163l167-193 166 193h163l-191-288H488z"/><glyph glyph-name="Scedilla" unicode="Ş" horiz-adv-x="1249" d="M624-26q-116 0-222.5 36.5T215 115.5 100 280l229 84q14-40 57-73t105-53 133-20q73 0 136.5 22.5t102.5 63 39 94.5q0 55-41 90.5T756 545t-132 32q-149 23-267 71T170.5 781 102 1001q0 127 73 222t192 148 257 53q115 0 222-36t187.5-105 115.5-166l-230-83q-14 40-57 73t-105 52.5-133 19.5q-71 1-134.5-22.5T386 1093t-40-92q0-67 37.5-101T484 850.5 624 822q140-22 259-74t191-138.5 72-211.5q0-127-72-222.5T883 27 624-26zm86-350q-71-19-135 18t-83 108l124 33q5-19 23-29t38-5 30.5 22.5T712-190q-5 20-22 28.5t-39 6.5l-128-5L664 88l112-66-38-65q36-14 62.5-44t36.5-71q19-71-18-135t-109-83z"/><glyph glyph-name="Scircumflex" unicode="Ŝ" horiz-adv-x="1249" d="M624-26q-116 0-222.5 36.5T215 115.5 100 280l229 84q14-40 57-73t105-53 133-20q73 0 136.5 22.5t102.5 63 39 94.5q0 55-41 90.5T756 545t-132 32q-149 23-267 71T170.5 781 102 1001q0 127 73 222t192 148 257 53q115 0 222-36t187.5-105 115.5-166l-230-83q-14 40-57 73t-105 52.5-133 19.5q-71 1-134.5-22.5T386 1093t-40-92q0-67 37.5-101T484 850.5 624 822q140-22 259-74t191-138.5 72-211.5q0-127-72-222.5T883 27 624-26zm137 1824l194-288H792l-168 193-165-193H296l191 288h274z"/><glyph glyph-name="uni0218" unicode="Ș" horiz-adv-x="1249" d="M624-26q-116 0-222.5 36.5T215 115.5 100 280l229 84q14-40 57-73t105-53 133-20q73 0 136.5 22.5t102.5 63 39 94.5q0 55-41 90.5T756 545t-132 32q-149 23-267 71T170.5 781 102 1001q0 127 73 222t192 148 257 53q115 0 222-36t187.5-105 115.5-166l-230-83q-14 40-57 73t-105 52.5-133 19.5q-71 1-134.5-22.5T386 1093t-40-92q0-67 37.5-101T484 850.5 624 822q140-22 259-74t191-138.5 72-211.5q0-127-72-222.5T883 27 624-26zM519-441l62 338h244L682-441H519z"/><glyph glyph-name="uni1E62" unicode="Ṣ" horiz-adv-x="1249" d="M624-26q-116 0-222.5 36.5T215 115.5 100 280l229 84q14-40 57-73t105-53 133-20q73 0 136.5 22.5t102.5 63 39 94.5q0 55-41 90.5T756 545t-132 32q-149 23-267 71T170.5 781 102 1001q0 127 73 222t192 148 257 53q115 0 222-36t187.5-105 115.5-166l-230-83q-14 40-57 73t-105 52.5-133 19.5q-71 1-134.5-22.5T386 1093t-40-92q0-67 37.5-101T484 850.5 624 822q140-22 259-74t191-138.5 72-211.5q0-127-72-222.5T883 27 624-26zm81-414q-54 0-91 35.5T577-315q0 53 37 89t90 36 89.5-36 36.5-89q0-54-36-89.5T705-440z"/><glyph glyph-name="uni1E9E" unicode="ẞ" horiz-adv-x="1205" d="M120 0v898q0 104 39 195t108 159.5 160 108 194 39.5q102 0 192.5-41.5t146.5-112 56-158.5q0-47-27-91.5T909 890 778 731q69 12 134.5-11.5t118-71.5 83.5-110.5 31-129.5q0-99-41-175T995 105 844 26.5 677 0h-58l-51 209h85q59 0 122.5 19T883 291t44 119q0 74-44 118t-107.5 63T652 610h-78l-1 92q0 39 19.5 85.5t49 93.5 58.5 89 49 74 20 48q0 44-27 64.5t-70.5 26.5-94.5 6q-55 0-104-30.5t-79-82.5-30-116V0H120z"/><glyph glyph-name="T" unicode="T" horiz-adv-x="1260" d="M1180 1400v-244H752V0H508v1156H80v244h1100z"/><glyph glyph-name="Tcaron" unicode="Ť" horiz-adv-x="1259" d="M1180 1400v-244H752V0H508v1156H80v244h1100zm-687 110l-194 288h163l167-193 166 193h163l-191-288H493z"/><glyph glyph-name="uni0162" unicode="Ţ" horiz-adv-x="1259" d="M1180 1400v-244H752V0H508v1156H80v244h1100zM637-376q-71-19-135 18t-83 108l124 33q5-19 23-29t38-5 30.5 22.5T639-190q-5 20-22 28.5t-39 6.5l-128-5L591 88l112-66-38-65q36-14 62.5-44t36.5-71q19-71-18-135t-109-83z"/><glyph glyph-name="uni021A" unicode="Ț" horiz-adv-x="1259" d="M1180 1400v-244H752V0H508v1156H80v244h1100zM446-441l62 338h244L609-441H446z"/><glyph glyph-name="uni1E6C" unicode="Ṭ" horiz-adv-x="1259" d="M1180 1400v-244H752V0H508v1156H80v244h1100zM631-440q-54 0-91 35.5T503-315q0 53 37 89t90 36 89.5-36 36.5-89q0-54-36-89.5T631-440z"/><glyph glyph-name="U" unicode="U" horiz-adv-x="1360" d="M681-26q-168 0-294.5 82T190 276.5 120 584v816h244V584q0-100 37.5-183.5t108-133T681 218q102 0 172 49.5t106.5 133T996 584v816h244V584q0-127-40-237.5T1086 152 909.5 21 681-26z"/><glyph glyph-name="Uacute" unicode="Ú" horiz-adv-x="1360" d="M681-26q-168 0-294.5 82T190 276.5 120 584v816h244V584q0-100 37.5-183.5t108-133T681 218q102 0 172 49.5t106.5 133T996 584v816h244V584q0-127-40-237.5T1086 152 909.5 21 681-26zm-65 1536l80 288h244l-162-288H616z"/><glyph glyph-name="Ubreve" unicode="Ŭ" horiz-adv-x="1360" d="M681-26q-168 0-294.5 82T190 276.5 120 584v816h244V584q0-100 37.5-183.5t108-133T681 218q102 0 172 49.5t106.5 133T996 584v816h244V584q0-127-40-237.5T1086 152 909.5 21 681-26zm-1 1514q-91 0-166.5 45T393 1653.5 348 1820h152q0-49 24.5-90t65.5-65.5 90-24.5q50 0 90.5 24t65 65 24.5 91h152q0-93-45-168.5T846.5 1532 680 1488z"/><glyph glyph-name="uni01D3" unicode="Ǔ" horiz-adv-x="1360" d="M681-26q-168 0-294.5 82T190 276.5 120 584v816h244V584q0-100 37.5-183.5t108-133T681 218q102 0 172 49.5t106.5 133T996 584v816h244V584q0-127-40-237.5T1086 152 909.5 21 681-26zM543 1510l-194 288h163l167-193 166 193h163l-191-288H543z"/><glyph glyph-name="Ucircumflex" unicode="Û" horiz-adv-x="1360" d="M681-26q-168 0-294.5 82T190 276.5 120 584v816h244V584q0-100 37.5-183.5t108-133T681 218q102 0 172 49.5t106.5 133T996 584v816h244V584q0-127-40-237.5T1086 152 909.5 21 681-26zm135 1824l194-288H847l-168 193-165-193H351l191 288h274z"/><glyph glyph-name="Udieresis" unicode="Ü" horiz-adv-x="1360" d="M681-26q-168 0-294.5 82T190 276.5 120 584v816h244V584q0-100 37.5-183.5t108-133T681 218q102 0 172 49.5t106.5 133T996 584v816h244V584q0-127-40-237.5T1086 152 909.5 21 681-26zM483 1470q-54 0-91 36t-37 89 37 89.5 91 36.5q52 0 88.5-36.5T608 1595t-36.5-89-88.5-36zm396 0q-54 0-91 36t-37 89 37 89.5 91 36.5q52 0 89-36.5t37-89.5-37-89-89-36z"/><glyph glyph-name="uni01D7" unicode="Ǘ" horiz-adv-x="1360" d="M681-26q-168 0-294.5 82T190 276.5 120 584v816h244V584q0-100 37.5-183.5t108-133T681 218q102 0 172 49.5t106.5 133T996 584v816h244V584q0-127-40-237.5T1086 152 909.5 21 681-26zM483 1470q-54 0-91 36t-37 89 37 89.5 91 36.5q52 0 88.5-36.5T608 1595t-36.5-89-88.5-36zm396 0q-54 0-91 36t-37 89 37 89.5 91 36.5q52 0 89-36.5t37-89.5-37-89-89-36zm-263 323l80 288h244l-162-288H616z"/><glyph glyph-name="uni01D9" unicode="Ǚ" horiz-adv-x="1360" d="M681-26q-168 0-294.5 82T190 276.5 120 584v816h244V584q0-100 37.5-183.5t108-133T681 218q102 0 172 49.5t106.5 133T996 584v816h244V584q0-127-40-237.5T1086 152 909.5 21 681-26zM483 1470q-54 0-91 36t-37 89 37 89.5 91 36.5q52 0 88.5-36.5T608 1595t-36.5-89-88.5-36zm396 0q-54 0-91 36t-37 89 37 89.5 91 36.5q52 0 89-36.5t37-89.5-37-89-89-36zm-336 323l-194 288h163l167-193 166 193h163l-191-288H543z"/><glyph glyph-name="uni01DB" unicode="Ǜ" horiz-adv-x="1360" d="M681-26q-168 0-294.5 82T190 276.5 120 584v816h244V584q0-100 37.5-183.5t108-133T681 218q102 0 172 49.5t106.5 133T996 584v816h244V584q0-127-40-237.5T1086 152 909.5 21 681-26zM483 1470q-54 0-91 36t-37 89 37 89.5 91 36.5q52 0 88.5-36.5T608 1595t-36.5-89-88.5-36zm396 0q-54 0-91 36t-37 89 37 89.5 91 36.5q52 0 89-36.5t37-89.5-37-89-89-36zm-460 611h244l80-288H580z"/><glyph glyph-name="uni01D5" unicode="Ǖ" horiz-adv-x="1360" d="M681-26q-168 0-294.5 82T190 276.5 120 584v816h244V584q0-100 37.5-183.5t108-133T681 218q102 0 172 49.5t106.5 133T996 584v816h244V584q0-127-40-237.5T1086 152 909.5 21 681-26zM483 1470q-54 0-91 36t-37 89 37 89.5 91 36.5q52 0 88.5-36.5T608 1595t-36.5-89-88.5-36zm396 0q-54 0-91 36t-37 89 37 89.5 91 36.5q52 0 89-36.5t37-89.5-37-89-89-36zm-537 540h676v-183H342v183z"/><glyph glyph-name="uni1EE4" unicode="Ụ" horiz-adv-x="1360" d="M681-26q-168 0-294.5 82T190 276.5 120 584v816h244V584q0-100 37.5-183.5t108-133T681 218q102 0 172 49.5t106.5 133T996 584v816h244V584q0-127-40-237.5T1086 152 909.5 21 681-26zm1-414q-54 0-91 35.5T554-315q0 53 37 89t90 36 89.5-36 36.5-89q0-54-36-89.5T682-440z"/><glyph glyph-name="Ugrave" unicode="Ù" horiz-adv-x="1360" d="M681-26q-168 0-294.5 82T190 276.5 120 584v816h244V584q0-100 37.5-183.5t108-133T681 218q102 0 172 49.5t106.5 133T996 584v816h244V584q0-127-40-237.5T1086 152 909.5 21 681-26zM419 1798h244l80-288H580z"/><glyph glyph-name="Uhungarumlaut" unicode="Ű" horiz-adv-x="1360" d="M681-26q-168 0-294.5 82T190 276.5 120 584v816h244V584q0-100 37.5-183.5t108-133T681 218q102 0 172 49.5t106.5 133T996 584v816h244V584q0-127-40-237.5T1086 152 909.5 21 681-26zm113 1536l80 288h244l-162-288H794zm-335 0l80 288h244l-162-288H459z"/><glyph glyph-name="Umacron" unicode="Ū" horiz-adv-x="1360" d="M681-26q-168 0-294.5 82T190 276.5 120 584v816h244V584q0-100 37.5-183.5t108-133T681 218q102 0 172 49.5t106.5 133T996 584v816h244V584q0-127-40-237.5T1086 152 909.5 21 681-26zM342 1727h676v-183H342v183z"/><glyph glyph-name="Uogonek" unicode="Ų" horiz-adv-x="1360" d="M681-26q-168 0-294.5 82T190 276.5 120 584v816h244V584q0-100 37.5-183.5t108-133T681 218q102 0 172 49.5t106.5 133T996 584v816h244V584q0-127-40-237.5T1086 152 909.5 21 681-26zm30-430q-71 1-123.5 35T506-333t-29 114q0 45 16.5 87.5T546-53l168 168L833-4q-37-37-69-67.5t-55.5-57-37-51T658-228t17-43.5 46-20.5q38 0 66.5 27.5T816-196h155q0-70-34-129t-93-95-133-36z"/><glyph glyph-name="Uring" unicode="Ů" horiz-adv-x="1360" d="M681-26q-168 0-294.5 82T190 276.5 120 584v816h244V584q0-100 37.5-183.5t108-133T681 218q102 0 172 49.5t106.5 133T996 584v816h244V584q0-127-40-237.5T1086 152 909.5 21 681-26zm-1 1494q-77 0-131.5 56T494 1656q0 50 25 92t67.5 67 93.5 25q76 0 130.5-54.5T865 1656q0-78-54.5-133T680 1468zm0 119q27 0 47 20t20 48q0 27-20 46.5t-47 19.5q-28 0-47.5-19.5T613 1656q0-29 19.5-49t47.5-20z"/><glyph glyph-name="Utilde" unicode="Ũ" horiz-adv-x="1360" d="M681-26q-168 0-294.5 82T190 276.5 120 584v816h244V584q0-100 37.5-183.5t108-133T681 218q102 0 172 49.5t106.5 133T996 584v816h244V584q0-127-40-237.5T1086 152 909.5 21 681-26zm154 1531q-37 0-87.5 26t-101 58-88 51.5-50.5 5.5q-13-13-16-33.5t7-53.5l-143-39q-27 78-13.5 142t60 102.5T523 1803q37 0 84.5-21.5t95.5-50 85-50 53-21.5q20 0 26 14t3 34-10 38l145 47q27-82 11.5-147t-63-103-118.5-38z"/><glyph glyph-name="V" unicode="V" horiz-adv-x="1491" d="M589 0L81 1400h259L745 285l406 1115h258L901 0H589z"/><glyph glyph-name="W" unicode="W" horiz-adv-x="1865" d="M439 0L81 1400h252l244-957 244 957h223l244-957 243 957h252L1427 0h-277L932 848 717 0H439z"/><glyph glyph-name="Wacute" unicode="Ẃ" horiz-adv-x="1865" d="M439 0L81 1400h252l244-957 244 957h223l244-957 243 957h252L1427 0h-277L932 848 717 0H439zm430 1510l80 288h244l-162-288H869z"/><glyph glyph-name="Wcircumflex" unicode="Ŵ" horiz-adv-x="1865" d="M439 0L81 1400h252l244-957 244 957h223l244-957 243 957h252L1427 0h-277L932 848 717 0H439zm630 1798l194-288h-163l-168 193-165-193H604l191 288h274z"/><glyph glyph-name="Wdieresis" unicode="Ẅ" horiz-adv-x="1865" d="M439 0L81 1400h252l244-957 244 957h223l244-957 243 957h252L1427 0h-277L932 848 717 0H439zm297 1470q-54 0-91 36t-37 89 37 89.5 91 36.5q52 0 88.5-36.5T861 1595t-36.5-89-88.5-36zm396 0q-54 0-91 36t-37 89 37 89.5 91 36.5q52 0 89-36.5t37-89.5-37-89-89-36z"/><glyph glyph-name="Wgrave" unicode="Ẁ" horiz-adv-x="1865" d="M439 0L81 1400h252l244-957 244 957h223l244-957 243 957h252L1427 0h-277L932 848 717 0H439zm232 1798h244l80-288H832z"/><glyph glyph-name="X" unicode="X" horiz-adv-x="1447" d="M60 0l512 704-506 696h301l356-490 357 490h301L875 704 1387 0h-303L723 496 363 0H60z"/><glyph glyph-name="Y" unicode="Y" horiz-adv-x="1326" d="M978 1400h288L785 631V0H541v631L60 1400h288l315-503z"/><glyph glyph-name="Yacute" unicode="Ý" horiz-adv-x="1326" d="M978 1400h288L785 631V0H541v631L60 1400h288l315-503zm-379 110l80 288h244l-162-288H599z"/><glyph glyph-name="Ycircumflex" unicode="Ŷ" horiz-adv-x="1326" d="M978 1400h288L785 631V0H541v631L60 1400h288l315-503zm-178 398l194-288H831l-168 193-165-193H335l191 288h274z"/><glyph glyph-name="Ydieresis" unicode="Ÿ" horiz-adv-x="1326" d="M978 1400h288L785 631V0H541v631L60 1400h288l315-503zm-512 70q-54 0-91 36t-37 89 37 89.5 91 36.5q52 0 88.5-36.5T591 1595t-36.5-89-88.5-36zm396 0q-54 0-91 36t-37 89 37 89.5 91 36.5q52 0 89-36.5t37-89.5-37-89-89-36z"/><glyph glyph-name="uni1EF4" unicode="Ỵ" horiz-adv-x="1326" d="M978 1400h288L785 631V0H541v631L60 1400h288l315-503zM665-440q-54 0-91 35.5T537-315q0 53 37 89t90 36 89.5-36 36.5-89q0-54-36-89.5T665-440z"/><glyph glyph-name="Ygrave" unicode="Ỳ" horiz-adv-x="1326" d="M978 1400h288L785 631V0H541v631L60 1400h288l315-503zm-577 398h244l80-288H562z"/><glyph glyph-name="uni0232" unicode="Ȳ" horiz-adv-x="1326" d="M978 1400h288L785 631V0H541v631L60 1400h288l315-503zm-653 327h676v-183H325v183z"/><glyph glyph-name="uni1EF8" unicode="Ỹ" horiz-adv-x="1326" d="M978 1400h288L785 631V0H541v631L60 1400h288l315-503zm-160 105q-37 0-87.5 26t-101 58-88 51.5-50.5 5.5q-13-13-16-33.5t7-53.5l-143-39q-27 78-13.5 142t60 102.5T506 1803q37 0 84.5-21.5t95.5-50 85-50 53-21.5q20 0 26 14t3 34-10 38l145 47q27-82 11.5-147t-63-103-118.5-38z"/><glyph glyph-name="Z" unicode="Z" horiz-adv-x="1292" d="M80 0v244l803 912H80v244h1132v-244L409 244h803V0H80z"/><glyph glyph-name="Zacute" unicode="Ź" horiz-adv-x="1292" d="M80 0v244l803 912H80v244h1132v-244L409 244h803V0H80zm503 1510l80 288h244l-162-288H583z"/><glyph glyph-name="Zcaron" unicode="Ž" horiz-adv-x="1292" d="M80 0v244l803 912H80v244h1132v-244L409 244h803V0H80zm430 1510l-194 288h163l167-193 166 193h163l-191-288H510z"/><glyph glyph-name="Zdotaccent" unicode="Ż" horiz-adv-x="1292" d="M80 0v244l803 912H80v244h1132v-244L409 244h803V0H80zm568 1529q-54 0-91 35.5t-37 89.5q0 53 37 89t90 36 89.5-36 36.5-89q0-54-36-89.5t-89-35.5z"/><glyph glyph-name="uni1E92" unicode="Ẓ" horiz-adv-x="1292" d="M80 0v244l803 912H80v244h1132v-244L409 244h803V0H80zm568-440q-54 0-91 35.5T520-315q0 53 37 89t90 36 89.5-36 36.5-89q0-54-36-89.5T648-440z"/><glyph glyph-name="a" unicode="a" horiz-adv-x="1198" d="M874 1000h244V0H874l-11 124Q822 57 754.5 15.5T595-26q-111 0-208 42T216.5 132t-115 171T60 511q0 107 39.5 201T210 877t164 111 200 40q99 0 177.5-44T885 872zM589 209q78 0 138 39t94 105.5T855 500q0 81-34 147.5T726.5 753 589 792t-140.5-39.5-101-105.5T310 500t38-147 101.5-105T589 209z"/><glyph glyph-name="aacute" unicode="á" horiz-adv-x="1198" d="M874 1000h244V0H874l-11 124Q822 57 754.5 15.5T595-26q-111 0-208 42T216.5 132t-115 171T60 511q0 107 39.5 201T210 877t164 111 200 40q99 0 177.5-44T885 872zM589 209q78 0 138 39t94 105.5T855 500q0 81-34 147.5T726.5 753 589 792t-140.5-39.5-101-105.5T310 500t38-147 101.5-105T589 209zm-39 901l80 288h244l-162-288H550z"/><glyph glyph-name="abreve" unicode="ă" horiz-adv-x="1198" d="M874 1000h244V0H874l-11 124Q822 57 754.5 15.5T595-26q-111 0-208 42T216.5 132t-115 171T60 511q0 107 39.5 201T210 877t164 111 200 40q99 0 177.5-44T885 872zM589 209q78 0 138 39t94 105.5T855 500q0 81-34 147.5T726.5 753 589 792t-140.5-39.5-101-105.5T310 500t38-147 101.5-105T589 209zm25 879q-91 0-166.5 45T327 1253.5 282 1420h152q0-49 24.5-90t65.5-65.5 90-24.5q50 0 90.5 24t65 65 24.5 91h152q0-93-45-168.5T780.5 1132 614 1088z"/><glyph glyph-name="uni1EB7" unicode="ặ" horiz-adv-x="1198" d="M874 1000h244V0H874l-11 124Q822 57 754.5 15.5T595-26q-111 0-208 42T216.5 132t-115 171T60 511q0 107 39.5 201T210 877t164 111 200 40q99 0 177.5-44T885 872zM589 209q78 0 138 39t94 105.5T855 500q0 81-34 147.5T726.5 753 589 792t-140.5-39.5-101-105.5T310 500t38-147 101.5-105T589 209zm26-649q-54 0-91 35.5T487-315q0 53 37 89t90 36 89.5-36 36.5-89q0-54-36-89.5T615-440zm-1 1528q-91 0-166.5 45T327 1253.5 282 1420h152q0-49 24.5-90t65.5-65.5 90-24.5q50 0 90.5 24t65 65 24.5 91h152q0-93-45-168.5T780.5 1132 614 1088z"/><glyph glyph-name="uni01CE" unicode="ǎ" horiz-adv-x="1198" d="M874 1000h244V0H874l-11 124Q822 57 754.5 15.5T595-26q-111 0-208 42T216.5 132t-115 171T60 511q0 107 39.5 201T210 877t164 111 200 40q99 0 177.5-44T885 872zM589 209q78 0 138 39t94 105.5T855 500q0 81-34 147.5T726.5 753 589 792t-140.5-39.5-101-105.5T310 500t38-147 101.5-105T589 209zm-112 901l-194 288h163l167-193 166 193h163l-191-288H477z"/><glyph glyph-name="acircumflex" unicode="â" horiz-adv-x="1198" d="M874 1000h244V0H874l-11 124Q822 57 754.5 15.5T595-26q-111 0-208 42T216.5 132t-115 171T60 511q0 107 39.5 201T210 877t164 111 200 40q99 0 177.5-44T885 872zM589 209q78 0 138 39t94 105.5T855 500q0 81-34 147.5T726.5 753 589 792t-140.5-39.5-101-105.5T310 500t38-147 101.5-105T589 209zm161 1189l194-288H781l-168 193-165-193H285l191 288h274z"/><glyph glyph-name="uni1EAD" unicode="ậ" horiz-adv-x="1198" d="M874 1000h244V0H874l-11 124Q822 57 754.5 15.5T595-26q-111 0-208 42T216.5 132t-115 171T60 511q0 107 39.5 201T210 877t164 111 200 40q99 0 177.5-44T885 872zM589 209q78 0 138 39t94 105.5T855 500q0 81-34 147.5T726.5 753 589 792t-140.5-39.5-101-105.5T310 500t38-147 101.5-105T589 209zm26-649q-54 0-91 35.5T487-315q0 53 37 89t90 36 89.5-36 36.5-89q0-54-36-89.5T615-440zm135 1838l194-288H781l-168 193-165-193H285l191 288h274z"/><glyph glyph-name="adieresis" unicode="ä" horiz-adv-x="1198" d="M874 1000h244V0H874l-11 124Q822 57 754.5 15.5T595-26q-111 0-208 42T216.5 132t-115 171T60 511q0 107 39.5 201T210 877t164 111 200 40q99 0 177.5-44T885 872zM589 209q78 0 138 39t94 105.5T855 500q0 81-34 147.5T726.5 753 589 792t-140.5-39.5-101-105.5T310 500t38-147 101.5-105T589 209zm-172 861q-54 0-91 36t-37 89 37 89.5 91 36.5q52 0 88.5-36.5T542 1195t-36.5-89-88.5-36zm396 0q-54 0-91 36t-37 89 37 89.5 91 36.5q52 0 89-36.5t37-89.5-37-89-89-36z"/><glyph glyph-name="uni01DF" unicode="ǟ" horiz-adv-x="1198" d="M874 1000h244V0H874l-11 124Q822 57 754.5 15.5T595-26q-111 0-208 42T216.5 132t-115 171T60 511q0 107 39.5 201T210 877t164 111 200 40q99 0 177.5-44T885 872zM589 209q78 0 138 39t94 105.5T855 500q0 81-34 147.5T726.5 753 589 792t-140.5-39.5-101-105.5T310 500t38-147 101.5-105T589 209zm-172 861q-54 0-91 36t-37 89 37 89.5 91 36.5q52 0 88.5-36.5T542 1195t-36.5-89-88.5-36zm396 0q-54 0-91 36t-37 89 37 89.5 91 36.5q52 0 89-36.5t37-89.5-37-89-89-36zm-537 540h676v-183H276v183z"/><glyph glyph-name="uni1EA1" unicode="ạ" horiz-adv-x="1198" d="M874 1000h244V0H874l-11 124Q822 57 754.5 15.5T595-26q-111 0-208 42T216.5 132t-115 171T60 511q0 107 39.5 201T210 877t164 111 200 40q99 0 177.5-44T885 872zM589 209q78 0 138 39t94 105.5T855 500q0 81-34 147.5T726.5 753 589 792t-140.5-39.5-101-105.5T310 500t38-147 101.5-105T589 209zm26-649q-54 0-91 35.5T487-315q0 53 37 89t90 36 89.5-36 36.5-89q0-54-36-89.5T615-440z"/><glyph glyph-name="agrave" unicode="à" horiz-adv-x="1198" d="M874 1000h244V0H874l-11 124Q822 57 754.5 15.5T595-26q-111 0-208 42T216.5 132t-115 171T60 511q0 107 39.5 201T210 877t164 111 200 40q99 0 177.5-44T885 872zM589 209q78 0 138 39t94 105.5T855 500q0 81-34 147.5T726.5 753 589 792t-140.5-39.5-101-105.5T310 500t38-147 101.5-105T589 209zM352 1398h244l80-288H513z"/><glyph glyph-name="amacron" unicode="ā" horiz-adv-x="1198" d="M874 1000h244V0H874l-11 124Q822 57 754.5 15.5T595-26q-111 0-208 42T216.5 132t-115 171T60 511q0 107 39.5 201T210 877t164 111 200 40q99 0 177.5-44T885 872zM589 209q78 0 138 39t94 105.5T855 500q0 81-34 147.5T726.5 753 589 792t-140.5-39.5-101-105.5T310 500t38-147 101.5-105T589 209zM276 1327h676v-183H276v183z"/><glyph glyph-name="aogonek" unicode="ą" horiz-adv-x="1198" d="M874 1000h244V0H874l-11 124Q822 57 754.5 15.5T595-26q-111 0-208 42T216.5 132t-115 171T60 511q0 107 39.5 201T210 877t164 111 200 40q99 0 177.5-44T885 872zM589 209q78 0 138 39t94 105.5T855 500q0 81-34 147.5T726.5 753 589 792t-140.5-39.5-101-105.5T310 500t38-147 101.5-105T589 209zm407-661q-71 1-123.5 35T791-329t-29 114q0 45 16.5 87.5T831-49l168 168L1118 0q-37-37-69-67.5t-55.5-57-37-51T943-224t17-43.5 46-20.5q38 0 66.5 27.5T1101-192h155q0-70-34-129t-93-95-133-36z"/><glyph glyph-name="aring" unicode="å" horiz-adv-x="1198" d="M874 1000h244V0H874l-11 124Q822 57 754.5 15.5T595-26q-111 0-208 42T216.5 132t-115 171T60 511q0 107 39.5 201T210 877t164 111 200 40q99 0 177.5-44T885 872zM589 209q78 0 138 39t94 105.5T855 500q0 81-34 147.5T726.5 753 589 792t-140.5-39.5-101-105.5T310 500t38-147 101.5-105T589 209zm25 859q-77 0-131.5 56T428 1256q0 50 25 92t67.5 67 93.5 25q76 0 130.5-54.5T799 1256q0-78-54.5-133T614 1068zm0 119q27 0 47 20t20 48q0 27-20 46.5t-47 19.5q-28 0-47.5-19.5T547 1256q0-29 19.5-49t47.5-20z"/><glyph glyph-name="atilde" unicode="ã" horiz-adv-x="1198" d="M874 1000h244V0H874l-11 124Q822 57 754.5 15.5T595-26q-111 0-208 42T216.5 132t-115 171T60 511q0 107 39.5 201T210 877t164 111 200 40q99 0 177.5-44T885 872zM589 209q78 0 138 39t94 105.5T855 500q0 81-34 147.5T726.5 753 589 792t-140.5-39.5-101-105.5T310 500t38-147 101.5-105T589 209zm180 896q-37 0-87.5 26t-101 58-88 51.5-50.5 5.5q-13-13-16-33.5t7-53.5l-143-39q-27 78-13.5 142t60 102.5T457 1403q37 0 84.5-21.5t95.5-50 85-50 53-21.5q20 0 26 14t3 34-10 38l145 47q27-82 11.5-147t-63-103-118.5-38z"/><glyph glyph-name="ae" unicode="æ" horiz-adv-x="1729" d="M357-26q-94 0-168 42.5t-116.5 114T30 287q0 83 42 154.5t115.5 115T355 600h306q-8 51-35.5 93t-72 66.5T450 784q-78 0-143-39L172 949q63 40 133 59.5t142 19.5q108 0 202-47t157-131q43 54 100 94t124 62 140 22q118 0 215-49.5T1550 843t98.5-196 13.5-230H932q13-57 46-101.5t82-71 112-26.5 115 31 87 85l249-58q-61-133-182-217.5T1170-26q-81 0-154.5 26.5t-134 74T777 186q-37-56-101-104.5t-146-78T357-26zm0 214q76 0 137.5 33T596 307q39 47 64 110H355q-48 0-80-32.5T243 305q0-45 31.5-81t82.5-36zm567 412h492q-12 60-47.5 108.5t-87 77.5-111.5 29-111.5-28.5-86.5-77T924 600z"/><glyph glyph-name="uni01E3" unicode="ǣ" horiz-adv-x="1729" d="M357-26q-94 0-168 42.5t-116.5 114T30 287q0 83 42 154.5t115.5 115T355 600h306q-8 51-35.5 93t-72 66.5T450 784q-78 0-143-39L172 949q63 40 133 59.5t142 19.5q108 0 202-47t157-131q43 54 100 94t124 62 140 22q118 0 215-49.5T1550 843t98.5-196 13.5-230H932q13-57 46-101.5t82-71 112-26.5 115 31 87 85l249-58q-61-133-182-217.5T1170-26q-81 0-154.5 26.5t-134 74T777 186q-37-56-101-104.5t-146-78T357-26zm0 214q76 0 137.5 33T596 307q39 47 64 110H355q-48 0-80-32.5T243 305q0-45 31.5-81t82.5-36zm567 412h492q-12 60-47.5 108.5t-87 77.5-111.5 29-111.5-28.5-86.5-77T924 600zm-456 729h676v-183H468v183z"/><glyph glyph-name="b" unicode="b" horiz-adv-x="1240" d="M652 1028q146 0 266-71t191-190.5 71-264.5q0-109-41-205t-113.5-168.5T857.5 15 652-26q-94 0-166.5 42.5T364 127V0H120v1500h244V875q49 68 121.5 110.5T652 1028zm-3-818q78 0 141.5 39.5T892 355t38 147q0 80-38 146.5T790 754t-141 39q-76 0-136-39.5t-94-106T385 502q0-81 34-147.5T513 249t136-39z"/><glyph glyph-name="uni1E05" unicode="ḅ" horiz-adv-x="1240" d="M652 1028q146 0 266-71t191-190.5 71-264.5q0-109-41-205t-113.5-168.5T857.5 15 652-26q-94 0-166.5 42.5T364 127V0H120v1500h244V875q49 68 121.5 110.5T652 1028zm-3-818q78 0 141.5 39.5T892 355t38 147q0 80-38 146.5T790 754t-141 39q-76 0-136-39.5t-94-106T385 502q0-81 34-147.5T513 249t136-39zm-27-650q-54 0-91 35.5T494-315q0 53 37 89t90 36 89.5-36 36.5-89q0-54-36-89.5T622-440z"/><glyph glyph-name="c" unicode="c" horiz-adv-x="1020" d="M740 301l220-119Q891 88 787 31T560-26q-138 0-251.5 71t-181 190.5T60 500q0 110 39 205.5t107.5 168T366 987t194 41q123 0 227-57t173-153L740 700q-35 40-82.5 62T560 784q-72 0-130-39.5t-92-104T304 500q0-75 34-139.5T430 257t130-39q52 0 99 22.5t81 60.5z"/><glyph glyph-name="cacute" unicode="ć" horiz-adv-x="1019" d="M740 301l220-119Q891 88 787 31T560-26q-138 0-251.5 71t-181 190.5T60 500q0 110 39 205.5t107.5 168T366 987t194 41q123 0 227-57t173-153L740 700q-35 40-82.5 62T560 784q-72 0-130-39.5t-92-104T304 500q0-75 34-139.5T430 257t130-39q52 0 99 22.5t81 60.5zm-243 809l80 288h244l-162-288H497z"/><glyph glyph-name="ccaron" unicode="č" horiz-adv-x="1019" d="M740 301l220-119Q891 88 787 31T560-26q-138 0-251.5 71t-181 190.5T60 500q0 110 39 205.5t107.5 168T366 987t194 41q123 0 227-57t173-153L740 700q-35 40-82.5 62T560 784q-72 0-130-39.5t-92-104T304 500q0-75 34-139.5T430 257t130-39q52 0 99 22.5t81 60.5zm-316 809l-194 288h163l167-193 166 193h163l-191-288H424z"/><glyph glyph-name="ccedilla" unicode="ç" horiz-adv-x="1019" d="M740 301l220-119Q891 88 787 31T560-26q-138 0-251.5 71t-181 190.5T60 500q0 110 39 205.5t107.5 168T366 987t194 41q123 0 227-57t173-153L740 700q-35 40-82.5 62T560 784q-72 0-130-39.5t-92-104T304 500q0-75 34-139.5T430 257t130-39q52 0 99 22.5t81 60.5zM567-376q-71-19-135 18t-83 108l124 33q5-19 23-29t38-5 30.5 22.5T569-190q-5 20-22 28.5t-39 6.5l-128-5L521 88l112-66-38-65q36-14 62.5-44t36.5-71q19-71-18-135t-109-83z"/><glyph glyph-name="ccircumflex" unicode="ĉ" horiz-adv-x="1019" d="M740 301l220-119Q891 88 787 31T560-26q-138 0-251.5 71t-181 190.5T60 500q0 110 39 205.5t107.5 168T366 987t194 41q123 0 227-57t173-153L740 700q-35 40-82.5 62T560 784q-72 0-130-39.5t-92-104T304 500q0-75 34-139.5T430 257t130-39q52 0 99 22.5t81 60.5zm-43 1097l194-288H728l-168 193-165-193H232l191 288h274z"/><glyph glyph-name="cdotaccent" unicode="ċ" horiz-adv-x="1019" d="M740 301l220-119Q891 88 787 31T560-26q-138 0-251.5 71t-181 190.5T60 500q0 110 39 205.5t107.5 168T366 987t194 41q123 0 227-57t173-153L740 700q-35 40-82.5 62T560 784q-72 0-130-39.5t-92-104T304 500q0-75 34-139.5T430 257t130-39q52 0 99 22.5t81 60.5zm-178 828q-54 0-91 35.5t-37 89.5q0 53 37 89t90 36 89.5-36 36.5-89q0-54-36-89.5t-89-35.5z"/><glyph glyph-name="d" unicode="d" horiz-adv-x="1240" d="M876 1500h244V0H876v125Q828 58 755 16T586-26q-109 0-204 41T214.5 128.5 101 296 60 500t41 204 113.5 167.5T382 985t204 41q96 0 169-41.5T876 875v625zM589 209q78 0 138 39t94 105.5T855 500q0 81-34 147.5T726.5 753 589 792t-140.5-39.5-101-105.5T310 500t38-147 101.5-105T589 209z"/><glyph glyph-name="eth" unicode="ð" horiz-adv-x="1126" d="M437 1030l-119 119 439 431 117-118zM584-26q-139 0-253.5 68T148 224 80 476q0 104 39 195.5t108.5 161 161 108.5T584 980q46 0 87.5-16t71.5-44q-21 62-51.5 125T615 1162t-112.5 87-157.5 33l-2 244q168 0 304.5-82T882 1220t150.5-324 53.5-382q0-158-65-280T843 43 584-26zm0 244q71 0 130 35.5t93.5 94T842 476q0 71-35 130t-93.5 94.5T584 736q-72 0-131-35.5T359 606t-35-130q0-70 35-129t94-94 131-35z"/><glyph glyph-name="dcaron" unicode="ď" horiz-adv-x="1240" d="M876 1500h244V0H876v125Q828 58 755 16T586-26q-109 0-204 41T214.5 128.5 101 296 60 500t41 204 113.5 167.5T382 985t204 41q96 0 169-41.5T876 875v625zM589 209q78 0 138 39t94 105.5T855 500q0 81-34 147.5T726.5 753 589 792t-140.5-39.5-101-105.5T310 500t38-147 101.5-105T589 209zm588 1003l80 288h244l-162-288h-162z"/><glyph glyph-name="uni1E0D" unicode="ḍ" horiz-adv-x="1240" d="M876 1500h244V0H876v125Q828 58 755 16T586-26q-109 0-204 41T214.5 128.5 101 296 60 500t41 204 113.5 167.5T382 985t204 41q96 0 169-41.5T876 875v625zM589 209q78 0 138 39t94 105.5T855 500q0 81-34 147.5T726.5 753 589 792t-140.5-39.5-101-105.5T310 500t38-147 101.5-105T589 209zm29-649q-54 0-91 35.5T490-315q0 53 37 89t90 36 89.5-36 36.5-89q0-54-36-89.5T618-440z"/><glyph glyph-name="e" unicode="e" horiz-adv-x="1119" d="M560-26q-138 0-251.5 71t-181 191T60 501q0 109 39 204.5t107.5 168T366 987t194 41q117 0 214.5-49.5T940 843t99-196 14-230H322q14-56 46-100.5t81-71T560 218q64-1 116.5 30.5T764 334l249-58Q952 143 831 58.5T560-26zM314 600h492q-11 60-46.5 108.5T672 786t-112 29-111-28.5-86.5-77T314 600z"/><glyph glyph-name="eacute" unicode="é" horiz-adv-x="1119" d="M560-26q-138 0-251.5 71t-181 191T60 501q0 109 39 204.5t107.5 168T366 987t194 41q117 0 214.5-49.5T940 843t99-196 14-230H322q14-56 46-100.5t81-71T560 218q64-1 116.5 30.5T764 334l249-58Q952 143 831 58.5T560-26zM314 600h492q-11 60-46.5 108.5T672 786t-112 29-111-28.5-86.5-77T314 600zm182 510l80 288h244l-162-288H496z"/><glyph glyph-name="ecaron" unicode="ě" horiz-adv-x="1119" d="M560-26q-138 0-251.5 71t-181 191T60 501q0 109 39 204.5t107.5 168T366 987t194 41q117 0 214.5-49.5T940 843t99-196 14-230H322q14-56 46-100.5t81-71T560 218q64-1 116.5 30.5T764 334l249-58Q952 143 831 58.5T560-26zM314 600h492q-11 60-46.5 108.5T672 786t-112 29-111-28.5-86.5-77T314 600zm109 510l-194 288h163l167-193 166 193h163l-191-288H423z"/><glyph glyph-name="ecircumflex" unicode="ê" horiz-adv-x="1119" d="M560-26q-138 0-251.5 71t-181 191T60 501q0 109 39 204.5t107.5 168T366 987t194 41q117 0 214.5-49.5T940 843t99-196 14-230H322q14-56 46-100.5t81-71T560 218q64-1 116.5 30.5T764 334l249-58Q952 143 831 58.5T560-26zM314 600h492q-11 60-46.5 108.5T672 786t-112 29-111-28.5-86.5-77T314 600zm382 798l194-288H727l-168 193-165-193H231l191 288h274z"/><glyph glyph-name="uni1EC7" unicode="ệ" horiz-adv-x="1119" d="M560-26q-138 0-251.5 71t-181 191T60 501q0 109 39 204.5t107.5 168T366 987t194 41q117 0 214.5-49.5T940 843t99-196 14-230H322q14-56 46-100.5t81-71T560 218q64-1 116.5 30.5T764 334l249-58Q952 143 831 58.5T560-26zM314 600h492q-11 60-46.5 108.5T672 786t-112 29-111-28.5-86.5-77T314 600zM561-440q-54 0-91 35.5T433-315q0 53 37 89t90 36 89.5-36 36.5-89q0-54-36-89.5T561-440zm135 1838l194-288H727l-168 193-165-193H231l191 288h274z"/><glyph glyph-name="edieresis" unicode="ë" horiz-adv-x="1119" d="M560-26q-138 0-251.5 71t-181 191T60 501q0 109 39 204.5t107.5 168T366 987t194 41q117 0 214.5-49.5T940 843t99-196 14-230H322q14-56 46-100.5t81-71T560 218q64-1 116.5 30.5T764 334l249-58Q952 143 831 58.5T560-26zM314 600h492q-11 60-46.5 108.5T672 786t-112 29-111-28.5-86.5-77T314 600zm49 470q-54 0-91 36t-37 89 37 89.5 91 36.5q52 0 88.5-36.5T488 1195t-36.5-89-88.5-36zm396 0q-54 0-91 36t-37 89 37 89.5 91 36.5q52 0 89-36.5t37-89.5-37-89-89-36z"/><glyph glyph-name="edotaccent" unicode="ė" horiz-adv-x="1119" d="M560-26q-138 0-251.5 71t-181 191T60 501q0 109 39 204.5t107.5 168T366 987t194 41q117 0 214.5-49.5T940 843t99-196 14-230H322q14-56 46-100.5t81-71T560 218q64-1 116.5 30.5T764 334l249-58Q952 143 831 58.5T560-26zM314 600h492q-11 60-46.5 108.5T672 786t-112 29-111-28.5-86.5-77T314 600zm247 529q-54 0-91 35.5t-37 89.5q0 53 37 89t90 36 89.5-36 36.5-89q0-54-36-89.5t-89-35.5z"/><glyph glyph-name="uni1EB9" unicode="ẹ" horiz-adv-x="1119" d="M560-26q-138 0-251.5 71t-181 191T60 501q0 109 39 204.5t107.5 168T366 987t194 41q117 0 214.5-49.5T940 843t99-196 14-230H322q14-56 46-100.5t81-71T560 218q64-1 116.5 30.5T764 334l249-58Q952 143 831 58.5T560-26zM314 600h492q-11 60-46.5 108.5T672 786t-112 29-111-28.5-86.5-77T314 600zM561-440q-54 0-91 35.5T433-315q0 53 37 89t90 36 89.5-36 36.5-89q0-54-36-89.5T561-440z"/><glyph glyph-name="egrave" unicode="è" horiz-adv-x="1119" d="M560-26q-138 0-251.5 71t-181 191T60 501q0 109 39 204.5t107.5 168T366 987t194 41q117 0 214.5-49.5T940 843t99-196 14-230H322q14-56 46-100.5t81-71T560 218q64-1 116.5 30.5T764 334l249-58Q952 143 831 58.5T560-26zM314 600h492q-11 60-46.5 108.5T672 786t-112 29-111-28.5-86.5-77T314 600zm-16 798h244l80-288H459z"/><glyph glyph-name="emacron" unicode="ē" horiz-adv-x="1119" d="M560-26q-138 0-251.5 71t-181 191T60 501q0 109 39 204.5t107.5 168T366 987t194 41q117 0 214.5-49.5T940 843t99-196 14-230H322q14-56 46-100.5t81-71T560 218q64-1 116.5 30.5T764 334l249-58Q952 143 831 58.5T560-26zM314 600h492q-11 60-46.5 108.5T672 786t-112 29-111-28.5-86.5-77T314 600zm-93 727h676v-183H221v183z"/><glyph glyph-name="eogonek" unicode="ę" horiz-adv-x="1119" d="M560-26q-138 0-251.5 71t-181 191T60 501q0 109 39 204.5t107.5 168T366 987t194 41q117 0 214.5-49.5T940 843t99-196 14-230H322q14-56 46-100.5t81-71T560 218q64-1 116.5 30.5T764 334l249-58Q952 143 831 58.5T560-26zM314 600h492q-11 60-46.5 108.5T672 786t-112 29-111-28.5-86.5-77T314 600zM593-452q-71 1-123.5 35T388-329t-29 114q0 45 16.5 87.5T428-49l168 168L715 0q-37-37-69-67.5t-55.5-57-37-51T540-224t17-43.5 46-20.5q38 0 66.5 27.5T698-192h155q0-70-34-129t-93-95-133-36z"/><glyph glyph-name="uni1EBD" unicode="ẽ" horiz-adv-x="1119" d="M560-26q-138 0-251.5 71t-181 191T60 501q0 109 39 204.5t107.5 168T366 987t194 41q117 0 214.5-49.5T940 843t99-196 14-230H322q14-56 46-100.5t81-71T560 218q64-1 116.5 30.5T764 334l249-58Q952 143 831 58.5T560-26zM314 600h492q-11 60-46.5 108.5T672 786t-112 29-111-28.5-86.5-77T314 600zm401 505q-37 0-87.5 26t-101 58-88 51.5-50.5 5.5q-13-13-16-33.5t7-53.5l-143-39q-27 78-13.5 142t60 102.5T403 1403q37 0 84.5-21.5t95.5-50 85-50 53-21.5q20 0 26 14t3 34-10 38l145 47q27-82 11.5-147t-63-103-118.5-38z"/><glyph glyph-name="f" unicode="f" horiz-adv-x="729" d="M403 1210v-210h273V756H403V0H159v756H50v244h109v210q0 86 42.5 157.5t114.5 114 159 42.5q63 0 125-26t110-80l-176-172q-9 17-25.5 25.5T475 1280q-29 0-50.5-20.5T403 1210z"/><glyph glyph-name="g" unicode="g" horiz-adv-x="1226" d="M862 1000h244V-19q0-108-44-196.5t-120-152-174-98T562-500q-105 0-202 43T188.5-339.5 75-170L298-69q20-55 60.5-96.5t93.5-65T562-254q58 0 111.5 16t96.5 46.5 67.5 74T862-19v141Q815 56 744 15T580-26q-108 0-202 41T212.5 128.5 100.5 296 60 500t40.5 204 112 167.5T378 985t202 41q93 0 164-40.5T862 879v121zM583 209q77 0 136.5 39.5t93.5 106T847 500q0 80-34.5 146t-94 106T583 792q-75 0-137-39.5T347 647t-37-147 37-147 99-105 137-39z"/><glyph glyph-name="gbreve" unicode="ğ" horiz-adv-x="1226" d="M862 1000h244V-19q0-108-44-196.5t-120-152-174-98T562-500q-105 0-202 43T188.5-339.5 75-170L298-69q20-55 60.5-96.5t93.5-65T562-254q58 0 111.5 16t96.5 46.5 67.5 74T862-19v141Q815 56 744 15T580-26q-108 0-202 41T212.5 128.5 100.5 296 60 500t40.5 204 112 167.5T378 985t202 41q93 0 164-40.5T862 879v121zM583 209q77 0 136.5 39.5t93.5 106T847 500q0 80-34.5 146t-94 106T583 792q-75 0-137-39.5T347 647t-37-147 37-147 99-105 137-39zm30 879q-91 0-166.5 45T326 1253.5 281 1420h152q0-49 24.5-90t65.5-65.5 90-24.5q50 0 90.5 24t65 65 24.5 91h152q0-93-45-168.5T779.5 1132 613 1088z"/><glyph glyph-name="gcaron" unicode="ǧ" horiz-adv-x="1226" d="M862 1000h244V-19q0-108-44-196.5t-120-152-174-98T562-500q-105 0-202 43T188.5-339.5 75-170L298-69q20-55 60.5-96.5t93.5-65T562-254q58 0 111.5 16t96.5 46.5 67.5 74T862-19v141Q815 56 744 15T580-26q-108 0-202 41T212.5 128.5 100.5 296 60 500t40.5 204 112 167.5T378 985t202 41q93 0 164-40.5T862 879v121zM583 209q77 0 136.5 39.5t93.5 106T847 500q0 80-34.5 146t-94 106T583 792q-75 0-137-39.5T347 647t-37-147 37-147 99-105 137-39zm-106 901l-194 288h163l167-193 166 193h163l-191-288H477z"/><glyph glyph-name="gcircumflex" unicode="ĝ" horiz-adv-x="1226" d="M862 1000h244V-19q0-108-44-196.5t-120-152-174-98T562-500q-105 0-202 43T188.5-339.5 75-170L298-69q20-55 60.5-96.5t93.5-65T562-254q58 0 111.5 16t96.5 46.5 67.5 74T862-19v141Q815 56 744 15T580-26q-108 0-202 41T212.5 128.5 100.5 296 60 500t40.5 204 112 167.5T378 985t202 41q93 0 164-40.5T862 879v121zM583 209q77 0 136.5 39.5t93.5 106T847 500q0 80-34.5 146t-94 106T583 792q-75 0-137-39.5T347 647t-37-147 37-147 99-105 137-39zm167 1189l194-288H781l-168 193-165-193H285l191 288h274z"/><glyph glyph-name="gdotaccent" unicode="ġ" horiz-adv-x="1226" d="M862 1000h244V-19q0-108-44-196.5t-120-152-174-98T562-500q-105 0-202 43T188.5-339.5 75-170L298-69q20-55 60.5-96.5t93.5-65T562-254q58 0 111.5 16t96.5 46.5 67.5 74T862-19v141Q815 56 744 15T580-26q-108 0-202 41T212.5 128.5 100.5 296 60 500t40.5 204 112 167.5T378 985t202 41q93 0 164-40.5T862 879v121zM583 209q77 0 136.5 39.5t93.5 106T847 500q0 80-34.5 146t-94 106T583 792q-75 0-137-39.5T347 647t-37-147 37-147 99-105 137-39zm32 920q-54 0-91 35.5t-37 89.5q0 53 37 89t90 36 89.5-36 36.5-89q0-54-36-89.5t-89-35.5z"/><glyph glyph-name="uni1E21" unicode="ḡ" horiz-adv-x="1226" d="M862 1000h244V-19q0-108-44-196.5t-120-152-174-98T562-500q-105 0-202 43T188.5-339.5 75-170L298-69q20-55 60.5-96.5t93.5-65T562-254q58 0 111.5 16t96.5 46.5 67.5 74T862-19v141Q815 56 744 15T580-26q-108 0-202 41T212.5 128.5 100.5 296 60 500t40.5 204 112 167.5T378 985t202 41q93 0 164-40.5T862 879v121zM583 209q77 0 136.5 39.5t93.5 106T847 500q0 80-34.5 146t-94 106T583 792q-75 0-137-39.5T347 647t-37-147 37-147 99-105 137-39zM275 1327h676v-183H275v183z"/><glyph glyph-name="h" unicode="h" horiz-adv-x="1116" d="M1036 632V0H792v568q0 59-29 107.5t-77.5 77T578 781t-107.5-28.5-77-77T365 568V0H121l-1 1500h244l1-589q51 54 122 85.5t153 31.5q109 0 199-53.5t143.5-143T1036 632z"/><glyph glyph-name="hcircumflex" unicode="ĥ" horiz-adv-x="1116" d="M1036 632V0H792v568q0 59-29 107.5t-77.5 77T578 781t-107.5-28.5-77-77T365 568V0H121l-1 1500h244l1-589q51 54 122 85.5t153 31.5q109 0 199-53.5t143.5-143T1036 632zM745 1823l194-288H776l-168 193-165-193H280l191 288h274z"/><glyph glyph-name="uni1E25" unicode="ḥ" horiz-adv-x="1116" d="M1036 632V0H792v568q0 59-29 107.5t-77.5 77T578 781t-107.5-28.5-77-77T365 568V0H121l-1 1500h244l1-589q51 54 122 85.5t153 31.5q109 0 199-53.5t143.5-143T1036 632zM610-440q-54 0-91 35.5T482-315q0 53 37 89t90 36 89.5-36 36.5-89q0-54-36-89.5T610-440z"/><glyph glyph-name="i" unicode="i" d="M120 1000h244V0H120v1000zm124 129q-54 0-91 35.5t-37 89.5q0 53 37 89t90 36 89.5-36 36.5-89q0-54-36-89.5t-89-35.5z"/><glyph glyph-name="dotlessi" unicode="ı" d="M120 1000h244V0H120v1000z"/><glyph glyph-name="iacute" unicode="í" d="M120 1000h244V0H120v1000zm59 110l80 288h244l-162-288H179z"/><glyph glyph-name="uni01D0" unicode="ǐ" d="M120 1000h244V0H120v1000zm-14 110l-194 288H75l167-193 166 193h163l-191-288H106z"/><glyph glyph-name="icircumflex" unicode="î" d="M120 1000h244V0H120v1000zm259 398l194-288H410l-168 193-165-193H-86l191 288h274z"/><glyph glyph-name="idieresis" unicode="ï" d="M120 1000h244V0H120v1000zm-75 70q-54 0-91 36t-37 89 37 89.5 91 36.5q52 0 88.5-36.5T170 1195t-36.5-89-88.5-36zm396 0q-54 0-91 36t-37 89 37 89.5 91 36.5q52 0 89-36.5t37-89.5-37-89-89-36z"/><glyph glyph-name="uni1E2F" unicode="ḯ" d="M120 1000h244V0H120v1000zm-75 70q-54 0-91 36t-37 89 37 89.5 91 36.5q52 0 88.5-36.5T170 1195t-36.5-89-88.5-36zm396 0q-54 0-91 36t-37 89 37 89.5 91 36.5q52 0 89-36.5t37-89.5-37-89-89-36zm-262 323l80 288h244l-162-288H179z"/><glyph glyph-name="uni1ECB" unicode="ị" d="M120 1000h244V0H120v1000zm124 129q-54 0-91 35.5t-37 89.5q0 53 37 89t90 36 89.5-36 36.5-89q0-54-36-89.5t-89-35.5zm1-1569q-54 0-91 35.5T117-315q0 53 37 89t90 36 89.5-36 36.5-89q0-54-36-89.5T245-440z"/><glyph glyph-name="igrave" unicode="ì" d="M120 1000h244V0H120v1000zm-139 398h244l80-288H142z"/><glyph glyph-name="ij" unicode="ĳ" horiz-adv-x="968" d="M120 1000h244V0H120v1000zm124 129q-54 0-91 35.5t-37 89.5q0 53 37 89t90 36 89.5-36 36.5-89q0-54-36-89.5t-89-35.5zM401-500v244q57 0 103 26.5t73 72T604-56v1056h244V-56q0-122-59.5-223t-161-161T401-500zm327 1629q-54 0-91 35.5t-37 89.5q0 53 37 89t90 36 89.5-36 36.5-89q0-54-36-89.5t-89-35.5z"/><glyph glyph-name="imacron" unicode="ī" d="M-1 1327h485v-183H-1v183zm121-327h244V0H120v1000z"/><glyph glyph-name="iogonek" unicode="į" d="M120 1000h244V0H120v1000zm124 129q-54 0-91 35.5t-37 89.5q0 53 37 89t90 36 89.5-36 36.5-89q0-54-36-89.5t-89-35.5zm-2-1581q-71 1-123.5 35T37-329 8-215q0 45 16.5 87.5T77-49l168 168L364 0q-37-37-69-67.5t-55.5-57-37-51T189-224t17-43.5 46-20.5q38 0 66.5 27.5T347-192h155q0-70-34-129t-93-95-133-36z"/><glyph glyph-name="itilde" unicode="ĩ" d="M363 1084q-30 0-69 20.5t-78 46.5-68 41.5-39 4.5-12-27.5 5-42.5l-111-31q-21 62-11 113.5t46.5 82.5 94.5 31q28 0 65.5-17.5t74-40.5 65.5-40 41-17q23 0 22.5 23.5T381 1277l114 38q32-99-9-165t-123-66zm-243-84h244V0H120v1000z"/><glyph glyph-name="j" unicode="j" horiz-adv-x="487" d="M-80-500v244q57 0 103 26.5t73 72T123-56v1056h244V-56q0-122-59.5-223t-161-161T-80-500zm327 1629q-54 0-91 35.5t-37 89.5q0 53 37 89t90 36 89.5-36 36.5-89q0-54-36-89.5t-89-35.5z"/><glyph glyph-name="uni0237" unicode="ȷ" horiz-adv-x="487" d="M-80-500v244q57 0 103 26.5t73 72T123-56v1056h244V-56q0-122-59.5-223t-161-161T-80-500z"/><glyph glyph-name="jcircumflex" unicode="ĵ" horiz-adv-x="487" d="M-80-500v244q57 0 103 26.5t73 72T123-56v1056h244V-56q0-122-59.5-223t-161-161T-80-500zm462 1898l194-288H413l-168 193-165-193H-83l191 288h274z"/><glyph glyph-name="k" unicode="k" horiz-adv-x="1070" d="M1013 0H732L504 393 364 226V0H120v1500h244V605l331 395h319L671 591z"/><glyph glyph-name="uni01E9" unicode="ǩ" horiz-adv-x="1070" d="M1013 0H732L504 393 364 226V0H120v1500h244V605l331 395h319L671 591zM501 1510l-194 288h163l167-193 166 193h163l-191-288H501z"/><glyph glyph-name="uni0137" unicode="ķ" horiz-adv-x="1070" d="M1013 0H732L504 393 364 226V0H120v1500h244V605l331 395h319L671 591zM348-441l62 338h244L511-441H348z"/><glyph glyph-name="l" unicode="l" d="M120 0v1500h244V0H120z"/><glyph glyph-name="lacute" unicode="ĺ" d="M120 0v1500h244V0H120zm59 1610l80 288h244l-162-288H179z"/><glyph glyph-name="lcaron" unicode="ľ" d="M120 0v1500h244V0H120zm298 1212l80 288h244l-162-288H418z"/><glyph glyph-name="uni013C" unicode="ļ" d="M120 0v1500h244V0H120zM58-441l62 338h244L221-441H58z"/><glyph glyph-name="uni1E37" unicode="ḷ" d="M120 0v1500h244V0H120zm124-440q-54 0-91 35.5T116-315q0 53 37 89t90 36 89.5-36 36.5-89q0-54-36-89.5T244-440z"/><glyph glyph-name="m" unicode="m" horiz-adv-x="1777" d="M120 0v1000h244v-89q51 54 122 85.5t153 31.5q104 0 191.5-49T970 848q53 82 140 131t191 49q110 0 199.5-53.5t143-143T1697 632V0h-244v567q0 58-28.5 106.5t-76 78T1242 781t-106.5-28.5T1059 676t-29-109V0H786v567q0 61-28 109t-76 76.5T575 781q-58 0-106-29.5t-76.5-78T364 567V0H120z"/><glyph glyph-name="uni1E3F" unicode="ḿ" horiz-adv-x="1777" d="M120 0v1000h244v-89q51 54 122 85.5t153 31.5q104 0 191.5-49T970 848q53 82 140 131t191 49q110 0 199.5-53.5t143-143T1697 632V0h-244v567q0 58-28.5 106.5t-76 78T1242 781t-106.5-28.5T1059 676t-29-109V0H786v567q0 61-28 109t-76 76.5T575 781q-58 0-106-29.5t-76.5-78T364 567V0H120zm787 1110l80 288h244l-162-288H907z"/><glyph glyph-name="uni1E41" unicode="ṁ" horiz-adv-x="1777" d="M120 0v1000h244v-89q51 54 122 85.5t153 31.5q104 0 191.5-49T970 848q53 82 140 131t191 49q110 0 199.5-53.5t143-143T1697 632V0h-244v567q0 58-28.5 106.5t-76 78T1242 781t-106.5-28.5T1059 676t-29-109V0H786v567q0 61-28 109t-76 76.5T575 781q-58 0-106-29.5t-76.5-78T364 567V0H120zm852 1129q-54 0-91 35.5t-37 89.5q0 53 37 89t90 36 89.5-36 36.5-89q0-54-36-89.5t-89-35.5z"/><glyph glyph-name="uni1E43" unicode="ṃ" horiz-adv-x="1777" d="M120 0v1000h244v-89q51 54 122 85.5t153 31.5q104 0 191.5-49T970 848q53 82 140 131t191 49q110 0 199.5-53.5t143-143T1697 632V0h-244v567q0 58-28.5 106.5t-76 78T1242 781t-106.5-28.5T1059 676t-29-109V0H786v567q0 61-28 109t-76 76.5T575 781q-58 0-106-29.5t-76.5-78T364 567V0H120zm790-440q-54 0-91 35.5T782-315q0 53 37 89t90 36 89.5-36 36.5-89q0-54-36-89.5T910-440z"/><glyph glyph-name="n" unicode="n" horiz-adv-x="1116" d="M1036 632V0H792v568q0 59-29 107.5t-77.5 77T578 781t-107.5-28.5-77-77T365 568V0H121l-1 1000h244l1-89q51 54 122 85.5t153 31.5q109 0 199-53.5t143.5-143T1036 632z"/><glyph glyph-name="nacute" unicode="ń" horiz-adv-x="1116" d="M1036 632V0H792v568q0 59-29 107.5t-77.5 77T578 781t-107.5-28.5-77-77T365 568V0H121l-1 1000h244l1-89q51 54 122 85.5t153 31.5q109 0 199-53.5t143.5-143T1036 632zm-506 478l80 288h244l-162-288H530z"/><glyph glyph-name="ncaron" unicode="ň" horiz-adv-x="1116" d="M1036 632V0H792v568q0 59-29 107.5t-77.5 77T578 781t-107.5-28.5-77-77T365 568V0H121l-1 1000h244l1-89q51 54 122 85.5t153 31.5q109 0 199-53.5t143.5-143T1036 632zm-579 478l-194 288h163l167-193 166 193h163l-191-288H457z"/><glyph glyph-name="uni0146" unicode="ņ" horiz-adv-x="1116" d="M1036 632V0H792v568q0 59-29 107.5t-77.5 77T578 781t-107.5-28.5-77-77T365 568V0H121l-1 1000h244l1-89q51 54 122 85.5t153 31.5q109 0 199-53.5t143.5-143T1036 632zM394-441l62 338h244L557-441H394z"/><glyph glyph-name="uni1E45" unicode="ṅ" horiz-adv-x="1116" d="M1036 632V0H792v568q0 59-29 107.5t-77.5 77T578 781t-107.5-28.5-77-77T365 568V0H121l-1 1000h244l1-89q51 54 122 85.5t153 31.5q109 0 199-53.5t143.5-143T1036 632zm-441 497q-54 0-91 35.5t-37 89.5q0 53 37 89t90 36 89.5-36 36.5-89q0-54-36-89.5t-89-35.5z"/><glyph glyph-name="uni1E47" unicode="ṇ" horiz-adv-x="1116" d="M1036 632V0H792v568q0 59-29 107.5t-77.5 77T578 781t-107.5-28.5-77-77T365 568V0H121l-1 1000h244l1-89q51 54 122 85.5t153 31.5q109 0 199-53.5t143.5-143T1036 632zM580-440q-54 0-91 35.5T452-315q0 53 37 89t90 36 89.5-36 36.5-89q0-54-36-89.5T580-440z"/><glyph glyph-name="ntilde" unicode="ñ" horiz-adv-x="1116" d="M1036 632V0H792v568q0 59-29 107.5t-77.5 77T578 781t-107.5-28.5-77-77T365 568V0H121l-1 1000h244l1-89q51 54 122 85.5t153 31.5q109 0 199-53.5t143.5-143T1036 632zm-287 473q-37 0-87.5 26t-101 58-88 51.5-50.5 5.5q-13-13-16-33.5t7-53.5l-143-39q-27 78-13.5 142t60 102.5T437 1403q37 0 84.5-21.5t95.5-50 85-50 53-21.5q20 0 26 14t3 34-10 38l145 47q27-82 11.5-147t-63-103-118.5-38z"/><glyph glyph-name="o" unicode="o" horiz-adv-x="1120" d="M560-26q-138 0-251.5 71t-181 190.5T60 500q0 110 39 205.5t107.5 168T366 987t194 41q138 0 251.5-71t181-191 67.5-266q0-109-39-204T913.5 128.5 754.5 15 560-26zm0 244q73 0 131 39t91.5 103T816 500q0 78-34.5 142.5t-93 103T560 784q-72 0-130-39t-92-104-34-141q0-79 35-143t93.5-101.5T560 218z"/><glyph glyph-name="oacute" unicode="ó" horiz-adv-x="1120" d="M560-26q-138 0-251.5 71t-181 190.5T60 500q0 110 39 205.5t107.5 168T366 987t194 41q138 0 251.5-71t181-191 67.5-266q0-109-39-204T913.5 128.5 754.5 15 560-26zm0 244q73 0 131 39t91.5 103T816 500q0 78-34.5 142.5t-93 103T560 784q-72 0-130-39t-92-104-34-141q0-79 35-143t93.5-101.5T560 218zm-63 892l80 288h244l-162-288H497z"/><glyph glyph-name="uni01D2" unicode="ǒ" horiz-adv-x="1120" d="M560-26q-138 0-251.5 71t-181 190.5T60 500q0 110 39 205.5t107.5 168T366 987t194 41q138 0 251.5-71t181-191 67.5-266q0-109-39-204T913.5 128.5 754.5 15 560-26zm0 244q73 0 131 39t91.5 103T816 500q0 78-34.5 142.5t-93 103T560 784q-72 0-130-39t-92-104-34-141q0-79 35-143t93.5-101.5T560 218zm-136 892l-194 288h163l167-193 166 193h163l-191-288H424z"/><glyph glyph-name="ocircumflex" unicode="ô" horiz-adv-x="1120" d="M560-26q-138 0-251.5 71t-181 190.5T60 500q0 110 39 205.5t107.5 168T366 987t194 41q138 0 251.5-71t181-191 67.5-266q0-109-39-204T913.5 128.5 754.5 15 560-26zm0 244q73 0 131 39t91.5 103T816 500q0 78-34.5 142.5t-93 103T560 784q-72 0-130-39t-92-104-34-141q0-79 35-143t93.5-101.5T560 218zm137 1180l194-288H728l-168 193-165-193H232l191 288h274z"/><glyph glyph-name="uni1ED9" unicode="ộ" horiz-adv-x="1120" d="M560-26q-138 0-251.5 71t-181 190.5T60 500q0 110 39 205.5t107.5 168T366 987t194 41q138 0 251.5-71t181-191 67.5-266q0-109-39-204T913.5 128.5 754.5 15 560-26zm0 244q73 0 131 39t91.5 103T816 500q0 78-34.5 142.5t-93 103T560 784q-72 0-130-39t-92-104-34-141q0-79 35-143t93.5-101.5T560 218zm2-658q-54 0-91 35.5T434-315q0 53 37 89t90 36 89.5-36 36.5-89q0-54-36-89.5T562-440zm135 1838l194-288H728l-168 193-165-193H232l191 288h274z"/><glyph glyph-name="odieresis" unicode="ö" horiz-adv-x="1120" d="M560-26q-138 0-251.5 71t-181 190.5T60 500q0 110 39 205.5t107.5 168T366 987t194 41q138 0 251.5-71t181-191 67.5-266q0-109-39-204T913.5 128.5 754.5 15 560-26zm0 244q73 0 131 39t91.5 103T816 500q0 78-34.5 142.5t-93 103T560 784q-72 0-130-39t-92-104-34-141q0-79 35-143t93.5-101.5T560 218zm-197 852q-54 0-91 36t-37 89 37 89.5 91 36.5q52 0 88.5-36.5T488 1195t-36.5-89-88.5-36zm396 0q-54 0-91 36t-37 89 37 89.5 91 36.5q52 0 89-36.5t37-89.5-37-89-89-36z"/><glyph glyph-name="uni022B" unicode="ȫ" horiz-adv-x="1120" d="M560-26q-138 0-251.5 71t-181 190.5T60 500q0 110 39 205.5t107.5 168T366 987t194 41q138 0 251.5-71t181-191 67.5-266q0-109-39-204T913.5 128.5 754.5 15 560-26zm0 244q73 0 131 39t91.5 103T816 500q0 78-34.5 142.5t-93 103T560 784q-72 0-130-39t-92-104-34-141q0-79 35-143t93.5-101.5T560 218zm-197 852q-54 0-91 36t-37 89 37 89.5 91 36.5q52 0 88.5-36.5T488 1195t-36.5-89-88.5-36zm396 0q-54 0-91 36t-37 89 37 89.5 91 36.5q52 0 89-36.5t37-89.5-37-89-89-36zm-537 540h676v-183H222v183z"/><glyph glyph-name="uni1ECD" unicode="ọ" horiz-adv-x="1120" d="M560-26q-138 0-251.5 71t-181 190.5T60 500q0 110 39 205.5t107.5 168T366 987t194 41q138 0 251.5-71t181-191 67.5-266q0-109-39-204T913.5 128.5 754.5 15 560-26zm0 244q73 0 131 39t91.5 103T816 500q0 78-34.5 142.5t-93 103T560 784q-72 0-130-39t-92-104-34-141q0-79 35-143t93.5-101.5T560 218zm2-658q-54 0-91 35.5T434-315q0 53 37 89t90 36 89.5-36 36.5-89q0-54-36-89.5T562-440z"/><glyph glyph-name="ograve" unicode="ò" horiz-adv-x="1120" d="M560-26q-138 0-251.5 71t-181 190.5T60 500q0 110 39 205.5t107.5 168T366 987t194 41q138 0 251.5-71t181-191 67.5-266q0-109-39-204T913.5 128.5 754.5 15 560-26zm0 244q73 0 131 39t91.5 103T816 500q0 78-34.5 142.5t-93 103T560 784q-72 0-130-39t-92-104-34-141q0-79 35-143t93.5-101.5T560 218zM299 1398h244l80-288H460z"/><glyph glyph-name="ohungarumlaut" unicode="ő" horiz-adv-x="1120" d="M560-26q-138 0-251.5 71t-181 190.5T60 500q0 110 39 205.5t107.5 168T366 987t194 41q138 0 251.5-71t181-191 67.5-266q0-109-39-204T913.5 128.5 754.5 15 560-26zm0 244q73 0 131 39t91.5 103T816 500q0 78-34.5 142.5t-93 103T560 784q-72 0-130-39t-92-104-34-141q0-79 35-143t93.5-101.5T560 218zm114 892l80 288h244l-162-288H674zm-335 0l80 288h244l-162-288H339z"/><glyph glyph-name="omacron" unicode="ō" horiz-adv-x="1120" d="M560-26q-138 0-251.5 71t-181 190.5T60 500q0 110 39 205.5t107.5 168T366 987t194 41q138 0 251.5-71t181-191 67.5-266q0-109-39-204T913.5 128.5 754.5 15 560-26zm0 244q73 0 131 39t91.5 103T816 500q0 78-34.5 142.5t-93 103T560 784q-72 0-130-39t-92-104-34-141q0-79 35-143t93.5-101.5T560 218zM222 1327h676v-183H222v183z"/><glyph glyph-name="oslash" unicode="ø" horiz-adv-x="1120" d="M342-75L170 24l52 90q-74 72-118 172T60 500q0 110 39 205.5t107.5 168T366 987t194 41q45 0 88-8.5t82-23.5l49 82 171-99-52-91q75-72 118.5-172t43.5-216q0-109-39-204T913.5 128.5 754.5 15 560-26q-45 0-88 8.5T389 7zm1 395l277 481q-64 14-124-6t-107.5-65-75-108T286 486q0-49 15-91t42-75zm157-119q67-13 126.5 6.5t106.5 64 74 107T834 514q0 49-15.5 92T778 683z"/><glyph glyph-name="otilde" unicode="õ" horiz-adv-x="1120" d="M560-26q-138 0-251.5 71t-181 190.5T60 500q0 110 39 205.5t107.5 168T366 987t194 41q138 0 251.5-71t181-191 67.5-266q0-109-39-204T913.5 128.5 754.5 15 560-26zm0 244q73 0 131 39t91.5 103T816 500q0 78-34.5 142.5t-93 103T560 784q-72 0-130-39t-92-104-34-141q0-79 35-143t93.5-101.5T560 218zm155 887q-37 0-87.5 26t-101 58-88 51.5-50.5 5.5q-13-13-16-33.5t7-53.5l-143-39q-27 78-13.5 142t60 102.5T403 1403q37 0 84.5-21.5t95.5-50 85-50 53-21.5q20 0 26 14t3 34-10 38l145 47q27-82 11.5-147t-63-103-118.5-38z"/><glyph glyph-name="oe" unicode="œ" horiz-adv-x="1874" d="M560-26q-138 0-251.5 71t-181 190.5T60 500q0 110 39 205.5t107.5 168T366 987t194 41q77 0 147.5-24.5t129-68.5T938 832q43 59 101.5 103t129 68.5T1316 1028q116 0 213.5-49t166-134.5 99-195.5 13.5-231h-730q14-57 46-101.5t80.5-71T1316 218q64 0 116.5 31t86.5 85l249-58q-60-133-181-217.5T1316-26q-77 0-147.5 24.5t-129 68.5T938 170q-43-59-101.5-103t-129-68.5T560-26zm0 244q73 0 131 39t91.5 103T816 500q0 78-34.5 142.5t-93 103T560 784q-72 0-130-39t-92-104-34-141q0-79 35-143t93.5-101.5T560 218zm509 383h492q-12 60-47 108.5t-86.5 77T1316 815q-61 0-112.5-28t-86.5-76.5-48-109.5z"/><glyph glyph-name="p" unicode="p" horiz-adv-x="1238" d="M364-500H120v1500h244V873q49 68 120.5 110.5T652 1026q110 0 205-41t167.5-113.5 113-167.5 40.5-204-40.5-205-113-168.5T857 13 652-28q-96 0-167.5 42.5T364 125v-625zM649 791q-76 0-136-39.5T419 646t-34-146 34-146.5 94-106T649 208q77 0 141 39t102 105.5T930 500q0 80-38 146T790.5 751.5 649 791z"/><glyph glyph-name="thorn" unicode="þ" horiz-adv-x="1238" d="M120-500v1900h244V873q49 68 120.5 110.5T652 1026q110 0 205-41t167.5-113.5 113-167.5 40.5-204-40.5-205-113-168.5T857 13 652-28q-96 0-167.5 42.5T364 125v-625H120zm529 708q77 0 141 39t102 105.5T930 500q0 80-38 146T790.5 751.5 649 791q-76 0-136-39.5T419 646t-34-146 34-146.5 94-106T649 208z"/><glyph glyph-name="q" unicode="q" horiz-adv-x="1238" d="M586-28q-145 0-264.5 71T131 234 60 500q0 109 41 204t113.5 167.5T382 985t204 41q96 0 168-42.5T874 873v127h244V-500H874v625Q826 57 754 14.5T586-28zm3 819q-77 0-140.5-39.5T347.5 646 310 500q0-81 37.5-147.5t101-105.5T589 208q78 0 137.5 39.5t93.5 106T854 500t-34 146-94 105.5T589 791z"/><glyph glyph-name="r" unicode="r" horiz-adv-x="770" d="M121 0l-1 1000h244l1-89q51 54 122 85.5t153 31.5q55 0 110-16l-96-246q-38 15-76 15-59 0-107.5-28.5t-77-77T365 568V0H121z"/><glyph glyph-name="racute" unicode="ŕ" horiz-adv-x="770" d="M121 0l-1 1000h244l1-89q51 54 122 85.5t153 31.5q55 0 110-16l-96-246q-38 15-76 15-59 0-107.5-28.5t-77-77T365 568V0H121zm256 1110l80 288h244l-162-288H377z"/><glyph glyph-name="rcaron" unicode="ř" horiz-adv-x="770" d="M121 0l-1 1000h244l1-89q51 54 122 85.5t153 31.5q55 0 110-16l-96-246q-38 15-76 15-59 0-107.5-28.5t-77-77T365 568V0H121zm183 1110l-194 288h163l167-193 166 193h163l-191-288H304z"/><glyph glyph-name="uni0157" unicode="ŗ" horiz-adv-x="770" d="M121 0l-1 1000h244l1-89q51 54 122 85.5t153 31.5q55 0 110-16l-96-246q-38 15-76 15-59 0-107.5-28.5t-77-77T365 568V0H121zM58-441l62 338h244L221-441H58z"/><glyph glyph-name="s" unicode="s" horiz-adv-x="869" d="M415-18q-78 5-150.5 31.5T136 86 50 196l206 88q12-20 39-42.5t64.5-37.5 82.5-15q38 0 72.5 10.5t56 32.5 21.5 57q0 37-25.5 57.5t-64 31T428 397q-95 19-176.5 59t-131 103.5T71 713q0 99 52.5 171t137 111 182.5 39q119 0 218.5-49.5T819 845L626 731q-14 24-39 44.5t-57 34-67 15.5q-45 2-82-8t-59.5-34-22.5-64q0-38 30-56.5t72.5-28.5 81.5-22q88-29 165.5-71T773 438t45-146q0-97-58-169.5T610.5 12 415-18z"/><glyph glyph-name="sacute" unicode="ś" horiz-adv-x="869" d="M415-18q-78 5-150.5 31.5T136 86 50 196l206 88q12-20 39-42.5t64.5-37.5 82.5-15q38 0 72.5 10.5t56 32.5 21.5 57q0 37-25.5 57.5t-64 31T428 397q-95 19-176.5 59t-131 103.5T71 713q0 99 52.5 171t137 111 182.5 39q119 0 218.5-49.5T819 845L626 731q-14 24-39 44.5t-57 34-67 15.5q-45 2-82-8t-59.5-34-22.5-64q0-38 30-56.5t72.5-28.5 81.5-22q88-29 165.5-71T773 438t45-146q0-97-58-169.5T610.5 12 415-18zm-44 1128l80 288h244l-162-288H371z"/><glyph glyph-name="scaron" unicode="š" horiz-adv-x="869" d="M415-18q-78 5-150.5 31.5T136 86 50 196l206 88q12-20 39-42.5t64.5-37.5 82.5-15q38 0 72.5 10.5t56 32.5 21.5 57q0 37-25.5 57.5t-64 31T428 397q-95 19-176.5 59t-131 103.5T71 713q0 99 52.5 171t137 111 182.5 39q119 0 218.5-49.5T819 845L626 731q-14 24-39 44.5t-57 34-67 15.5q-45 2-82-8t-59.5-34-22.5-64q0-38 30-56.5t72.5-28.5 81.5-22q88-29 165.5-71T773 438t45-146q0-97-58-169.5T610.5 12 415-18zM298 1110l-194 288h163l167-193 166 193h163l-191-288H298z"/><glyph glyph-name="scedilla" unicode="ş" horiz-adv-x="869" d="M415-18q-78 5-150.5 31.5T136 86 50 196l206 88q12-20 39-42.5t64.5-37.5 82.5-15q38 0 72.5 10.5t56 32.5 21.5 57q0 37-25.5 57.5t-64 31T428 397q-95 19-176.5 59t-131 103.5T71 713q0 99 52.5 171t137 111 182.5 39q119 0 218.5-49.5T819 845L626 731q-14 24-39 44.5t-57 34-67 15.5q-45 2-82-8t-59.5-34-22.5-64q0-38 30-56.5t72.5-28.5 81.5-22q88-29 165.5-71T773 438t45-146q0-97-58-169.5T610.5 12 415-18zm85-358q-71-19-135 18t-83 108l124 33q5-19 23-29t38-5 30.5 22.5T502-190q-5 20-22 28.5t-39 6.5l-128-5L454 88l112-66-38-65q36-14 62.5-44t36.5-71q19-71-18-135t-109-83z"/><glyph glyph-name="scircumflex" unicode="ŝ" horiz-adv-x="869" d="M415-18q-78 5-150.5 31.5T136 86 50 196l206 88q12-20 39-42.5t64.5-37.5 82.5-15q38 0 72.5 10.5t56 32.5 21.5 57q0 37-25.5 57.5t-64 31T428 397q-95 19-176.5 59t-131 103.5T71 713q0 99 52.5 171t137 111 182.5 39q119 0 218.5-49.5T819 845L626 731q-14 24-39 44.5t-57 34-67 15.5q-45 2-82-8t-59.5-34-22.5-64q0-38 30-56.5t72.5-28.5 81.5-22q88-29 165.5-71T773 438t45-146q0-97-58-169.5T610.5 12 415-18zm156 1416l194-288H602l-168 193-165-193H106l191 288h274z"/><glyph glyph-name="uni0219" unicode="ș" horiz-adv-x="869" d="M415-18q-78 5-150.5 31.5T136 86 50 196l206 88q12-20 39-42.5t64.5-37.5 82.5-15q38 0 72.5 10.5t56 32.5 21.5 57q0 37-25.5 57.5t-64 31T428 397q-95 19-176.5 59t-131 103.5T71 713q0 99 52.5 171t137 111 182.5 39q119 0 218.5-49.5T819 845L626 731q-14 24-39 44.5t-57 34-67 15.5q-45 2-82-8t-59.5-34-22.5-64q0-38 30-56.5t72.5-28.5 81.5-22q88-29 165.5-71T773 438t45-146q0-97-58-169.5T610.5 12 415-18zM309-441l62 338h244L472-441H309z"/><glyph glyph-name="uni1E63" unicode="ṣ" horiz-adv-x="869" d="M415-18q-78 5-150.5 31.5T136 86 50 196l206 88q12-20 39-42.5t64.5-37.5 82.5-15q38 0 72.5 10.5t56 32.5 21.5 57q0 37-25.5 57.5t-64 31T428 397q-95 19-176.5 59t-131 103.5T71 713q0 99 52.5 171t137 111 182.5 39q119 0 218.5-49.5T819 845L626 731q-14 24-39 44.5t-57 34-67 15.5q-45 2-82-8t-59.5-34-22.5-64q0-38 30-56.5t72.5-28.5 81.5-22q88-29 165.5-71T773 438t45-146q0-97-58-169.5T610.5 12 415-18zm79-422q-54 0-91 35.5T366-315q0 53 37 89t90 36 89.5-36 36.5-89q0-54-36-89.5T494-440z"/><glyph glyph-name="germandbls" unicode="ß" horiz-adv-x="1145" d="M120 0v899q0 104 38.5 194.5T266 1253t160 108 195 39q110 0 200-52t142.5-142 52.5-204q0-49-13.5-103T958 799.5 874 728q65-11 106-45.5t64-83 32-102.5 9-104q0-113-55-201.5t-147.5-140T677 0h-74l-35 209h85q59 0 107.5 27.5t77.5 73T867 410q0 54-29 98.5t-77.5 72T653 610l-85 3v199l25 4q49 5 89.5 29.5t65 65T772 1002q0 52-24.5 94.5t-65 68T593 1190q-63 0-115.5-31t-83-83T364 960V0H120z"/><glyph glyph-name="t" unicode="t" horiz-adv-x="716" d="M656 756H462V0H218v756H70v244h148v314h244v-314h194V756z"/><glyph glyph-name="tcaron" unicode="ť" horiz-adv-x="716" d="M656 756H462V0H218v756H70v244h148v314h244v-314h194V756zm-125 456l80 288h244l-162-288H531z"/><glyph glyph-name="uni0163" unicode="ţ" horiz-adv-x="716" d="M656 756H462V0H218v756H70v244h148v314h244v-314h194V756zM348-376q-71-19-135 18t-83 108l124 33q5-19 23-29t38-5 30.5 22.5T350-190q-5 20-22 28.5t-39 6.5l-128-5L302 88l112-66-38-65q36-14 62.5-44t36.5-71q19-71-18-135t-109-83z"/><glyph glyph-name="uni021B" unicode="ț" horiz-adv-x="716" d="M656 756H462V0H218v756H70v244h148v314h244v-314h194V756zM156-441l62 338h244L319-441H156z"/><glyph glyph-name="uni1E97" unicode="ẗ" horiz-adv-x="716" d="M656 756H462V0H218v756H70v244h148v314h244v-314h194V756zm-513 628q-54 0-91 36t-37 89 37 89.5 91 36.5q52 0 88.5-36.5T268 1509t-36.5-89-88.5-36zm396 0q-54 0-91 36t-37 89 37 89.5 91 36.5q52 0 89-36.5t37-89.5-37-89-89-36z"/><glyph glyph-name="uni1E6D" unicode="ṭ" horiz-adv-x="716" d="M656 756H462V0H218v756H70v244h148v314h244v-314h194V756zM342-440q-54 0-91 35.5T214-315q0 53 37 89t90 36 89.5-36 36.5-89q0-54-36-89.5T342-440z"/><glyph glyph-name="u" unicode="u" horiz-adv-x="1076" d="M80 370v630h244V434q0-59 29-107.5t77.5-77T537 221q60 0 108 28.5t77 77T751 434v566h244L996 0H752l-1 91Q699 37 628 5.5T476-26q-109 0-199 53.5t-143.5 143T80 370z"/><glyph glyph-name="uacute" unicode="ú" horiz-adv-x="1076" d="M80 370v630h244V434q0-59 29-107.5t77.5-77T537 221q60 0 108 28.5t77 77T751 434v566h244L996 0H752l-1 91Q699 37 628 5.5T476-26q-109 0-199 53.5t-143.5 143T80 370zm424 742l80 288h244l-162-288H504z"/><glyph glyph-name="ubreve" unicode="ŭ" horiz-adv-x="1076" d="M80 370v630h244V434q0-59 29-107.5t77.5-77T537 221q60 0 108 28.5t77 77T751 434v566h244L996 0H752l-1 91Q699 37 628 5.5T476-26q-109 0-199 53.5t-143.5 143T80 370zm487 720q-91 0-166.5 45T280 1255.5 235 1422h152q0-49 24.5-90t65.5-65.5 90-24.5q50 0 90.5 24t65 65 24.5 91h152q0-93-45-168.5T733.5 1134 567 1090z"/><glyph glyph-name="uni01D4" unicode="ǔ" horiz-adv-x="1076" d="M80 370v630h244V434q0-59 29-107.5t77.5-77T537 221q60 0 108 28.5t77 77T751 434v566h244L996 0H752l-1 91Q699 37 628 5.5T476-26q-109 0-199 53.5t-143.5 143T80 370zm351 742l-194 288h163l167-193 166 193h163l-191-288H431z"/><glyph glyph-name="ucircumflex" unicode="û" horiz-adv-x="1076" d="M80 370v630h244V434q0-59 29-107.5t77.5-77T537 221q60 0 108 28.5t77 77T751 434v566h244L996 0H752l-1 91Q699 37 628 5.5T476-26q-109 0-199 53.5t-143.5 143T80 370zm624 1030l194-288H735l-168 193-165-193H239l191 288h274z"/><glyph glyph-name="udieresis" unicode="ü" horiz-adv-x="1076" d="M80 370v630h244V434q0-59 29-107.5t77.5-77T537 221q60 0 108 28.5t77 77T751 434v566h244L996 0H752l-1 91Q699 37 628 5.5T476-26q-109 0-199 53.5t-143.5 143T80 370zm291 702q-54 0-91 36t-37 89 37 89.5 91 36.5q52 0 88.5-36.5T496 1197t-36.5-89-88.5-36zm396 0q-54 0-91 36t-37 89 37 89.5 91 36.5q52 0 89-36.5t37-89.5-37-89-89-36z"/><glyph glyph-name="uni01D8" unicode="ǘ" horiz-adv-x="1076" d="M80 370v630h244V434q0-59 29-107.5t77.5-77T537 221q60 0 108 28.5t77 77T751 434v566h244L996 0H752l-1 91Q699 37 628 5.5T476-26q-109 0-199 53.5t-143.5 143T80 370zm291 702q-54 0-91 36t-37 89 37 89.5 91 36.5q52 0 88.5-36.5T496 1197t-36.5-89-88.5-36zm396 0q-54 0-91 36t-37 89 37 89.5 91 36.5q52 0 89-36.5t37-89.5-37-89-89-36zm-263 322l80 288h244l-162-288H504z"/><glyph glyph-name="uni01DA" unicode="ǚ" horiz-adv-x="1076" d="M80 370v630h244V434q0-59 29-107.5t77.5-77T537 221q60 0 108 28.5t77 77T751 434v566h244L996 0H752l-1 91Q699 37 628 5.5T476-26q-109 0-199 53.5t-143.5 143T80 370zm291 702q-54 0-91 36t-37 89 37 89.5 91 36.5q52 0 88.5-36.5T496 1197t-36.5-89-88.5-36zm396 0q-54 0-91 36t-37 89 37 89.5 91 36.5q52 0 89-36.5t37-89.5-37-89-89-36zm-336 322l-194 288h163l167-193 166 193h163l-191-288H431z"/><glyph glyph-name="uni01DC" unicode="ǜ" horiz-adv-x="1076" d="M80 370v630h244V434q0-59 29-107.5t77.5-77T537 221q60 0 108 28.5t77 77T751 434v566h244L996 0H752l-1 91Q699 37 628 5.5T476-26q-109 0-199 53.5t-143.5 143T80 370zm291 702q-54 0-91 36t-37 89 37 89.5 91 36.5q52 0 88.5-36.5T496 1197t-36.5-89-88.5-36zm396 0q-54 0-91 36t-37 89 37 89.5 91 36.5q52 0 89-36.5t37-89.5-37-89-89-36zm-461 610h244l80-288H467z"/><glyph glyph-name="uni01D6" unicode="ǖ" horiz-adv-x="1076" d="M80 370v630h244V434q0-59 29-107.5t77.5-77T537 221q60 0 108 28.5t77 77T751 434v566h244L996 0H752l-1 91Q699 37 628 5.5T476-26q-109 0-199 53.5t-143.5 143T80 370zm291 702q-54 0-91 36t-37 89 37 89.5 91 36.5q52 0 88.5-36.5T496 1197t-36.5-89-88.5-36zm396 0q-54 0-91 36t-37 89 37 89.5 91 36.5q52 0 89-36.5t37-89.5-37-89-89-36zm-538 539h676v-183H229v183z"/><glyph glyph-name="uni1EE5" unicode="ụ" horiz-adv-x="1076" d="M80 370v630h244V434q0-59 29-107.5t77.5-77T537 221q60 0 108 28.5t77 77T751 434v566h244L996 0H752l-1 91Q699 37 628 5.5T476-26q-109 0-199 53.5t-143.5 143T80 370zm489-808q-54 0-91 35.5T441-313q0 53 37 89t90 36 89.5-36 36.5-89q0-54-36-89.5T569-438z"/><glyph glyph-name="ugrave" unicode="ù" horiz-adv-x="1076" d="M80 370v630h244V434q0-59 29-107.5t77.5-77T537 221q60 0 108 28.5t77 77T751 434v566h244L996 0H752l-1 91Q699 37 628 5.5T476-26q-109 0-199 53.5t-143.5 143T80 370zm226 1030h244l80-288H467z"/><glyph glyph-name="uhungarumlaut" unicode="ű" horiz-adv-x="1076" d="M80 370v630h244V434q0-59 29-107.5t77.5-77T537 221q60 0 108 28.5t77 77T751 434v566h244L996 0H752l-1 91Q699 37 628 5.5T476-26q-109 0-199 53.5t-143.5 143T80 370zm602 742l80 288h244l-162-288H682zm-335 0l80 288h244l-162-288H347z"/><glyph glyph-name="umacron" unicode="ū" horiz-adv-x="1076" d="M80 370v630h244V434q0-59 29-107.5t77.5-77T537 221q60 0 108 28.5t77 77T751 434v566h244L996 0H752l-1 91Q699 37 628 5.5T476-26q-109 0-199 53.5t-143.5 143T80 370zm149 959h676v-183H229v183z"/><glyph glyph-name="uogonek" unicode="ų" horiz-adv-x="1076" d="M80 370v630h244V434q0-59 29-107.5t77.5-77T537 221q60 0 108 28.5t77 77T751 434v566h244L996 0H752l-1 91Q699 37 628 5.5T476-26q-109 0-199 53.5t-143.5 143T80 370zm793-820q-71 1-123.5 35T668-327t-29 114q0 45 16.5 87.5T708-47l168 168L995 2q-37-37-69-67.5t-55.5-57-37-51T820-222t17-43.5 46-20.5q38 0 66.5 27.5T978-190h155q0-70-34-129t-93-95-133-36z"/><glyph glyph-name="uring" unicode="ů" horiz-adv-x="1076" d="M80 370v630h244V434q0-59 29-107.5t77.5-77T537 221q60 0 108 28.5t77 77T751 434v566h244L996 0H752l-1 91Q699 37 628 5.5T476-26q-109 0-199 53.5t-143.5 143T80 370zm488 700q-77 0-131.5 56T382 1258q0 50 25 92t67.5 67 93.5 25q76 0 130.5-54.5T753 1258q0-78-54.5-133T568 1070zm0 119q27 0 47 20t20 48q0 27-20 46.5t-47 19.5q-28 0-47.5-19.5T501 1258q0-29 19.5-49t47.5-20z"/><glyph glyph-name="utilde" unicode="ũ" horiz-adv-x="1076" d="M80 370v630h244V434q0-59 29-107.5t77.5-77T537 221q60 0 108 28.5t77 77T751 434v566h244L996 0H752l-1 91Q699 37 628 5.5T476-26q-109 0-199 53.5t-143.5 143T80 370zm643 737q-37 0-87.5 26t-101 58-88 51.5-50.5 5.5q-13-13-16-33.5t7-53.5l-143-39q-27 78-13.5 142t60 102.5T411 1405q37 0 84.5-21.5t95.5-50 85-50 53-21.5q20 0 26 14t3 34-10 38l145 47q27-82 11.5-147t-63-103-118.5-38z"/><glyph glyph-name="v" unicode="v" horiz-adv-x="1163" d="M739 0H424L60 1001h260l262-720 261 720h260z"/><glyph glyph-name="w" unicode="w" horiz-adv-x="1705" d="M636 0H394L60 1000h239l217-647 216 647h241l216-647 217 647h239L1311 0h-242L852 650z"/><glyph glyph-name="wacute" unicode="ẃ" horiz-adv-x="1705" d="M636 0H394L60 1000h239l217-647 216 647h241l216-647 217 647h239L1311 0h-242L852 650zm153 1110l80 288h244l-162-288H789z"/><glyph glyph-name="wcircumflex" unicode="ŵ" horiz-adv-x="1705" d="M636 0H394L60 1000h239l217-647 216 647h241l216-647 217 647h239L1311 0h-242L852 650zm353 1398l194-288h-163l-168 193-165-193H524l191 288h274z"/><glyph glyph-name="wdieresis" unicode="ẅ" horiz-adv-x="1705" d="M636 0H394L60 1000h239l217-647 216 647h241l216-647 217 647h239L1311 0h-242L852 650zm20 1070q-54 0-91 36t-37 89 37 89.5 91 36.5q52 0 88.5-36.5T781 1195t-36.5-89-88.5-36zm396 0q-54 0-91 36t-37 89 37 89.5 91 36.5q52 0 89-36.5t37-89.5-37-89-89-36z"/><glyph glyph-name="wgrave" unicode="ẁ" horiz-adv-x="1705" d="M636 0H394L60 1000h239l217-647 216 647h241l216-647 217 647h239L1311 0h-242L852 650zm-45 1398h244l80-288H752z"/><glyph glyph-name="x" unicode="x" horiz-adv-x="1193" d="M80 0l366 502-363 499h301l212-291 213 291h301L747 502 1113 0H812L596 296 381 0H80z"/><glyph glyph-name="y" unicode="y" horiz-adv-x="1145" d="M806 1000h259L518-500H259L440 0 80 1000h267l215-666z"/><glyph glyph-name="yacute" unicode="ý" horiz-adv-x="1145" d="M806 1000h259L518-500H259L440 0 80 1000h267l215-666zm-297 110l80 288h244l-162-288H509z"/><glyph glyph-name="ycircumflex" unicode="ŷ" horiz-adv-x="1145" d="M806 1000h259L518-500H259L440 0 80 1000h267l215-666zm-97 398l194-288H740l-168 193-165-193H244l191 288h274z"/><glyph glyph-name="ydieresis" unicode="ÿ" horiz-adv-x="1145" d="M806 1000h259L518-500H259L440 0 80 1000h267l215-666zm-430 70q-54 0-91 36t-37 89 37 89.5 91 36.5q52 0 88.5-36.5T501 1195t-36.5-89-88.5-36zm396 0q-54 0-91 36t-37 89 37 89.5 91 36.5q52 0 89-36.5t37-89.5-37-89-89-36z"/><glyph glyph-name="uni1EF5" unicode="ỵ" horiz-adv-x="1145" d="M806 1000h259L518-500H259L440 0 80 1000h267l215-666zm6-1440q-54 0-91 35.5T684-315q0 53 37 89t90 36 89.5-36 36.5-89q0-54-36-89.5T812-440z"/><glyph glyph-name="ygrave" unicode="ỳ" horiz-adv-x="1145" d="M806 1000h259L518-500H259L440 0 80 1000h267l215-666zm-495 398h244l80-288H472z"/><glyph glyph-name="uni0233" unicode="ȳ" horiz-adv-x="1145" d="M806 1000h259L518-500H259L440 0 80 1000h267l215-666zm-571 327h676v-183H235v183z"/><glyph glyph-name="uni1EF9" unicode="ỹ" horiz-adv-x="1145" d="M806 1000h259L518-500H259L440 0 80 1000h267l215-666zm-78 105q-37 0-87.5 26t-101 58-88 51.5-50.5 5.5q-13-13-16-33.5t7-53.5l-143-39q-27 78-13.5 142t60 102.5T416 1403q37 0 84.5-21.5t95.5-50 85-50 53-21.5q20 0 26 14t3 34-10 38l145 47q27-82 11.5-147t-63-103-118.5-38z"/><glyph glyph-name="z" unicode="z" horiz-adv-x="1014" d="M934 756L431 244h503V0H80v244l503 512H80v244h854V756z"/><glyph glyph-name="zacute" unicode="ź" horiz-adv-x="1014" d="M934 756L431 244h503V0H80v244l503 512H80v244h854V756zm-490 354l80 288h244l-162-288H444z"/><glyph glyph-name="zcaron" unicode="ž" horiz-adv-x="1014" d="M934 756L431 244h503V0H80v244l503 512H80v244h854V756zm-563 354l-194 288h163l167-193 166 193h163l-191-288H371z"/><glyph glyph-name="zdotaccent" unicode="ż" horiz-adv-x="1014" d="M934 756L431 244h503V0H80v244l503 512H80v244h854V756zm-425 373q-54 0-91 35.5t-37 89.5q0 53 37 89t90 36 89.5-36 36.5-89q0-54-36-89.5t-89-35.5z"/><glyph glyph-name="uni1E93" unicode="ẓ" horiz-adv-x="1014" d="M934 756L431 244h503V0H80v244l503 512H80v244h854V756zM509-440q-54 0-91 35.5T381-315q0 53 37 89t90 36 89.5-36 36.5-89q0-54-36-89.5T509-440z"/><glyph glyph-name="ordfeminine" unicode="ª" horiz-adv-x="1198" d="M874 1000h244V0H874l-11 124Q822 57 754.5 15.5T595-26q-111 0-208 42T216.5 132t-115 171T60 511q0 107 39.5 201T210 877t164 111 200 40q99 0 177.5-44T885 872zM589 209q78 0 138 39t94 105.5T855 500q0 81-34 147.5T726.5 753 589 792t-140.5-39.5-101-105.5T310 500t38-147 101.5-105T589 209z"/><glyph glyph-name="ordmasculine" unicode="º" horiz-adv-x="1120" d="M560-26q-138 0-251.5 71t-181 190.5T60 500q0 110 39 205.5t107.5 168T366 987t194 41q138 0 251.5-71t181-191 67.5-266q0-109-39-204T913.5 128.5 754.5 15 560-26zm0 244q73 0 131 39t91.5 103T816 500q0 78-34.5 142.5t-93 103T560 784q-72 0-130-39t-92-104-34-141q0-79 35-143t93.5-101.5T560 218z"/><glyph glyph-name="uni03BC" unicode="μ" horiz-adv-x="1134" d="M80-432v1432h244V489q0-77 32-141t89-101.5T575 209t125.5 37.5 81 101.5T810 489v511h244V0H810v119Q761 53 691.5 12.5T534-28q-62 0-115 21.5T324 49v-481H80z"/><glyph glyph-name="zero" unicode="0" horiz-adv-x="1209" d="M605-26q-122 0-222 56.5T210.5 187 99 418.5 60 700t39 281.5T210.5 1213 383 1369.5t222 56.5 222-56.5T998.5 1213t111-231.5T1149 700t-39.5-281.5-111-231.5T827 30.5 605-26zm0 244q107 0 177 68t104 178 34 236q0 133-36 242.5T778 1117t-173 65q-81 0-140.5-39.5T366 1035t-58-154.5T289 700q0-125 34.5-235.5t105-178.5T605 218z"/><glyph glyph-name="one" unicode="1" horiz-adv-x="660" d="M256 0v1156H80l66 244h354V0H256z"/><glyph glyph-name="two" unicode="2" horiz-adv-x="1143" d="M80 0v218q65 49 154 121.5t183 157T591 666t130.5 162T772 960q0 61-30 111.5t-79.5 80.5-110.5 30-111-30-80-80.5T331 960H87q0 132 64 237.5t169.5 167T552 1426q128 0 233-62.5T953 1195t63-235q0-68-25-137t-70-139-106-141.5-134.5-146T526 244h497V0H80z"/><glyph glyph-name="three" unicode="3" horiz-adv-x="1023" d="M511-26q-127 0-229 60T120 195.5 60 421h244q0-56 26.5-102t73.5-73.5T511 218q55 0 102.5 27.5T690 319t29 102q0 73-39 121.5T571.5 615 410 639v188q124 0 196.5 47t72.5 138q0 47-24 86t-63.5 62.5T505 1184q-48 0-93-23.5t-73.5-62.5-28.5-86H66q0 86 35 161.5t96.5 132.5 140 89.5T502 1428q113 0 209-56t154-150 58-210q0-81-38-159T777 743q61-22 102-73.5t62.5-117T963 421q0-123-62-224.5t-164.5-162T511-26z"/><glyph glyph-name="four" unicode="4" horiz-adv-x="1158" d="M676 0v339H80v245l539 816h301V583h118V339H920V0H676zM363 584l313-1-1 484z"/><glyph glyph-name="five" unicode="5" horiz-adv-x="1149" d="M550-26q-135 0-244 65.5T133.5 214 70 453h244q0-65 32-118.5t85.5-85T550 218t118 31.5 85 85T785 453t-27.5 119.5-89 87T506 692H146l148 708h688v-244H492l-45-220 99-1q142-5 251-69t170.5-171.5T1029 453q0-98-37-185T889 115 736.5 11.5 550-26z"/><glyph glyph-name="six" unicode="6" horiz-adv-x="1098" d="M542-26q-134 0-246 67T117 220 50 468q0 70 16.5 130T118 719l392 681h283L530 945q81 6 156-14t139-63 112-104 74.5-136 26.5-160q0-102-38.5-191T893 119.5t-158-107T542-26zm0 244q73 0 130 35.5t89.5 92.5T794 467q0 69-33 126t-89.5 91T544 718q-73 0-129.5-35.5T326 590t-32-123q0-71 35-127t91.5-89T542 218z"/><glyph glyph-name="seven" unicode="7" horiz-adv-x="1100" d="M110 0l667 1156H40v244h1020v-244L391 0H110z"/><glyph glyph-name="eight" unicode="8" horiz-adv-x="1090" d="M544-26q-129 0-234 59T142.5 191.5 80 413q0 96 43.5 180.5T241 736q-58 53-94.5 125.5T110 1017q0 113 59 206t157.5 148 217.5 55q120 0 218-55t157-148 59-206q0-83-35.5-155.5T847 736q76-58 119.5-142.5T1010 413q0-121-62.5-220.5T779 33.5 544-26zm0 244q58 0 105 26.5t75 70.5 28 98-28 98-75 70.5T544 608q-57 0-104-26.5T364.5 511 336 413t28.5-98 75.5-70.5T544 218zm0 634q49 0 89 22.5t63.5 59.5 23.5 83-23.5 83-63.5 59.5-89 22.5q-48 0-88-22.5t-64-59.5-24-83 24-83 64-59.5 88-22.5z"/><glyph glyph-name="nine" unicode="9" horiz-adv-x="1097" d="M290 0l269 465q-99-6-188.5 27T211 590 100.5 744 60 937q0 101 38 189.5t105.5 156 156 105.5 190.5 38q133 0 243.5-66t177-177 66.5-246q0-67-16.5-126.5T969 690L572 0H290zm258 692q72 0 127.5 35t86.5 91 31 120q0 70-34 125.5t-90 87-119 31.5q-72 0-127.5-34.5T335 1057t-32-119q0-67 32.5-123t88-89.5T548 692z"/><glyph glyph-name="uni2080" unicode="₀" horiz-adv-x="648" d="M324-31q-69 0-126.5 46T106 139 72 313t34 173 91.5 123.5T324 656q70 0 127-46.5T542 486t34-173-34-174-91-124-127-46zm0 146q34 0 57.5 33t36 79.5T430 313q0 44-13 90t-36.5 76.5T324 510q-36 0-59.5-32t-35-77.5T218 313q0-45 12.5-91t36.5-76.5 57-30.5z"/><glyph glyph-name="uni2081" unicode="₁" horiz-adv-x="451" d="M161 0v485H96l21 146h190V0H161z"/><glyph glyph-name="uni2082" unicode="₂" horiz-adv-x="714" d="M96 0v129q42 29 90 60.5t95 67 84.5 77T424 425q0 38-26 63.5T334 514t-65-25.5-27-63.5H96q0 65 32 118t86.5 84.5T334 659q66 0 119-31.5t85-84.5 32-118q0-41-19-78.5T501 274t-68-67-73-61h201V0H96z"/><glyph glyph-name="uni2083" unicode="₃" horiz-adv-x="577" d="M289-31q-59 0-108.5 29t-79 77.5T72 184h146q0-30 20.5-49.5T289 115q29 0 49.5 19.5T359 184q0 36-30.5 65T237 278v98q60 0 82.5 25.5T342 457q0 22-17 37.5T284 510q-22 0-39-15.5T228 457H82q0 83 59.5 141T284 656q85 0 144-58t59-141q0-37-11.5-69.5T443 331q31-30 46.5-67t15.5-80q0-60-29.5-108.5T397-2 289-31z"/><glyph glyph-name="uni2084" unicode="₄" horiz-adv-x="691" d="M342 0v98H96v176l227 357h165V244h59V98h-59V0H342zM239 244h116v185z"/><glyph glyph-name="uni2085" unicode="₅" horiz-adv-x="698" d="M318-31q-64 0-117 31t-85 82.5T84 199h146q0-35 25.5-59.5T318 115t63.5 24.5T408 199q0 37-26.5 62.5T318 287l-202-8 35 349h342V499H283l-3-68 41 2q111 0 172-67.5T554 199q0-65-32-116.5T436.5 0 318-31z"/><glyph glyph-name="uni2086" unicode="₆" horiz-adv-x="682" d="M329-31q-98 0-165.5 66.5T96 199q0 28 6.5 53.5t27.5 66 63.5 113T307 627h169L358 424q63-10 109-42.5t70.5-80T562 197q0-65-32-117T445-1.5 329-31zm0 146q39 0 65 28t20 67q-4 34-29 54t-56 20q-45 0-67.5-32T243 185q5-37 31-53.5t55-16.5z"/><glyph glyph-name="uni2087" unicode="₇" horiz-adv-x="669" d="M148 0l280 485H120v146h477V489L315 0H148z"/><glyph glyph-name="uni2088" unicode="₈" horiz-adv-x="626" d="M312-31q-90 0-153 61T96 180q0 43 16 82t43 67q-21 26-33.5 58.5T109 454q0 87 59.5 144.5T312 656t144.5-57.5T517 454q0-34-12.5-66.5T471 329q27-28 43-67t16-82q0-89-63.5-150T312-31zm0 143q30 0 51 19.5t21 48.5q0 30-21 50.5T312 251q-29 0-49.5-20.5T242 180q0-29 20.5-48.5T312 112zm0 285q25 0 42 17.5t17 39.5q0 25-17 41t-42 16q-23 0-40-16t-17-41q0-22 17-39.5t40-17.5z"/><glyph glyph-name="uni2089" unicode="₉" horiz-adv-x="658" d="M156 0l118 204q-49 3-88.5 26T119 289.5 81.5 369 79 457q6 58 37 103.5t80.5 72T305 659q66 0 118.5-31t82.5-82 32-112-32-120L324 0H156zm149 343q26 0 47 13.5t31.5 36T391 441q-3 31-30 52t-56 21q-28 0-48.5-14T226 464.5t-7-46.5q4-41 32.5-58t53.5-17z"/><glyph glyph-name="uni2070" unicode="⁰" horiz-adv-x="648" d="M324 798q-69 0-126.5 44T106 962t-34 172q0 95 34 170.5t91.5 119.5 126.5 44q70 0 127-44t91-119.5 34-170.5q0-96-34-172t-91-120-127-44zm0 136q34 0 57.5 33.5t36 80T430 1134q0 45-13 90.5t-36.5 76.5-56.5 31q-36 0-59.5-32.5t-35-78T218 1134q0-46 12.5-92t36.5-77 57-31z"/><glyph glyph-name="uni00B9" unicode="¹" horiz-adv-x="451" d="M161 818v485H96l21 146h190V818H161z"/><glyph glyph-name="uni00B2" unicode="²" horiz-adv-x="714" d="M96 818v129q42 29 90 60t95 66.5 84.5 77T424 1242q0 38-26 64t-64 26-65-26-27-64H96q0 66 32 117t86.5 80 119.5 29q98 0 167-64t69-162q0-41-19-78t-50-72-68-67-73-61h201V818H96z"/><glyph glyph-name="uni00B3" unicode="³" horiz-adv-x="577" d="M289 798q-88 0-152.5 58.5T72 1004h146q0-30 20.5-50t50.5-20q29 0 49.5 20t20.5 50q0 36-30.5 65.5T237 1099v97q60 0 82.5 25.5T342 1277q0 23-17 38.5t-41 15.5q-22 0-39-15.5t-17-38.5H82q0 83 59.5 137t142.5 54q85 0 144-54t59-137q0-36-11.5-69t-32.5-57q31-29 46.5-66t15.5-81q0-89-64-147.5T289 798z"/><glyph glyph-name="uni2074" unicode="⁴" horiz-adv-x="691" d="M342 818v98H96v175l227 358h165v-387h59V916h-59v-98H342zm-103 244h116v185z"/><glyph glyph-name="uni2075" unicode="⁵" horiz-adv-x="698" d="M318 798q-96 0-165 62.5T84 1020h146q0-36 25.5-61t62.5-25 63.5 25 26.5 61-26.5 60.5T318 1108q-21 2-55 .5t-72-5-73-9.5l33 355h342v-127H283l-3-70q124 5 199-59.5t75-172.5q0-97-69.5-159.5T318 798z"/><glyph glyph-name="uni2076" unicode="⁶" horiz-adv-x="706" d="M329 798q-98 0-165.5 62T96 1019q0 28 6.5 53t27.5 66 63.5 113.5T307 1446h169l-118-201q63-10 109-42.5t70.5-80T562 1017q0-65-32-114.5t-85-77T329 798zm0 136q39 0 65 28.5t20 68.5q-4 33-29 53.5t-56 20.5q-45 0-68-32t-18-68 31-53.5 55-17.5z"/><glyph glyph-name="uni2077" unicode="⁷" horiz-adv-x="669" d="M151 818l277 483H120v146h477v-142L318 818H151z"/><glyph glyph-name="uni2078" unicode="⁸" horiz-adv-x="626" d="M312 798q-90 0-153 56.5T96 1000q0 44 16 82.5t43 66.5q-21 26-33.5 58.5T109 1275q0 85 59.5 140t143.5 55 144.5-55 60.5-140q0-35-12.5-67.5T471 1149q27-28 43-66.5t16-82.5q0-89-63.5-145.5T312 798zm0 135q30 0 51 19t21 48q0 30-21 51t-51 21q-29 0-49.5-21t-20.5-51q0-29 20.5-48t49.5-19zm0 285q25 0 42 17t17 40q0 25-17 41t-42 16q-23 0-40-16t-17-41q0-23 17-40t40-17z"/><glyph glyph-name="uni2079" unicode="⁹" horiz-adv-x="658" d="M156 818l118 204q-49 3-88.5 26t-66.5 59-37.5 79-2.5 88q8 86 73 140t153 54q54 0 99-20t76-55 45-79.5 6-93.5q-1-46-26-90L324 818H156zm149 342q26 0 47 13.5t31.5 36.5 7.5 49q-3 31-30 52t-56 21q-28 0-48.5-14t-30.5-36-7-46q4-41 32.5-58.5T305 1160z"/><glyph glyph-name="fraction" unicode="⁄" horiz-adv-x="450" d="M-280 0l808 1400h202L-78 0h-202z"/><glyph glyph-name="fraction" unicode="∕" horiz-adv-x="450" d="M-280 0l808 1400h202L-78 0h-202z"/><glyph glyph-name="onehalf" unicode="½" horiz-adv-x="1615" d="M161 818v485H96l21 146h190V818H161zM171 0l808 1400h202L373 0H171zm826 0v129q42 29 90 60.5t95 67 84.5 77T1325 425q0 38-26 63.5t-64 25.5-65-25.5-27-63.5H997q0 65 32 118t86.5 84.5T1235 659q66 0 119-31.5t85-84.5 32-118q0-41-19-78.5t-50-72.5-68-67-73-61h201V0H997z"/><glyph glyph-name="onequarter" unicode="¼" horiz-adv-x="1592" d="M161 818v485H96l21 146h190V818H161zM171 0l808 1400h202L373 0H171zm1072 0v98H997v176l227 357h165V244h59V98h-59V0h-146zm-103 244h116v185z"/><glyph glyph-name="threequarters" unicode="¾" horiz-adv-x="1718" d="M289 798q-88 0-152.5 58.5T72 1004h146q0-30 20.5-50t50.5-20q29 0 49.5 20t20.5 50q0 36-30.5 65.5T237 1099v97q60 0 82.5 25.5T342 1277q0 23-17 38.5t-41 15.5q-22 0-39-15.5t-17-38.5H82q0 83 59.5 137t142.5 54q85 0 144-54t59-137q0-36-11.5-69t-32.5-57q31-29 46.5-66t15.5-81q0-89-64-147.5T289 798zm8-798l808 1400h202L499 0H297zm1072 0v98h-246v176l227 357h165V244h59V98h-59V0h-146zm-103 244h116v185z"/><glyph glyph-name="oneeighth" unicode="⅛" horiz-adv-x="1527" d="M161 818v485H96l21 146h190V818H161zM171 0l808 1400h202L373 0H171zm1042-31q-90 0-153 61t-63 150q0 43 16 82t43 67q-21 26-33.5 58.5T1010 454q0 87 59.5 144.5T1213 656t144.5-57.5T1418 454q0-34-12.5-66.5T1372 329q27-28 43-67t16-82q0-89-63.5-150T1213-31zm0 143q30 0 51 19.5t21 48.5q0 30-21 50.5t-51 20.5q-29 0-49.5-20.5T1143 180q0-29 20.5-48.5T1213 112zm0 285q25 0 42 17.5t17 39.5q0 25-17 41t-42 16q-23 0-40-16t-17-41q0-22 17-39.5t40-17.5z"/><glyph glyph-name="threeeighths" unicode="⅜" horiz-adv-x="1653" d="M289 798q-88 0-152.5 58.5T72 1004h146q0-30 20.5-50t50.5-20q29 0 49.5 20t20.5 50q0 36-30.5 65.5T237 1099v97q60 0 82.5 25.5T342 1277q0 23-17 38.5t-41 15.5q-22 0-39-15.5t-17-38.5H82q0 83 59.5 137t142.5 54q85 0 144-54t59-137q0-36-11.5-69t-32.5-57q31-29 46.5-66t15.5-81q0-89-64-147.5T289 798zm8-798l808 1400h202L499 0H297zm1042-31q-90 0-153 61t-63 150q0 43 16 82t43 67q-21 26-33.5 58.5T1136 454q0 87 59.5 144.5T1339 656t144.5-57.5T1544 454q0-34-12.5-66.5T1498 329q27-28 43-67t16-82q0-89-63.5-150T1339-31zm0 143q30 0 51 19.5t21 48.5q0 30-21 50.5t-51 20.5q-29 0-49.5-20.5T1269 180q0-29 20.5-48.5T1339 112zm0 285q25 0 42 17.5t17 39.5q0 25-17 41t-42 16q-23 0-40-16t-17-41q0-22 17-39.5t40-17.5z"/><glyph glyph-name="fiveeighths" unicode="⅝" horiz-adv-x="1773" d="M318 798q-96 0-165 62.5T84 1020h146q0-36 25.5-61t62.5-25 63.5 25 26.5 61-26.5 60.5T318 1108q-21 2-55 .5t-72-5-73-9.5l33 355h342v-127H283l-3-70q124 5 199-59.5t75-172.5q0-97-69.5-159.5T318 798zM418 0l808 1400h202L620 0H418zm1042-31q-90 0-153 61t-63 150q0 43 16 82t43 67q-21 26-33.5 58.5T1257 454q0 87 59.5 144.5T1460 656t144.5-57.5T1665 454q0-34-12.5-66.5T1619 329q27-28 43-67t16-82q0-89-63.5-150T1460-31zm0 143q30 0 51 19.5t21 48.5q0 30-21 50.5t-51 20.5q-29 0-49.5-20.5T1390 180q0-29 20.5-48.5T1460 112zm0 285q25 0 42 17.5t17 39.5q0 25-17 41t-42 16q-23 0-40-16t-17-41q0-22 17-39.5t40-17.5z"/><glyph glyph-name="seveneighths" unicode="⅞" horiz-adv-x="1745" d="M151 818l277 483H120v146h477v-142L318 818H151zM389 0l808 1400h202L591 0H389zm1042-31q-90 0-153 61t-63 150q0 43 16 82t43 67q-21 26-33.5 58.5T1228 454q0 87 59.5 144.5T1431 656t144.5-57.5T1636 454q0-34-12.5-66.5T1590 329q27-28 43-67t16-82q0-89-63.5-150T1431-31zm0 143q30 0 51 19.5t21 48.5q0 30-21 50.5t-51 20.5q-29 0-49.5-20.5T1361 180q0-29 20.5-48.5T1431 112zm0 285q25 0 42 17.5t17 39.5q0 25-17 41t-42 16q-23 0-40-16t-17-41q0-22 17-39.5t40-17.5z"/><glyph glyph-name="nonmarkingreturn" horiz-adv-x="1200"/><glyph glyph-name="nonmarkingreturn" horiz-adv-x="1200"/><glyph glyph-name=".null" horiz-adv-x="1200"/><glyph glyph-name=".null" horiz-adv-x="1200"/><glyph glyph-name="uni2002" horiz-adv-x="1000"/><glyph glyph-name="space" horiz-adv-x="480"/><glyph glyph-name="uni00A0" horiz-adv-x="480"/><glyph glyph-name="uni2009" horiz-adv-x="400"/><glyph glyph-name="uni200B" unicode="​" horiz-adv-x="0"/><glyph glyph-name="period" unicode="." horiz-adv-x="451" d="M205-26q-52 0-88.5 36.5T80 100q0 51 36.5 88t88.5 37 89-37 37-88q0-53-37-89.5T205-26z"/><glyph glyph-name="comma" unicode="," horiz-adv-x="506" d="M80-112l62 338h244L243-112H80z"/><glyph glyph-name="colon" unicode=":" horiz-adv-x="451" d="M205 749q-52 0-88.5 36.5T80 875q0 51 36.5 88t88.5 37 89-37 37-88q0-53-37-89.5T205 749zm0-775q-52 0-88.5 36.5T80 100q0 51 36.5 88t88.5 37 89-37 37-88q0-53-37-89.5T205-26z"/><glyph glyph-name="semicolon" unicode=";" horiz-adv-x="509" d="M80-112l62 338h244L243-112H80zm184 861q-53 0-89.5 36.5T138 874t36.5 89 89.5 37q51 0 88-37t37-89-37-88.5-88-36.5z"/><glyph glyph-name="ellipsis" unicode="…" horiz-adv-x="1256" d="M205-26q-52 0-88.5 36.5T80 100q0 51 36.5 88t88.5 37 89-37 37-88q0-53-37-89.5T205-26zm403 0q-52 0-88.5 36.5T483 100q0 51 36.5 88t88.5 37 89-37 37-88q0-53-37-89.5T608-26zm402 0q-52 0-88.5 36.5T885 100q0 51 36.5 88t88.5 37 89-37 37-88q0-53-37-89.5T1010-26z"/><glyph glyph-name="exclam" unicode="!" horiz-adv-x="449" d="M102 420v980h206V420H102zM206-26q-53 0-89.5 37T80 101q0 52 36.5 88t89.5 36q51 0 87-36t36-88q0-53-36-90t-87-37z"/><glyph glyph-name="exclamdown" unicode="¡" horiz-adv-x="440" d="M204 1026q53 0 89-36.5t36-90.5q0-51-36-87.5T204 775q-51 0-87.5 36.5T80 899q0 54 36.5 90.5T204 1026zm103-446v-980H102v980h205z"/><glyph glyph-name="question" unicode="?" horiz-adv-x="1108" d="M426 428q0 114 57 209t156 149q49 26 77 76.5T744 974q0 58-28.5 105.5t-76.5 75-105 27.5q-58 0-106-27.5t-76-75T324 974H80q0 125 61 227.5T305.5 1365t228.5 61 228-61 164.5-163.5T988 974q0-128-62.5-236T754 571q-39-21-61.5-59T670 428H426zM557-26q-53 0-89.5 37T431 101q0 52 36.5 88t89.5 36q52 0 88-36t36-88q0-53-36-90t-88-37z"/><glyph glyph-name="questiondown" unicode="¿" horiz-adv-x="1099" d="M534-426q-125 0-228 61T141.5-201 80 26q0 129 62.5 237.5T313 429q40 21 62.5 59t22.5 84h244q0-113-56.5-208T428 214q-48-26-76-76.5T324 26q0-58 28.5-105t76-75T534-182t105.5 28 76 75T744 26h244q0-124-61-227T762.5-365 534-426zM511 775q-52 0-88 36.5T387 899q0 54 36 90.5t88 36.5q53 0 89-36.5t36-90.5q0-51-36-87.5T511 775z"/><glyph glyph-name="periodcentered" unicode="·" horiz-adv-x="411" d="M205 474q-52 0-88.5 36.5T80 600q0 52 36.5 89t88.5 37 89-37 37-89q0-53-37-89.5T205 474z"/><glyph glyph-name="bullet" unicode="•" horiz-adv-x="495" d="M247 433q-70 0-118.5 48.5T80 600t48.5 118.5T247 767t119-48.5T415 600t-49-118.5T247 433z"/><glyph glyph-name="asterisk" unicode="*" horiz-adv-x="724" d="M246 835l-136 99 101 138-161 51 50 161 163-53v169h168v-169l161 53 52-161-163-51 101-138-136-99-99 139z"/><glyph glyph-name="numbersign" unicode="#" horiz-adv-x="1573" d="M1429 878h-166l-97-355h169l-64-236h-166L1027 0H783l78 287H491L415 0H171l76 287H80l64 236h166l97 355H238l64 235h167l77 287h244l-77-287h369l76 287h244l-76-287h167zM922 523l97 355H651l-97-355h368z"/><glyph glyph-name="slash" unicode="/" horiz-adv-x="810" d="M730 1400L324-112H80l406 1512h244z"/><glyph glyph-name="backslash" unicode="\" horiz-adv-x="808" d="M484-112L80 1400h244L728-112H484z"/><glyph glyph-name="hyphen" unicode="-" horiz-adv-x="880" d="M120 722h640V478H120v244z"/><glyph glyph-name="uni00AD" unicode="­" horiz-adv-x="889" d="M129 722h640V478H129v244z"/><glyph glyph-name="endash" unicode="–" horiz-adv-x="1240" d="M120 722h1000V478H120v244z"/><glyph glyph-name="emdash" unicode="—" horiz-adv-x="2040" d="M120 722h1800V478H120v244z"/><glyph glyph-name="underscore" unicode="_" horiz-adv-x="1240" d="M120 132h1000v-244H120v244z"/><glyph glyph-name="parenleft" unicode="(" horiz-adv-x="758" d="M414-112Q310-10 245.5 106t-95 250T120 644q0 72 14 162t40 183.5 62.5 177T318 1312t96 88h244q-42-29-83.5-91t-79-143.5-67-173.5T382 810t-18-166q1-156 44.5-298.5T519 86.5 658-112H414z"/><glyph glyph-name="parenright" unicode=")" horiz-adv-x="758" d="M100-112q72 82 139 198.5t110.5 259T394 644q-1 76-18 166t-46.5 182-67 173.5-79 143.5-83.5 91h244q51-26 96-88t81.5-145.5 62.5-177T624 806t14-162q0-154-30-288t-95-250-169-218H100z"/><glyph glyph-name="braceleft" unicode="{" horiz-adv-x="821" d="M613-112q-97 0-176.5 47T310 61.5 263 238v244q-1 27-22.5 44.5t-50 32T141 593t-21 51q0 30 21 50t49.5 35.5 50 33T263 804v246q0 96 47 175.5t126.5 127T613 1400h108v-244H613q-29 0-53-14t-38.5-38.5T507 1050V796q-2-34-20.5-57.5t-40.5-45-35-49.5q14-31 35.5-52t40-43.5T507 492V238q0-30 14-54t38-38 54-14h108v-244H613z"/><glyph glyph-name="braceright" unicode="}" horiz-adv-x="821" d="M100-112v244h108q29 0 53 14t38.5 38 14.5 54v254q2 34 20 56.5t40 43.5 35 52q-13 28-34.5 49.5t-40 45T314 796v254q0 29-14.5 53.5T261 1142t-53 14H100v244h108q97 0 176.5-47.5t126.5-127 47-175.5V804q1-24 22-41.5t49.5-33 50-35.5 21.5-50q0-31-21.5-51t-50-34.5-49.5-32-22-44.5V238q0-97-47-176.5T384.5-65 208-112H100z"/><glyph glyph-name="bracketleft" unicode="[" horiz-adv-x="641" d="M541 132v-244H120v1512h421v-244H364V132h177z"/><glyph glyph-name="bracketright" unicode="]" horiz-adv-x="642" d="M100-112v244h178v1024H100v244h422V-112H100z"/><glyph glyph-name="quotesinglbase" unicode="‚" horiz-adv-x="457" d="M71-112l62 338h244L234-112H71z"/><glyph glyph-name="quotedblbase" unicode="„" horiz-adv-x="825" d="M71-112l62 338h244L234-112H71zm368 0l62 338h244L602-112H439z"/><glyph glyph-name="quotedblleft" unicode="“" horiz-adv-x="804" d="M120 878l143 522h163l-62-522H120zm338 4l143 522h163l-62-522H458z"/><glyph glyph-name="quotedblright" unicode="”" horiz-adv-x="804" d="M40 878l62 522h244L203 878H40zm338 0l62 522h244L541 878H378z"/><glyph glyph-name="quotedblright" unicode="″" horiz-adv-x="804" d="M40 878l62 522h244L203 878H40zm338 0l62 522h244L541 878H378z"/><glyph glyph-name="quoteleft" unicode="ʻ" horiz-adv-x="406" d="M60 878l143 522h163l-62-522H60z"/><glyph glyph-name="quoteleft" unicode="‘" horiz-adv-x="406" d="M60 878l143 522h163l-62-522H60z"/><glyph glyph-name="quoteright" unicode="’" horiz-adv-x="406" d="M40 878l62 522h244L203 878H40z"/><glyph glyph-name="quoteright" unicode="′" horiz-adv-x="406" d="M40 878l62 522h244L203 878H40z"/><glyph glyph-name="guillemotleft" unicode="«" horiz-adv-x="1176" d="M420 261L120 601l300 338h249L370 601l299-340H420zm407 0L527 601l300 338h249L777 601l299-340H827z"/><glyph glyph-name="guillemotright" unicode="»" horiz-adv-x="1196" d="M507 261l298 340-298 338h249l300-338-300-340H507zm-407 0l298 340-298 338h249l300-338-300-340H100z"/><glyph glyph-name="guilsinglleft" unicode="‹" horiz-adv-x="769" d="M420 261L120 601l300 338h249L370 601l299-340H420z"/><glyph glyph-name="guilsinglright" unicode="›" horiz-adv-x="769" d="M100 261l298 340-298 338h249l300-338-300-340H100z"/><glyph glyph-name="uni2035" unicode="‵" horiz-adv-x="546" d="M263 878l-143 522h244l62-522H263z"/><glyph glyph-name="quotedbl" unicode="&quot;" horiz-adv-x="589" d="M65 878v522h167V878H65zm292 0v522h167V878H357z"/><glyph glyph-name="quotesingle" unicode="'" horiz-adv-x="297" d="M65 878v522h167V878H65z"/><glyph glyph-name="at" unicode="@" horiz-adv-x="1834" d="M917-251q-174 0-325.5 59.5T325-24 145 230.5 80 550q0 174 65 326t180 267 267 180 325 65q175 0 327-65.5t266.5-181 179-267T1754 550q0-95-23-187t-68.5-165.5-112-117.5T1398 36q-61 0-124.5 27t-109 72.5T1108 235q-39-38-93-60.5T895 152q-109 0-199.5 54t-144 144.5T498 550q0 110 53.5 200.5t144 144T895 948q60 0 124.5-19.5T1120 876v51l182-38V362q0-37 22.5-59.5T1383 280q45 0 73.5 47t41 110 12.5 113q0 124-46.5 232T1335 971t-189 127-229 46-229.5-46-189-127.5-128-189T324 550q0-123 46-225t127.5-176.5 189-115T917-7v-244zm-2 585q59 0 105.5 31t73 81.5T1120 555q0 57-25.5 105t-72 77T915 766q-60 0-108.5-29t-78-78T699 550q0-59 29.5-108t78.5-78.5T915 334z"/><glyph glyph-name="ampersand" unicode="&amp;" horiz-adv-x="1431" d="M510-26q-123 0-220 60T136.5 192.5 80 405q0 64 12 112t41 93.5 79 100T338 841q-41 42-69.5 75T223 980.5t-24.5 64.5-7.5 75q0 92 44 164.5T352 1399t158 42q89 0 161.5-42.5t116-115.5 43.5-163q0-43-7.5-77t-25-65-46-64-69.5-73l264-264 252 253V485l-81-81 233-232L1178 0 947 231q-77-77-132-127T714.5 25.5t-93-40T510-26zm0 244q35 0 61 8.5t52 30 61.5 57.5 89.5 90L510 668q-56-57-92.5-93T361 513.5 332.5 463t-8.5-59q0-54 26.5-96t69-66 90.5-24zm0 760q45 43 67.5 65t31 38.5 8.5 43.5q0 50-34 78t-73 28q-42 0-73.5-31t-31.5-75q0-27 9.5-45t32.5-40 63-62z"/><glyph glyph-name="paragraph" unicode="¶" horiz-adv-x="1058" d="M420-302V718q-94 0-171 46T126 887.5 80 1060q0 94 46 171t123 123 171 46h244V-302H420zm314 0v1702h244V-302H734z"/><glyph glyph-name="section" unicode="§" horiz-adv-x="1102" d="M543-372q-119 0-218.5 50T167-183L360-69q14-24 39-44.5t57.5-34T523-163q45-3 82 7.5t59.5 35T687-57 657.5 2.5t-72 31T503 51q-110 15-196.5 80T170 293t-50 207q0 73 23 140.5t65 122 98 91.5q-58 33-88.5 82T187 1051q0 99 52.5 171t137 111 182.5 39q119 0 218.5-49.5T935 1183l-193-114q-14 24-39 44.5t-57 34-67 15.5q-45 3-82-7.5t-59.5-35T415 1057q0-38 28-57.5t69-30 82-18.5q115-22 202.5-83.5t136.5-155T982 500q0-74-23.5-141T893 238t-99-91q60-33 90.5-82T915-51q0-99-52-171T726-333t-183-39zm19 640q55 0 102 33t75 85.5T767 498q0 70-30 123t-83 82-120 29q-51 0-97-34t-74-87-28-111q0-65 29.5-117.5T445 299t117-31z"/><glyph glyph-name="copyright" unicode="©" horiz-adv-x="1906" d="M952-319q-181 0-339 68T335-63.5t-187.5 278T80 554t67.5 339T335 1171t278 187.5 339 67.5 339.5-67.5 279-187 188-278T1826 554t-67.5-339.5-188-278-279-187.5T952-319zm0 244q134 0 248.5 49.5t200 137 133.5 201 48 241.5q0 129-49 243t-135 200.5-200.5 135.5-245.5 49q-132 0-246.5-50t-200-137T372 795t-48-241q0-133 50-247.5T511 106 711.5-27.5 952-75zm184 430l219-119q-69-94-173-151T955 28q-138 0-251.5 71t-181 190.5T455 554q0 110 39 205.5t107.5 168T761 1041t194 41q123 0 227-57t173-153l-219-119q-36 41-83.5 63T955 838q-72 0-130-39.5T733 694t-34-140 34.5-139.5 92-103.5T955 272q52 0 99 22.5t82 60.5z"/><glyph glyph-name="registered" unicode="®" horiz-adv-x="1124" d="M561 399q-104 0-194.5 39t-160 108.5T98.5 707 60 902q0 103 39 193.5t108 160T366.5 1364t194.5 39q106 0 197.5-40T919 1253t107-160 38-191q0-105-39.5-196.5T915.5 545t-160-107.5T561 399zm0 175q91 0 165.5 44T845 736.5 889 902q0 90-44 164t-118.5 118-165.5 44q-90 0-164-44t-118-118-44-164q0-91 44-165.5T397 618t164-44zM424 702v426h165q54 0 91.5-39.5T718 993q0-39-19-70.5T648 875l101-173H636l-93 157h-21V702h-98zm98 255h67q13 0 22 11t9 25q0 16-9 26t-22 10h-67v-72z"/><glyph glyph-name="trademark" unicode="™" horiz-adv-x="3029" d="M1180 1400v-244H752V0H508v1156H80v244h1100zM1279 0l272 1400h202l341-897 341 897h202L2909 0h-249l-168 866-315-834h-167l-315 834L1528 0h-249z"/><glyph glyph-name="degree" unicode="°" horiz-adv-x="914" d="M458 704q-107 0-192.5 52.5T130 894.5 80 1080q0 102 50.5 187.5t136 137T458 1456q107 0 192-52.5t134.5-138T834 1080q0-107-52-192T644.5 753.5 458 704zm0 244q54 0 93 38.5t39 93.5q0 56-39 94t-93 38q-55 0-94.5-38t-39.5-94q0-55 39.5-93.5T458 948z"/><glyph glyph-name="bar" unicode="|" horiz-adv-x="524" d="M140 1400h244V-302H140v1702z"/><glyph glyph-name="brokenbar" unicode="¦" d="M120 448h244v-750H120v750zm0 952h244V650H120v750z"/><glyph glyph-name="dagger" unicode="†" horiz-adv-x="859" d="M80 1033v244h227v223h244v-223h228v-244H551V569H307v464H80z"/><glyph glyph-name="daggerdbl" unicode="‡" horiz-adv-x="859" d="M80 730v242h227v137H80v244h227v147h244v-147h228v-244H551V972h228V730H551V560H307v170H80z"/><glyph glyph-name="cent" unicode="¢" horiz-adv-x="1092" d="M497 0v206q-117 21-212 91T135 472.5 80 702t55 229 150 175 212 90v204h168v-204q110-17 200.5-79.5T1012 962L801 840q-36 55-95 87.5T582 960q-70 0-129-35t-94-93.5T324 702q0-72 35.5-131t94-94T582 442q65 0 124 32.5t95 87.5l211-122q-56-91-146.5-153.5T665 206V0H497z"/><glyph glyph-name="currency" unicode="¤" horiz-adv-x="1027" d="M199 267L80 385l129 130q-35 56-46.5 120.5T163 764t48 121L80 1017l119 116 130-129q55 35 119.5 46.5t130 .5 121.5-45l130 127 117-116-128-129q37-57 49.5-122.5t.5-131T821 511l126-126-117-118-127 125q-58-35-123.5-47t-130 0T326 394zm317 239q53 1 96.5 26.5t69 69T707 699q0 56-26.5 98.5t-70 67T516 890q-56 0-99-27t-68-70.5-25-93.5q0-54 26-98t70-70 96-25z"/><glyph glyph-name="dollar" unicode="$" horiz-adv-x="1209" d="M604 1179q-71 1-134.5-22.5T366 1093t-40-92q0-67 37.5-101T464 850.5 604 822q140-22 259-74t191-138.5 72-211.5q0-114-59-202.5T908.5 51 688-20v-204H521v204Q420-8 331 31T176.5 133 80 280l229 84q14-40 57-73t105-53 133-20q73 0 136.5 22.5t102.5 63 39 94.5q0 55-41 90.5T736 545t-132 32q-149 23-267 71T150.5 781 82 1001q0 114 59.5 203t159 144.5T521 1419v205h167v-205q99-12 188-51t155.5-102.5T1129 1117l-230-83q-14 40-57 73t-105 52.5-133 19.5z"/><glyph glyph-name="Euro" unicode="€" horiz-adv-x="1121" d="M1041-16q-134-22-258 5T555.5 84 377 253.5 264 483H80v167h154v97H80v167h184q37 130 113 232.5T557 1317t227 94.5 257 4.5v-252q-84 23-161.5 14.5t-145-43.5-120.5-91-86-130h271V747H478l2-97h319V483H530q34-75 87.5-131T739 262.5t144.5-41T1041 236V-16z"/><glyph glyph-name="sterling" unicode="£" horiz-adv-x="1195" d="M104 0v244q51 0 104 13t94.5 37.5 59 59.5-1.5 78q-10 38-35 72.5t-57 69-65 71-61 77-45 87T80 909q0 107 40.5 200t112 164.5 164.5 112 200 40.5 201-40.5T963.5 1274t111.5-164.5 40-200.5H871q0 75-37 137t-99.5 99-137.5 37-137-37-99-99-37-137q0-62 21-108t54-84 70.5-73.5T540 568t54-90.5T615 358q0-24-8-46.5T588 271t-23-27h530V0H104zm0 446v167h770V446H104z"/><glyph glyph-name="yen" unicode="¥" horiz-adv-x="1335" d="M546 0v148H304v167h242v99H304v167h242v50L65 1400h287l316-503 315 503h287L790 631v-50h242V414H790v-99h242V148H790V0H546z"/><glyph glyph-name="plus" unicode="+" horiz-adv-x="1160" d="M458 100v378H80v244h378v378h244V722h378V478H702V100H458z"/><glyph glyph-name="minus" unicode="−" horiz-adv-x="1160" d="M80 478v244h1000V478H80z"/><glyph glyph-name="multiply" unicode="×" horiz-adv-x="1039" d="M252 160L80 332l266 268L80 868l172 172 266-268 268 268 173-172-268-268 268-268-173-172-268 268z"/><glyph glyph-name="divide" unicode="÷" horiz-adv-x="1160" d="M80 478v244h1000V478H80zm500 617q55 0 94-40t39-95q0-54-39-93.5T580 827q-57 0-95.5 39.5T446 960q0 55 38.5 95t95.5 40zm0-722q55 0 94.5-40t39.5-94q0-55-39.5-94.5T580 105q-57 0-95.5 39.5T446 239q0 54 38.5 94t95.5 40z"/><glyph glyph-name="equal" unicode="=" horiz-adv-x="1160" d="M80 263v244h1000V263H80zm0 430v244h1000V693H80z"/><glyph glyph-name="notequal" unicode="≠" horiz-adv-x="1160" d="M877 1182l-72-245h275V693H733l-54-186h401V263H607L535 18H281l73 245H80v244h345l54 186H80v244h471l72 245h254z"/><glyph glyph-name="greater" unicode="&gt;" horiz-adv-x="1160" d="M80 121v253l823 226L80 825v254l1000-277V396z"/><glyph glyph-name="less" unicode="&lt;" horiz-adv-x="1160" d="M1080 112L80 396v406l1000 286V834L257 600l823-235V112z"/><glyph glyph-name="greaterequal" unicode="≥" horiz-adv-x="1160" d="M80 351v254l823 225-823 225v254l1000-276V626zM80 0v244h1000V0H80z"/><glyph glyph-name="lessequal" unicode="≤" horiz-adv-x="1160" d="M1080 333L80 617v406l1000 286v-254L257 821l823-235V333zM80 0v244h1000V0H80z"/><glyph glyph-name="plusminus" unicode="±" horiz-adv-x="1160" d="M458 377v378H80v244h378v378h244V999h378V755H702V377H458zM80 0v244h1000V0H80z"/><glyph glyph-name="approxequal" unicode="≈" horiz-adv-x="1305" d="M921 680q-65 0-140.5 26.5t-151.5 61-144 61T365 855q-32 0-51.5-16.5t-27-43.5-4.5-56l-238 3q-14 89 23 167t109.5 126.5T341 1084q65 0 133-27t135.5-63.5T740 930t116-27q32 0 52 16t28.5 43 4.5 58l240-2q14-89-14-166t-91.5-124.5T921 680zm0-548q-65 0-140.5 26.5t-151.5 61-144 61T365 307q-32 0-51.5-16.5t-27-43.5-4.5-56l-238 3q-14 89 23 167t109.5 126.5T341 536q65 0 133-27t135.5-63.5T740 382t116-27q32 0 52 16t28.5 43 4.5 58l240-2q14-89-14-166t-91.5-124.5T921 132z"/><glyph glyph-name="asciitilde" unicode="~" horiz-adv-x="1305" d="M961 398q-65 0-140.5 26.5t-151.5 61-144 61T405 573q-32 0-51.5-16.5t-27-43.5-4.5-56l-238 3q-14 89 23 167t109.5 126.5T381 802q65 0 133-27t135.5-63.5T780 648t116-27q32 0 52 16t28.5 43 4.5 58l240-2q14-89-14-166t-91.5-124.5T961 398z"/><glyph glyph-name="logicalnot" unicode="¬" horiz-adv-x="1023" d="M699 289v378H80v244h863V289H699z"/><glyph glyph-name="asciicircum" unicode="^" horiz-adv-x="959" d="M80 1000l236 650h327l236-650H618l-139 384-139-384H80z"/><glyph glyph-name="emptyset" unicode="∅" horiz-adv-x="1160" d="M362-75L190 24l52 90q-74 72-118 172T80 500q0 110 39 205.5t107.5 168T386 987t194 41q45 0 88-8.5t82-23.5l49 82 171-99-52-91q75-72 118.5-172t43.5-216q0-109-39-204T933.5 128.5 774.5 15 580-26q-45 0-88 8.5T409 7zm1 395l277 481q-64 14-124-6t-107.5-65-75-108T306 486q0-49 15-91t42-75zm157-119q67-13 126.5 6.5t106.5 64 74 107T854 514q0 49-15.5 92T798 683z"/><glyph glyph-name="infinity" unicode="∞" horiz-adv-x="1521" d="M438 254q-111 10-191.5 60.5T123 444 80 618q0 102 45.5 183.5t126 130.5T438 982q67 0 122-20t103.5-59 97.5-98q50 59 99 98.5t103 59 116 19.5q115-1 196-51.5T1398.5 798t42.5-180q0-101-44.5-183t-125-130.5T1085 254q-67 0-121.5 19.5T860 332t-99 98q-51-60-100-100.5t-103-60T438 254zm-2 223q39 0 73 21.5t63 54 54 65.5q-27 36-56.5 68.5t-62.5 53-71 18.5q-63-3-99-46t-36-94q0-59 38-99t97-42zm651 0q64 4 99.5 46t35.5 95q0 56-36 97.5t-95 44.5q-40 0-73-19.5t-62-52-59-70.5q22-27 44-53t45.5-46 48.5-31.5 52-10.5z"/><glyph glyph-name="integral" unicode="∫" horiz-adv-x="1074" d="M355-26q-81 0-145 37.5T110.5 114 80 262l155-12q4-33 12.5-56.5T288 169t54.5 17 26.5 48l97 988q8 58 48 104.5t97.5 73.5 118.5 26q77-1 139.5-42t96.5-106.5 27-140.5l-141 13q-5 47-29 64.5t-56 13.5q-24-1-42.5-19.5T702 1159l-95-982Q583 69 512 21.5T355-26z"/><glyph glyph-name="product" unicode="∏" horiz-adv-x="1280" d="M80 1400h1120v-244H80v244zm138-166h244V0H218v1234zm600 0h244V0H818v1234z"/><glyph glyph-name="summation" unicode="∑" horiz-adv-x="923" d="M80 0v244l232 454-232 454v244h783v-244H355l231-454-231-454h508V0H80z"/><glyph glyph-name="radical" unicode="√" horiz-adv-x="1346" d="M901 1400h365v-244h-194L649 0H338L80 708h259l155-422z"/><glyph glyph-name="partialdiff" unicode="∂" horiz-adv-x="1166" d="M584-26q-139 0-253.5 68T148 224 80 476q0 104 39 195.5t108.5 161 161 108.5T584 980q46 0 87.5-16t71.5-44q-21 62-51.5 125T615 1162t-112.5 87-157.5 33l-2 244q168 0 304.5-82T882 1220t150.5-324 53.5-382q0-158-65-280T843 43 584-26zm0 244q71 0 130 35.5t93.5 94T842 476q0 71-35 130t-93.5 94.5T584 736q-72 0-131-35.5T359 606t-35-130q0-70 35-129t94-94 131-35z"/><glyph glyph-name="uni00B5" unicode="µ" horiz-adv-x="1134" d="M80-432v1432h244V489q0-77 32-141t89-101.5T575 209t125.5 37.5 81 101.5T810 489v511h244V0H810v119Q761 53 691.5 12.5T534-28q-62 0-115 21.5T324 49v-481H80z"/><glyph glyph-name="percent" unicode="%" horiz-adv-x="1508" d="M209 0l808 1400h282L491 0H209zm172 793q-82 0-150.5 39.5T121 940t-41 152q0 86 41.5 154t110 107 149.5 39q82 0 150-40t108.5-108 40.5-152q0-85-41.5-153T529 832t-148-39zm0 167q54 0 93 38.5t39 93.5q0 56-39 94t-93 38q-55 0-94.5-38t-39.5-94q0-55 39.5-93.5T381 960zM1127 7q-83 0-151 41.5t-108 110T828 306q0 86 41.5 154t110 107.5T1127 607q86 0 154-42t107.5-110.5T1428 306q0-82-40.5-150t-109-108.5T1127 7zm0 167q56 0 95 39t39 93q0 56-39 95t-95 39q-54 0-93-39t-39-95q0-54 39-93t93-39z"/><glyph glyph-name="perthousand" unicode="‰" horiz-adv-x="2156" d="M209 0l808 1400h282L491 0H209zm172 793q-82 0-150.5 39.5T121 940t-41 152q0 86 41.5 154t110 107 149.5 39q82 0 150-40.5T639.5 1243t40.5-151q0-85-41.5-153T529 832t-148-39zm0 167q54 0 93 38.5t39 93.5q0 56-39 94t-93 38q-55 0-94.5-38t-39.5-94q0-55 39.5-93.5T381 960zM1113 7q-83 0-151 41.5t-108 110T814 306q0 86 41.5 154t110 107.5T1113 607q86 0 154-42t107.5-110.5T1414 306q0-82-40.5-150t-109-108.5T1113 7zm0 167q56 0 95 39t39 93q0 56-39 95t-95 39q-54 0-93-39t-39-95q0-54 39-93t93-39zM1775 7q-84 0-152 41.5t-108 110-40 147.5q0 86 42 154t110 107.5 148 39.5q86 0 154-42t107.5-110.5T2076 306q0-82-40.5-150t-109-108.5T1775 7zm0 167q56 0 95 39t39 93q0 56-39 95t-95 39q-54 0-93-39t-39-95q0-54 39-93t93-39z"/><glyph glyph-name="arrowup" unicode="↑" horiz-adv-x="1224" d="M490 126v780L253 669 80 842l532 532 532-532-172-173-238 237V126H490z"/><glyph glyph-name="uni2197" unicode="↗" horiz-adv-x="1128" d="M252 267L80 439l552 550H294v244h754V481H804v336z"/><glyph glyph-name="arrowright" unicode="→" horiz-adv-x="1408" d="M796 218L623 390l236 238H80v244h779l-236 238 173 172 532-532z"/><glyph glyph-name="uni2198" unicode="↘" horiz-adv-x="1128" d="M296 267v244h336L80 1061l172 172 552-550v336h244V267H296z"/><glyph glyph-name="arrowdown" unicode="↓" horiz-adv-x="1223" d="M610 126L80 658l172 173 236-237v780h244V594l238 237 173-173z"/><glyph glyph-name="uni2199" unicode="↙" horiz-adv-x="1128" d="M80 267v752h244V683l552 550 172-172-552-550h336V267H80z"/><glyph glyph-name="arrowleft" unicode="←" horiz-adv-x="1406" d="M612 218L80 750l532 532 172-172-237-238h779V628H547l237-238z"/><glyph glyph-name="uni2196" unicode="↖" horiz-adv-x="1128" d="M876 266L324 818V482H80v752h752V990H497l551-552z"/><glyph glyph-name="arrowboth" unicode="↔" horiz-adv-x="1843" d="M612 218L80 750l532 532 172-172-237-238h747l-236 238 172 172 533-532-533-532-172 172 236 238H547l237-238z"/><glyph glyph-name="arrowupdn" unicode="↕" horiz-adv-x="1224" d="M612-92L80 441l172 173 238-237v746L252 887 80 1060l532 532 532-532-172-173-238 236V377l238 237 172-173z"/><glyph glyph-name="lozenge" unicode="◊" horiz-adv-x="1082" d="M328 0L60 702l266 698h430l266-698L754 0H328zm213 134l226 568-226 568-224-568z"/><glyph glyph-name="uniFFFD" unicode="�" horiz-adv-x="1630" d="M816-26q-54 0-106 20t-94 62L202 470q-42 42-62 94t-20 106 21 106 61 92l414 414q42 42 94 62t106 20 105-20 93-62l414-414q42-42 62-93t20-105-20-106-62-94L1014 56q-40-40-92-61T816-26zm5 284q35 0 59.5 25t24.5 60-24.5 58.5T821 425t-59.5-23.5T737 343t24.5-60 59.5-25zm-89 256h168v2q0 34 30 52 60 33 95 92t35 130q0 69-34 126.5t-91 91-127 33.5q-69 0-126.5-33.5t-91-91T557 790h167q0 35 24.5 59.5T808 874q36 0 60.5-24.5T893 790q0-24-11-44.5T852 715q-57-28-88.5-82T732 516v-2z"/><glyph glyph-name="uni0308" unicode="̈" horiz-adv-x="0" d="M528 1070q-54 0-91 36t-37 89 37 89.5 91 36.5q52 0 88.5-36.5T653 1195t-36.5-89-88.5-36zm396 0q-54 0-91 36t-37 89 37 89.5 91 36.5q52 0 89-36.5t37-89.5-37-89-89-36z"/><glyph glyph-name="uni0307" unicode="̇" horiz-adv-x="0" d="M528 1129q-54 0-91 35.5t-37 89.5q0 53 37 89t90 36 89.5-36 36.5-89q0-54-36-89.5t-89-35.5z"/><glyph glyph-name="gravecomb" unicode="̀" horiz-adv-x="0" d="M292 1398h244l80-288H453z"/><glyph glyph-name="acutecomb" unicode="́" horiz-adv-x="0" d="M415 1110l80 288h244l-162-288H415z"/><glyph glyph-name="uni030B" unicode="̋" horiz-adv-x="0" d="M536 1110l80 288h244l-162-288H536zm-336 0l80 288h244l-162-288H200z"/><glyph glyph-name="uni0302" unicode="̂" horiz-adv-x="0" d="M480 1398l194-288H511l-168 193-165-193H15l191 288h274z"/><glyph glyph-name="uni030C" unicode="̌" horiz-adv-x="0" d="M190 1110L-4 1398h163l167-193 166 193h163l-191-288H190z"/><glyph glyph-name="uni0306" unicode="̆" horiz-adv-x="0" d="M572 1088q-91 0-166.5 45T285 1253.5 240 1420h152q0-49 24.5-90t65.5-65.5 90-24.5q50 0 90.5 24t65 65 24.5 91h152q0-93-45-168.5T738.5 1132 572 1088z"/><glyph glyph-name="uni030A" unicode="̊" horiz-adv-x="0" d="M586 1068q-77 0-131.5 56T400 1256q0 50 25 92t67.5 67 93.5 25q76 0 130.5-54.5T771 1256q0-78-54.5-133T586 1068zm0 119q27 0 47 20t20 48q0 27-20 46.5t-47 19.5q-28 0-47.5-19.5T519 1256q0-29 19.5-49t47.5-20z"/><glyph glyph-name="tildecomb" unicode="̃" horiz-adv-x="0" d="M797 1105q-37 0-87.5 26t-101 58-88 51.5-50.5 5.5q-13-13-16-33.5t7-53.5l-143-39q-27 78-13.5 142t60 102.5T485 1403q37 0 84.5-21.5t95.5-50 85-50 53-21.5q20 0 26 14t3 34-10 38l145 47q27-82 11.5-147t-63-103-118.5-38z"/><glyph glyph-name="uni0304" unicode="̄" horiz-adv-x="0" d="M262 1327h676v-183H262v183z"/><glyph glyph-name="dotbelowcomb" unicode="̣" horiz-adv-x="0" d="M528-440q-54 0-91 35.5T400-315q0 53 37 89t90 36 89.5-36 36.5-89q0-54-36-89.5T528-440z"/><glyph glyph-name="uni0326" unicode="̦" horiz-adv-x="0" d="M400-441l62 338h244L563-441H400z"/><glyph glyph-name="uni0327" unicode="̧" horiz-adv-x="0" d="M620-376q-71-19-135 18t-83 108l124 33q5-19 23-29t38-5 30.5 22.5T622-190q-5 20-22 28.5t-39 6.5l-128-5L574 88l112-66-38-65q36-14 62.5-44t36.5-71q19-71-18-135t-109-83z"/><glyph glyph-name="uni0328" unicode="̨" horiz-adv-x="0" d="M534-452q-71 1-123.5 35T329-329t-29 114q0 45 16.5 87.5T369-49l168 168L656 0q-37-37-69-67.5t-55.5-57-37-51T481-224t17-43.5 46-20.5q38 0 66.5 27.5T639-192h155q0-70-34-129t-93-95-133-36z"/><glyph glyph-name="dieresis" unicode="¨" horiz-adv-x="1450" d="M528 1070q-54 0-91 36t-37 89 37 89.5 91 36.5q52 0 88.5-36.5T653 1195t-36.5-89-88.5-36zm396 0q-54 0-91 36t-37 89 37 89.5 91 36.5q52 0 89-36.5t37-89.5-37-89-89-36z"/><glyph glyph-name="dotaccent" unicode="˙" horiz-adv-x="1053" d="M528 1129q-54 0-91 35.5t-37 89.5q0 53 37 89t90 36 89.5-36 36.5-89q0-54-36-89.5t-89-35.5z"/><glyph glyph-name="grave" unicode="`" horiz-adv-x="1031" d="M292 1398h244l80-288H453z"/><glyph glyph-name="acute" unicode="´" horiz-adv-x="1031" d="M415 1110l80 288h244l-162-288H415z"/><glyph glyph-name="hungarumlaut" unicode="˝" horiz-adv-x="1058" d="M536 1110l80 288h244l-162-288H536zm-336 0l80 288h244l-162-288H200z"/><glyph glyph-name="circumflex" unicode="ˆ" horiz-adv-x="689" d="M480 1398l194-288H511l-168 193-165-193H15l191 288h274z"/><glyph glyph-name="caron" unicode="ˇ" horiz-adv-x="651" d="M190 1110L-4 1398h163l167-193 166 193h163l-191-288H190z"/><glyph glyph-name="breve" unicode="˘" horiz-adv-x="1144" d="M572 1088q-91 0-166.5 45T285 1253.5 240 1420h152q0-49 24.5-90t65.5-65.5 90-24.5q50 0 90.5 24t65 65 24.5 91h152q0-93-45-168.5T738.5 1132 572 1088z"/><glyph glyph-name="ring" unicode="˚" horiz-adv-x="1171" d="M586 1068q-77 0-131.5 56T400 1256q0 50 25 92t67.5 67 93.5 25q76 0 130.5-54.5T771 1256q0-78-54.5-133T586 1068zm0 119q27 0 47 20t20 48q0 27-20 46.5t-47 19.5q-28 0-47.5-19.5T519 1256q0-29 19.5-49t47.5-20z"/><glyph glyph-name="tilde" unicode="˜" horiz-adv-x="1251" d="M792 1109q-37 0-87.5 26t-101 58-88 51.5-50.5 5.5q-13-13-16-33.5t7-53.5l-143-39q-27 78-13.5 142t60 102.5T480 1407q37 0 84.5-21.5t95.5-50 85-50 53-21.5q20 0 26 14t3 34-10 38l145 47q27-82 11.5-147t-63-103-118.5-38z"/><glyph glyph-name="macron" unicode="¯" horiz-adv-x="1200" d="M262 1327h676v-183H262v183z"/><glyph glyph-name="cedilla" unicode="¸" horiz-adv-x="1278" d="M620-376q-71-19-135 18t-83 108l124 33q5-19 23-29t38-5 30.5 22.5T622-190q-5 20-22 28.5t-39 6.5l-128-5L574 88l112-66-38-65q36-14 62.5-44t36.5-71q19-71-18-135t-109-83z"/><glyph glyph-name="ogonek" unicode="˛" horiz-adv-x="1094" d="M534-452q-71 1-123.5 35T329-329t-29 114q0 45 16.5 87.5T369-49l168 168L656 0q-37-37-69-67.5t-55.5-57-37-51T481-224t17-43.5 46-20.5q38 0 66.5 27.5T639-192h155q0-70-34-129t-93-95-133-36z"/><glyph glyph-name="uni02BC" unicode="ʼ" horiz-adv-x="532" d="M40 878l62 522h244L203 878H40z"/></font>
</defs>
</svg>
